<?xml version="1.0" encoding="utf-8"?>
<!-- Generator: Adobe Illustrator 27.3.1, SVG Export Plug-In . SVG Version: 6.00 Build 0)  -->
<svg version="1.1" id="Group_2066" xmlns="http://www.w3.org/2000/svg" xmlns:xlink="http://www.w3.org/1999/xlink" x="0px" y="0px"
	 viewBox="0 0 32.3 35" style="enable-background:new 0 0 32.3 35;" xml:space="preserve">
<style type="text/css">
	.st0{fill: #ffffff;}
</style>
<path id="Path_885" class="st0" d="M24.2,16.9c0-2.5,0-5.1,0-7.6c0-0.6,0-0.6-0.6-0.6H8.9c-0.8,0-0.8,0-0.8,0.8c0,2.6,0,5.3,0,7.9h0
	v1.2c0,2.4,0,4.7,0,7.1c0,0.4,0.1,0.5,0.5,0.5c5.1,0,10.1,0,15.2,0c0.4,0,0.5-0.1,0.5-0.5C24.2,22.8,24.2,19.9,24.2,16.9z
	 M14.1,25.7c0,0.1-0.1,0.2-0.2,0.2h0h-2c-0.1,0-0.2-0.1-0.2-0.2l0,0v-0.1c0-0.1,0.1-0.2,0.2-0.2c0,0,0,0,0,0h2
	c0.1,0,0.2,0.1,0.2,0.2l0,0L14.1,25.7z M12.7,25v-1.2c0-0.1,0.1-0.2,0.2-0.2H13c0.1,0,0.2,0.1,0.2,0.2V25c0,0.1-0.1,0.2-0.2,0.2l0,0
	h-0.1C12.8,25.2,12.7,25.1,12.7,25L12.7,25L12.7,25z M15.3,22.7c0,0.4-0.2,0.6-0.6,0.6h-1.8c-0.6,0-1.2,0-1.8,0
	c-0.4,0-0.6-0.1-0.6-0.6c0-0.4,0-0.8,0-1.1c0-0.3,0.1-0.5,0.4-0.5c0,0,0.1,0,0.1,0h3.7c0.3,0,0.5,0.1,0.5,0.4c0,0,0,0.1,0,0.1V22.7z
	 M20.5,25.7c0,0.1-0.1,0.2-0.2,0.2c0,0,0,0,0,0h-2c-0.1,0-0.2-0.1-0.2-0.2l0,0v-0.1c0-0.1,0.1-0.2,0.2-0.2c0,0,0,0,0,0h2
	c0.1,0,0.2,0.1,0.2,0.2l0,0L20.5,25.7z M19.1,25v-1.2c0-0.1,0.1-0.2,0.2-0.2h0.1c0.1,0,0.2,0.1,0.2,0.2V25c0,0.1-0.1,0.2-0.2,0.2
	c0,0,0,0,0,0h-0.1C19.2,25.2,19.1,25.1,19.1,25L19.1,25L19.1,25z M21.7,22.8c0,0.4-0.2,0.5-0.5,0.5h-3.6c-0.5,0-0.6-0.1-0.6-0.6v-1
	c0-0.4,0.1-0.6,0.6-0.6c1.2,0,2.4,0,3.7,0c0.4,0,0.5,0.2,0.5,0.5C21.7,22,21.7,22.4,21.7,22.8L21.7,22.8z M23,18.9h-0.7v-0.4
	c0-0.2,0-0.3,0-0.5c0-0.1,0-0.3,0-0.4c-0.1-0.4-0.3-0.7-0.6-1c-0.3-0.2-0.6-0.3-0.9-0.3c-0.4,0-0.8,0-1.2,0c-0.1,0-0.2,0-0.3,0
	c-0.8,0.1-1.4,0.8-1.4,1.6c0,0.3,0,0.7,0,1h-1.9c-0.9,0-1.7,0-2.6,0c-1.6,0-2.4,0-4,0c-0.3,0-0.3-0.2-0.3-0.4l0-3.7v-3.4h1.6
	c0.4,0.4,0.2,1.2,0.2,1.4c-0.5,0.1-0.8,0.5-0.8,1v0.7h2v-0.7c0-0.5-0.4-0.9-0.9-1c0-0.2-0.2-1,0.2-1.4h2.3c0.4,0.4,0.2,1.2,0.2,1.4
	c-0.5,0.1-0.8,0.5-0.8,1v0.7h2v-0.7c0-0.5-0.4-0.9-0.9-1c0-0.2-0.2-1,0.2-1.4H23C23,14,23,16.4,23,18.9L23,18.9z"/>
<path id="Path_886" class="st0" d="M20.2,15.9c0.7,0,1.3-0.6,1.3-1.3c0-0.7-0.6-1.3-1.3-1.3c-0.7,0-1.3,0.6-1.3,1.3
	C18.9,15.4,19.5,15.9,20.2,15.9z"/>
</svg>
