<?xml version="1.0" encoding="utf-8"?>
<!-- Generator: Adobe Illustrator 27.3.1, SVG Export Plug-In . SVG Version: 6.00 Build 0)  -->
<svg version="1.1" id="Layer_1" xmlns="http://www.w3.org/2000/svg" xmlns:xlink="http://www.w3.org/1999/xlink" x="0px" y="0px"
	 viewBox="0 0 40 35" style="enable-background:new 0 0 40 35;" xml:space="preserve">
<style type="text/css">
	.st0{fill:#ffffff;}
</style>
<g>
	<path class="st0" d="M10,26.2c0.4-0.7,1-1.3,1.6-1.8c1.2-1,2.7-1.7,4.3-1.9c0.7-0.1,1.5-0.1,2.2,0c0.1,0,0.2-0.1,0.2-0.1
		c1-1.7,2-3.5,3-5.2c0.3-0.6,0.6-1.1,1-1.7c0.1-0.1,0.1-0.2,0-0.3c-0.5-1-1.7-1.4-2.7-0.9c-0.1,0-0.1,0.1-0.2,0.1
		c-0.1,0-0.1,0.1-0.2,0.1c0.1-0.8-0.3-1.6-1-2c-0.7-0.4-1.6-0.4-2.2,0.1c1.3-2.6,5.4-4.9,9.6-3c0.2-0.3,0.3-0.7,0.7-0.9h0.4
		c0.4,0.1,0.5,0.5,0.4,0.9c0,0.1-0.1,0.2-0.1,0.2c-0.1,0.1-0.2,0.2-0.2,0.4c0,0,0.1,0,0.1,0.1c1.5,1.1,2.6,2.6,3,4.4
		c0.1,0.3,0.1,0.7,0.2,1v1.4c0,0,0,0.1,0,0.1c-0.1,1-0.4,1.9-0.9,2.8c0,0-0.1,0.1-0.1,0.1c0.1-0.8-0.3-1.6-1-2
		c-0.7-0.4-1.6-0.4-2.2,0.1v-0.1c0.1-1.1-0.8-2-1.9-2.1c-0.1,0-0.1,0-0.2,0c-0.1,0-0.3,0.1-0.3,0.2c-0.9,1.6-1.9,3.3-2.8,4.9
		c-0.3,0.6-0.7,1.2-1,1.8c0,0,0.1,0,0.1,0.1c0.8,0.3,1.5,0.6,2.1,1.1c0.8,0.6,1.5,1.3,2,2.2H10.2C10.1,26.2,10.1,26.2,10,26.2z"/>
</g>
</svg>
