<?xml version="1.0" encoding="utf-8"?>
<!-- Generator: Adobe Illustrator 27.3.1, SVG Export Plug-In . SVG Version: 6.00 Build 0)  -->
<svg version="1.1" id="Layer_1" xmlns="http://www.w3.org/2000/svg" xmlns:xlink="http://www.w3.org/1999/xlink" x="0px" y="0px"
	 viewBox="0 0 27.1 35" style="enable-background:new 0 0 27.1 35;" xml:space="preserve">
<style type="text/css">
	.st0{fill:#ffffff;}
</style>
<g>
	<path class="st0" d="M18.9,24.7V9.3h-1.4V8.8h-3.4v0.5h-1.3V8.8H9.4v0.5H8.2v15.4H6.8v1.5h13.6v-1.5H18.9z M14.2,10.5h3.3v0.6h-3.3
		V10.5z M9.5,10.5h3.3v0.6H9.5L9.5,10.5z M11.4,23.8h-2v-2h2V23.8z M11.4,20.6h-2v-2h2V20.6z M11.4,17.5h-2v-2h2V17.5z M11.4,14.1
		h-2v-2h2V14.1z M14.5,23.8h-2v-2h2L14.5,23.8z M14.5,20.6h-2v-2h2L14.5,20.6z M14.5,17.5h-2v-2h2L14.5,17.5z M14.5,14.1h-2v-2h2
		L14.5,14.1z M17.7,24.9h-2v-3.4h2V24.9z M17.7,20.6h-2v-2h2V20.6z M17.7,17.5h-2v-2h2V17.5z M17.7,14.1h-2v-2h2V14.1z"/>
</g>
</svg>
