<?xml version="1.0" encoding="utf-8"?>
<!-- Generator: Adobe Illustrator 27.3.1, SVG Export Plug-In . SVG Version: 6.00 Build 0)  -->
<svg version="1.1" id="Layer_1" xmlns="http://www.w3.org/2000/svg" xmlns:xlink="http://www.w3.org/1999/xlink" x="0px" y="0px"
	 viewBox="0 0 46.7 35" style="enable-background:new 0 0 46.7 35;" xml:space="preserve">
<style type="text/css">
	.st0{fill:#FFFFFF;}
</style>
<g>
	<path class="st0" d="M35,26.2H11.7v-1.9h1v-6.8c0-0.5-0.4-0.9-0.9-1c0,0-0.1,0-0.1,0v-4.9h1.9v1.9h1.9v-1.9h1.9v3.9h1V8.8h1.9v1.9
		h1.9V8.8h1.9v1.9h1.9V8.8h1.9v6.8h1v-3.9h1.9v1.9h1.9v-1.9H35v4.9c-0.5,0-0.9,0.4-1,0.9c0,0,0,0.1,0,0.1v6.8h1L35,26.2z M25.3,25.3
		v-3.9c0-1.1-0.9-1.9-1.9-1.9s-1.9,0.9-1.9,1.9c0,0,0,0,0,0v3.9H25.3z M16.5,20.4v-1.9c0-0.5-0.4-0.9-0.9-1c0,0-0.1,0-0.1,0
		c-0.5,0-0.9,0.4-1,0.9c0,0,0,0.1,0,0.1v1.9L16.5,20.4z M32.1,20.4v-1.9c0-0.5-0.4-1-1-1s-1,0.4-1,1v1.9L32.1,20.4z M24.3,16.5v-1.9
		c0-0.5-0.4-1-1-1s-1,0.4-1,1v1.9H24.3z"/>
</g>
</svg>
