<?xml version="1.0" encoding="utf-8"?>
<!-- Generator: Adobe Illustrator 27.3.1, SVG Export Plug-In . SVG Version: 6.00 Build 0)  -->
<svg version="1.1" id="Layer_1" xmlns="http://www.w3.org/2000/svg" xmlns:xlink="http://www.w3.org/1999/xlink" x="0px" y="0px"
	 viewBox="0 0 65.5 65.5" style="enable-background:new 0 0 65.5 65.5;" xml:space="preserve">
<style type="text/css">
	.st0{fill:#FFFFFF;}
	.st1{fill:#C5C5C5;}
</style>
<rect class="st0" width="65.5" height="65.5"/>
<g id="photo" transform="translate(167 571)">
	<path id="Caminho_2381" class="st1" d="M-124.3-551H-144c-1.8,0-3.3,1.5-3.3,3.3v19.7c0,1.8,1.5,3.3,3.3,3.3h19.7
		c1.8,0,3.3-1.5,3.3-3.3v-19.7C-121-549.5-122.5-551-124.3-551z M-144-548.8h19.7c0.6,0,1.1,0.5,1.1,1.1v7.8l-3.6-3.6
		c-0.4-0.4-1.1-0.4-1.5,0l-7.7,7.7l-2.8-2.8c-0.4-0.4-1.1-0.4-1.5,0l-4.7,4.7v-13.8C-145.1-548.3-144.6-548.8-144-548.8z
		 M-124.3-526.9H-144c-0.6,0-1.1-0.5-1.1-1.1v-2.8l5.5-5.5l6.3,6.3c0.4,0.4,1.1,0.4,1.5,0s0.4-1.1,0-1.5l-2.8-2.8l6.9-6.9l4.4,4.4
		v8.9C-123.2-527.4-123.7-526.9-124.3-526.9L-124.3-526.9z"/>
	<path id="Caminho_2382" class="st1" d="M-138.5-544.4c0,1.2-1,2.2-2.2,2.2s-2.2-1-2.2-2.2s1-2.2,2.2-2.2
		C-139.5-546.6-138.5-545.6-138.5-544.4z"/>
</g>
</svg>
