<svg xmlns="http://www.w3.org/2000/svg" xmlns:xlink="http://www.w3.org/1999/xlink" width="206.58" height="167.303" viewBox="0 0 206.58 167.303">
    <defs>
        <linearGradient id="34itg2a24a" x1="-.258" y1="1" x2="-.258" gradientUnits="objectBoundingBox">
            <stop offset="0" stop-color="gray" stop-opacity=".251"/>
            <stop offset=".54" stop-color="gray" stop-opacity=".122"/>
            <stop offset="1" stop-color="gray" stop-opacity=".102"/>
        </linearGradient>
        <linearGradient id="ur2os6f16b" x1="-.256" y1="1.181" x2="-.256" y2=".181" xlink:href="#34itg2a24a"/>
        <linearGradient id="gjdmmjqg2c" x1="-3.508" x2="-3.508" y2="-.005" xlink:href="#34itg2a24a"/>
        <linearGradient id="tmdtv1a15d" x1="-8.365" x2="-8.365" y2="-.002" xlink:href="#34itg2a24a"/>
        <linearGradient id="9tp2sa5aae" x1="-.265" y1="1.181" x2="-.265" y2=".181" xlink:href="#34itg2a24a"/>
        <linearGradient id="w6nbio8wzf" x1="11.28" y1="1.002" x2="11.28" y2="0" xlink:href="#34itg2a24a"/>
        <linearGradient id="rl78o3hsrg" x1="1.022" y1=".86" x2="1.022" y2="-.14" xlink:href="#34itg2a24a"/>
        <linearGradient id="ewirazi9wh" x1="1.465" y1=".706" x2="1.465" y2="-.247" xlink:href="#34itg2a24a"/>
        <linearGradient id="60rgycs2ei" x1="1.739" x2="1.739" y2="0" xlink:href="#34itg2a24a"/>
    </defs>
    <g data-name="Grupo 9416" transform="translate(-.004 -.002)">
        <path data-name="Caminho 2054" d="M278.7 117.19c2.348 4.822.854 11.739 4.179 15.68 2.438 2.89 6.486 2.874 9.251 5.312 2.151 1.9 3.223 5.017 4.2 7.972l4.737 14.368c2.157 6.544 4 14.967-.345 19.764-2.6 2.874-6.54 3.2-10.1 2.894-25.746-2.215-46.454-28.182-72.111-31.532-18.135-2.369-36.052 6.956-54.291 6.441-9.647-.273-19.066-3.284-28.375-6.289-7.159-2.305-15.1-5.337-18.518-13.108-1.525-3.473-2-7.668-4.265-10.524-1.736-2.19-4.247-3.227-6.4-4.813-9.4-6.913-10.468-22.4-9.657-35.428.454-7.229 1.221-14.631 4.081-21.047s8.239-11.722 14.38-11.932c3.883-.133 7.595 1.718 11.373 2.753s8.21 1.065 11.047-2.053c2.328-2.56 3.058-6.671 5.386-9.237 1.812-1.993 4.341-2.767 6.786-3.241 13.147-2.551 27.154 1.864 37.462 11.833 2.5 2.42 4.893 5.22 7.956 6.451 4.078 1.652 8.537.252 12.849.287 15.214.123 25.532 16.589 36.255 26.969 6.269 6.069 12.332 7.377 19.134 11.421 4.209 2.511 12.448 11.848 14.986 17.059z" transform="translate(-96.78 -42.46)" style="opacity:.1;fill:#232323"/>
        <path data-name="Caminho 2055" d="M303.652 698.559c.881 1.891-.38 3.931.057 5.883.552 2.463 3.717 4.38 7.127 5.6s7.217 1.966 10.54 3.284c1.437.569 2.935 1.617 2.188 2.582a3.309 3.309 0 0 1-1.217.788c-9.68 4.466-21.645 6.893-33.6 6.815-12.644-.084-25.025-2.874-37.659-2.553-16.293.411-32.053 5.965-48.166 4.364-6.839-.679-13.194-2.617-19.853-3.826-9.795-1.78-20.1-1.958-30.241-2.543-7.617-.439-16.322-1.578-19.961-5.86-2.631-3.1-1.527-7.184 2.18-9.805s9.631-3.746 15.1-3.241c2.941.273 5.864.981 8.806.7a24.16 24.16 0 0 0 4.842-1.133c12.051-3.736 24.535-7.463 37.911-8.005 21.757-.889 41.924 6.681 63.121 9.955 3.3.509 6.884.9 10 .047 3.284-.9 5.439-3.03 8.73-3.927 1.562-.427 3.3-.55 4.838-1.014 4.22-1.277 2.258-3.032 8.116-1.847 3.064.629 6.155 1.626 7.141 3.736z" transform="translate(-124.31 -558.308)" style="opacity:.1;fill:#232323"/>
        <path data-name="Caminho 2056" d="M847.588 424.54a27.3 27.3 0 0 0-4.984 28.42c6.47 16.975-11.084 45.225-11.084 45.225s.189-.027.536-.088a33.322 33.322 0 0 0 22.115-51c-4.851-7.423-8.841-16.132-6.583-22.557z" transform="translate(-680.705 -346.113)" style="fill:#232323"/>
        <path data-name="Caminho 2057" d="M847.588 424.54a27.3 27.3 0 0 0-4.984 28.42c6.47 16.975-11.084 45.225-11.084 45.225s.189-.027.536-.088a33.322 33.322 0 0 0 22.115-51c-4.851-7.423-8.841-16.132-6.583-22.557z" transform="translate(-680.705 -346.113)" style="opacity:.1"/>
        <path data-name="Caminho 2058" d="M847.619 424.54s-6.461 14.029 0 25.475 1.108 43.564-16.059 48.178" transform="translate(-680.737 -346.113)" style="stroke:#535461;fill:none;stroke-miterlimit:10"/>
        <path data-name="Caminho 2059" d="M856.7 649.507s-13.061-2.079-14.251 9.625-25.111 13.328-25.111 13.328.156.107.45.3c19.752 12.966 38.634 8.26 35.787-8.958-1.058-6.402-.975-12.834 3.125-14.295z" transform="translate(-669.436 -524.79)" style="fill:#232323"/>
        <path data-name="Caminho 2060" d="M856.7 649.507s-13.061-2.079-14.251 9.625-25.111 13.328-25.111 13.328.156.107.45.3c19.752 12.966 38.634 8.26 35.787-8.958-1.058-6.402-.975-12.834 3.125-14.295z" transform="translate(-669.436 -524.79)" style="opacity:.2;fill:#f5f5f5"/>
        <path data-name="Caminho 2061" d="M856.7 650.06s-10.138 2.225-9.3 11.443-15.054 20.267-30.058 11.509" transform="translate(-669.436 -525.343)" style="stroke:#535461;fill:none;stroke-miterlimit:10"/>
        <path data-name="Caminho 2062" d="M509.493 60.35h64.246a6.363 6.363 0 0 1 6.363 6.343v140.673a6.363 6.363 0 0 1-6.363 6.342h-64.246a6.363 6.363 0 0 1-6.363-6.343V66.692a6.363 6.363 0 0 1 6.363-6.342z" transform="translate(-419.72 -56.676)" style="fill:url(#34itg2a24a)"/>
        <rect data-name="Retângulo 145" width="75.798" height="151.596" rx="5" transform="rotate(180 79.895 78.222)" style="fill:#535461"/>
        <path data-name="Retângulo 146" transform="rotate(180 77.105 71.171)" style="fill:#fff" d="M0 0h64.634v123.391H0z"/>
        <circle data-name="Elipse 121" cx=".587" cy=".587" r=".587" transform="translate(128.944 11.314)" style="fill:#fff"/>
        <rect data-name="Retângulo 147" width="12.927" height="1.176" rx=".588" transform="rotate(180 63.297 6.244)" style="fill:#fff"/>
        <circle data-name="Elipse 122" cx="4.113" cy="4.113" r="4.113" transform="translate(118.074 144.106)" style="fill:#fff"/>
        <path data-name="Retângulo 148" transform="translate(96.747 29.92)" style="fill:url(#ur2os6f16b)" d="M0 0h48.221v48.221H0z"/>
        <path data-name="Retângulo 149" transform="rotate(180 72.13 38.716)" style="fill:#fff" d="M0 0h46.801v46.801H0z"/>
        <path data-name="Retângulo 150" transform="rotate(180 71.064 32.321)" style="opacity:.5;fill:#232323" d="M0 0h42.538v31.877H0z"/>
        <path data-name="Caminho 2063" d="M704 263.874a5.071 5.071 0 0 0 2.272-2.116 2.825 2.825 0 0 1 1.184-1.338 4.748 4.748 0 0 1 .79-.359" transform="translate(-579.36 -215.394)" style="stroke-width:2px;stroke:#535461;fill:none;stroke-miterlimit:10"/>
        <path data-name="Caminho 2064" d="M724.962 255.621a3.152 3.152 0 0 0-.382.86 3.168 3.168 0 0 0 .905-.263.4.4 0 1 0-.521-.6z" transform="translate(-595.716 -211.789)" style="fill:#232323"/>
        <path data-name="Caminho 2065" d="M719.848 256.344a3.188 3.188 0 0 0 .148.93 3.153 3.153 0 0 0 .616-.712.4.4 0 1 0-.764-.218z" transform="translate(-591.947 -212.211)" style="fill:#232323"/>
        <path data-name="Caminho 2066" d="M712.325 262.306a3.329 3.329 0 0 0 .6.729 3.18 3.18 0 0 0 .172-.926.4.4 0 0 0-.768.205z" transform="translate(-585.967 -216.788)" style="fill:#232323"/>
        <path data-name="Caminho 2067" d="M707.835 268.942a.52.52 0 1 0 .79-.064.4.4 0 1 0-.79.064z" transform="translate(-582.407 -222.112)" style="fill:#232323"/>
        <path data-name="Caminho 2068" d="M719.941 262.11a3.191 3.191 0 0 1-.821-.466 3.178 3.178 0 0 1 .885-.326.4.4 0 0 1-.066.79z" transform="translate(-591.376 -216.393)" style="fill:#232323"/>
        <path data-name="Caminho 2069" d="M715.232 269.631c-.205-.082-.642-.69-.642-.69a3.142 3.142 0 0 1 .94-.047.4.4 0 1 1-.3.735z" transform="translate(-587.776 -222.393)" style="fill:#232323"/>
        <path data-name="Caminho 2070" d="M708.579 276.043a3.343 3.343 0 0 1-.749-.571 3.134 3.134 0 0 1 .92-.205.4.4 0 1 1-.17.776z" transform="translate(-582.404 -227.475)" style="fill:#232323"/>
        <path data-name="Caminho 2071" d="M724.962 255.621a3.152 3.152 0 0 0-.382.86 3.168 3.168 0 0 0 .905-.263.4.4 0 1 0-.521-.6z" transform="translate(-595.716 -211.789)" style="opacity:.1;fill:#232323"/>
        <path data-name="Caminho 2072" d="M719.848 256.344a3.188 3.188 0 0 0 .148.93 3.153 3.153 0 0 0 .616-.712.4.4 0 1 0-.764-.218z" transform="translate(-591.947 -212.211)" style="opacity:.1;fill:#232323"/>
        <path data-name="Caminho 2073" d="M712.325 262.306a3.329 3.329 0 0 0 .6.729 3.18 3.18 0 0 0 .172-.926.4.4 0 0 0-.768.205z" transform="translate(-585.967 -216.788)" style="opacity:.1;fill:#232323"/>
        <path data-name="Caminho 2074" d="M707.835 268.942a.52.52 0 1 0 .79-.064.4.4 0 1 0-.79.064z" transform="translate(-582.407 -222.112)" style="opacity:.1;fill:#232323"/>
        <path data-name="Caminho 2075" d="M719.941 262.11a3.191 3.191 0 0 1-.821-.466 3.178 3.178 0 0 1 .885-.326.4.4 0 0 1-.066.79z" transform="translate(-591.376 -216.393)" style="opacity:.1;fill:#232323"/>
        <path data-name="Caminho 2076" d="M715.232 269.631c-.205-.082-.642-.69-.642-.69a3.142 3.142 0 0 1 .94-.047.4.4 0 1 1-.3.735z" transform="translate(-587.776 -222.393)" style="opacity:.1;fill:#232323"/>
        <path data-name="Caminho 2077" d="M708.579 276.043a3.343 3.343 0 0 1-.749-.571 3.134 3.134 0 0 1 .92-.205.4.4 0 1 1-.17.776z" transform="translate(-582.404 -227.475)" style="opacity:.1;fill:#232323"/>
        <path data-name="Caminho 2078" d="M633.924 313.23s-.632 1.242-.117 1.921-.047 2.531-.047 2.531" transform="translate(-523.414 -257.65)" style="stroke:#232323;fill:none;stroke-miterlimit:10"/>
        <path data-name="Caminho 2079" d="M634.25 309.663a.252.252 0 1 0 .177-.433.731.731 0 0 0-.177.433z" transform="translate(-523.927 -254.471)" style="fill:#232323"/>
        <path data-name="Caminho 2080" d="M633.181 313.23s.632 1.242.117 1.921.047 2.531.047 2.531" transform="translate(-522.998 -257.65)" style="stroke:#232323;fill:none;stroke-miterlimit:10"/>
        <path data-name="Caminho 2081" d="M632.819 309.663a.252.252 0 1 1-.177-.433.73.73 0 0 1 .177.433z" transform="translate(-522.449 -254.471)" style="fill:#232323"/>
        <path data-name="Caminho 2082" d="M632.819 309.663a.252.252 0 1 1-.177-.433.73.73 0 0 1 .177.433z" transform="translate(-522.449 -254.471)" style="opacity:.1"/>
        <path data-name="Caminho 2083" d="M631.074 313.23s-.632 1.242-.117 1.921-.047 2.531-.047 2.531" transform="translate(-521.149 -257.65)" style="stroke:#232323;fill:none;stroke-miterlimit:10"/>
        <path data-name="Caminho 2084" d="M631.4 309.663a.252.252 0 1 0 .177-.433.731.731 0 0 0-.177.433z" transform="translate(-521.662 -254.471)" style="fill:#232323"/>
        <path data-name="Caminho 2085" d="M631.2 314.545a.731.731 0 0 0 .427.191.616.616 0 0 0-.6-.616.73.73 0 0 0 .173.425z" transform="translate(-521.368 -258.358)" style="fill:#232323"/>
        <path data-name="Caminho 2086" d="M631.125 318.715a.731.731 0 0 0 .427.191.616.616 0 0 0-.6-.616.731.731 0 0 0 .173.425z" transform="translate(-521.304 -261.672)" style="fill:#232323"/>
        <path data-name="Caminho 2087" d="M635.592 321.841a.731.731 0 0 0-.152.443.616.616 0 0 0 .569-.655.731.731 0 0 0-.417.212z" transform="translate(-524.872 -264.326)" style="fill:#232323"/>
        <path data-name="Caminho 2088" d="M634.445 313.38a.731.731 0 0 0-.265.386.616.616 0 0 0 .723-.478.731.731 0 0 0-.458.092z" transform="translate(-523.871 -257.691)" style="fill:#232323"/>
        <path data-name="Caminho 2089" d="M634.445 313.38a.731.731 0 0 0-.265.386.616.616 0 0 0 .723-.478.731.731 0 0 0-.458.092z" transform="translate(-523.871 -257.691)" style="opacity:.1"/>
        <path data-name="Caminho 2090" d="M630.321 313.23s.632 1.242.117 1.921.047 2.531.047 2.531" transform="translate(-520.725 -257.65)" style="stroke:#232323;fill:none;stroke-miterlimit:10"/>
        <path data-name="Caminho 2091" d="M629.959 309.663a.252.252 0 1 1-.177-.433.73.73 0 0 1 .177.433z" transform="translate(-520.176 -254.471)" style="fill:#232323"/>
        <path data-name="Caminho 2092" d="M629.959 309.663a.252.252 0 1 1-.177-.433.73.73 0 0 1 .177.433z" transform="translate(-520.176 -254.471)" style="opacity:.1"/>
        <path data-name="Caminho 2093" d="M629.687 315.573a.731.731 0 0 1 .179.433.616.616 0 0 1-.616-.616.73.73 0 0 1 .437.183z" transform="translate(-519.953 -259.367)" style="fill:#232323"/>
        <path data-name="Caminho 2094" d="M629.687 315.573a.731.731 0 0 1 .179.433.616.616 0 0 1-.616-.616.73.73 0 0 1 .437.183z" transform="translate(-519.953 -259.367)" style="opacity:.1"/>
        <path data-name="Caminho 2095" d="M628.077 321.353a.731.731 0 0 1 .179.433.616.616 0 0 1-.616-.616.731.731 0 0 1 .437.183z" transform="translate(-518.674 -263.961)" style="fill:#232323"/>
        <path data-name="Caminho 2096" d="M628.6 318.406a1.357 1.357 0 0 0-.915-.616" transform="translate(-518.705 -261.274)" style="stroke:#232323;fill:none;stroke-miterlimit:10"/>
        <path data-name="Caminho 2097" d="M633.58 316.616a1.357 1.357 0 0 1 .92-.616" transform="translate(-523.394 -259.852)" style="stroke:#232323;fill:none;stroke-miterlimit:10"/>
        <path data-name="Caminho 2098" d="M630.275 320.816a1.357 1.357 0 0 0-.915-.616" transform="translate(-520.04 -263.19)" style="stroke:#232323;fill:none;stroke-miterlimit:10"/>
        <circle data-name="Elipse 123" cx=".099" cy=".099" r=".099" transform="translate(108.893 56.415)" style="fill:#232323"/>
        <circle data-name="Elipse 124" cx=".099" cy=".099" r=".099" transform="translate(110.992 56.06)" style="fill:#232323"/>
        <path data-name="Caminho 2099" d="M632.46 321.776a1.357 1.357 0 0 1 .915-.616" transform="translate(-522.504 -263.953)" style="stroke:#232323;fill:none;stroke-miterlimit:10"/>
        <circle data-name="Elipse 125" cx=".099" cy=".099" r=".099" transform="translate(110.763 57.115)" style="fill:#232323"/>
        <circle data-name="Elipse 126" cx=".099" cy=".099" r=".099" transform="translate(109.213 56.918)" style="fill:#232323"/>
        <path data-name="Caminho 2100" d="M622.2 327.9a3.394 3.394 0 0 0 1.162-.429c.244-.246 1.346-.673 1.468-.367s1.642 1.346.616 1.529a9.012 9.012 0 0 1-2.753.123c-.306-.116-.493-.856-.493-.856z" transform="translate(-514.35 -268.596)" style="fill:#a8a8a8"/>
        <path data-name="Caminho 2101" d="M625.443 332.006a9.02 9.02 0 0 1-2.753.123c-.234-.092-.394-.542-.46-.749h-.03s.183.735.489.856a8.949 8.949 0 0 0 2.753-.123c.3-.053.386-.177.353-.335-.023.109-.128.187-.352.228z" transform="translate(-514.35 -272.075)" style="opacity:.2"/>
        <path data-name="Caminho 2102" d="M736.085 323.06s-.3.4.14.993.809 1.1.661 1.476c0 0-.669-1.11-1.211-1.127s-.187-.675.41-1.342z" transform="translate(-604.32 -265.463)" style="fill:#232323"/>
        <path data-name="Caminho 2103" d="M736.085 323.06a.491.491 0 0 0-.062.125c-.532.616-.821 1.2-.3 1.219.474.014 1.045.864 1.182 1.078a.456.456 0 0 1-.016.049s-.669-1.11-1.211-1.127-.19-.677.407-1.344z" transform="translate(-604.32 -265.463)" style="opacity:.1"/>
        <path data-name="Caminho 2104" d="M736 325.174c0 .14.016.252.035.252s.035-.113.035-.252-.021-.074-.039-.074-.031-.065-.031.074z" transform="translate(-604.792 -267.072)" style="fill:#ffd037"/>
        <path data-name="Caminho 2105" d="M734.716 325.957c.123.068.23.107.238.09s-.082-.084-.205-.152-.074-.018-.084 0-.065-.005.051.062z" transform="translate(-603.713 -267.689)" style="fill:#ffd037"/>
        <path data-name="Caminho 2106" d="M743.281 323.06s.3.4-.14.993-.809 1.1-.661 1.476c0 0 .669-1.11 1.211-1.127s.188-.675-.41-1.342z" transform="translate(-609.916 -265.463)" style="fill:#232323"/>
        <path data-name="Caminho 2107" d="M743.347 323.06a.491.491 0 0 1 .062.125c.532.616.821 1.2.3 1.219-.474.014-1.045.864-1.182 1.078a.471.471 0 0 0 .016.049s.669-1.11 1.211-1.127.19-.677-.407-1.344z" transform="translate(-609.981 -265.463)" style="opacity:.1"/>
        <path data-name="Caminho 2108" d="M748.98 325.174c0 .14-.016.252-.035.252s-.035-.113-.035-.252.021-.074.039-.074.031-.065.031.074z" transform="translate(-615.052 -267.072)" style="fill:#ffd037"/>
        <path data-name="Caminho 2109" d="M749.266 325.957c-.123.068-.23.107-.238.09s.082-.084.205-.152.074-.018.084 0 .072-.005-.051.062z" transform="translate(-615.145 -267.689)" style="fill:#ffd037"/>
        <path data-name="Caminho 2110" d="M736.575 333.083a3.158 3.158 0 0 1-1.1-.205c-.255-.179-1.3-.4-1.367-.107s-1.273 1.449-.316 1.457a8.129 8.129 0 0 0 2.477-.3c.253-.158.306-.845.306-.845z" transform="translate(-602.744 -273.067)" style="fill:#a8a8a8"/>
        <path data-name="Caminho 2111" d="M733.786 335.873a8.4 8.4 0 0 0 2.477-.3c.2-.119.271-.542.3-.739h.029s-.053.684-.308.837a8.13 8.13 0 0 1-2.477.3c-.277 0-.372-.1-.365-.246.032.092.139.148.344.148z" transform="translate(-602.756 -274.817)" style="opacity:.2"/>
        <path data-name="Caminho 2112" d="M637.861 284.2a1.366 1.366 0 0 0 .347.435 1.847 1.847 0 0 0 1.566.443 1.455 1.455 0 0 0 .177-.053 3.9 3.9 0 0 1 .127 2.159l-.047.681a1.927 1.927 0 0 0 .253.166l-.014.055-.029.119a1.984 1.984 0 0 0 1.714 2.5 16.273 16.273 0 0 0 3.82.318 7.626 7.626 0 0 1 2.241.16c.125.027.236.055.333.082a1.366 1.366 0 0 0 .538.035 1.3 1.3 0 0 0 .224-.051 1.261 1.261 0 0 0 .3-.138l.035-.023h.01l.025-.016h.01l.029-.021.029-.025.018-.016.018-.018.023-.025.012-.016v-.01l.012-.016.016-.023v-.053c.281-.5-.248-1.039-.248-1.039a3.489 3.489 0 0 0-2.108-.682h-.158l-.016-.029-.021-.043h.012l-.029-.029a.78.78 0 0 1-.037-.1l.012-.016-.023-.01-.025-.076.01-.016-.021-.016-.023-.086.012-.018-.021-.012a.483.483 0 0 0-.021-.094l.012-.023-.018-.012v-.039l.014-.021-.018-.01a.177.177 0 0 0-.012-.08l.012-.021-.016-.012v-.1l.016-.021-.018-.01v-.096a.113.113 0 0 0-.109-.107h-.053c0-.062.012-.181.027-.359v-.147q.018-.205.047-.5l.016-.168v-1.077l.012-.1v-.033l.012-.113a1.217 1.217 0 0 0-.205-1.008v-.037l.045.027.09.049.041.023.037.018.078.039.029.014.029.014.033.016.025.012h.02l.023.01.025.01h.074a.081.081 0 0 1 .014-.055V284.279l-.014-.037-.014-.029-.018-.033-.018-.027-.023-.029-.023-.025-.027-.027-.027-.023-.031-.023L647 284l-.035-.021-.035-.018-.074-.035a1.524 1.524 0 0 0-.316-.092c-.205-.511-1.059-.029-1.059-.029v.1h-.045l-1.088.142a1.011 1.011 0 0 1-.123-.3 9.063 9.063 0 0 0-.667-1.589 2.508 2.508 0 0 0-.663-1.232l-.018-.066a4.665 4.665 0 0 1-.129-.616 1.136 1.136 0 0 0 .166-.71 1.342 1.342 0 0 0 .942-1.273 1.315 1.315 0 0 0-.027-.267.343.343 0 0 0 .205-.205 1.853 1.853 0 0 0-.269-.936l-.033-.066a1.31 1.31 0 0 0-1.677-.729 1.958 1.958 0 0 0-1.256 1.186.57.57 0 0 1-.205.333 1.029 1.029 0 0 0-.16.08.257.257 0 0 0-.076.152 5.788 5.788 0 0 0-.6.521 3.809 3.809 0 0 1-.386.363c-.3.23-.7.337-.979.591a1.71 1.71 0 0 0-.482 1.289c0 .47.107.936.14 1.406a2.028 2.028 0 0 1-.3 1.353 1.887 1.887 0 0 0-.236.335.671.671 0 0 0 .346.533zm7.426.349-.023-.012.076-.027zm-1.264 3.58a11.224 11.224 0 0 0 1.753-1.9 8.794 8.794 0 0 0 .07.907v.141c.031.193.062.464.078.6a.074.074 0 0 0-.062.072l-.016.79v.045a17.314 17.314 0 0 1-1.823-.659z" transform="translate(-526.518 -228.049)" style="fill:url(#gjdmmjqg2c)"/>
        <path data-name="Caminho 2113" d="M664.738 318.8c.039.616.174 1.254.579 1.1a1.462 1.462 0 0 0 .32-.187 10.969 10.969 0 0 0 1.689-1.866 8.791 8.791 0 0 0 .068.893c.045.205.111.821.111.821h.821s.045-.8.246-2.543-1.406-1.071-1.406-1.071l-1.5 1.154-.934.72s0 .138-.012.341a5.321 5.321 0 0 0 .018.638z" transform="translate(-548.14 -259.704)" style="fill:#8c8296"/>
        <path data-name="Caminho 2114" d="M664.718 318.814c.039.616.174 1.254.579 1.1a1.462 1.462 0 0 0 .32-.187 10.966 10.966 0 0 0 1.689-1.866 8.793 8.793 0 0 0 .068.893c.033.144.076.5.1.7a.5.5 0 0 0 .014.127h.821v-.1c.018-.259.078-1.053.24-2.447.205-1.741-1.406-1.071-1.406-1.071l-1.5 1.154-.934.72s0 .138-.012.341a5.29 5.29 0 0 0 .021.636z" transform="translate(-548.12 -259.72)" style="opacity:.1"/>
        <path data-name="Caminho 2115" d="M678.22 333.424a.5.5 0 0 0 .014.127h.821v-.1l-.821-.035z" transform="translate(-558.871 -273.696)" style="opacity:.1"/>
        <path data-name="Caminho 2116" d="m677.86 334.694 1.437.267a.876.876 0 0 1-.14-.205 2.627 2.627 0 0 1-.205-.965.109.109 0 0 0-.1-.1l-.872-.037a.072.072 0 0 0-.076.072l-.016.776z" transform="translate(-558.585 -273.879)" style="fill:#e7c4c3"/>
        <path data-name="Caminho 2117" d="m677.86 337.977 1.437.267a.878.878 0 0 1-.14-.205 6.088 6.088 0 0 1-1.283-.259z" transform="translate(-558.585 -277.161)" style="opacity:.1"/>
        <path data-name="Caminho 2118" d="M652.917 330.506a15.394 15.394 0 0 0 3.68.312 7.252 7.252 0 0 1 2.479.238 1.254 1.254 0 0 0 1.026-.15c.835-.544.072-1.338.072-1.338a3.323 3.323 0 0 0-2.03-.669 10.375 10.375 0 0 1-3.227-.924l-.23-.1-.092-1.141-.041-.511-.548.205-2.584.981-.127.53-.029.117a1.939 1.939 0 0 0 1.651 2.45z" transform="translate(-537.413 -267.974)" style="fill:#8c8296"/>
        <path data-name="Caminho 2119" d="m651.266 332.527.029-.117.127-.53.082-.031-.1.411-.029.117a1.945 1.945 0 0 0 1.642 2.463 15.393 15.393 0 0 0 3.68.312 7.252 7.252 0 0 1 2.479.218 1.254 1.254 0 0 0 1.026-.15 1.072 1.072 0 0 0 .205-.17.9.9 0 0 1-.318.328 1.254 1.254 0 0 1-1.026.15 7.252 7.252 0 0 0-2.48-.238 15.379 15.379 0 0 1-3.68-.312 1.933 1.933 0 0 1-1.637-2.451z" transform="translate(-537.412 -272.448)" style="opacity:.1"/>
        <path data-name="Caminho 2120" d="m655 290.687 1.437.177.692.224-.051-.166a2.71 2.71 0 0 1 .051-1.929c.468-.737-1.232 0-1.232 0a1.751 1.751 0 0 1-.665 1.507 2.481 2.481 0 0 1-.224.17z" transform="translate(-540.418 -238.127)" style="fill:#ffc7d1"/>
        <path data-name="Caminho 2121" d="m671.34 313.967 2.03-.267s1.182.023.936.936a5.509 5.509 0 0 1-1.049-.581l-1.383.513z" transform="translate(-553.404 -258.024)" style="fill:#ffc7d1"/>
        <path data-name="Caminho 2122" d="m671.34 313.959.536.6.716-.265.667-.248c.115.082.23.156.339.222a5.3 5.3 0 0 0 .71.359c.183-.677-.421-.866-.745-.918a1.542 1.542 0 0 0-.191-.021l-.821.107z" transform="translate(-553.404 -258.016)" style="opacity:.1"/>
        <circle data-name="Elipse 127" cx="1.316" cy="1.316" r="1.316" transform="translate(114.991 48.925)" style="fill:#ffc7d1"/>
        <path data-name="Caminho 2123" d="M651.59 324.646a1.776 1.776 0 0 0 2.668-.821l.045-.047a1.4 1.4 0 0 1 .577-.335 1.176 1.176 0 0 1 .411-.041 7.575 7.575 0 0 1-.06-.864c0-.146 0-.3.012-.458l-.934.72s0 .138-.012.341l-2.58.975z" transform="translate(-537.708 -264.684)" style="opacity:.1"/>
        <path data-name="Caminho 2124" d="m655.07 297.341 1.437.176.692.224s-.021-.062-.051-.166l-.031-.031a1.373 1.373 0 0 0-.794-.425 1.706 1.706 0 0 1-.281-.047.981.981 0 0 0-.735.078 1.007 1.007 0 0 0-.224.17z" transform="translate(-540.473 -244.778)" style="opacity:.1"/>
        <path data-name="Caminho 2125" d="m648.944 304.046-.045.669a1.81 1.81 0 0 0 2.855-.692 1.328 1.328 0 0 1 1.026-.425 7.59 7.59 0 0 1-.06-.864 4.992 4.992 0 0 1 .06-.874 11.636 11.636 0 0 0-.135-2.416l-.029-.205a2.492 2.492 0 0 0-.72-1.453 1.373 1.373 0 0 0-.794-.425 1.7 1.7 0 0 1-.281-.047 1.023 1.023 0 0 0-1.252.692 6.183 6.183 0 0 0-.536 1.437s-.92 1.611-.357 2.276c.613.71.268 2.327.268 2.327z" transform="translate(-535.246 -244.971)" style="fill:#ffe09c"/>
        <path data-name="Caminho 2126" d="m677.25 313.839.039.5.667-.248c.115.082.23.156.339.222a1.382 1.382 0 0 0 0-.443.54.54 0 0 0-.031-.115 1.535 1.535 0 0 0-.191-.021z" transform="translate(-558.101 -258.048)" style="opacity:.1"/>
        <path data-name="Caminho 2127" d="m675.25 314.878.433-.205.347-.168.445-.411a1.17 1.17 0 0 0 .267-1.026c-.111-.669-1.049-.133-1.049-.133l.068.87a.327.327 0 0 1-.17.129.821.821 0 0 1-.205.049z" transform="translate(-556.511 -257.254)" style="fill:#ffc7d1"/>
        <path data-name="Caminho 2128" d="M639.933 284.054a1.848 1.848 0 0 1 .228-.33 2.026 2.026 0 0 0 .291-1.33c-.031-.462-.135-.92-.133-1.381a1.7 1.7 0 0 1 .464-1.266c.273-.25.649-.355.942-.581a3.7 3.7 0 0 0 .372-.357 5.609 5.609 0 0 1 .577-.513.254.254 0 0 1 .074-.15.976.976 0 0 1 .156-.078.563.563 0 0 0 .2-.328 1.9 1.9 0 0 1 1.211-1.166 1.367 1.367 0 0 1 .961.027 1.425 1.425 0 0 1 .665.708 1.843 1.843 0 0 1 .259.92c-.068.234-.322.279-.544.277a2.778 2.778 0 0 0-.205.205 1.452 1.452 0 0 0-.224.285 1.723 1.723 0 0 0-.094.911 1 1 0 0 1-.265.854 1.693 1.693 0 0 1-.218.133 2.494 2.494 0 0 0-1.026 1.509 16.911 16.911 0 0 1-.509 1.8 2.037 2.037 0 0 1-1.287 1.262 1.759 1.759 0 0 1-1.521-.447.884.884 0 0 1-.374-.964z" transform="translate(-528.407 -228.458)" style="opacity:.1"/>
        <path data-name="Caminho 2129" d="M639.827 283.844a1.851 1.851 0 0 1 .228-.33 2.025 2.025 0 0 0 .292-1.33c-.031-.462-.135-.92-.133-1.381a1.7 1.7 0 0 1 .464-1.266c.273-.25.649-.355.942-.581a3.71 3.71 0 0 0 .372-.357 5.594 5.594 0 0 1 .577-.513.254.254 0 0 1 .074-.15.976.976 0 0 1 .156-.078.562.562 0 0 0 .2-.328 1.9 1.9 0 0 1 1.211-1.166 1.367 1.367 0 0 1 .961.027 1.424 1.424 0 0 1 .665.708 1.844 1.844 0 0 1 .259.92c-.068.234-.322.279-.544.277a2.764 2.764 0 0 0-.205.205 1.452 1.452 0 0 0-.224.285 1.724 1.724 0 0 0-.094.911 1 1 0 0 1-.265.854 1.7 1.7 0 0 1-.218.133 2.494 2.494 0 0 0-1.026 1.509 16.887 16.887 0 0 1-.509 1.8 2.037 2.037 0 0 1-1.287 1.262 1.759 1.759 0 0 1-1.509-.437.9.9 0 0 1-.387-.974z" transform="translate(-528.324 -228.291)" style="fill:#ad5975"/>
        <path data-name="Caminho 2130" d="M660.458 305.918a6.591 6.591 0 0 0 1.525 1.769 4.987 4.987 0 0 1 .06-.874 11.641 11.641 0 0 0-.135-2.416c-.189-.4-.355-.708-.355-.708a.766.766 0 0 0-1.232.388 1.9 1.9 0 0 0 .137 1.841z" transform="translate(-544.507 -249.924)" style="opacity:.1"/>
        <path data-name="Caminho 2131" d="m675.25 319.566.433-.205a.809.809 0 0 0-.09-.731.822.822 0 0 1-.205.049z" transform="translate(-556.511 -261.942)" style="opacity:.1"/>
        <path data-name="Caminho 2132" d="M660.735 303.654a1.894 1.894 0 0 0 .14 1.847c.468.716 1.232 1.757 1.808 1.9a2.981 2.981 0 0 0 1 .179s.646-.87.111-1.383c0 0-.821-.289-.981-.959a12.165 12.165 0 0 0-.848-1.962.76.76 0 0 0-1.23.378z" transform="translate(-544.835 -249.589)" style="fill:#ffe09c"/>
        <path data-name="Caminho 2133" d="M662.773 334.22s.068.224-.49.445a2.057 2.057 0 0 0-.893.936" transform="translate(-545.496 -274.332)" style="opacity:.1"/>
        <g data-name="Grupo 9412" style="opacity:.1">
            <path data-name="Caminho 2134" d="m120.557 60.933.01-.021-.185-.1.094-.127-.16-.076.1-.142-.121-.08.086-.117-.152-.084.123-.156-.146-.084-.01.021.123.072-.123.156.152.082-.084.117.121.08-.1.146.16.076-.094.123z"/>
            <path data-name="Caminho 2135" d="m120.414 60.919.117-.094-.15-.144.064-.1-.131-.107.074-.14-.094-.062.068-.117-.133-.1.107-.119-.016-.014-.123.138.138.107-.07.117.1.064-.072.138.127.107-.062.092.144.14-.1.08z"/>
        </g>
        <path data-name="Caminho 2136" d="m586.033 293.027.01-.021-.185-.1.094-.127-.16-.076.1-.142-.121-.08.086-.117-.152-.084.123-.156-.146-.084-.01.021.123.072-.123.156.152.082-.084.117.121.08-.1.146.16.076-.092.123z" transform="translate(-465.453 -232.095)" style="fill:#8c8296"/>
        <path data-name="Caminho 2137" d="m585.89 292.918.115-.094-.148-.144.062-.1-.129-.107.074-.14-.094-.062.068-.117-.133-.1.107-.119-.016-.014-.123.138.138.107-.07.117.1.064-.072.138.127.107-.062.092.144.14-.1.08z" transform="translate(-465.453 -231.999)" style="fill:#8c8296"/>
        <path data-name="Caminho 2138" d="M643.361 278.436a.563.563 0 0 1-.2.328.964.964 0 0 0-.156.078.255.255 0 0 0-.074.15 5.6 5.6 0 0 0-.577.513 3.694 3.694 0 0 1-.372.357c-.293.226-.669.33-.942.581a1.7 1.7 0 0 0-.464 1.266c0 .464.1.92.133 1.381a2.026 2.026 0 0 1-.291 1.33 1.846 1.846 0 0 0-.228.33.558.558 0 0 0-.045.228.839.839 0 0 1-.267-.876 1.851 1.851 0 0 1 .228-.33 2.025 2.025 0 0 0 .291-1.33c-.031-.462-.135-.92-.133-1.381a1.7 1.7 0 0 1 .464-1.266c.273-.25.649-.355.942-.581a3.712 3.712 0 0 0 .371-.357 5.6 5.6 0 0 1 .577-.513.255.255 0 0 1 .074-.15.972.972 0 0 1 .156-.078.562.562 0 0 0 .2-.328 1.9 1.9 0 0 1 1.211-1.166c.321-.097-.693 1.266-.898 1.814z" transform="translate(-528.368 -228.552)" style="opacity:.1"/>
        <path data-name="Caminho 2139" d="m684.028 231.6.023.113.261 1.275.314 1.661s.158.942 0 1.151a17.514 17.514 0 0 0 .335 3.056l.187 1.3v.033a.5.5 0 0 0-.133.172 1.955 1.955 0 0 1-.353.792.365.365 0 0 0-.08.24.39.39 0 0 0 .4.382h.747a.411.411 0 0 0 .322-.156l.183-.238a.388.388 0 0 0 .08-.255.378.378 0 0 0-.021-.117 2.9 2.9 0 0 1-.168-.735.206.206 0 0 0-.062-.135v-.039a3.1 3.1 0 0 1 .049-1.422 8.859 8.859 0 0 0 .045-2.475 4.5 4.5 0 0 1 .121-1.379c.023-.09.045-.179.07-.259a15.976 15.976 0 0 0-.14-2.549l-.01-.109a.759.759 0 0 0 .092-.037 1.79 1.79 0 0 1 .585-.15l-.012.115a17.668 17.668 0 0 0-.16 2.753c.029.092.055.205.082.308a4.325 4.325 0 0 1 .111 1.305 8.849 8.849 0 0 0 .043 2.5 3.044 3.044 0 0 1 .049 1.427v.043a.222.222 0 0 0-.062.142 3.044 3.044 0 0 1-.181.759.311.311 0 0 0-.016.1.315.315 0 0 0 .066.205l.205.271a.411.411 0 0 0 .322.156h.747a.39.39 0 0 0 .4-.382.365.365 0 0 0-.08-.24 1.955 1.955 0 0 1-.353-.792.5.5 0 0 0-.133-.172v-.033l.187-1.3a17.537 17.537 0 0 0 .335-3.056c-.158-.207 0-1.151 0-1.151l.314-1.661.205-1.026.023-.113h.343l.029-.01h.016l.025-.014h.014l.021-.016.012-.01.016-.018.01-.012.012-.021v-.014a.71.71 0 0 1 .616-.372h.222V231.34a34.391 34.391 0 0 0-.513-1.97 2.513 2.513 0 0 0 .055-.384l-.137-3.223a1.894 1.894 0 0 0 .353-.1s.088-.821.084-1.595c0-.669-.058-1.322-.3-1.385a1.673 1.673 0 0 0-.22-.035v-.039c-.127-.993-.271-1.071-1.437-1.248a1.129 1.129 0 0 1-1.016-.739v-.031a1.289 1.289 0 0 0 .228-.205 1.466 1.466 0 0 0 .581-1.162 1.436 1.436 0 0 0-.1-.525.8.8 0 0 0-.341-.653l-.049-.033a.8.8 0 0 1 .279.462 1.542 1.542 0 0 0-.743-.626.784.784 0 0 0 .146-.456.846.846 0 0 0-1.691 0 .782.782 0 0 0 .123.411.826.826 0 0 1-.08-.113.792.792 0 0 1 .273-1.076l-.053.027a.794.794 0 0 0-.324 1.1.822.822 0 0 0 .174.205 1.476 1.476 0 0 0-.723 1.258 1.437 1.437 0 0 0 .335.924.876.876 0 0 1-.905 0l.045.035a.876.876 0 0 0 .93.049q.053.055.111.1a1.3 1.3 0 0 0 .548.4v.035c-.16.562-.809.8-1.2.895a1.057 1.057 0 0 0-.831 1.092v.037a.616.616 0 0 0-.265.107 3.247 3.247 0 0 0-.146 1.326c0 .743.047 1.541.047 1.541.055-.121.248-.185.472-.205-.016.441-.039.821-.039.821l-.452 2.874s-.433 1.094-.158 1.17a.158.158 0 0 0 .133-.041c-.148.778-.232 1.361-.232 1.361a3.079 3.079 0 0 1 .763-.126zm4.83-4.733a2.462 2.462 0 0 1-.181-1.513 1.02 1.02 0 0 1 .121.041 12.754 12.754 0 0 1 .061 1.472z" transform="translate(-562.877 -180.815)" style="fill:url(#tmdtv1a15d)"/>
        <path data-name="Caminho 2140" d="M699.92 289.861c.027.092.053.205.078.308a4.492 4.492 0 0 1 .107 1.3 9.292 9.292 0 0 0 .041 2.492 3.17 3.17 0 0 1 .047 1.422c-.025.205-.047.347-.047.347l.885-.094.029-.205.179-1.3a18.335 18.335 0 0 0 .32-3.046c-.15-.205 0-1.147 0-1.147l.3-1.654.205-1.026.232-1.178-2.124.15s-.041.376-.092.887a18.367 18.367 0 0 0-.16 2.744z" transform="translate(-576.101 -236.073)" style="fill:#ffbcc8"/>
        <path data-name="Caminho 2141" d="m686.82 286 .183.93.25 1.271.3 1.654s.15.94 0 1.147a18.312 18.312 0 0 0 .32 3.046l.179 1.3.029.205.885.094s-.023-.144-.047-.351a3.235 3.235 0 0 1 .047-1.418 9.3 9.3 0 0 0 .043-2.463 4.674 4.674 0 0 1 .117-1.375c.023-.09.043-.179.066-.257a16.441 16.441 0 0 0-.133-2.543c-.057-.616-.111-1.088-.111-1.088z" transform="translate(-565.706 -236.01)" style="fill:#ffbcc8"/>
        <circle data-name="Elipse 128" cx=".809" cy=".809" r=".809" transform="translate(122.655 35.752)" style="fill:#40243e"/>
        <path data-name="Caminho 2142" d="m694.054 216.9.049-.027a.809.809 0 0 0 .788 1.406l-.047.029a.809.809 0 0 1-.79-1.41z" transform="translate(-571.146 -181.069)" style="fill:#40243e"/>
        <path data-name="Caminho 2143" d="m688.833 228.95-.043-.035a.809.809 0 0 0 .961-1.3l.047.033a.809.809 0 0 1-.965 1.3z" transform="translate(-567.272 -189.613)" style="fill:#40243e"/>
        <path data-name="Caminho 2144" d="m699.043 224.92-.043-.035a.809.809 0 0 0 .961-1.3l.047.033a.809.809 0 1 1-.965 1.3z" transform="translate(-575.386 -186.41)" style="fill:#40243e"/>
        <circle data-name="Elipse 129" cx="1.486" cy="1.486" r="1.486" transform="translate(122.072 36.899)" style="fill:#40243e"/>
        <path data-name="Caminho 2145" d="M684.082 242.6c.263.076.753-1.129.753-1.129l.94-2.859-.029-1-.066-2.157 2.8.076s.528 1.355.714 1.73a1.085 1.085 0 0 1 .076.283 13.311 13.311 0 0 1 .074 1.786l.205 2.012s.018 1 .357.809.376-.977.376-.977l-.133-3.241v-.111a22.552 22.552 0 0 0-.062-2.785q-.012-.119-.025-.224c-.121-.991-.259-1.067-1.367-1.244a1.087 1.087 0 0 1-.971-.737 1.163 1.163 0 0 1-.045-.486s-1.279-1-1.129.205a1.09 1.09 0 0 1-.025.427 1.481 1.481 0 0 1-1.149.891 1.049 1.049 0 0 0-.8 1.088 1.606 1.606 0 0 0 .07.367 9.294 9.294 0 0 0 .037 1.129 10.034 10.034 0 0 1 0 1.158c-.016.495-.041.948-.041.948l-.433 2.859s-.39 1.105-.127 1.182z" transform="translate(-563.458 -193.06)" style="fill:#ffbcc8"/>
        <path data-name="Caminho 2146" d="M696.41 232.981a1.232 1.232 0 0 0 1.2-.148 1.161 1.161 0 0 1-.045-.486s-1.279-1-1.129.205a1.09 1.09 0 0 1-.026.429z" transform="translate(-573.328 -193.06)" style="opacity:.1"/>
        <circle data-name="Elipse 130" cx="1.242" cy="1.242" r="1.242" transform="translate(122.306 37.49)" style="fill:#ffbcc8"/>
        <path data-name="Caminho 2147" d="m701.11 331.118.885-.094.029-.205a1 1 0 0 0-.441-.205c-.072-.025-.248.057-.37.121a.2.2 0 0 0-.053.041c-.027.2-.05.342-.05.342z" transform="translate(-577.063 -271.462)" style="opacity:.1"/>
        <path data-name="Caminho 2148" d="M700.727 330.783a.827.827 0 0 1 .565.376 1.994 1.994 0 0 0 .339.79.382.382 0 0 1-.3.616h-.714a.382.382 0 0 1-.308-.156l-.205-.271a.322.322 0 0 1-.045-.294 3.146 3.146 0 0 0 .172-.757.222.222 0 0 1 .117-.187c.131-.06.308-.142.379-.117z" transform="translate(-576.211 -271.597)" style="fill:#dfd5e3"/>
        <path data-name="Caminho 2149" d="m692.82 330.721.029.205.885.094s-.023-.144-.047-.351a.205.205 0 0 0-.045-.031c-.121-.064-.3-.15-.378-.125a1 1 0 0 0-.444.208z" transform="translate(-570.475 -271.383)" style="opacity:.1"/>
        <path data-name="Caminho 2150" d="M691.193 330.693a.826.826 0 0 0-.564.376 2 2 0 0 1-.339.79.382.382 0 0 0 .3.616h.714a.382.382 0 0 0 .308-.156l.174-.238a.4.4 0 0 0 .057-.361 2.994 2.994 0 0 1-.162-.733.205.205 0 0 0-.109-.172c-.127-.062-.311-.147-.379-.122z" transform="translate(-568.4 -271.525)" style="fill:#dfd5e3"/>
        <path data-name="Caminho 2151" d="M700.842 286.248s-.041.376-.092.887c.394-.047.794-.014.881-.039s.659.162 1.1.183l.232-1.178z" transform="translate(-576.777 -236.089)" style="opacity:.1"/>
        <path data-name="Caminho 2152" d="m686.82 286 .183.93a1.059 1.059 0 0 1 .55.086 2.015 2.015 0 0 0 1.5.222c-.057-.616-.111-1.088-.111-1.088z" transform="translate(-565.706 -236.01)" style="opacity:.1"/>
        <path data-name="Caminho 2153" d="M689.4 254.9a2.449 2.449 0 0 0 0 2.408 23.457 23.457 0 0 1 1.3 4.232s-.64-.055-.809.376-1.486-.037-1.617 0a4.237 4.237 0 0 0-1.437.189 1.955 1.955 0 0 1-1.581-.189c-.189-.17-1.316-.037-1.316-.037s.6-4.4 1.449-5.154c0 0 .507-.616-.131-1.654s4.142-.171 4.142-.171z" transform="translate(-563.417 -211.026)" style="fill:#ff808e"/>
        <path data-name="Caminho 2154" d="M686.984 246.124a9.282 9.282 0 0 0 .037 1.129 10.089 10.089 0 0 1 0 1.158 2.929 2.929 0 0 1 .786 0 .787.787 0 0 0 .252-.018 1.939 1.939 0 0 0 .913-.376c.189-.226.79.15.922.244a2.255 2.255 0 0 0 1.129.037.739.739 0 0 1 .565.021 1.064 1.064 0 0 1 .3.187.708.708 0 0 0 .587.1 22.541 22.541 0 0 0-.062-2.785q-.012-.119-.025-.224c-.792-.088-2.927-.06-2.927-.06a19.5 19.5 0 0 0-2.551.205 1.6 1.6 0 0 0 .074.386z" transform="translate(-565.778 -203.845)" style="opacity:.1"/>
        <ellipse data-name="Elipse 131" cx="1.137" cy=".659" rx="1.137" ry=".659" transform="translate(122.337 37.219)" style="opacity:.1"/>
        <ellipse data-name="Elipse 132" cx="1.137" cy=".659" rx="1.137" ry=".659" transform="translate(122.337 37.18)" style="fill:#40243e"/>
        <path data-name="Caminho 2155" d="M704.174 240.637c-.037 0-1.016 0-1.184-.037" transform="translate(-578.557 -199.928)" style="opacity:.1"/>
        <path data-name="Caminho 2156" d="M691.942 241.547a3.4 3.4 0 0 1-.772-.037" transform="translate(-569.163 -200.651)" style="opacity:.1"/>
        <path data-name="Caminho 2157" d="M698.643 245s-.495.259-.517.521c0 0-.185-.489-.445-.511" transform="translate(-574.337 -203.425)" style="opacity:.05"/>
        <path data-name="Caminho 2158" d="m700.167 336.564.205.271a.382.382 0 0 0 .308.156h.714a.382.382 0 0 0 .382-.355.382.382 0 0 1-.382.411h-.714a.382.382 0 0 1-.308-.156l-.205-.271a.322.322 0 0 1-.062-.22.322.322 0 0 0 .062.164z" transform="translate(-576.264 -276.065)" style="opacity:.1"/>
        <path data-name="Caminho 2159" d="M690.518 336.859h.714a.381.381 0 0 0 .308-.156l.174-.238a.411.411 0 0 0 .076-.205.411.411 0 0 1-.076.265l-.17.236a.382.382 0 0 1-.308.156h-.718a.382.382 0 0 1-.382-.411.382.382 0 0 0 .382.353z" transform="translate(-568.341 -275.953)" style="opacity:.1"/>
        <g data-name="Grupo 9413" style="opacity:.05">
            <path data-name="Caminho 2160" d="M121.971 45.701s.507-.616-.131-1.654c-.17-.275.043-.411.445-.474-.07.076-.074.174 0 .3a1.422 1.422 0 0 1 .131 1.654c-.846.753-1.449 5.154-1.449 5.154s1.129-.131 1.316.037a1.967 1.967 0 0 0 1.58.189 4.251 4.251 0 0 1 1.437-.189c.088-.025.708.179 1.16.185-.193.411-1.48-.051-1.611-.014a4.235 4.235 0 0 0-1.437.189 1.955 1.955 0 0 1-1.581-.189c-.189-.17-1.316-.037-1.316-.037s.617-4.398 1.456-5.151z"/>
            <path data-name="Caminho 2161" d="m127.259 50.411.023.1a1.212 1.212 0 0 0-.205 0 .656.656 0 0 1 .182-.1z"/>
        </g>
        <path data-name="Caminho 2162" d="M688.012 246.211a27.851 27.851 0 0 1 3.14.094c.489.131.205 2.874.205 2.874s-.616.263-.922 0a.856.856 0 0 0-.864-.205 2.28 2.28 0 0 1-1.129-.037c-.131-.092-.733-.47-.922-.244a2.1 2.1 0 0 1-1.166.394c-.168-.039-1.11-.094-1.232.205a10.837 10.837 0 0 1 .094-2.765 11.263 11.263 0 0 1 2.796-.316z" transform="translate(-564.322 -204.384)" style="opacity:.1"/>
        <path data-name="Caminho 2163" d="M688.012 245.751a27.847 27.847 0 0 1 3.14.094c.489.131.205 2.874.205 2.874s-.616.263-.922 0a.856.856 0 0 0-.864-.205 2.28 2.28 0 0 1-1.129-.037c-.131-.092-.733-.47-.922-.244a2.1 2.1 0 0 1-1.166.394c-.168-.039-1.11-.094-1.232.205a10.837 10.837 0 0 1 .094-2.765 11.263 11.263 0 0 1 2.796-.316z" transform="translate(-564.322 -204.019)" style="fill:#ff808e"/>
        <path data-name="Retângulo 151" transform="translate(96.967 84.979)" style="fill:url(#9tp2sa5aae)" d="M0 0h48.221v48.221H0z"/>
        <path data-name="Retângulo 152" transform="rotate(180 72.239 66.246)" style="fill:#fff" d="M0 0h46.801v46.801H0z"/>
        <path data-name="Retângulo 153" transform="rotate(180 71.174 59.849)" style="opacity:.5;fill:#232323" d="M0 0h42.538v31.877H0z"/>
        <ellipse data-name="Elipse 133" cx="7.412" cy="1.129" rx="7.412" ry="1.129" transform="translate(123.866 114.567)" style="opacity:.1;fill:#232323"/>
        <circle data-name="Elipse 134" cx="1.753" cy="1.753" r="1.753" transform="translate(105.713 90.603)" style="fill:#ffdf9c"/>
        <path data-name="Caminho 2164" d="M751.37 572.16s-.183.238.084.6.486.663.4.887c0 0-.411-.667-.729-.677s-.114-.408.245-.81z" transform="translate(-616.685 -463.433)" style="fill:#232323"/>
        <path data-name="Caminho 2165" d="M751.4 572.16a.294.294 0 0 0-.037.074c-.318.376-.489.725-.183.733s.628.519.71.649v.029s-.411-.667-.729-.677-.121-.406.239-.808z" transform="translate(-616.714 -463.433)" style="opacity:.1"/>
        <path data-name="Caminho 2166" d="M751.29 573.43c0 .084 0 .152.02.152s.021-.068.021-.152-.012-.045-.023-.045-.018-.039-.018.045z" transform="translate(-616.943 -464.399)" style="fill:#ffd037"/>
        <path data-name="Caminho 2167" d="M750.55 573.91c.074.041.138.064.144.053s-.049-.051-.123-.09-.045-.01-.049 0-.045-.004.028.037z" transform="translate(-616.321 -464.779)" style="fill:#ffd037"/>
        <path data-name="Caminho 2168" d="M755.69 572.16s.183.238-.084.6-.486.663-.4.887c0 0 .41-.667.729-.677s.115-.408-.245-.81z" transform="translate(-620.042 -463.433)" style="fill:#232323"/>
        <path data-name="Caminho 2169" d="M755.731 572.16a.294.294 0 0 1 .037.074c.318.376.489.725.183.733s-.628.519-.71.649v.029s.411-.667.729-.677.12-.406-.239-.808z" transform="translate(-620.082 -463.433)" style="opacity:.1"/>
        <path data-name="Caminho 2170" d="M759.121 573.43c0 .084 0 .152-.021.152s-.021-.068-.021-.152.012-.045.023-.045.019-.039.019.045z" transform="translate(-623.134 -464.399)" style="fill:#ffd037"/>
        <path data-name="Caminho 2171" d="M759.282 573.91c-.074.041-.138.064-.144.053s.049-.051.123-.09.045-.01.049 0 .046-.004-.028.037z" transform="translate(-623.18 -464.779)" style="fill:#ffd037"/>
        <path data-name="Caminho 2172" d="M751.663 578.184a1.883 1.883 0 0 1-.663-.125c-.154-.109-.784-.24-.821-.064s-.766.872-.191.876a4.934 4.934 0 0 0 1.49-.183c.154-.088.185-.504.185-.504z" transform="translate(-615.734 -468.002)" style="fill:#a8a8a8"/>
        <path data-name="Caminho 2173" d="M749.977 579.876a5.072 5.072 0 0 0 1.49-.183c.117-.072.162-.326.179-.443h.018s-.033.411-.185.5a4.842 4.842 0 0 1-1.49.183c-.166 0-.224-.06-.22-.148.021.056.084.089.208.091z" transform="translate(-615.734 -469.068)" style="opacity:.2"/>
        <path data-name="Retângulo 154" transform="translate(117.628 94.675)" style="fill:#e2e7f0" d="M0 0h6.969v2.35H0z"/>
        <path data-name="Retângulo 155" transform="rotate(180 62.051 48.465)" style="opacity:.4;fill:#fff" d="M0 0h1.771v2.163H0z"/>
        <path data-name="Retângulo 156" transform="rotate(180 61.864 48.124)" style="fill:#d8e2f0" d="M0 0h1.039v.835H0z"/>
        <path data-name="Retângulo 157" transform="rotate(180 60.977 48.465)" style="opacity:.4;fill:#fff" d="M0 0h1.771v2.163H0z"/>
        <path data-name="Retângulo 158" transform="rotate(180 60.791 48.124)" style="fill:#d8e2f0" d="M0 0h1.039v.835H0z"/>
        <path data-name="Retângulo 159" transform="rotate(180 59.905 48.465)" style="opacity:.4;fill:#fff" d="M0 0h1.771v2.163H0z"/>
        <path data-name="Retângulo 160" transform="rotate(180 59.717 48.124)" style="fill:#d8e2f0" d="M0 0h1.039v.835H0z"/>
        <path data-name="Caminho 2174" d="M669.84 503.7v.174h6.969v-.174z" transform="translate(-552.212 -409.025)" style="opacity:.1"/>
        <path data-name="Caminho 2175" d="m665.563 494.324.928-.714h4.5l.856.71a2.479 2.479 0 0 0 1.548.205 1.235 1.235 0 0 1-1.232 1.232h-6.979s-1 .045-1.147-1.232a2.8 2.8 0 0 0 1.523-.2z" transform="translate(-547.602 -401.006)" style="fill:#232323"/>
        <path data-name="Retângulo 161" transform="translate(116.058 99.476)" style="fill:#e2e7f0" d="M0 0h9.846v3.323H0z"/>
        <path data-name="Retângulo 162" transform="rotate(180 62.603 51.196)" style="opacity:.4;fill:#fff" d="M0 0h2.504v3.058H0z"/>
        <path data-name="Retângulo 163" transform="rotate(180 62.339 50.713)" style="fill:#d8e2f0" d="M0 0h1.47v1.18H0z"/>
        <path data-name="Retângulo 164" transform="rotate(180 61.087 51.196)" style="opacity:.4;fill:#fff" d="M0 0h2.504v3.058H0z"/>
        <path data-name="Retângulo 165" transform="rotate(180 60.822 50.713)" style="fill:#d8e2f0" d="M0 0h1.47v1.18H0z"/>
        <path data-name="Retângulo 166" transform="rotate(180 59.57 51.196)" style="opacity:.4;fill:#fff" d="M0 0h2.504v3.058H0z"/>
        <path data-name="Retângulo 167" transform="rotate(180 59.305 50.713)" style="fill:#d8e2f0" d="M0 0h1.47v1.18H0z"/>
        <path data-name="Retângulo 168" transform="rotate(180 63.422 55.324)" style="fill:#232323" d="M0 0h11.967v4.189H0z"/>
        <path data-name="Retângulo 169" transform="rotate(180 63.422 55.324)" style="fill:#e2e7f0" d="M0 0h11.967v4.189H0z"/>
        <path data-name="Retângulo 170" transform="rotate(180 62.796 55.276)" style="fill:#d8e2f0" d="M0 0h3.61v4.093H0z"/>
        <path data-name="Retângulo 171" transform="rotate(180 62.435 55.276)" style="opacity:.4;fill:#fff" d="M0 0h2.168v4.093H0z"/>
        <path data-name="Retângulo 172" transform="rotate(180 62.194 54.988)" style="fill:#d8e2f0" d="M0 0h1.084v2.913H0z"/>
        <path data-name="Retângulo 173" transform="rotate(180 59.895 55.276)" style="fill:#d8e2f0" d="M0 0h3.61v4.093H0z"/>
        <path data-name="Retângulo 174" transform="rotate(180 59.533 55.276)" style="opacity:.4;fill:#fff" d="M0 0h2.168v4.093H0z"/>
        <path data-name="Retângulo 175" transform="rotate(180 59.294 54.988)" style="fill:#d8e2f0" d="M0 0h1.084v2.913H0z"/>
        <path data-name="Caminho 2176" d="M654.834 547.3v-4a2.653 2.653 0 0 0 2.383-2.615 5.306 5.306 0 0 1-3.309-.458l-1.829-1.517h-9.62l-1.987 1.531a5.982 5.982 0 0 1-3.262.443c.285 2.48 2.09 2.619 2.408 2.625v4m0 0h15.216m-.844 0h-13.539m0 0v-4H654v4" transform="translate(-526.279 -436.849)" style="fill:#232323"/>
        <path data-name="Retângulo 176" transform="translate(116.058 99.476)" style="opacity:.1" d="M0 0h9.846v.427H0z"/>
        <path data-name="Caminho 2177" d="m654.469 513.934 1.334-1.084h6.958l1.232 1.073a3.755 3.755 0 0 0 2.34.324 1.859 1.859 0 0 1-1.866 1.847H653.9s-1.517.068-1.738-1.847a4.231 4.231 0 0 0 2.307-.313z" transform="translate(-538.161 -416.297)" style="fill:#232323"/>
        <path data-name="Retângulo 177" transform="rotate(180 63.428 53.285)" style="opacity:.1" d="M0 0h11.967v.121H0z"/>
        <path data-name="Caminho 2178" d="M666.534 546.16H653.1a101.12 101.12 0 0 0 13.434 0z" transform="translate(-538.908 -442.77)" style="opacity:.1"/>
        <path data-name="Caminho 2179" d="M673.026 518h-9.606a51.767 51.767 0 0 0 9.606 0z" transform="translate(-547.109 -420.39)" style="opacity:.1"/>
        <path data-name="Caminho 2180" d="M677.708 497H671.4a22.4 22.4 0 0 0 6.308 0z" transform="translate(-553.451 -403.7)" style="opacity:.1"/>
        <path data-name="Retângulo 178" transform="rotate(180 68.347 55.662)" style="fill:#d8e2f0" d="M0 0h33.484v.903H0z"/>
        <path data-name="Caminho 2181" d="M723.185 522.681a1.713 1.713 0 0 0 1.8.755 1.993 1.993 0 0 0 .534 0 .679.679 0 0 0 .2-.072.483.483 0 0 0 .267-.261.657.657 0 0 0-.257-.661 1.928 1.928 0 0 1-.515-.544c-.14-.306-.027-.694-.205-.981a.3.3 0 0 0-.144-.131.642.642 0 0 0-.246 0 .881.881 0 0 1-.745-.528c-.15-.283-.205-.606-.349-.895a1.513 1.513 0 0 0-.747-.762 5.331 5.331 0 0 0-.616-.174 7.209 7.209 0 0 0-.694-.216.866.866 0 0 0-.573.072.562.562 0 0 0-.162.107c-.164.158-.205.411-.37.571a.616.616 0 0 0-.164.205c-.043.119.07.17.187.205a1.128 1.128 0 0 0 .86 1.665l.031.053a3.179 3.179 0 0 1 .185.378.754.754 0 0 0-.055.355.41.41 0 0 0 .17.252 1.718 1.718 0 0 0-.411.341 1.007 1.007 0 0 1-.437.335l-.053.016a.616.616 0 0 0-.361.768 3.974 3.974 0 0 1-.156 1.556l-.1.778v.027l-.936.616s-1.486.493-.989 1.063 1.277-.616 1.277-.616l.577-.265-.014.135a12.2 12.2 0 0 1-.355 2.075l-.191.716-.339 1.582a1.515 1.515 0 0 0 0 1.037l-.6 1.944v.027a6.612 6.612 0 0 1-.386 1.069l-.031.053-.016.025v.01a.148.148 0 0 0-.181.031.5.5 0 0 0-.07.092 1.686 1.686 0 0 1-1.043.285c-.156-.051-.7-.1-.573.285s2.475.959 2.475.959a1.2 1.2 0 0 0 .234-.616 2.975 2.975 0 0 1 0-.519.955.955 0 0 1-.109.084v-.043l.016-.068V535.712l.01-.037v-.039l.01-.033.012-.037v-.049l.012-.033.012-.031v-.047l.014-.031.01-.023v-.012l.01-.021.014-.027.01-.018.012-.018.016-.023.012-.014.016-.016a13.852 13.852 0 0 0 .887-2l.205-1.271a8.389 8.389 0 0 1 1.043-1.981l.938 1.566a9.1 9.1 0 0 0 .833 1.012 14.615 14.615 0 0 0 1.119 1.899 1.509 1.509 0 0 1 .283.993.9.9 0 0 1-.01.17.653.653 0 0 1-.349.41c-.39.156-.938.411-.755.649a1.38 1.38 0 0 0 1.355.259 9.7 9.7 0 0 0 1.328-.616l-.281-1.1a1.759 1.759 0 0 1-.092.166l-.033-.043a9.642 9.642 0 0 1-.552-1.369 4.372 4.372 0 0 0-1.232-2.334l-.411-.821-.437-1.7a2.7 2.7 0 0 0 .261-.127.191.191 0 0 0 .306.01c.521-.466-.1-1.607-.1-1.607s-.027-.571 0-.985a5.212 5.212 0 0 0-.234-1.271l-.172-1.073.224-.638a3.326 3.326 0 0 0 .086-.72zm-.577 3.539a2.222 2.222 0 0 1 .119.731 1.409 1.409 0 0 0-.3-.343s-.519-.8-.138-1.392l.121-.193a4.53 4.53 0 0 0 .199 1.197z" transform="translate(-589.025 -420.543)" style="fill:url(#w6nbio8wzf)"/>
        <path data-name="Caminho 2182" d="m746.841 546 .205 1.266a5.136 5.136 0 0 1 .23 1.232c-.025.4 0 .963 0 .963s.616 1.115.1 1.57-.661-1.437-.661-1.437a3.341 3.341 0 0 0-.1-1.232 5.282 5.282 0 0 1-.205-1.362z" transform="translate(-613.065 -442.642)" style="fill:#ffcdd3"/>
        <path data-name="Caminho 2183" d="m746.841 546 .205 1.266a5.136 5.136 0 0 1 .23 1.232c-.025.4 0 .963 0 .963s.616 1.115.1 1.57-.661-1.437-.661-1.437a3.341 3.341 0 0 0-.1-1.232 5.282 5.282 0 0 1-.205-1.362z" transform="translate(-613.065 -442.642)" style="opacity:.05"/>
        <path data-name="Caminho 2184" d="m726.8 567.2-.353 1.318-.33 1.546a1.482 1.482 0 0 0 0 1.014l-.585 1.9s-.33 1.215-.534 1.232.205.963.205.963l.56-.328a2.56 2.56 0 0 1 .357-.938 13.1 13.1 0 0 0 .866-1.95l.205-1.232a6.6 6.6 0 0 1 1.2-2.1 2.149 2.149 0 0 0 .739-1.063z" transform="translate(-596.005 -459.491)" style="fill:#ffcdd3"/>
        <path data-name="Caminho 2185" d="M729.077 567.555a2.149 2.149 0 0 1-.739 1.063 6.662 6.662 0 0 0-1.2 2.1l-.205 1.232a13.015 13.015 0 0 1-.866 1.95 2.03 2.03 0 0 0-.326.8c-.02.082-.031.135-.031.135l-.56.328s-.411-.938-.205-.963c.031 0 .066-.037.1-.088a5.25 5.25 0 0 0 .433-1.151l.585-1.9a1.484 1.484 0 0 1 0-1.014l.33-1.546.361-1.305z" transform="translate(-595.962 -459.491)" style="opacity:.05"/>
        <path data-name="Caminho 2186" d="m742.436 575.99-.205.48-.915-.1a2.1 2.1 0 0 0 .047-.4 1.474 1.474 0 0 0-.275-.971 14.267 14.267 0 0 1-1.094-1.847 8.882 8.882 0 0 1-.821-.987l-1.268-2.129.039-.191-.343-.316h2.135l.509 1.975.411.811a4.291 4.291 0 0 1 1.2 2.28 8.559 8.559 0 0 0 .54 1.336.36.36 0 0 0 .04.059z" transform="translate(-606.063 -461.343)" style="fill:#ffcdd3"/>
        <path data-name="Caminho 2187" d="M725.764 601.537c-.02.082-.031.135-.031.135l-.56.328s-.411-.938-.205-.963c.031 0 .066-.037.1-.088a.142.142 0 0 1 .066.158.391.391 0 0 1-.041.109c-.076.127.255.328.255.328.116.145.297.069.416-.007z" transform="translate(-595.978 -486.313)" style="opacity:.1"/>
        <path data-name="Caminho 2188" d="M718.441 601.3a.148.148 0 0 0-.253-.133.487.487 0 0 0-.068.09 1.663 1.663 0 0 1-1.026.279c-.16-.049-.688-.1-.56.279s2.426.922 2.426.922a1.183 1.183 0 0 0 .23-.616 2.894 2.894 0 0 1 0-.507s-.357.328-.534.1c0 0-.33-.205-.255-.328a.388.388 0 0 0 .04-.086z" transform="translate(-589.306 -486.448)" style="fill:#dce6f2"/>
        <path data-name="Caminho 2189" d="m756.821 600.657-.205.48-.915-.1a2.1 2.1 0 0 0 .047-.4.125.125 0 0 1 .205-.029c.047.051.094.1.131.148.1.127.433.051.433.051.086.029.187-.094.261-.205a.366.366 0 0 0 .043.055z" transform="translate(-620.448 -486.011)" style="opacity:.1"/>
        <path data-name="Caminho 2190" d="M751.829 600.261a.125.125 0 0 0-.205.053.7.7 0 0 1-.369.5c-.382.152-.915.41-.739.632a1.374 1.374 0 0 0 1.324.252 9.491 9.491 0 0 0 1.3-.616l-.382-1.014s-.205.431-.357.38c0 0-.33.076-.433-.051a.778.778 0 0 1-.139-.136z" transform="translate(-616.3 -485.614)" style="fill:#dce6f2"/>
        <path data-name="Caminho 2191" d="M740.21 529.222s.616.835.458 1.418 1.232-.38 1.232-.38a2.018 2.018 0 0 1-.585-1.671z" transform="translate(-608.138 -428.806)" style="fill:#ffcdd3"/>
        <path data-name="Caminho 2192" d="M736.593 542.994a3.423 3.423 0 0 1-2.239.355l.025-.177h-.053c-.973.086-1.195-.205-1.195-.205a11.414 11.414 0 0 0 .345-2.026l.029-.285c.021-.205.035-.374.045-.491s.012-.16.012-.16l.1-.759a3.843 3.843 0 0 0 .152-1.519.616.616 0 0 1 .355-.745l.051-.014a.984.984 0 0 0 .427-.326 1.715 1.715 0 0 1 .714-.484c.127-.047.236-.1.236-.1.179-.205.661-.076.661-.076.585.38.279 1.622.279 1.622l-.244.692a5.136 5.136 0 0 1-.552 1.088c-.374.575.133 1.361.133 1.361.795.627.719 2.249.719 2.249z" transform="translate(-602.511 -434.651)" style="fill:#ff748e"/>
        <path data-name="Caminho 2193" d="m734.425 560.076-.09 1.361c-.973.086-1.195-.205-1.195-.205a11.42 11.42 0 0 0 .345-2.026l.029-.285z" transform="translate(-602.519 -452.91)" style="opacity:.05"/>
        <path data-name="Caminho 2194" d="M737.367 543.156s-.458.862-.616 1.232a.965.965 0 0 1-.23.38 7.733 7.733 0 0 1-.891.684l-.821.38c.035-.326.059-.616.074-.776l.786-.507s.534-.328.56-.759a5.212 5.212 0 0 1 .357-1.215s.661-.708.942-.38-.161.961-.161.961z" transform="translate(-603.846 -439.548)" style="opacity:.1"/>
        <path data-name="Caminho 2195" d="M729.25 541.957a5.208 5.208 0 0 0-.357 1.215c-.025.431-.56.759-.56.759l-1.679 1.115s-1.451.48-.967 1.039 1.246-.616 1.246-.616l1.373-.632a7.746 7.746 0 0 0 .891-.684c.076-.127.076 0 .23-.38s.616-1.232.616-1.232.433-.632.152-.963-.945.379-.945.379z" transform="translate(-596.517 -439.06)" style="fill:#ffcdd3"/>
        <path data-name="Caminho 2196" d="M742.44 540.657a6.334 6.334 0 0 0 .616-.507.144.144 0 0 1 .179-.021.8.8 0 0 0 .378.062c.111 0 .22 0 .205.059-.025.127.076-.659.076-.659l-.433-.152-.56.3z" transform="translate(-609.91 -437.429)" style="opacity:.1"/>
        <path data-name="Caminho 2197" d="M742.44 540.407a6.333 6.333 0 0 0 .616-.507.144.144 0 0 1 .179-.021.8.8 0 0 0 .378.062c.111 0 .22 0 .205.059-.025.127.076-.659.076-.659l-.433-.152-.56.3z" transform="translate(-609.91 -437.23)" style="fill:#ff748e"/>
        <path data-name="Caminho 2198" d="M736.6 545.219a.626.626 0 0 0 .575-.039" transform="translate(-605.269 -441.991)" style="opacity:.1"/>
        <path data-name="Caminho 2199" d="M741.233 528.724c-.018-.152.168.162.191-.012l-1.094.632s.062.086.142.222a1.128 1.128 0 0 0 .125 0c.33.002.435-.614.636-.842z" transform="translate(-608.233 -428.878)" style="opacity:.1"/>
        <ellipse data-name="Elipse 135" cx="1.106" cy="1.102" rx="1.106" ry="1.102" transform="translate(131.233 98.44)" style="fill:#ffcdd3"/>
        <path data-name="Caminho 2200" d="M736.489 521.081a.351.351 0 0 0 .269.382.942.942 0 0 1 .33 1.055.93.93 0 0 0-.074.41c.043.236.314.359.554.38a2.574 2.574 0 0 1 .718.07c.378.146.544.587.866.833a2.447 2.447 0 0 0 1.359.3 1.937 1.937 0 0 0 .521 0 .525.525 0 0 0 .4-.3.641.641 0 0 0-.25-.647 1.886 1.886 0 0 1-.5-.53c-.138-.3-.027-.677-.205-.959a.3.3 0 0 0-.14-.127.626.626 0 0 0-.242 0 .86.86 0 0 1-.729-.515c-.146-.277-.205-.591-.341-.874a1.477 1.477 0 0 0-.731-.743 5.223 5.223 0 0 0-.6-.17q-.333-.119-.677-.205a.764.764 0 0 0-.667.15c-.16.154-.205.4-.361.558a.617.617 0 0 0-.16.191c-.066.187.255.205.361.279a.7.7 0 0 1 .299.462z" transform="translate(-604.646 -421.518)" style="opacity:.1"/>
        <path data-name="Caminho 2201" d="M736.739 520.951a.351.351 0 0 0 .269.382.942.942 0 0 1 .33 1.055.929.929 0 0 0-.074.411c.043.236.314.359.554.38a2.576 2.576 0 0 1 .719.07c.378.146.544.587.866.833a2.446 2.446 0 0 0 1.359.3 1.939 1.939 0 0 0 .521 0 .525.525 0 0 0 .4-.3.641.641 0 0 0-.25-.647 1.883 1.883 0 0 1-.5-.53c-.138-.3-.027-.677-.205-.958a.3.3 0 0 0-.14-.127.627.627 0 0 0-.242 0 .86.86 0 0 1-.729-.515c-.146-.277-.205-.591-.341-.874a1.477 1.477 0 0 0-.731-.743 5.2 5.2 0 0 0-.6-.17 7.067 7.067 0 0 0-.677-.205.763.763 0 0 0-.667.15c-.16.154-.205.4-.361.558a.616.616 0 0 0-.16.191c-.066.187.255.205.361.279a.7.7 0 0 1 .298.46z" transform="translate(-604.845 -421.415)" style="fill:#2d283d"/>
        <path data-name="Retângulo 179" transform="rotate(-82.36 80.895 15.382)" style="fill:url(#rl78o3hsrg)" d="M0 0h48.221v48.221H0z"/>
        <path data-name="Retângulo 180" transform="rotate(-172.3 54.351 46.16)" style="fill:#fff" d="M0 0h46.801v46.801H0z"/>
        <path data-name="Retângulo 181" transform="rotate(-172.3 53.715 39.693)" style="opacity:.5;fill:#232323" d="M0 0h42.538v31.877H0z"/>
        <path data-name="Caminho 2202" d="M429.524 371.21s-.821 1.19-.386 1.962-.4 2.6-.4 2.6" transform="translate(-360.599 -303.729)" style="stroke:#232323;fill:none;stroke-miterlimit:10"/>
        <path data-name="Caminho 2203" d="M431.872 367.5a.757.757 0 0 0 .121.47.647.647 0 0 0 .119-.893.758.758 0 0 0-.24.423z" transform="translate(-363.087 -300.447)" style="fill:#232323"/>
        <path data-name="Caminho 2204" d="M428.862 371s.48 1.367-.146 2-.3 2.613-.3 2.613" transform="translate(-360.274 -303.563)" style="stroke:#232323;fill:none;stroke-miterlimit:10"/>
        <path data-name="Caminho 2205" d="M430.7 367.35a.757.757 0 0 1-.24.423.647.647 0 0 1 .119-.893.758.758 0 0 1 .121.47z" transform="translate(-361.863 -300.288)" style="fill:#232323"/>
        <path data-name="Caminho 2206" d="M430.7 367.35a.757.757 0 0 1-.24.423.647.647 0 0 1 .119-.893.758.758 0 0 1 .121.47z" transform="translate(-361.863 -300.288)" style="opacity:.1"/>
        <path data-name="Caminho 2207" d="M426.584 370.81s-.821 1.19-.386 1.962-.4 2.592-.4 2.592" transform="translate(-358.263 -303.412)" style="stroke:#232323;fill:none;stroke-miterlimit:10"/>
        <path data-name="Caminho 2208" d="M428.932 367.113a.758.758 0 0 0 .121.47.647.647 0 0 0 .119-.893.758.758 0 0 0-.24.423z" transform="translate(-360.75 -300.137)" style="fill:#232323"/>
        <path data-name="Caminho 2209" d="M428.292 371.972a.757.757 0 0 0 .411.255.647.647 0 0 0-.532-.727.758.758 0 0 0 .121.472z" transform="translate(-360.146 -303.96)" style="fill:#232323"/>
        <path data-name="Caminho 2210" d="M427.633 376.262a.758.758 0 0 0 .411.255.647.647 0 0 0-.532-.727.757.757 0 0 0 .121.472z" transform="translate(-359.621 -307.369)" style="fill:#232323"/>
        <path data-name="Caminho 2211" d="M431.458 380.44a.758.758 0 0 0-.218.435.647.647 0 0 0 .675-.6.758.758 0 0 0-.457.165z" transform="translate(-362.586 -310.938)" style="fill:#232323"/>
        <path data-name="Caminho 2212" d="M431.546 371.575a.758.758 0 0 0-.326.361.647.647 0 0 0 .811-.394.758.758 0 0 0-.485.033z" transform="translate(-362.57 -303.974)" style="fill:#232323"/>
        <path data-name="Caminho 2213" d="M431.546 371.575a.758.758 0 0 0-.326.361.647.647 0 0 0 .811-.394.758.758 0 0 0-.485.033z" transform="translate(-362.57 -303.974)" style="opacity:.1"/>
        <path data-name="Caminho 2214" d="M425.935 370.59s.48 1.367-.146 2-.306 2.6-.306 2.6" transform="translate(-357.946 -303.237)" style="stroke:#232323;fill:none;stroke-miterlimit:10"/>
        <path data-name="Caminho 2215" d="M427.757 366.96a.758.758 0 0 1-.24.423.647.647 0 0 1 .119-.893.758.758 0 0 1 .121.47z" transform="translate(-359.527 -299.978)" style="fill:#232323"/>
        <path data-name="Caminho 2216" d="M427.757 366.96a.758.758 0 0 1-.24.423.647.647 0 0 1 .119-.893.758.758 0 0 1 .121.47z" transform="translate(-359.527 -299.978)" style="opacity:.1"/>
        <path data-name="Caminho 2217" d="M423.737 372.833a.757.757 0 0 1 .125.47.647.647 0 1 1-.125-.47z" transform="translate(-355.699 -304.815)" style="fill:#232323"/>
        <path data-name="Caminho 2218" d="M423.737 372.833a.757.757 0 0 1 .125.47.647.647 0 1 1-.125-.47z" transform="translate(-355.699 -304.815)" style="opacity:.1"/>
        <path data-name="Caminho 2219" d="M421.287 378.563a.758.758 0 0 1 .125.47.647.647 0 1 1-.125-.47z" transform="translate(-353.752 -309.369)" style="fill:#232323"/>
        <path data-name="Caminho 2220" d="M425.078 375.637s-.31-.671-.858-.757" transform="translate(-357.007 -306.646)" style="stroke:#232323;fill:none;stroke-miterlimit:10"/>
        <path data-name="Caminho 2221" d="M430.13 375.028a1.4 1.4 0 0 1 1.026-.5" transform="translate(-361.704 -306.359)" style="stroke:#232323;fill:none;stroke-miterlimit:10"/>
        <path data-name="Caminho 2222" d="M426.478 378.357s-.31-.671-.858-.757" transform="translate(-358.12 -308.808)" style="stroke:#232323;fill:none;stroke-miterlimit:10"/>
        <circle data-name="Elipse 136" cx=".103" cy=".103" r=".103" transform="rotate(-82.36 72.613 -4.198)" style="fill:#232323"/>
        <circle data-name="Elipse 137" cx=".103" cy=".103" r=".103" transform="rotate(-82.36 73.675 -5.5)" style="fill:#232323"/>
        <path data-name="Caminho 2223" d="M428.26 380.118a1.4 1.4 0 0 1 1.026-.5" transform="translate(-360.218 -310.404)" style="stroke:#232323;fill:none;stroke-miterlimit:10"/>
        <circle data-name="Elipse 138" cx=".103" cy=".103" r=".103" transform="rotate(-82.36 74.086 -4.754)" style="fill:#232323"/>
        <circle data-name="Elipse 139" cx=".103" cy=".103" r=".103" transform="rotate(-82.36 73.066 -4.067)" style="fill:#232323"/>
        <path data-name="Caminho 2224" d="M416.7 385.789a3.565 3.565 0 0 0 1.256-.279c.285-.218 1.48-.507 1.562-.174s1.515 1.615.411 1.661a9.258 9.258 0 0 1-2.851-.255c-.298-.169-.378-.953-.378-.953z" transform="translate(-351.031 -314.836)" style="fill:#a8a8a8"/>
        <path data-name="Caminho 2225" d="M419.953 389.21a9.289 9.289 0 0 1-2.851-.255c-.228-.127-.333-.616-.369-.835h-.033s.088.782.386.95a9.287 9.287 0 0 0 2.851.255c.316-.012.423-.129.41-.3-.041.109-.16.175-.394.185z" transform="translate(-351.031 -317.169)" style="opacity:.2"/>
        <path data-name="Caminho 2226" d="M566.348 415.47s-.367.365 0 1.043.679 1.248.476 1.611c0 0-.534-1.232-1.092-1.328s-.092-.72.616-1.326z" transform="translate(-469.277 -338.905)" style="fill:#232323"/>
        <path data-name="Caminho 2227" d="M566.373 415.47a.509.509 0 0 0-.08.119c-.632.569-1 1.129-.48 1.213.487.08.957 1.026 1.067 1.273a.485.485 0 0 1-.023.047s-.534-1.232-1.092-1.328-.1-.718.608-1.324z" transform="translate(-469.301 -338.905)" style="opacity:.1"/>
        <path data-name="Caminho 2228" d="M566.466 417.266a.54.54 0 0 0 0 .265c.018 0 .051-.111.072-.254s0-.078-.031-.082-.02-.072-.041.071z" transform="translate(-470.045 -340.26)" style="fill:#ffd037"/>
        <path data-name="Caminho 2229" d="M565.168 417.92c.117.086.222.142.234.125s-.074-.1-.191-.185-.074-.029-.086-.012-.074-.014.043.072z" transform="translate(-468.968 -340.768)" style="fill:#ffd037"/>
        <path data-name="Caminho 2230" d="M573.151 416.55s.257.45-.281 1-.985 1.026-.885 1.437c0 0 .842-1.051 1.4-.991s.289-.676-.234-1.446z" transform="translate(-474.431 -339.763)" style="fill:#232323"/>
        <path data-name="Caminho 2231" d="M573.171 416.55a.51.51 0 0 1 .047.138c.46.716.671 1.353.144 1.3-.49-.051-1.195.743-1.365.946a.518.518 0 0 0 0 .053s.842-1.051 1.4-.991.298-.676-.226-1.446z" transform="translate(-474.451 -339.763)" style="opacity:.1"/>
        <path data-name="Caminho 2232" d="M579.862 419.071c-.018.144-.051.259-.072.255s-.021-.121 0-.265.031-.074.049-.07.044-.064.023.08z" transform="translate(-480.633 -341.686)" style="fill:#ffd037"/>
        <path data-name="Caminho 2233" d="M580.057 420.081c-.136.051-.25.078-.259.06s.1-.076.232-.127.078 0 .086.01.076.003-.059.057z" transform="translate(-480.651 -342.497)" style="fill:#ffd037"/>
        <path data-name="Caminho 2234" d="M565.371 426a3.207 3.207 0 0 1-1.106-.367c-.238-.224-1.287-.591-1.392-.3s-1.511 1.318-.527 1.457a8.494 8.494 0 0 0 2.592.031c.283-.121.433-.821.433-.821z" transform="translate(-466.505 -346.657)" style="fill:#a8a8a8"/>
        <path data-name="Caminho 2235" d="M562.349 429.668a8.495 8.495 0 0 0 2.592.031c.216-.094.355-.521.411-.718h.029s-.15.7-.433.821a8.36 8.36 0 0 1-2.592-.031c-.283-.041-.369-.154-.343-.3.024.096.124.166.336.197z" transform="translate(-466.513 -349.642)" style="opacity:.2"/>
        <path data-name="Caminho 2236" d="M435.209 328.013a4.54 4.54 0 1 0 6.841-3.239l-.049-.029 1.1-2.1 4.516 6.1a.969.969 0 0 0-.142.657 1.7 1.7 0 0 0-.205.084 1.414 1.414 0 0 1-.714.156s-.6.382.425.6l.058.012-.084.616 2.295.308.07-.513a11.326 11.326 0 0 0 2.176.285 4.516 4.516 0 1 0 2.053-3.922l-.053.037-.439-.6.558-.349-.924-.8a1.055 1.055 0 0 1-.115.177l-.043-.031c-.115-.084-.285-.205-.462-.351l-.021-.016.205-1.535v-.06a5.625 5.625 0 0 0 .675.076c.991.041 1.2-.579.881-.991-.252-.328-1.365-.3-1.806-.279a3.029 3.029 0 0 1-.339 0h-.053c.341-.5.821-1.166 1.394-2.159a3.224 3.224 0 0 0 .587-2.358 3.882 3.882 0 0 0-.616-2.075 6.1 6.1 0 0 1-1.464-3.009 2.042 2.042 0 0 0-1.706-1.622c.125-.072.193-.205.31-.289.226-.16.616-.115.733-.357.244-.511-.589-.452-.837-.517s-.205-.222-.205-.411a1.6 1.6 0 0 0-.205-.7.515.515 0 0 0-.148-.172.569.569 0 0 0-.275-.076 6.372 6.372 0 0 1-.991-.037c-.123-.029-.242-.08-.367-.1a1.041 1.041 0 0 0-1.026.5 1.778 1.778 0 0 0-.191 1.127.831.831 0 0 0 .205.523 1.972 1.972 0 0 1 .205.181.968.968 0 0 1 .094.187 1.328 1.328 0 0 0 0 .164 2.84 2.84 0 0 0-.23.129 2.894 2.894 0 0 0-1.344 2.443c0 .784-.1 1.761-.1 1.761a1.273 1.273 0 0 0 .372.283l-.035.659a2.549 2.549 0 0 1-.064.433v.538a.794.794 0 0 0 .031.158 3.968 3.968 0 0 1 .066 1.392l-.113.846a8.651 8.651 0 0 0-1.786-.039l-.06-.029s-.747 0-.552.634l.113.049-.025.053-1.942 4.052a4.581 4.581 0 0 0-1.125-.3 4.516 4.516 0 0 0-5.1 3.853zm2.418 3.27 1.868-2.246a.5.5 0 0 0 .1.039l-.562 2.853a3.433 3.433 0 0 1-1.406-.646zm3.044.589-.591-2.919 2.129 2.005a3.434 3.434 0 0 1-1.538.914zm-.634-6.646-.279 2.744-.045.092a.5.5 0 0 0-.23.088l-.948-2.73a3.436 3.436 0 0 1 1.494-.193zm.076 0h.072a3.473 3.473 0 0 1 .784.205l-1.119 2.336zm2.313 1.281.238.339a3.4 3.4 0 0 1 .257.509l-2.668 1.047a.488.488 0 0 0-.074-.148l1.334-2.558.049.031a3.437 3.437 0 0 1 .856.79zm.714 2.463-2.874-.337v-.018a.486.486 0 0 0 0-.127l2.662-1.051a3.348 3.348 0 0 1 .205 1.533zm-3.9-.431a.482.482 0 0 0 .039.263l-2.668 1.217a3.368 3.368 0 0 1 0-2.853l2.629 1.322a.478.478 0 0 0-.006.053zm-.778-3.091.957 2.755a1.012 1.012 0 0 0-.144.205l-2.621-1.318a3.412 3.412 0 0 1 1.8-1.64zm5.661-4.768 1.088.484a1.146 1.146 0 0 0 .107.181.41.41 0 0 1 0-.129l1.825.821-.127.684-3.194-1.476.265-.507zm9.809 12.777 1.847-2.231a.5.5 0 0 0 .109.029l-.571 2.843a3.43 3.43 0 0 1-1.392-.636zm3.036.589-.591-2.919 2.129 2.005a3.434 3.434 0 0 1-1.544.918zm-.443-3.243a.479.479 0 0 0-.01-.125l2.732-1.069a3.347 3.347 0 0 1 .195 1.533zm-.195-3.389-.294 2.874a.5.5 0 0 0-.181 0l-.156-.205-.866-2.484a3.434 3.434 0 0 1 1.497-.185zm-1.026 3.058-2.36-1.186a3.366 3.366 0 0 1 .616-.87zm.158.187c-.447-.179-1.519-.6-2.668-1.008l.02-.055q.047-.123.1-.242l2.518 1.266zm.944-3.245h.072a3.45 3.45 0 0 1 1.2.4l-1.365 2.572a.494.494 0 0 0-.205-.086zm1.342.441a3.435 3.435 0 0 1 .971.839l.238.341a3.4 3.4 0 0 1 .257.509l-2.726 1.067a.493.493 0 0 0-.111-.168zM455.525 331l-2.611 1.195a3.352 3.352 0 0 1-.308-1.2c1.238.033 2.418.012 2.919 0zm-3.8-1.722-.259-.082v-.062l.113-.844 1.16-.864.1.123a4.454 4.454 0 0 0-1.106 1.671zm0-2 .025-.016-.025.018zm-.723-.649a2.546 2.546 0 0 1-.6.764l.193-1.332a1.815 1.815 0 0 0 .191-.472l.043.035.025.021.039.033.027.023.033.027.027.023.029.025.025.023.023.021.051.045zm-3.475-6.661L447 319.9c.25-.193.464-.341.464-.341l.166-.111zm-.261 1.406-1.318-.655a2.049 2.049 0 0 1 .271-.064l.012-.027c.431.055.837.1 1.149.129zm-.579-2.414a3.37 3.37 0 0 1 .232-.907l.012-.021v-.023l.01-.033v-.035a.654.654 0 0 1 .021-.094 1 1 0 0 1 .021-.117v-.064a.928.928 0 0 1 .021-.144 1.467 1.467 0 0 1 .018-.156.864.864 0 0 1 .016-.166v-.7c.021-.3.035-.585.047-.821v-.08a2.111 2.111 0 0 1 .977 1.509 9.392 9.392 0 0 0-.807 1.232 6.625 6.625 0 0 1-.571.626zm4 10q-.262-.071-.5-.129l.1-.659.556-.347-.144 1.074zm.749-5.573-.14 1.026a5.034 5.034 0 0 0-.386-.359h.027l.076-.569a1.159 1.159 0 0 1 .057-.277c.121.039.244.074.372.109zm2.736 4.526a3.434 3.434 0 0 1 .581-.293l.782 2.258-1.416-1.923zm4.38 5.156-2.131-2.007a.481.481 0 0 0 .082-.185l2.917.341v.016a3.351 3.351 0 0 1-.87 1.835zm-3.163 1.041.573-2.849a.5.5 0 0 0 .337-.082l.583 2.874a3.448 3.448 0 0 1-1.316.076zm-2.447-1.847 2.621-1.2a.5.5 0 0 0 .142.127l-1.847 2.219a3.43 3.43 0 0 1-.918-1.152zm-9.542-10.206.1-.187 5.521 2.74.074 1.8a4.249 4.249 0 0 0 .094.755 2.757 2.757 0 0 1-.127 1.307.992.992 0 0 0-.431-.166h-.062a1 1 0 0 0-.275 0zm-1.143 8.847-2.131-2.007.027-.041a.481.481 0 0 0 .078-.142l2.9.343a3.352 3.352 0 0 1-.876 1.847zm-3.163 1.026.573-2.849A.5.5 0 0 0 440 329l.583 2.874a3.448 3.448 0 0 1-1.316.076zm-2.449-1.847 2.668-1.219a.494.494 0 0 0 .117.125l-1.862 2.239a3.429 3.429 0 0 1-.922-1.146z" transform="translate(-365.703 -253.819)" style="fill:url(#ewirazi9wh)"/>
        <path data-name="Caminho 2237" d="m442.642 394.021 2.217-2.691-.117.047-3.352 1.554.025-3.454 3.471 1.759v-.036l-.205-.205-1.151-3.364 1.73-.076v-.055h.074v.045l1.164-.051.261.376.035-.066 1.217 1.878.821 1.188-.238.807-3.383-.384v-.074l3.313.386.205-.71-.6-.868-3.093 1.232.16.152h.014l2.475 2.356-1.858 1-.659-3.3-.224-.113-.725 3.615zm.113-.018 1.4.848.675-3.372zm2.5-2.463.616 3.106 1.7-.895zm-3.773-1.95-.023 3.214 3.247-1.5.084-.033zm5.234-1.642-.259-.376-1.133.049-.359 3.535.014.014.113-.138zm1.232 1.778-1.18-1.708-1.609 3.067-.059.072 3-1.188zm-4.31-2.03 1.113 3.251.152.144.353-3.467z" transform="translate(-370.653 -316.668)" style="fill:#535461"/>
        <path data-name="Caminho 2238" d="m519.944 404.341 2.217-2.691-.117.047-3.354 1.554.025-3.455 3.471 1.759v-.039l-.205-.205-1.151-3.364 1.73-.076v-.055h.074v.045l1.164-.051.261.376.035-.066 1.213 1.88.821 1.188-.238.807-3.376-.392v-.074l3.313.386.205-.71-.6-.868-3.093 1.232.16.152h.014l2.475 2.356-1.886.989-.659-3.3-.224-.113-.725 3.615zm.113-.018 1.4.848.675-3.372zm2.5-2.463.616 3.106 1.7-.895zm-3.773-1.95-.023 3.214 3.247-1.5.084-.033zm5.234-1.642-.259-.376-1.133.049-.359 3.535.014.014.113-.138zm1.232 1.778-1.18-1.708-1.607 3.054-.06.072 3-1.188zm-4.31-2.03 1.112 3.251.152.144.353-3.467z" transform="translate(-432.086 -324.87)" style="fill:#535461"/>
        <path data-name="Retângulo 182" transform="rotate(143.03 31.607 51.092)" style="fill:#232323" d="M0 0h2.254v.714H0z"/>
        <path data-name="Retângulo 183" transform="rotate(143.03 31.607 51.092)" style="opacity:.1" d="M0 0h2.254v.714H0z"/>
        <path data-name="Caminho 2239" d="M498.889 379.627a9.4 9.4 0 0 1-1.172-.973 4.892 4.892 0 0 0-.616-.6l-1.073-.856-2.4-.511-.166.394s-.267.571 1.525 1.342a7.675 7.675 0 0 1 2.613 1.716s1.143.572 1.289-.512z" transform="translate(-412.028 -308.085)" style="fill:#db8b8b"/>
        <path data-name="Caminho 2240" d="M513.27 391.039c.06.06.088.092.088.092s1.137.571 1.281-.509l-.14-.1a1.038 1.038 0 0 1-.944.374l-.125-.016z" transform="translate(-427.779 -319.076)" style="opacity:.1"/>
        <path data-name="Caminho 2241" d="M493.489 377.335c.074.234.382.642 1.519 1.131a8.152 8.152 0 0 1 2.525 1.624c.06.06.088.092.088.092s1.137.571 1.281-.509l-.14-.1a7.921 7.921 0 0 1-1.026-.872 4.886 4.886 0 0 0-.616-.6l-1.082-.86-.427-.09-1.968-.411-.166.394a.312.312 0 0 0 .012.201z" transform="translate(-412.04 -308.124)" style="opacity:.05"/>
        <path data-name="Caminho 2242" d="m510.194 389.83.9.784-3.214 2.03s-.39-.316-.125-.585a2.444 2.444 0 0 0 .987-1.42l.263-.267.127.016a1.039 1.039 0 0 0 1.065-.558z" transform="translate(-423.321 -318.528)" style="fill:#abb1d1"/>
        <path data-name="Caminho 2243" d="M493.5 377.327a7.25 7.25 0 0 1 2.094-.043l.035-.144-1.968-.41-.166.394a.312.312 0 0 0 .005.203z" transform="translate(-412.052 -308.116)" style="opacity:.1"/>
        <path data-name="Caminho 2244" d="M495.078 362.19a5.677 5.677 0 0 0-2.258.115l.821-4.475 2.42.326z" transform="translate(-411.526 -293.096)" style="fill:#abb1d1"/>
        <path data-name="Caminho 2245" d="M495.088 362.12a5.678 5.678 0 0 0-2.258.115l.821-4.475 2.42.326z" transform="translate(-411.534 -293.04)" style="opacity:.05"/>
        <path data-name="Caminho 2246" d="M437.037 388.007a4.419 4.419 0 1 0 6.665-3.2 4.35 4.35 0 0 0-.548-.281 4.423 4.423 0 0 0-6.117 3.474zm1.09.131a3.34 3.34 0 0 1 4.569-2.646 3.294 3.294 0 0 1 .515.265 3.337 3.337 0 1 1-5.086 2.379z" transform="translate(-367.162 -314.034)" style="fill:#535461"/>
        <path data-name="Caminho 2247" d="M481.28 363.207s-4.36-.739-4.516-.185 4.335.918 4.335.918a.616.616 0 0 0 .181-.733z" transform="translate(-398.763 -297.058)" style="fill:#535461"/>
        <path data-name="Caminho 2248" d="M481.28 363.207s-4.36-.739-4.516-.185 4.335.918 4.335.918a.616.616 0 0 0 .181-.733z" transform="translate(-398.763 -297.058)" style="opacity:.05"/>
        <circle data-name="Elipse 140" transform="translate(83.814 78.608)" style="stroke:#c1272d;fill:none;stroke-miterlimit:10"/>
        <path data-name="Retângulo 184" transform="rotate(-82.36 85.658 -10.685)" style="fill:#232323" d="M0 0h6.794v.782H0z"/>
        <path data-name="Caminho 2249" d="m514.3 378.07-.07.519c.253.068.515.125.766.166l.078-.581z" transform="translate(-428.542 -309.181)" style="opacity:.1"/>
        <path data-name="Caminho 2250" d="M508.941 375.339a2.926 2.926 0 0 0 .33 0c.431-.025 1.513-.049 1.759.273.31.411.107 1.016-.86.977a5.391 5.391 0 0 1-2.851-.9 3 3 0 0 1 1.622-.35z" transform="translate(-423.05 -307.001)" style="fill:#535461"/>
        <path data-name="Caminho 2251" d="m386.047 330.707-7.794-3.627-.353.589 7.96 3.982z" transform="translate(-300.33 -259.942)" style="fill:#232323"/>
        <path data-name="Caminho 2252" d="m381.985 337.18-5.092-6.57-.392.433 4.815 6.593z" transform="translate(-299.217 -262.748)" style="fill:#232323"/>
        <path data-name="Caminho 2253" d="M464.77 386.863a3.3 3.3 0 0 1 .515.265l.489-.946a4.338 4.338 0 0 0-.548-.281z" transform="translate(-389.234 -315.404)" style="opacity:.1"/>
        <path data-name="Caminho 2254" d="m361.22 329.688.386.293 4-7.736.179-.347-.634-.478-.242.511z" transform="translate(-287.074 -255.444)" style="fill:#232323"/>
        <path data-name="Caminho 2255" d="m379.2 321.931.7.314.179-.347-.634-.478z" transform="translate(-301.363 -255.444)" style="opacity:.1"/>
        <path data-name="Caminho 2256" d="m479.851 364.78-3.9-1.95s-.727 0-.54.616l3.947 1.775s.626.154.493-.441z" transform="translate(-397.667 -297.07)" style="fill:#535461"/>
        <path data-name="Caminho 2257" d="M514.345 398.189a4.462 4.462 0 1 0 4.847-3.846 4.476 4.476 0 0 0-4.847 3.846zm1.063.735a3.338 3.338 0 1 1 3.162 3.165 3.367 3.367 0 0 1-3.161-3.165z" transform="translate(-428.602 -322.098)" style="fill:#535461"/>
        <path data-name="Caminho 2258" d="M514.345 409.48a4.477 4.477 0 0 0-.039.69c.361.021.735.037 1.1.045a3.367 3.367 0 0 1 .205-1.332 66.766 66.766 0 0 0-1.026-.353 4.417 4.417 0 0 0-.24.95z" transform="translate(-428.602 -333.389)" style="opacity:.1"/>
        <path data-name="Caminho 2259" d="m510.257 407-.107.792.774.1.09-.671z" transform="translate(-425.299 -332.173)" style="opacity:.1"/>
        <path data-name="Caminho 2260" d="M506.147 408s-6.037-2.48-6.628-1.923-1.232 1.32.3 1.831 6.414.347 6.414.347z" transform="translate(-416.333 -331.374)" style="fill:#232323"/>
        <path data-name="Caminho 2261" d="m521.14 398.472.7.835a3.34 3.34 0 0 1 .542-.431l-.636-.876a4.463 4.463 0 0 0-.6.472z" transform="translate(-434.034 -325.021)" style="opacity:.1"/>
        <path data-name="Caminho 2262" d="m422.043 350.475-4.021-5.515-.3 1.112 4.023 4.819z" transform="translate(-331.976 -274.152)" style="fill:#232323"/>
        <circle data-name="Elipse 141" cx=".48" cy=".48" r=".48" transform="rotate(-82.36 88.83 -12.64)" style="opacity:.1"/>
        <circle data-name="Elipse 142" cx=".48" cy=".48" r=".48" transform="rotate(-82.36 88.864 -12.67)" style="fill:#535461"/>
        <circle data-name="Elipse 143" cx=".48" cy=".48" r=".48" transform="rotate(-82.36 79.706 -4.71)" style="opacity:.1"/>
        <circle data-name="Elipse 144" cx=".48" cy=".48" r=".48" transform="rotate(-82.36 79.72 -4.66)" style="fill:#535461"/>
        <circle data-name="Elipse 145" cx=".961" cy=".961" r=".961" transform="rotate(-82.519 83.89 -8.413)" style="opacity:.1"/>
        <circle data-name="Elipse 146" cx=".963" cy=".963" r=".963" transform="rotate(-82.36 84.292 -8.672)" style="fill:#535461"/>
        <rect data-name="Retângulo 185" width=".511" height="1.786" rx=".256" transform="rotate(-135.55 56.633 21.559)" style="fill:#232323"/>
        <path data-name="Caminho 2263" d="m486.823 340.812-.062 1.133a2.534 2.534 0 0 1-.072.419 1.622 1.622 0 0 0 .031.7 3.938 3.938 0 0 1 .062 1.369l-.172 1.277.876-.033a11.1 11.1 0 0 1 .392-2.069 18.356 18.356 0 0 0 .283-2.956z" transform="translate(-406.591 -279.442)" style="fill:#db8b8b"/>
        <path data-name="Caminho 2264" d="m486.793 341.365-.031.571a2.535 2.535 0 0 1-.072.421 1.622 1.622 0 0 0 .031.7 3.937 3.937 0 0 1 .062 1.369l-.172 1.277.876-.033a11.094 11.094 0 0 1 .392-2.069 12.047 12.047 0 0 0 .261-2.4c.016-.33.025-.558.025-.558l-1.349.16z" transform="translate(-406.591 -279.434)" style="opacity:.05"/>
        <path data-name="Caminho 2265" d="m501.979 378.048.074 1.874a4.22 4.22 0 0 0 .092.743 3.249 3.249 0 0 1-.242 1.632c-.064.168-.113.275-.113.275l.9.651.328-.183.023-.15.48-3.307a2.363 2.363 0 0 0 .205-1.6 1.274 1.274 0 0 1-.047-.318 8.032 8.032 0 0 1 .031-.973s-.46-1.086-1.258-.511a1.305 1.305 0 0 0-.5.821 2.668 2.668 0 0 0 .027 1.046z" transform="translate(-418.655 -307.546)" style="fill:#db8b8b"/>
        <path data-name="Caminho 2266" d="M502.61 377a4.647 4.647 0 0 0 1.724.655 8.008 8.008 0 0 1 .031-.973s-.46-1.086-1.258-.511a1.306 1.306 0 0 0-.497.829z" transform="translate(-419.307 -307.538)" style="opacity:.1"/>
        <path data-name="Caminho 2267" d="M496.677 356.53a6.877 6.877 0 0 1 1.026.895 4.565 4.565 0 0 0 2.016.8l.076-.558c.053-.675.786-1.334 1.923-3.3a3.022 3.022 0 0 0 .544-2.428.9.9 0 0 0-.174-.326l-4.774.267-.244.476-.5 1.026a9.366 9.366 0 0 1 1.5.392c.207.142-.076 1.127-.076 1.127.085 1.058-1.317 1.629-1.317 1.629z" transform="translate(-414.507 -288.153)" style="fill:#abb1d1"/>
        <path data-name="Caminho 2268" d="m487.531 340.812-.031.56a1.15 1.15 0 0 0 1.166-.257 1.715 1.715 0 0 1 .189.092c.016-.33.025-.558.025-.558z" transform="translate(-407.298 -279.442)" style="opacity:.1"/>
        <path data-name="Caminho 2269" d="M498.921 352.353a1.7 1.7 0 0 1-.021.285s.761.821 2.358-.062a3.635 3.635 0 0 1 2.859-.411 2.209 2.209 0 0 0-.016-.23.9.9 0 0 0-.174-.326l-4.774.267z" transform="translate(-416.358 -288.153)" style="opacity:.1"/>
        <path data-name="Caminho 2270" d="M485.761 323.134c0 .77-.1 1.732-.1 1.732a1.074 1.074 0 0 0 1.552.018 2.071 2.071 0 0 1 1.16 1.726 4.16 4.16 0 0 1 .021 1.047 1.232 1.232 0 0 0 .616.308 2.483 2.483 0 0 0 1.745-.369 3.624 3.624 0 0 1 2.859-.411 4 4 0 0 0-.6-2.053 5.934 5.934 0 0 1-1.422-2.958 1.983 1.983 0 0 0-2.1-1.609s-.029-.345-1.451-.205a2.258 2.258 0 0 0-.971.357 2.861 2.861 0 0 0-1.309 2.417z" transform="translate(-405.836 -263.291)" style="fill:#fff"/>
        <path data-name="Caminho 2271" d="M494.3 322.756v.168c-.016.679.07.616.868.874a.846.846 0 0 0 .991-.546 2.124 2.124 0 0 0 .154-.361l-1.747-.538s-.211-.092-.266.403z" transform="translate(-412.704 -264.896)" style="fill:#db8b8b"/>
        <path data-name="Caminho 2272" d="M498.87 340.3a4.16 4.16 0 0 1 .021 1.047 1.232 1.232 0 0 0 .616.308.353.353 0 0 0 .037-.07 3.241 3.241 0 0 1 .757-.846 1.712 1.712 0 0 0 .573-.87l.858-1.722.228-.14a1.407 1.407 0 0 0-1.587-.326 1.955 1.955 0 0 0-.757 1.679l-.205.39a2.415 2.415 0 0 0-.541.55z" transform="translate(-416.335 -276.968)" style="opacity:.05"/>
        <path data-name="Caminho 2273" d="m490.134 337.765-1.084 1.864a1.712 1.712 0 0 1-.573.87 3.239 3.239 0 0 0-.757.846c-.119.324-1.283 1.078-1.283 1.078s-1.088.764-1.207 1.088c0 0-.928.14-.887.677a.9.9 0 0 1 .174-1.3 15.71 15.71 0 0 0 1.825-1.726 5.974 5.974 0 0 1 1.246-1.642l.205-.39s-.064-1.232.757-1.679a1.424 1.424 0 0 1 1.584.314z" transform="translate(-404.621 -276.785)" style="fill:#db8b8b"/>
        <path data-name="Caminho 2274" d="m501.78 406.959.9.651.328-.183.023-.15a2.274 2.274 0 0 1-.913-.411c-.082-.064-.16-.123-.222-.177-.071.157-.116.27-.116.27z" transform="translate(-418.647 -331.927)" style="opacity:.1"/>
        <path data-name="Caminho 2275" d="m503.526 329.548-.8 1.977s1.566.476 1.936.261a2.388 2.388 0 0 1 1.014-.205 8.1 8.1 0 0 0-.751-2.3c-.337-.272-1.399.267-1.399.267z" transform="translate(-419.402 -270.346)" style="opacity:.1"/>
        <path data-name="Caminho 2276" d="m503.576 329.178-.8 1.977s1.566.476 1.936.261a2.389 2.389 0 0 1 1.014-.205 8.1 8.1 0 0 0-.751-2.3c-.337-.272-1.399.267-1.399.267z" transform="translate(-419.442 -270.052)" style="fill:#fff"/>
        <path data-name="Caminho 2277" d="M494.34 322.576a1.316 1.316 0 0 0 1.847.5 2.126 2.126 0 0 0 .154-.361l-1.747-.538s-.205-.096-.254.399z" transform="translate(-412.734 -264.753)" style="opacity:.1"/>
        <path data-name="Caminho 2278" d="M493.632 315.553a1.316 1.316 0 0 0 2.607.351v-.066a1.314 1.314 0 1 0-2.613-.285z" transform="translate(-412.166 -258.566)" style="fill:#db8b8b"/>
        <path data-name="Caminho 2279" d="M493.612 315.506a1.307 1.307 0 0 0 0 .361.507.507 0 0 0 .3.012c.146-.037.279-.115.421-.164a2.086 2.086 0 0 1 1.254.076.776.776 0 0 0 .616 0l.018-.012a1.314 1.314 0 0 0-2.613-.285z" transform="translate(-412.146 -258.518)" style="opacity:.1"/>
        <path data-name="Caminho 2280" d="M495.205 310.786c-.113.238-.495.195-.714.351-.115.082-.181.216-.3.285a.782.782 0 0 1-.585-.014 2.063 2.063 0 0 0-1.195-.078 3.864 3.864 0 0 1-.411.144.427.427 0 0 1-.41-.086c-.078-.082-.092-.205-.16-.289a1.915 1.915 0 0 0-.2-.177.821.821 0 0 1-.205-.515 1.767 1.767 0 0 1 .187-1.108 1.012 1.012 0 0 1 1-.491c.121.023.236.072.357.1a5.8 5.8 0 0 0 .965.035.548.548 0 0 1 .269.074.5.5 0 0 1 .144.168 1.583 1.583 0 0 1 .205.69c.014.183 0 .345.205.411s1.086-.009.848.5z" transform="translate(-410.084 -254.129)" style="fill:#472727"/>
        <path data-name="Caminho 2281" d="M510.613 343.57a2.159 2.159 0 0 0-1.392.762 1.562 1.562 0 0 1-1.211.645" transform="translate(-423.599 -281.763)" style="opacity:.05"/>
        <path data-name="Retângulo 186" transform="rotate(-172.3 44.337 35.747)" style="fill:#232323" d="M0 0h2.254v.714H0z"/>
        <path data-name="Retângulo 187" transform="rotate(-172.3 44.337 35.747)" style="opacity:.1" d="M0 0h2.254v.714H0z"/>
        <path data-name="Caminho 2282" d="M492.8 406.612a1.4 1.4 0 0 1-.355-.322 3.283 3.283 0 0 1-1.047.569 2.268 2.268 0 0 0-.46.156 1.369 1.369 0 0 1-.7.154s-.581.378.41.587a27.726 27.726 0 0 0 3.376.265l-.025-.95a2.282 2.282 0 0 1-1.199-.459z" transform="translate(-409.346 -331.609)" style="fill:#abb1d1"/>
        <path data-name="Caminho 2283" d="M202.9 215.127a1.37 1.37 0 0 1 .031-.3q.031-.14.053-.326.057-.32.131-.616.037-.148.076-.291a7.915 7.915 0 0 1 1.541-3l.123-.144q.123-.14.244-.263t.238-.23c.078-.072.154-.138.228-.205a4.355 4.355 0 0 1 .411-.308c.127-.084.172-.117.244-.16a1.359 1.359 0 0 1 .575-.191l1.266-.127 1.712-.17 6.187-2.443.244.088a14.717 14.717 0 0 0 .458-1.546 1.378 1.378 0 0 1-.489-.363 1.133 1.133 0 0 1-.337-.439c-.156-.365.142-1.145.082-1.593a7.588 7.588 0 0 0-.761-2.053 9.691 9.691 0 0 1-1.026-4.434 5.028 5.028 0 0 1 2.032-3.937c.657-.441 1.437-.679 2.112-1.082.532-.314 1-.725 1.507-1.078a8.535 8.535 0 0 1 8.524-.616 42.482 42.482 0 0 1 3.594 2.377 6.011 6.011 0 0 0 4.06 1.137.936.936 0 0 1 .04.186l.119-.014c.244.677-.355 1.346-.907 1.808a6.14 6.14 0 0 1-3.6 1.784 3.949 3.949 0 0 0-1.566.119 1.4 1.4 0 0 0-.291.185 7 7 0 0 1-2.141 6.893l3.157-1.156s.131.07.337.205l4.382-2.972s8.791-3.255 11.234 1.792-10.583 2.443-10.583 2.443l-2.787 1.558a2.623 2.623 0 0 1-.306 1.7l-7.595 4.774a40.3 40.3 0 0 0 4.516 1.25c.651 0 2.443.651 3.582 3.255s5.209 15.3 8.791 17.42 13.026 16.281 13.026 16.281l-.043.111q.252.068.495.148a10.029 10.029 0 0 1 4.91 3.762 1.6 1.6 0 0 1-1.1 2.516 6.805 6.805 0 0 1-6.743-2.586c-.064-.086-.123-.17-.179-.25a1.291 1.291 0 0 1-.92.043l-4.573-3.742s3.567 3.569 1.476 6.821l.158.226a52.222 52.222 0 0 1 7.64 16.887s1.954 1.466 2.116 7.326 2.116 15.3 2.116 15.3 1.31 11.236.489 14.655c0 0-.094.135-.267.345.062.074.127.152.205.236.71.78 1.993 1.858 3.489 1.537 2.28-.488 2.28 3.582-.977 3.9a84.5 84.5 0 0 0-8.888 1.814 1.884 1.884 0 0 1-2.321-2.03 17.5 17.5 0 0 1 .977-4.481 8.19 8.19 0 0 1 .1-.228c-.1-.09-.191-.185-.287-.285 0 0 0-7.164-1.139-9.118 0 0-3.093-14.816-2.931-18.561.133-2.923-8.028-14.335-11.566-19.155l.029-.183a168.932 168.932 0 0 0-1.482-1.987l-2.767 17.747a25.711 25.711 0 0 1-2.931 6.024s-7 13.514-7.814 17.747a13.579 13.579 0 0 1-2.463 5.838l.205.205a3.544 3.544 0 0 0 3.079 1.119c2.28-.488 2.28 3.582-.977 3.9a84.5 84.5 0 0 0-8.888 1.814 1.884 1.884 0 0 1-2.321-2.03 14.856 14.856 0 0 1 1.25-5.047 3.411 3.411 0 0 1 .185-.3 1.722 1.722 0 0 1-.647-.464s4.232-10.263 4.232-13.026c0 0 1.792-10.583 7.814-14.491 0 0-.571-13.235-2.285-20.6q-.064-.273-.129-.534a47.7 47.7 0 0 1-4.75-1.006l-.162-4.885-.821 3.9-9.126-5.682s.08-1.026.234-2.6a162.184 162.184 0 0 1 .595-5.235l.088-.655c.119-.876.25-1.765.392-2.633q.08-.489.164-.967.111-.637.232-1.248.06-.3.123-.6t.127-.579q.064-.283.129-.556l.066-.269q.068-.265.135-.515a9.466 9.466 0 0 0 .33-2.135q.016-.431 0-.86a7.516 7.516 0 0 0-.082-.856q-.029-.205-.07-.425a9.8 9.8 0 0 0-.462-1.663q-.152-.41-.341-.8c-.3-.616-.616-1.283-.936-1.985q-.244-.528-.493-1.078t-.5-1.117A49.629 49.629 0 0 1 203 216.588a8.995 8.995 0 0 1-.092-.782 5.308 5.308 0 0 1-.008-.679z" transform="translate(-181.106 -158.482)" style="fill:url(#60rgycs2ei)"/>
        <path data-name="Caminho 2284" d="m335.41 251.67 5.37-3.633s8.528-3.159 10.9 1.736-10.263 2.369-10.263 2.369l-5.37 3z" transform="translate(-286.426 -205.042)" style="fill:#f7bbc3"/>
        <path data-name="Caminho 2285" d="M249.2 777.147a83.271 83.271 0 0 1 8.621-1.759c3.159-.316 3.159-4.263.948-3.789a3.415 3.415 0 0 1-2.978-1.086 6.974 6.974 0 0 1-.626-.669 1.825 1.825 0 0 0-1.026-.616c-1.184-.259-3.649-.649-5.166.168a2.231 2.231 0 0 0-.821.895 14.579 14.579 0 0 0-1.213 4.9 1.827 1.827 0 0 0 2.262 1.96z" transform="translate(-216.109 -619.794)" style="fill:#535461"/>
        <path data-name="Caminho 2286" d="M443.888 784.845a83.286 83.286 0 0 1 8.621-1.759c3.159-.316 3.159-4.263.948-3.789-1.437.312-2.691-.735-3.379-1.49a5.61 5.61 0 0 1-.226-.263 1.825 1.825 0 0 0-1.026-.616c-1.184-.259-3.65-.649-5.166.168a2.83 2.83 0 0 0-1.082 1.437 17.04 17.04 0 0 0-.948 4.345 1.827 1.827 0 0 0 2.258 1.966z" transform="translate(-370.835 -625.914)" style="fill:#535461"/>
        <path data-name="Caminho 2287" d="M446.31 778.541c3.771 3.886 7-.072 7.494-.725a5.61 5.61 0 0 1-.226-.263 1.824 1.824 0 0 0-1.026-.616c-1.184-.259-3.65-.649-5.166.168a2.745 2.745 0 0 0-1.076 1.436z" transform="translate(-374.563 -625.922)" style="opacity:.1"/>
        <path data-name="Caminho 2288" d="M253 770.257c1.642 1.117 7.133.842 7.133.842a5.41 5.41 0 0 0 .5-.616 6.973 6.973 0 0 1-.626-.669 1.824 1.824 0 0 0-1.026-.616c-1.184-.259-3.65-.649-5.166.168a2.231 2.231 0 0 0-.815.891z" transform="translate(-220.931 -619.77)" style="opacity:.1"/>
        <path data-name="Caminho 2289" d="M251.55 566.567c1.106 1.42 7.422 1.106 7.422 1.106a12.1 12.1 0 0 0 2.685-6c.79-4.107 7.58-17.213 7.58-17.213a24.8 24.8 0 0 0 2.843-5.844l2.685-17.2s12.948 17.051 12.8 20.684 2.843 18 2.843 18c1.106 1.895 1.106 8.843 1.106 8.843 4.105 4.263 7.58-.79 7.58-.79.79-3.317-.474-14.212-.474-14.212a110.807 110.807 0 0 1-2.053-14.844c-.158-5.686-2.053-7.106-2.053-7.106a50.653 50.653 0 0 0-7.416-16.382c-.971-1.365-1.587-2.1-1.587-2.1l-25.592 3a16.124 16.124 0 0 1 1.1 3.389c1.663 7.145 2.215 19.984 2.215 19.984-5.844 3.789-7.58 14.054-7.58 14.054.001 2.686-4.104 12.631-4.104 12.631z" transform="translate(-219.779 -416.821)" style="fill:#f88787"/>
        <g data-name="Grupo 9414" style="opacity:.05">
            <path data-name="Caminho 2290" d="m56.394 106.689.328-2.1s12.95 17.055 12.792 20.688 2.843 18 2.843 18c1.106 1.895 1.106 8.843 1.106 8.843a5.449 5.449 0 0 0 2.463 1.585c-1.244.326-2.757.088-4.368-1.585 0 0 0-6.948-1.106-8.843 0 0-3-14.368-2.843-18 .134-2.847-7.773-13.914-11.215-18.588z"/>
            <path data-name="Caminho 2291" d="M35.718 137.117s1.736-10.263 7.58-14.054c0 0-.552-12.837-2.215-19.984a16.162 16.162 0 0 0-1.1-3.389l25.583-3s.06.07.168.205l-23.857 2.8a16.123 16.123 0 0 1 1.1 3.389c1.663 7.145 2.215 19.984 2.215 19.984-5.842 3.789-7.582 14.054-7.582 14.054 0 2.685-4.105 12.634-4.105 12.634.651.837 3.114 1.071 5.027 1.123-1.517.039-6.006.053-6.921-1.123.002-.01 4.107-9.955 4.107-12.639z"/>
        </g>
        <path data-name="Caminho 2292" d="M440 492.345a5.721 5.721 0 0 0 .749 1.307 6.606 6.606 0 0 0 6.542 2.508 1.554 1.554 0 0 0 1.067-2.441 9.682 9.682 0 0 0-4.762-3.649 8.582 8.582 0 0 0-2.016-.411z" transform="translate(-369.548 -397.867)" style="fill:#f7bbc3"/>
        <path data-name="Caminho 2293" d="M277.56 269.633 290.224 265s3.641 1.9 2.2 4.581l-12.315 7.734z" transform="translate(-240.45 -219.32)" style="fill:#cbcdda"/>
        <path data-name="Caminho 2294" d="M277.56 269.633 290.224 265s3.641 1.9 2.2 4.581l-12.315 7.734z" transform="translate(-240.45 -219.32)" style="opacity:.1"/>
        <path data-name="Caminho 2295" d="M261.065 249.183s.158 7.422-3.159 9.949 9.633 3.947 9.633 3.947-2.053-7.58 0-11.527-6.474-2.369-6.474-2.369z" transform="translate(-224.398 -206.502)" style="fill:#f7bbc3"/>
        <path data-name="Caminho 2296" d="M292.32 516.511a16.124 16.124 0 0 1 1.1 3.389c15.273 2.332 25.9-4.021 25.9-4.021.057-.092.113-.183.164-.273-.961-1.365-1.576-2.1-1.576-2.1z" transform="translate(-252.181 -416.821)" style="opacity:.1"/>
        <path data-name="Caminho 2297" d="M440 492.337a5.72 5.72 0 0 0 .749 1.308c1.461-.242 2.631-3.038 2.847-3.584a8.58 8.58 0 0 0-2.016-.411z" transform="translate(-369.548 -397.859)" style="opacity:.1"/>
        <path data-name="Caminho 2298" d="m220.184 282.7 5.686 2.053 2.369 3.159s4.9 1.578 5.528 1.578 2.369.632 3.475 3.159 5.053 14.844 8.528 16.9 12.63 15.789 12.63 15.789-1.578 4.263-3.475 3.633l-4.415-3.633s3.475 3.475 1.42 6.632c0 0-12.95 7.738-30.789 3l-.158-4.737-.79 3.789-8.843-5.528s.776-10.191 2.213-15.38a9.372 9.372 0 0 0-.616-6.544c-2.293-4.778-5.831-12.759-5.4-15.669a7.274 7.274 0 0 1 3.186-5.37 1.32 1.32 0 0 1 .556-.185l2.89-.279z" transform="translate(-184.782 -233.387)" style="fill:#cbcdda"/>
        <path data-name="Caminho 2299" d="M316.56 360s3.159 14.686 6.632 17.055S335.984 387 336.3 388.268" transform="translate(-271.445 -294.82)" style="opacity:.05"/>
        <path data-name="Caminho 2300" d="M323.48 357.71s3.159 14.686 6.632 17.055 12.792 9.949 13.108 11.213" transform="translate(-276.945 -293)" style="fill:#cbcdda"/>
        <path data-name="Caminho 2301" d="M254.454 296.694s-10.9-3.633-14.054-2.685" transform="translate(-210.918 -242.249)" style="opacity:.1"/>
        <g data-name="Grupo 9415" style="opacity:.05">
            <path data-name="Caminho 2302" d="M28.168 73.185c-2.293-4.778-5.831-12.759-5.4-15.669a7.275 7.275 0 0 1 3.186-5.37 1.32 1.32 0 0 1 .556-.185l1.232-.123a1.3 1.3 0 0 0-.365.15 7.318 7.318 0 0 0-3.186 5.37c-.431 2.909 3.108 10.891 5.4 15.669a9.372 9.372 0 0 1 .616 6.535c-1.437 5.189-2.219 15.382-2.219 15.382l7.615 4.76-.193.926-8.843-5.528s.78-10.185 2.217-15.374a9.372 9.372 0 0 0-.616-6.544z"/>
            <path data-name="Caminho 2303" d="m30.822 51.524-1.367.138 5.946-2.348.534.193z"/>
        </g>
        <path data-name="Caminho 2304" d="M269.676 423.781s-4.9-2.685-6.474-2.053-7.422-.158-7.422-.158" transform="translate(-223.141 -343.753)" style="opacity:.05"/>
        <path data-name="Caminho 2305" d="M275.952 253.6c.181-1.583-.552-1.342-.552-1.342s8.528-1.578 6.474 2.369a9.129 9.129 0 0 0-.866 3.473h-.08c-2.379 0-3.763-2.657-4.976-4.5z" transform="translate(-238.734 -208.942)" style="opacity:.05"/>
        <circle data-name="Elipse 147" cx="6.79" cy="6.79" r="6.79" transform="translate(35.404 34.943)" style="fill:#f7bbc3"/>
        <path data-name="Caminho 2306" d="M262.359 210.459a9.364 9.364 0 0 1-.991-4.31 4.837 4.837 0 0 1 1.97-3.808c.636-.429 1.388-.659 2.053-1.049.515-.306.971-.7 1.461-1.047a8.278 8.278 0 0 1 8.268-.6 40 40 0 0 1 3.489 2.305 5.839 5.839 0 0 0 3.939 1.1c.236.657-.345 1.305-.881 1.755a5.953 5.953 0 0 1-3.489 1.73 3.789 3.789 0 0 0-1.519.117 2.18 2.18 0 0 0-.776.72 14.113 14.113 0 0 0-1.611 2.732 2.3 2.3 0 0 1-.722 1.061c-.616.39-1.4.066-2.124.037a4.407 4.407 0 0 0-2.968 1.422 9.1 9.1 0 0 1-2.668 2.022c-.784.3-2.352.287-2.753-.651-.15-.353.138-1.11.078-1.544a8.207 8.207 0 0 0-.756-1.992z" transform="translate(-227.575 -166.719)" style="opacity:.1"/>
        <path data-name="Caminho 2307" d="M261.589 209.641a9.364 9.364 0 0 1-.991-4.31 4.873 4.873 0 0 1 1.97-3.82c.636-.429 1.388-.659 2.053-1.049.515-.306.971-.7 1.461-1.047a8.278 8.278 0 0 1 8.268-.6 40.006 40.006 0 0 1 3.489 2.305 5.839 5.839 0 0 0 3.939 1.1c.236.657-.345 1.305-.881 1.755a5.952 5.952 0 0 1-3.489 1.73 3.789 3.789 0 0 0-1.519.117 2.18 2.18 0 0 0-.776.72 14.113 14.113 0 0 0-1.611 2.732 2.3 2.3 0 0 1-.723 1.061c-.616.39-1.4.066-2.124.037a4.407 4.407 0 0 0-2.968 1.422 9.1 9.1 0 0 1-2.668 2.022c-.784.3-2.352.287-2.753-.651-.15-.353.138-1.11.078-1.544a8.311 8.311 0 0 0-.755-1.98z" transform="translate(-226.963 -166.059)" style="fill:#a95f60"/>
        <path data-name="Caminho 2308" d="M868.5 774s4.633-.926 5.868-2.161 6.794-3.4 7.412-1.847 8.338 6.794 3.079 7.722-12.352 1.232-13.9.616S868.5 774 868.5 774z" transform="translate(-710.095 -620.231)" style="fill:#a8a8a8"/>
        <path data-name="Caminho 2309" d="M884.867 794.607c-5.25.926-12.352 1.232-13.9.616-1.176-.47-1.993-2.73-2.315-3.783l-.154.033s.926 3.707 2.463 4.323 8.647.308 13.9-.616c1.515-.267 1.948-.895 1.786-1.691-.123.529-.647.919-1.78 1.118z" transform="translate(-710.095 -637.704)" style="opacity:.2"/>
    </g>
</svg>
