<?xml version="1.0" encoding="utf-8"?>
<!-- Generator: Adobe Illustrator 27.3.1, SVG Export Plug-In . SVG Version: 6.00 Build 0)  -->
<svg version="1.1" id="Layer_1" xmlns="http://www.w3.org/2000/svg" xmlns:xlink="http://www.w3.org/1999/xlink" x="0px" y="0px"
	 viewBox="0 0 35 35" style="enable-background:new 0 0 35 35;" xml:space="preserve">
<style type="text/css">
	.st0{fill:#C5C5C5;}
</style>
<g>
	<path class="st0" d="M19.1,24.8c0.1,0.9-0.2,1.5-1.8,1.5h-6.2c-1.6,0-1.8-0.6-1.8-1.5H19.1z M24.1,26.2h-4.2
		c0.3-0.5,0.4-1.2,0.3-1.8c0.8-0.8,0.8-2.1,0.1-3c0.4-1.1-0.7-4.3-4.7-5l-0.3-2h10.2L24.1,26.2z M18.7,24.1H9.6
		c-0.6-0.1-1-0.7-0.8-1.3c0.1-0.4,0.4-0.8,0.8-0.8h0.9c1.5,0,1.6,1.2,2.4,1.2c0.7,0,0.9-1.2,2.3-1.2h3.4c0.6,0.1,1,0.6,0.9,1.3
		C19.6,23.6,19.2,24,18.7,24.1L18.7,24.1z M19.3,21.1H9.2c0-1.8,1.9-3.6,5-3.6S19.3,19.3,19.3,21.1z M26.3,13.9H14.6v-1
		c0.7,0,1.5-0.5,1.5-1.2h4.5l1.5-2.9l1,0.4l-1.4,2.5h3.1c0,0.7,0.8,1.2,1.5,1.2V13.9z"/>
</g>
</svg>
