<?xml version="1.0" encoding="utf-8"?>
<!-- Generator: Adobe Illustrator 27.3.1, SVG Export Plug-In . SVG Version: 6.00 Build 0)  -->
<svg version="1.1" id="Layer_1" xmlns="http://www.w3.org/2000/svg" xmlns:xlink="http://www.w3.org/1999/xlink" x="0px" y="0px"
	 viewBox="0 0 38.2 35" style="enable-background:new 0 0 38.2 35;" xml:space="preserve">
<style type="text/css">
	.st0{fill:#ffffff;}
</style>
<g>
	<path class="st0" d="M16.7,23.9h-2.4v2.4h-3.2v-7l4.5-3.9l1.4,1.1l5.2-4.5l4.8,4.1v10.2h-4v-3.2h-2.4v3.2h-4V23.9z M15.1,19.9h-1.6
		v1.6h1.6L15.1,19.9z M17.5,19.9h-1.6v1.6h1.6V19.9z M21.5,19.1h-1.6v1.6h1.6V19.1z M23.9,19.1h-1.6v1.6h1.6V19.1z M17,13.3l5.2-4.5
		l6.4,5.6l-1,1.2l-5.3-4.6L17,15.4l-1.3-1.1l-5.1,4.4l-1-1.2l6.1-5.3L17,13.3z M21.5,16.7h-1.6v1.6h1.6V16.7z M23.9,16.7h-1.6v1.6
		h1.6V16.7z"/>
</g>
</svg>
