<?xml version="1.0" encoding="utf-8"?>
<!-- Generator: Adobe Illustrator 27.3.1, SVG Export Plug-In . SVG Version: 6.00 Build 0)  -->
<svg version="1.1" id="Layer_1" xmlns="http://www.w3.org/2000/svg" xmlns:xlink="http://www.w3.org/1999/xlink" x="0px" y="0px"
	 viewBox="0 0 24.5 35" style="enable-background:new 0 0 24.5 35;" xml:space="preserve">
<style type="text/css">
	.st0{fill:#ffffff;}
</style>
<g>
	<path class="st0" d="M12.2,8.8c-3.4,0-6.1,2.7-6.1,6.1c0,0,0,0,0,0c0,4.6,6.1,11.4,6.1,11.4s6.1-6.8,6.1-11.4
		C18.4,11.5,15.6,8.8,12.2,8.8C12.3,8.7,12.3,8.7,12.2,8.8z M12.2,17.1c-1.2,0-2.2-1-2.2-2.2s1-2.2,2.2-2.2s2.2,1,2.2,2.2
		S13.5,17.1,12.2,17.1L12.2,17.1z"/>
</g>
</svg>
