<?xml version="1.0" encoding="utf-8"?>
<!-- Generator: Adobe Illustrator 27.3.1, SVG Export Plug-In . SVG Version: 6.00 Build 0)  -->
<svg version="1.1" id="Layer_1" xmlns="http://www.w3.org/2000/svg" xmlns:xlink="http://www.w3.org/1999/xlink" x="0px" y="0px"
	 viewBox="0 0 35 35" style="enable-background:new 0 0 35 35;" xml:space="preserve">
<style type="text/css">
	.st0{fill:#C5C5C5;}
</style>
<g id="Group_799" transform="translate(.017 -.001)">
	<path id="Path_897" class="st0" d="M23.3,17.8c-0.1,0-0.1-0.1-0.2-0.1c-0.2-0.2-0.6-0.1-0.7,0.1c0,0,0,0.1-0.1,0.1
		c-0.2,0.3-0.4,0.6-0.5,0.8c-0.4,0.6-0.7,1.2-1.1,1.8c-0.2,0.2-0.2,0.6,0,0.9c0.1,0.1,0.1,0.1,0.2,0.1c0.4,0.3,0.8,0.5,1.2,0.8
		c0.3,0.2,0.6,0.2,0.9-0.1c0,0,0.1-0.1,0.1-0.1c0.5-0.8,1.1-1.6,1.6-2.5c0.3-0.5,0.3-0.7-0.2-1c-0.1-0.1-0.2-0.2-0.1-0.4
		c0.1-0.4,0.2-0.9,0.3-1.4c0-0.2,0-0.3,0-0.5c-0.7-1.9-1.3-3.8-2-5.7c0-0.1,0-0.2,0-0.2c0.4,0.4,0.9,0.7,1.2,1.1
		c1.3,1.4,2.1,3.1,2.3,5c0.6,4.8-2.9,9.1-7.7,9.7c-4.8,0.6-9.1-2.9-9.7-7.7c-0.5-3.9,1.8-7.6,5.4-9.1c2.1-0.9,4.6-0.9,6.7,0.1
		c0.1,0.1,0.3,0.2,0.3,0.3c0.7,2.1,1.4,4.2,2.2,6.3C23.7,16.7,23.4,17.3,23.3,17.8z M17.5,14.5c-1.7,0-3,1.3-3,3c0,1.7,1.3,3,3,3
		c1.6,0,3-1.3,3-3c0-1.6-1.3-3-2.9-3C17.5,14.5,17.5,14.5,17.5,14.5L17.5,14.5z M15.2,11.1c0-0.3-0.2-0.5-0.5-0.6
		c-0.1,0-0.2,0-0.3,0.1c-1.5,0.6-2.7,1.7-3.4,3c-0.2,0.2-0.1,0.6,0.1,0.7c0,0,0,0,0,0c0.2,0.2,0.6,0.1,0.8-0.1c0,0,0-0.1,0.1-0.1
		c0.6-1.1,1.6-2,2.8-2.6C15,11.5,15.2,11.3,15.2,11.1L15.2,11.1z M15.5,12.4c-0.1,0-0.2,0.1-0.3,0.1c-1,0.4-1.8,1.1-2.3,2.1
		c-0.2,0.2-0.1,0.6,0.2,0.7c0.1,0.1,0.2,0.1,0.3,0.1c0.3,0,0.5-0.1,0.6-0.3c0.4-0.6,1-1.1,1.6-1.5c0.1,0,0.2-0.1,0.3-0.2
		c0.2-0.2,0.2-0.4,0.1-0.6C15.8,12.6,15.7,12.5,15.5,12.4L15.5,12.4z"/>
	<path id="Path_898" class="st0" d="M18.4,17.5c0,0.5-0.5,0.9-1,0.9c-0.5,0-0.9-0.5-0.9-1c0-0.5,0.5-0.9,1-0.9
		c0.2,0,0.3,0.1,0.4,0.1C18.2,16.9,18.4,17.2,18.4,17.5z"/>
</g>
</svg>
