<?xml version="1.0" encoding="UTF-8"?>
<svg id="Layer_2" data-name="Layer 2" xmlns="http://www.w3.org/2000/svg" xmlns:xlink="http://www.w3.org/1999/xlink" viewBox="0 0 225.35 226.7">
  <defs>
    <style>
      .cls-1 {
        fill: transparent;
      }

      .cls-2 {
        fill: #ffffff;
      }

      .cls-3 {
        filter: url(#y6dzp179aa);
      }
    </style>
    <filter id="y6dzp179aa" x="0" y="0" width="227" height="228">
      <feOffset dy="10"/>
      <feGaussianBlur result="blur" stdDeviation="10"/>
      <feFlood flood-opacity=".102"/>
      <feComposite in="blur" operator="in"/>
      <feComposite in="SourceGraphic"/>
    </filter>
  </defs>
  <g id="Layer_1-2" data-name="Layer 1">
    <g>
      <g class="cls-3">
        <ellipse class="cls-1" cx="112.68" cy="113.35" rx="112.68" ry="113.35"/>
      </g>
      <path class="cls-2" d="m123.95,178.01h-20.92c.05-.88.16-1.76.32-2.63,3-10.72,3.77-21.94,2.25-32.97-3.27-1.72-6.11-3.27-9.01-4.72-.86-.47-1.87-.63-2.83-.43-9.15,3.7-19.57-.71-23.28-9.86-.75-1.85-1.18-3.8-1.28-5.79-.18-1.18-.7-2.28-1.5-3.16-6.77-7.01-6.58-18.18.42-24.95.35-.33.71-.66,1.08-.96,1.08-.73,1.71-1.97,1.66-3.27.31-8.23,6.24-15.18,14.32-16.77,1.76-.22,3.53-.35,5.31-.38.96-2.2,1.66-4.34,2.73-6.27,2.89-4.59,7.65-7.69,13.03-8.47h4.29c5.49.96,10.29,4.27,13.14,9.06,10.93-4.88,19.41-2.14,25.2,7.83.62.8,1.49,1.37,2.47,1.61,9.58,2.11,15.65,11.58,13.54,21.17-.07.33-.15.65-.24.97-.16.9,0,1.82.43,2.63,5.83,7.86,4.18,18.96-3.68,24.79-.88.65-1.82,1.22-2.8,1.7-.92.55-1.59,1.44-1.88,2.47-1.11,5.16-4.48,9.54-9.17,11.96-5.66,3.08-12.56,2.77-17.92-.81-2.2,2.14-4.4,4.07-6.38,6.21-.75.84-1.27,1.85-1.5,2.95-2.45,9.56-.2,18.83,2.21,28.11h0Zm-2.63-49.76c-.65.48-1.87.91-2.04,1.61-.77,3.27-1.32,6.58-1.66,9.92-.16,1.77.96,2.79,2.73,1.82,2.04-1.07,4.02-2.41,5.58-3.37-1.66-3.6-3.06-6.6-4.61-9.98Zm-16.3.81c1.87,2.9,3.54,5.63,5.42,8.2,1.03,1.45,2.41,1.38,3.1-.27.86-2.04,1.38-4.24,2.04-6.21-3.74-.6-6.86-1.14-10.55-1.72h0Zm-2.2.06c-1.34,1.77-2.41,3.22-3.75,4.99,2.41.91,4.5,1.77,6.65,2.57.16-.21.27-.43.43-.65-1.15-2.28-2.25-4.59-3.31-6.92h-.01Z"/>
    </g>
  </g>
</svg>