<?xml version="1.0" encoding="utf-8"?>
<!-- Generator: Adobe Illustrator 27.3.1, SVG Export Plug-In . SVG Version: 6.00 Build 0)  -->
<svg version="1.1" id="Layer_1" xmlns="http://www.w3.org/2000/svg" xmlns:xlink="http://www.w3.org/1999/xlink" x="0px" y="0px"
	 viewBox="0 0 36.2 35" style="enable-background:new 0 0 36.2 35;" xml:space="preserve">
<style type="text/css">
	.st0{fill: #ffffff;}
</style>
<g id="Group_798" transform="translate(0 .009)">
	<path id="Path_887" class="st0" d="M9.1,12.7v-3c0.1-0.2,0.1-0.3,0.2-0.5c0.3-0.3,0.7-0.5,1.1-0.5c5.1,0,10.3,0,15.4,0
		c0.1,0,0.1,0,0.2,0c0.2,0,0.5,0.1,0.6,0.2c0.2,0.2,0.4,0.4,0.5,0.7v2.9c0,0.1-0.1,0.2-0.1,0.2c-0.2,0.8-1.1,1.3-1.9,1.1
		c-0.1,0-0.2-0.1-0.3-0.1c-0.2-0.1-0.4-0.3-0.6-0.4c-0.5,0.7-1.5,0.8-2.2,0.2c-0.1-0.1-0.2-0.2-0.3-0.3c-0.3,0.4-0.8,0.6-1.2,0.6
		c-0.5,0-1-0.2-1.3-0.6c-0.5,0.7-1.5,0.8-2.2,0.3c-0.1-0.1-0.2-0.2-0.3-0.3c-0.5,0.7-1.5,0.8-2.2,0.3c-0.1-0.1-0.2-0.2-0.3-0.3
		c-0.5,0.7-1.5,0.8-2.2,0.3c-0.1-0.1-0.2-0.2-0.3-0.3c0,0-0.1,0.1-0.1,0.1c-0.6,0.6-1.5,0.7-2.1,0.1c0,0-0.1-0.1-0.1-0.1
		C9.3,13.3,9.1,13,9.1,12.7z M19.7,9.4C19.7,9.4,19.7,9.4,19.7,9.4c0,1.1,0,2.1,0,3.1c0,0.3,0.2,0.6,0.4,0.8c0.3,0.2,0.7,0.2,0.9,0
		c0.3-0.2,0.5-0.5,0.5-0.8V9.5c0,0,0-0.1,0-0.1H19.7z M14.7,9.4C14.7,9.4,14.7,9.4,14.7,9.4c0,1.1,0,2.1,0,3.2
		c0,0.5,0.4,0.9,0.9,0.9c0,0,0,0,0,0c0.5,0,0.9-0.5,0.9-1c0,0,0,0,0,0c0-1,0-1.9,0-2.9c0,0,0-0.1,0-0.1H14.7z M11.5,9.4
		c-0.5,0-0.9,0-1.3,0c-0.3,0-0.5,0.2-0.5,0.5c0,0.9,0,1.8,0,2.7c0,0.5,0.5,0.9,1,0.8c0.1,0,0.3-0.1,0.4-0.1c0.3-0.2,0.5-0.6,0.5-1
		c0-0.9,0-1.8,0-2.8C11.6,9.5,11.6,9.5,11.5,9.4L11.5,9.4z M24.7,9.4C24.7,9.4,24.7,9.4,24.7,9.4c0,1.1,0,2.1,0,3.2
		c0,0.5,0.4,0.9,0.9,0.9c0,0,0,0,0,0c0.5,0,0.9-0.4,0.9-0.9c0-0.9,0-1.7,0-2.6c0-0.3-0.2-0.5-0.5-0.5C25.6,9.4,25.2,9.4,24.7,9.4
		L24.7,9.4z"/>
	<path id="Path_888" class="st0" d="M16.6,26.2v-8.9c0-0.1,0-0.2,0-0.2c0-0.1-0.1-0.2-0.3-0.2c-0.1,0-0.1,0-0.2,0H12
		c-0.4,0-0.5,0.1-0.5,0.5v8.9c-0.4,0-0.9,0-1.3,0c-0.1,0-0.2-0.1-0.2-0.2c0-0.1,0-0.2,0-0.2v-9.5h16.3v9.5c0,0.4-0.1,0.5-0.5,0.5
		L16.6,26.2L16.6,26.2z M21.2,24.4h3.3c0.3,0,0.4-0.1,0.4-0.4v-6.7c0-0.3-0.1-0.4-0.4-0.4h-6.7c-0.3,0-0.4,0.1-0.4,0.4V24
		c0,0.3,0.1,0.4,0.4,0.4C19,24.4,20.1,24.4,21.2,24.4L21.2,24.4z"/>
	<path id="Path_889" class="st0" d="M15.9,17.5v4.4h-0.5c-0.2,0-0.4,0.1-0.4,0.3c0,0.2,0.1,0.3,0.4,0.3h0.5v3.7h-3.7v-8.7H15.9z
		 M14.1,18.1h-0.9c-0.2,0-0.4,0.1-0.4,0.4c0,0.6,0,1.2,0,1.7c0,0.2,0.1,0.3,0.3,0.4c0,0,0.1,0,0.1,0c0.6,0,1.2,0,1.7,0
		c0.2,0,0.4-0.1,0.4-0.3c0-0.6,0-1.2,0-1.8c0-0.2-0.1-0.3-0.4-0.3C14.6,18.1,14.3,18.1,14.1,18.1z"/>
	<path id="Path_890" class="st0" d="M10,15.6v-1c0.2,0,0.4,0.1,0.5,0.1c0.4,0,0.8-0.1,1.2-0.3c0.1-0.1,0.2-0.1,0.3,0
		c0.7,0.4,1.6,0.4,2.2,0c0.1-0.1,0.2-0.1,0.3,0c0.7,0.4,1.6,0.4,2.3,0c0.1,0,0.2-0.1,0.2,0c0.7,0.4,1.6,0.4,2.3,0
		c0.1-0.1,0.2,0,0.2,0c0.7,0.4,1.6,0.4,2.2,0c0.1-0.1,0.2-0.1,0.3,0c0.7,0.4,1.5,0.4,2.2,0c0.1,0,0.1,0,0.2,0
		c0.5,0.3,1.2,0.4,1.8,0.3v1C20.8,15.6,15.4,15.6,10,15.6L10,15.6z"/>
	<path id="Path_891" class="st0" d="M18.7,21.3c0.9-0.9,1.2-2.2,1.3-3.4c0-0.1,0-0.2,0-0.2c0,0,0-0.1,0-0.1h2.5c0,0.7,0.1,1.4,0.3,2
		c0.2,0.7,0.5,1.3,1,1.7c-0.7,0.7-1,1.6-1,2.5h-1.2v-0.9c0.2,0,0.4,0,0.6,0c0.2,0,0.3-0.1,0.3-0.2c0-0.2-0.1-0.3-0.2-0.4
		c0,0-0.1,0-0.1,0c-0.3,0-0.6,0-0.9,0c-0.3,0-0.6,0-0.9,0c-0.2,0-0.4,0.1-0.4,0.3s0.1,0.3,0.4,0.3c0.2,0,0.3,0,0.5,0c0,0,0,0,0,0
		v0.9h-1.3C19.7,22.8,19.3,21.9,18.7,21.3L18.7,21.3z"/>
	<path id="Path_892" class="st0" d="M24.3,20.8c-0.2-0.2-0.3-0.3-0.4-0.5c-0.4-0.6-0.6-1.2-0.7-1.9c-0.1-0.3-0.1-0.6-0.1-1h1.3
		L24.3,20.8C24.3,20.8,24.3,20.8,24.3,20.8L24.3,20.8z"/>
	<path id="Path_893" class="st0" d="M18.1,20.8v-3.3h1.2C19.4,18.4,19,20.4,18.1,20.8z"/>
	<path id="Path_894" class="st0" d="M23.4,23.7c0-0.8,0.3-1.6,0.9-2.1v2.1H23.4z"/>
	<path id="Path_895" class="st0" d="M19.1,23.7h-0.9v-2.1C18.7,22.2,19.1,22.9,19.1,23.7L19.1,23.7z"/>
	<path id="Path_896" class="st0" d="M14.7,20h-1.2v-1.2h1.2V20z"/>
</g>
</svg>
