<?xml version="1.0" encoding="utf-8"?>
<!-- Generator: Adobe Illustrator 27.3.1, SVG Export Plug-In . SVG Version: 6.00 Build 0)  -->
<svg version="1.1" id="Layer_1" xmlns="http://www.w3.org/2000/svg" xmlns:xlink="http://www.w3.org/1999/xlink" x="0px" y="0px"
	 viewBox="0 0 37.4 35" style="enable-background:new 0 0 37.4 35;" xml:space="preserve">
<style type="text/css">
	.st0{fill:#C5C5C5;}
</style>
<g id="Group_796" transform="translate(0 .001)">
	<path id="Path_883" class="st0" d="M9.3,25.4c0.1-0.2,0.4-0.4,0.6-0.3v-6.6h4.5c0.4,0,0.7-0.1,1-0.4c1-1,2-2,3-3
		c0,0,0.1-0.1,0.1-0.1l0.6,0.6c0.8,0.8,1.7,1.6,2.5,2.5c0.3,0.3,0.7,0.4,1.1,0.4c1.4,0,2.8,0,4.3,0h0.2V25c0,0,0.1,0,0.1,0
		c0.4,0,0.5,0.1,0.5,0.5c0,0.6-0.1,0.7-0.6,0.7c-5.8,0-11.7,0-17.5,0c-0.2,0-0.4-0.1-0.5-0.3V25.4z M18.4,17.3
		c-0.7,0.1-1.3,0.8-1.2,1.5c0,0.8,0.8,1.5,1.6,1.4c0.8,0,1.4-0.7,1.4-1.4c0.1-0.8-0.5-1.4-1.2-1.6v1.4c0,0.2-0.1,0.3-0.3,0.3
		c0,0-0.1,0-0.1,0c-0.2,0-0.4,0-0.6,0c-0.2,0-0.2-0.1-0.2-0.3c0-0.2,0-0.3,0.2-0.3h0.4V17.3L18.4,17.3z M19.6,25.1
		c0-0.7,0-1.4,0-2.1c0-0.5-0.4-0.9-0.9-0.9c-0.5,0-0.9,0.4-0.9,0.9c0,0,0,0,0,0v1.9c0,0.1,0,0.1,0,0.2L19.6,25.1z M11.8,21.4H13
		v-1.2h-1.2V21.4z M14.8,20.2v1.2H16v-1.2H14.8z M22.6,21.4v-1.2h-1.2v1.2H22.6z M24.4,20.2v1.2h1.2v-1.2H24.4z M11.8,22.6v1.2H13
		v-1.2H11.8z M16,22.7h-1.2v1.2H16V22.7z M22.6,23.9v-1.2h-1.2v1.2H22.6z M24.4,22.6v1.2h1.2v-1.2L24.4,22.6z"/>
	<path id="Path_884" class="st0" d="M9.3,17.4c0.7-1,1.5-1.9,2.2-2.9c0.1-0.2,0.4-0.3,0.6-0.3c1.2,0,2.4,0,3.6,0
		c0.1,0,0.2,0,0.3-0.1c0.7-0.7,1.4-1.3,2.1-2c0.1-0.1,0.1-0.2,0.1-0.3c0-0.9,0-1.7,0-2.6c0-0.2,0.1-0.4,0.3-0.4c0.1,0,0.2,0,0.3,0.1
		c0.4,0.3,1,0.3,1.4,0.1c0.5-0.2,1-0.2,1.4,0C21.9,9,22,9.1,22,9.2c0,0.6,0,1.1,0,1.7v0.2c-0.2-0.1-0.4-0.2-0.6-0.2
		c-0.3-0.1-0.7,0-1,0.1c-0.3,0.1-0.6,0.2-1,0.1c-0.2-0.1-0.3-0.1-0.5-0.2c0,0.3,0,0.6,0,1c0,0,0.1,0.1,0.1,0.1
		c0.7,0.7,1.4,1.4,2.2,2.1c0.1,0.1,0.2,0.1,0.3,0.1c1.2,0,2.4,0,3.6,0c0.3,0,0.5,0.1,0.6,0.3c0.7,0.9,1.4,1.8,2.1,2.7
		c0.1,0.1,0.2,0.2,0.1,0.4c-0.1,0.2-0.2,0.2-0.4,0.2c-1.5,0-3,0-4.5,0c-0.2,0-0.4-0.1-0.5-0.2c-1.2-1.2-2.4-2.4-3.6-3.5l-0.2-0.2
		c-0.1,0.1-0.2,0.2-0.3,0.3l-3.5,3.5c-0.1,0.2-0.3,0.2-0.6,0.2c-1.5,0-3,0-4.5,0c-0.2,0-0.3-0.1-0.4-0.2C9.3,17.5,9.3,17.5,9.3,17.4
		L9.3,17.4z"/>
</g>
</svg>
