<?xml version="1.0" encoding="utf-8"?>
<!-- Generator: Adobe Illustrator 27.3.1, SVG Export Plug-In . SVG Version: 6.00 Build 0)  -->
<svg version="1.1" id="Layer_1" xmlns="http://www.w3.org/2000/svg" xmlns:xlink="http://www.w3.org/1999/xlink" x="0px" y="0px"
	 viewBox="0 0 26.2 35" style="enable-background:new 0 0 26.2 35;" xml:space="preserve">
<style type="text/css">
	.st0{fill:#C5C5C5;}
</style>
<g>
	<path class="st0" d="M8.8,26l-2.2-1.5V14.1l2.2,1V26z M10.2,15.2v11l9.5-1.5V13.9L10.2,15.2z M14.6,9.5c-1.5,0-2.9,1.5-2.9,3.1v1.2
		c0,0.2,0.2,0.4,0.4,0.4c0.2-0.1,0.3-0.2,0.3-0.4v-1.2c0-1.2,1-2.4,2.2-2.4c0.4,0,0.8,0.2,1,0.4c0.3,0.3,0.5,0.8,0.4,1.2v1.2
		c0,0.2,0.2,0.4,0.4,0.4c0.2,0,0.3-0.2,0.3-0.4v-1.2c0.1-1.2-0.8-2.3-2.1-2.4C14.7,9.5,14.6,9.5,14.6,9.5z M9.9,13.9
		c0.1,0,0.3-0.2,0.3-0.4v-1.6c0-1.2,1-2.4,2.2-2.4h0.1c0.3-0.2,0.6-0.4,0.9-0.5c-0.3-0.1-0.7-0.2-1-0.2c-1.5,0-2.9,1.5-2.9,3.1v1.6
		C9.5,13.7,9.7,13.9,9.9,13.9L9.9,13.9z"/>
</g>
</svg>
