<?xml version="1.0" encoding="utf-8"?>
<!-- Generator: Adobe Illustrator 27.3.1, SVG Export Plug-In . SVG Version: 6.00 Build 0)  -->
<svg version="1.1" id="Layer_1" xmlns="http://www.w3.org/2000/svg" xmlns:xlink="http://www.w3.org/1999/xlink" x="0px" y="0px"
	 viewBox="0 0 35 35" style="enable-background:new 0 0 35 35;" xml:space="preserve">
<style type="text/css">
	.st0{fill:#ffffff;}
</style>
<g>
	<path class="st0" d="M26.2,14.6h-1.5v10.2h1.5v1.5H8.8v-1.5h1.5V14.6H8.8v-1.5h17.5V14.6z M14.6,25.5h2.2v-3.6h-2.2V25.5z
		 M18.2,25.5h2.2v-3.6h-2.2L18.2,25.5z M16,19.7H19v-4.4H16V19.7z M12.4,19.7h2.9v-4.4h-2.9L12.4,19.7z M19.7,19.7h2.9v-4.4h-2.9
		L19.7,19.7z M15.3,10.9v0.7c0,0.4-0.3,0.7-0.6,0.7c0,0-0.1,0-0.1,0c-0.4,0-0.7-0.3-0.7-0.6c0,0,0-0.1,0-0.1V9.5
		c0-0.4,0.3-0.7,0.6-0.7c0,0,0.1,0,0.1,0c0.4,0,0.7,0.3,0.7,0.6c0,0,0,0.1,0,0.1v0.7h4.4V9.5c0-0.4,0.3-0.7,0.7-0.7s0.7,0.3,0.7,0.7
		v2.2c0,0.4-0.3,0.7-0.7,0.7s-0.7-0.3-0.7-0.7v-0.7H15.3z M22.2,10.9v0.4c0,0.2-0.2,0.4-0.4,0.4s-0.4-0.2-0.4-0.4l0,0V9.8
		c0-0.2,0.2-0.4,0.4-0.4s0.4,0.2,0.4,0.4v0.4h0.4v0.7H22.2z M12.8,10.2V9.8c0-0.2,0.2-0.4,0.4-0.4s0.4,0.2,0.4,0.4v1.5
		c0,0.2-0.2,0.4-0.4,0.4s-0.4-0.2-0.4-0.4l0,0v-0.4h-0.4v-0.7H12.8z"/>
</g>
</svg>
