<?xml version="1.0" encoding="utf-8"?>
<!-- Generator: Adobe Illustrator 27.3.1, SVG Export Plug-In . SVG Version: 6.00 Build 0)  -->
<svg version="1.1" id="Layer_1" xmlns="http://www.w3.org/2000/svg" xmlns:xlink="http://www.w3.org/1999/xlink" x="0px" y="0px"
	 viewBox="0 0 33.2 35" style="enable-background:new 0 0 33.2 35;" xml:space="preserve">
<style type="text/css">
	.st0{fill:#ffffff;}
</style>
<path class="st0" d="M24.9,25.3v0.9H8.4v-1h0.6V10.8H8.3c0.2-0.4,0.3-0.8,0.5-1.2c0-0.1,0.1-0.2,0.2-0.1c0.4,0,0.7,0,1.1,0V8.8h8.2
	v0.7c0.4,0,0.7,0,1.1,0c0.1,0,0.2,0.1,0.2,0.2c0.1,0.2,0.1,0.4,0.2,0.6c0.1,0.2,0.2,0.4,0.3,0.7h-0.6v4.6h5.2v1.1h-0.5v8.8
	C24.5,25.3,24.7,25.3,24.9,25.3z M16.4,21.3v2.8h1.4v-2.8H16.4z M14.9,24.1v-2.8h-1.4v2.8H14.9z M10.8,21.3v2.8h1.4v-2.8H10.8z
	 M16.4,17.1v2.8h1.4v-2.8L16.4,17.1z M14.9,19.9v-2.8h-1.4v2.8L14.9,19.9z M10.8,17.1v2.8h1.4v-2.8H10.8z M16.4,12.9v2.8h1.4v-2.8
	H16.4z M14.9,15.7v-2.8h-1.4v2.8L14.9,15.7z M10.8,12.9v2.8h1.4v-2.8H10.8z M20.5,20.6h-1.2v1.2c0.4,0,0.7,0,1.1,0
	c0,0,0.1,0,0.1-0.1C20.5,21.4,20.5,21,20.5,20.6z M21.7,20.6v0.7c0,0.6,0,0.4,0.5,0.4h0.7v-1.2H21.7z M20.5,24.1v-1.2h-1.2v1.2H20.5
	z M22.8,22.9h-1.2v1.2h1.2V22.9z M20.5,18.3h-1.2v1.2h1.2V18.3z M22.8,18.3h-1.2v1.1h1.2L22.8,18.3z"/>
</svg>
