<svg data-name="Ilustração megafone" xmlns="http://www.w3.org/2000/svg" width="168" height="143.266" viewBox="0 0 168 143.266">
    <defs>
        <clipPath id="lujwbdaaba">
            <path data-name="União 2" d="m5.113 138.428 9.617-14.76a51.811 51.811 0 0 1-2.182-69.99L8.876 28.224 111.554 0h15.321L168 52.952l-9.407 64.779-50.8 24.459-20.3-17.14a51.879 51.879 0 0 1-54.536 10.706l-6.609 7.51z" style="fill:#ebebeb"/>
        </clipPath>
    </defs>
    <ellipse data-name="Elipse 60" cx="51.58" cy="52.317" rx="51.58" ry="52.317" transform="translate(.418 35.019)" style="fill:#ebebeb"/>
    <g data-name="Grupo de máscara 2" style="clip-path:url(#lujwbdaaba)">
        <g data-name="Grupo 9576" transform="translate(14.696 .894)">
            <path data-name="Caminho 353" d="m174.054 23.89 1.8 3.3 3.3 1.808-3.3 1.8-1.8 3.3-1.8-3.3-3.3-1.8 3.3-1.808z" transform="translate(-130.477 -17.63)" style="fill:#f5f5f5"/>
            <path data-name="Caminho 354" d="m371.747 256.27 1.354 2.477 2.473 1.35-2.473 1.354-1.354 2.477-1.354-2.477-2.473-1.351 2.473-1.35z" transform="translate(-260.994 -181.4)" style="fill:#ebebeb"/>
            <path data-name="Caminho 435" d="M3.827 0 2.473 2.477 0 3.827l2.473 1.354 1.354 2.477 1.354-2.477 2.473-1.354-2.473-1.35z" transform="rotate(-66 147.43 -7.52)" style="fill:#ebebeb"/>
            <path data-name="Caminho 355" d="m385.057 224.51.611 1.115 1.116.612-1.116.612-.611 1.115-.608-1.115-1.119-.612 1.119-.612z" transform="translate(-270.477 -161.856)" style="fill:#e0e0e0"/>
            <path data-name="Caminho 436" d="m1.727 0-.612 1.115L0 1.727l1.115.612.611 1.115.608-1.115 1.119-.612-1.118-.612z" transform="rotate(-66 138.893 -.084)" style="fill:#e0e0e0"/>
            <path data-name="Caminho 359" d="m431.69 179.869 1.458-.288 2.308-5.069-.577-2.912s2.227-.585 2.719 3.281.585 2.839.585 2.839 4.789-.931 5.269-.6c.35.246 1.423 4.977 1.985 7.546a2.842 2.842 0 0 1-1.419 3.2 2 2 0 0 1-.5.169c-1.192.238-7.485.477-7.485.477l-2.519.5z" transform="translate(-300.236 -129.277)" style="fill:#e0e0e0"/>
            <path data-name="Caminho 360" d="m420.42 192.469 2.873 9.8 2.5-.5-1.938-9.769z" transform="translate(-293.301 -141.85)" style="fill:#e0e0e0"/>
            <g data-name="Grupo 9575">
                <path data-name="Caminho 406" d="m209.859 343.881-1.362-4.573a51.966 51.966 0 0 0-.977-3.5 9.48 9.48 0 0 0-2.254-3.369c-1.388-1.412-2.05-1.419-2.981-2.169-.085-.054-.181-.135-.262-.177a1.465 1.465 0 0 1-.454-.385c-.8-.869-.031-2.219 1.6-2.089 1.227.1 3.235.446 6.5 3.812.042.054.085.1.123.146 1.712 2.227 3.319-4.127 3.612-6.493a2.473 2.473 0 0 1 3.35-1.923l7.946 3.715a3.719 3.719 0 0 1 2.308.077 2.369 2.369 0 0 1 1.515 2.8l-3.227 12.85 9.466 31.5h-20.4z" transform="translate(-177.091 -222.46)" style="fill:#ffc3bd"/>
                <path data-name="Caminho 407" d="m213.71 294.991 6.308 12.362 3.154-.877 15.847 12.9a3.208 3.208 0 0 0 4.458-.385l6.039-7.012s-12.174-5.242-14.424-9.581.35-5.327.35-5.327l-5.727-6.508z" transform="translate(-196.635 -202.501)" style="fill:#5d5d5d"/>
                <path data-name="Caminho 408" d="M95.038 166.671s9.231-2.042 22.228-14.535 19.1-29.1 20.67-29 8.535-3.142 21.743 25.586 8 35.386 5.385 35.348-20.47-5.027-31.617-3.762-25.474 7.077-25.474 7.077z" transform="translate(-69.782 -99.429)" style="fill:#5d5d5d"/>
                <path data-name="Caminho 409" d="m247.619 243.452 3.15 5.989 1.412 2.692a7.816 7.816 0 0 0 10.189 3.462l19.789-6.9-11.539-26.305-19.77 10.535a7.816 7.816 0 0 0-3.231 10.527z" transform="translate(-241.975 -160.552)" style="fill:#5d5d5d"/>
                <g data-name="Grupo 9570">
                    <path data-name="Caminho 410" d="m247.619 243.452 3.15 5.989 1.412 2.692a7.816 7.816 0 0 0 10.189 3.462l19.789-6.9-11.539-26.305-19.77 10.535a7.816 7.816 0 0 0-3.231 10.527z" transform="translate(-241.975 -160.552)" style="fill:#121212"/>
                </g>
                <path data-name="Caminho 411" d="M119.844 150.28c7.027 15.562 9.954 29.432 6.539 30.974s-11.889-9.82-18.916-25.386-9.954-29.428-6.539-30.974 11.888 9.824 18.916 25.386z" transform="translate(-31 -100.47)" style="fill:#5d5d5d"/>
                <g data-name="Grupo 9571">
                    <path data-name="Caminho 412" d="M119.844 150.28c7.027 15.562 9.954 29.432 6.539 30.974s-11.889-9.82-18.916-25.386-9.954-29.428-6.539-30.974 11.888 9.824 18.916 25.386z" transform="translate(-31 -100.47)" style="fill:#121212"/>
                </g>
                <path data-name="Caminho 413" d="m328.967 286.863 5.366-1.685-3.319-6.308-4.023 2.5z" transform="translate(-325.023 -195.308)" style="fill:#5d5d5d"/>
                <g data-name="Grupo 9572" style="opacity:.6">
                    <path data-name="Caminho 414" d="m5.99 83.562 3.319 6.308-1.1.346-2.7-6.358z"/>
                </g>
                <path data-name="Caminho 415" d="M295.648 274.2c.077.173 2.754-.865 5.977-2.308s5.769-2.781 5.7-2.954-2.754.869-5.981 2.327-5.777 2.764-5.696 2.935z" transform="translate(-285.957 -189.186)" style="fill:#5d5d5d"/>
                <path data-name="Caminho 416" d="M302.956 264.56c.085.169 2.508-.85 5.412-2.281s5.189-2.727 5.1-2.9-2.5.85-5.408 2.281-5.188 2.727-5.104 2.9z" transform="translate(-294.92 -183.302)" style="fill:#5d5d5d"/>
                <path data-name="Caminho 417" d="M292.926 285.28c.027.092.665-.054 1.681-.385.508-.158 1.112-.358 1.777-.585s1.346-.588 2.081-.923c2.935-1.362 5.177-2.692 5.1-2.854s-2.485.881-5.385 2.231c-.731.331-1.408.692-2.046.958s-1.212.5-1.692.715c-.958.443-1.542.751-1.516.843z" transform="translate(-281.159 -196.321)" style="fill:#5d5d5d"/>
                <path data-name="Caminho 418" d="M121.9 180.306s8.023-4.977 12.412 5.866-4.05 12.624-4.05 12.624a72.171 72.171 0 0 1-8.362-18.49z" transform="translate(-47.385 -133.953)" style="fill:#5d5d5d"/>
                <g data-name="Grupo 9573" style="opacity:.5">
                    <path data-name="Caminho 419" d="M65.981 33.429a11.735 11.735 0 0 0 .312 2.073c.246 1.327.615 3.246 1.131 5.608l1.115 3.8q.3 1.019.627 2.112l.327 1.1c.119.385.277.735.415 1.108l1.812 4.677c.158.408.319.815.477 1.227s.385.8.565 1.212l1.192 2.462 1.2 2.458c.2.385.385.815.6 1.192s.45.769.669 1.135l2.558 4.319c.208.338.385.688.615 1.012l.665.942 1.277 1.8 2.308 3.219c1.538 1.858 2.823 3.323 3.708 4.343a12.61 12.61 0 0 0 1.435 1.539 12.426 12.426 0 0 0-1.231-1.7c-.854-1.089-2.058-2.612-3.535-4.485l-2.212-3.242-1.239-1.8c-.215-.308-.431-.623-.65-.942s-.385-.669-.6-1.012l-2.527-4.316-.658-1.131c-.227-.385-.385-.769-.6-1.185l-1.185-2.442c-.385-.827-.8-1.639-1.189-2.442-.185-.385-.408-.792-.562-1.2l-.481-1.215-1.839-4.616c-.142-.385-.3-.727-.427-1.1s-.227-.731-.338-1.092l-.654-2.089-1.181-3.75-1.335-5.539a12.415 12.415 0 0 0-.577-2.039z"/>
                </g>
                <g data-name="Grupo 9574" style="opacity:.4">
                    <path data-name="Caminho 420" d="M50.965 108.613a15.514 15.514 0 0 1-2.562 3.742 5.283 5.283 0 0 1-4.1 1.642 3.208 3.208 0 0 1-2.958-2.923 1.891 1.891 0 0 1-2.435-.431 4.247 4.247 0 0 1-.865-2.527 2.384 2.384 0 0 1-3.012-.812 3.9 3.9 0 0 1-.385-3.292 11.6 11.6 0 0 1 1.581-3.027 4.18 4.18 0 0 1-2.239-.227 1.43 1.43 0 0 1-.742-1.889 1.857 1.857 0 0 1 1.1-.7 6.971 6.971 0 0 1 3.258-.527c.285 0-.5 3.262 7.262 7.716 4.613 2.632 6.097 3.255 6.097 3.255z"/>
                </g>
                <path data-name="Caminho 421" d="M243.63 355.9c0 .035.519-.065 1.358-.042a7.693 7.693 0 0 1 5.7 2.735c.542.638.769 1.1.819 1.085a1.186 1.186 0 0 0-.15-.339 6.732 6.732 0 0 0-.558-.838 7.308 7.308 0 0 0-5.812-2.785 5.863 5.863 0 0 0-1 .092 1.048 1.048 0 0 0-.358.092z" transform="translate(-210.135 -242.598)" style="fill:#eb996e"/>
                <path data-name="Caminho 422" d="M234.706 327.661c-1.25 1.2-2.1 2.527-3.415 3.735-.6.55-1.539 1.589-2.308 1.727s-1.308.035-1.623-.712c-.258-.6.2-1.431.519-1.923.835-1.312 1.635-2.335 2.258-3.354.3-.477-.085-.577-.223-.354-.6.623-1.5 1.154-2.039 1.842-.738.927-.869 2.162-2.8 1.769a1.685 1.685 0 0 1-.715-.3 1.933 1.933 0 0 1-.454-2.308 6.278 6.278 0 0 1 1.077-1.623c-.823.927-1.719 1.923-3.027 2.008a1.8 1.8 0 0 1-1.827-.988 2.384 2.384 0 0 1 .723-2.412 25.261 25.261 0 0 1 3.281-3.354 2.511 2.511 0 0 1 1.592-.589 2.275 2.275 0 0 1 1.923.708 2.635 2.635 0 0 1 .527 2.012 3.34 3.34 0 0 1 3.054.038 4.331 4.331 0 0 1 1.7 2.446z" transform="translate(-184.245 -221.129)" style="fill:#ffc3bd"/>
                <path data-name="Caminho 423" d="M251.545 313.987a2.031 2.031 0 0 0 .238-2.308c-.288-.565-.65-1.115-1.019-1.239-1.612-.542-8.658.677-8.593 2.239s.581 2.308 4.4 1.758c.673-.1 1.727-.227 1.727-.227l.923 1.385z" transform="translate(-210.103 -214.655)" style="fill:#ffc3bd"/>
                <path data-name="Caminho 424" d="M236.64 331.259a9.189 9.189 0 0 1 3.881-3.519 2.237 2.237 0 0 0-.746.262 6.7 6.7 0 0 0-2.8 2.539 2.15 2.15 0 0 0-.335.718z" transform="translate(-196.46 -225.381)" style="fill:#eb996e"/>
                <path data-name="Caminho 425" d="M243.784 322.2c.035.031.5-.346 1.135-.735a8.251 8.251 0 0 1 .823-.458c.219-.1.365-.127.362-.158s-.165-.046-.408.027a3.733 3.733 0 0 0-.885.419 2.672 2.672 0 0 0-1.027.905z" transform="translate(-204.788 -221.125)" style="fill:#eb996e"/>
                <path data-name="Caminho 426" d="M246.433 319.112a3.011 3.011 0 0 0 1.358-.154 2.507 2.507 0 0 0 .869-.469c.192-.165.273-.3.254-.319a5.763 5.763 0 0 1-1.181.585 10.13 10.13 0 0 0-1.3.357z" transform="translate(-208.622 -219.492)" style="fill:#eb996e"/>
                <path data-name="Caminho 427" d="M220.54 336.314a5 5 0 0 0 .642-.835 7.474 7.474 0 0 1 1.642-1.869 3.3 3.3 0 0 1 2.331-.615 3.957 3.957 0 0 1 .981.312 1.011 1.011 0 0 0-.227-.177 2.147 2.147 0 0 0-.731-.277 3.285 3.285 0 0 0-2.469.6 6.659 6.659 0 0 0-1.646 1.95 6.252 6.252 0 0 0-.523.911z" transform="translate(-175.883 -228.501)" style="fill:#eb996e"/>
                <path data-name="Caminho 428" d="M234.07 382.42a21.511 21.511 0 0 0 2.877.412 20.87 20.87 0 0 0 2.9.215 42.905 42.905 0 0 0-5.781-.627z" transform="translate(-194.801 -259.029)" style="fill:#eb996e"/>
            </g>
            <path data-name="Caminho 429" d="m404.667 49.84.435.8.792.435-.792.435-.435.792-.435-.792-.792-.435.792-.435z" transform="translate(-304.366 -49.84)" style="fill:#5d5d5d"/>
            <path data-name="Caminho 430" d="m428.271 101.01.435.8.792.435-.792.435-.435.792-.435-.792-.8-.435.8-.435z" transform="translate(-318.889 -81.328)" style="fill:#5d5d5d"/>
            <path data-name="Caminho 431" d="m49.937 237.53.435.8.8.435-.8.431-.435.8-.435-.8-.792-.431.792-.435z" transform="translate(-48.71 -192.514)" style="fill:#5d5d5d"/>
            <path data-name="Caminho 432" d="m371.125 62.56 1 1.835 1.835 1-1.835 1-1 1.835-1-1.835-1.835-1 1.835-1z" transform="translate(-282.736 -57.667)" style="fill:#5d5d5d"/>
            <path data-name="Caminho 433" d="m68.531 205.1 1 1.827 1.831 1-1.831 1-1 1.827-1-1.827-1.831-1 1.831-1z" transform="translate(-59.165 -172.558)" style="fill:#5d5d5d"/>
            <path data-name="Caminho 434" d="m432.131 318.56 1 1.831 1.827 1-1.827 1-1 1.831-1-1.831-1.831-1 1.831-1z" transform="translate(-298.766 -219.731)" style="fill:#5d5d5d"/>
            <circle data-name="Elipse 59" cx="6.632" cy="6.632" r="6.632" transform="translate(.458 124.021)" style="fill:#e0e0e0"/>
        </g>
    </g>
</svg>
