<svg xmlns="http://www.w3.org/2000/svg" width="32" height="32" viewBox="0 0 32 32">
    <path data-name="Icon awesome-app-store" d="m16.556 7.846.587-1.013a1.318 1.318 0 0 1 2.284 1.317l-5.645 9.774h4.084a1.807 1.807 0 0 1 1.49 2.632H7.388a1.316 1.316 0 0 1 0-2.632h3.355l4.3-7.445L13.7 8.15a1.318 1.318 0 1 1 2.284-1.316l.574 1.013zm-5.077 14.065L10.214 24.1a1.318 1.318 0 1 1-2.284-1.312l.942-1.626a2.248 2.248 0 0 1 2.606.748zm10.9-3.981H25.8a1.316 1.316 0 0 1 0 2.632h-1.9l1.284 2.226A1.318 1.318 0 1 1 22.9 24.1q-3.242-5.623-4.865-8.426a3.635 3.635 0 0 1 .465-4.458q1.3 2.226 3.877 6.71zM16.563.563a16 16 0 1 0 16 16 16 16 0 0 0-16-16zm13.935 16A13.935 13.935 0 1 1 16.563 2.627 13.935 13.935 0 0 1 30.5 16.563z" transform="translate(-.563 -.563)" style="fill:#fff"/>
</svg>
