<svg xmlns="http://www.w3.org/2000/svg" width="51" height="30" viewBox="0 0 51 30">
    <g data-name="Grupo 9327">
        <path data-name="Caminho 28" d="M33.064 23.439a1.231 1.231 0 0 1-.948-2.019l5.515-6.597-5.318-6.61a1.231 1.231 0 0 1 .185-1.735 1.231 1.231 0 0 1 1.8.185l5.942 7.384a1.231 1.231 0 0 1 0 1.563l-6.154 7.386a1.231 1.231 0 0 1-1.022.443z"/>
        <g data-name="voltar página">
            <g data-name="arrow-ios-forward">
                <path data-name="Caminho 28" d="M22.981 23.439a1.231 1.231 0 0 1-.948-2.019l5.515-6.597-5.318-6.61a1.231 1.231 0 0 1 .185-1.735 1.231 1.231 0 0 1 1.8.185l5.942 7.384a1.231 1.231 0 0 1 0 1.563l-6.154 7.386a1.231 1.231 0 0 1-1.022.443z"/>
            </g>
        </g>
        <g data-name="voltar página">
            <g data-name="arrow-ios-forward">
                <path data-name="Caminho 28" d="M12.899 23.439a1.231 1.231 0 0 1-.948-2.019l5.515-6.597-5.318-6.61a1.231 1.231 0 0 1 .185-1.735 1.231 1.231 0 0 1 1.8.185l5.942 7.384a1.231 1.231 0 0 1 0 1.563l-6.154 7.386a1.231 1.231 0 0 1-1.022.443z"/>
            </g>
        </g>
    </g>
</svg>
