<svg xmlns="http://www.w3.org/2000/svg" width="27.467" height="42.358" viewBox="0 0 27.467 42.358">
    <path d="m13.753 35.587-7.427-7.851 2.4-2.274 5.016 5.3 4.986-5.3 2.41 2.268zm13.714-3.156V9.928A9.939 9.939 0 0 0 17.539 0H9.928A9.939 9.939 0 0 0 0 9.928v22.5a9.939 9.939 0 0 0 9.928 9.928h7.611a9.939 9.939 0 0 0 9.928-9.925zM17.539 3.31a6.626 6.626 0 0 1 6.619 6.619v22.5a6.626 6.626 0 0 1-6.619 6.619H9.928a6.626 6.626 0 0 1-6.619-6.619V9.928A6.626 6.626 0 0 1 9.928 3.31zM13.733 6.7a1.655 1.655 0 1 0 1.655 1.655A1.654 1.654 0 0 0 13.733 6.7zm0 6.619a1.655 1.655 0 1 0 1.655 1.655 1.654 1.654 0 0 0-1.655-1.654zm0 6.619a1.655 1.655 0 1 0 1.655 1.655 1.654 1.654 0 0 0-1.655-1.654zm0 0" style="opacity:.1"/>
</svg>
