<svg xmlns="http://www.w3.org/2000/svg" width="49.399" height="15.969" viewBox="0 0 49.399 15.969">
    <path data-name="Icon payment-visa" d="M8.321 1.568a1.608 1.608 0 0 0-1.809-1.3H.047L0 .581c4.438 1.134 8.081 3.546 9.721 8.105l-1.4-7.115zm1.808 9.263-.41-2.147a9.684 9.684 0 0 0-5.21-5.26l3.256 12.3h4.222l6.3-15.462h-4.25l-3.908 10.569zm11.265 4.92L23.901.266h-4L17.39 15.75zM32.32.001c-3.956 0-6.729 2.1-6.753 5.113-.025 2.22 1.978 3.45 3.5 4.2 1.568.747 2.075 1.254 2.075 1.929 0 1.037-1.254 1.5-2.387 1.5a7.589 7.589 0 0 1-3.763-.8l-.531-.265-.555 3.473a11.666 11.666 0 0 0 4.462.821c4.2.025 6.924-2.075 6.971-5.282 0-1.762-1.085-3.087-3.377-4.2-1.4-.7-2.242-1.206-2.242-1.929 0-.651.723-1.327 2.291-1.327a6.653 6.653 0 0 1 2.991.58l.362.192.554-3.353a9.951 9.951 0 0 0-3.594-.652zm10.759.266a1.98 1.98 0 0 0-2.1 1.3L35.046 15.75h4.2c.677-1.9.846-2.316.846-2.316h5.113s.122.531.482 2.316h3.712L46.167.266H43.08zm-1.858 9.987s.337-.893 1.593-4.318c-.025.025.337-.893.531-1.472l.288 1.327c.747 3.691.918 4.462.918 4.462z"/>
</svg>
