<svg xmlns="http://www.w3.org/2000/svg" width="444" height="426.152" viewBox="0 0 444 426.152">
    <g data-name="Grupo 9610">
        <path data-name="Path 968" d="M711.161 194.718h-2.332v-63.977A37.028 37.028 0 0 0 671.8 93.713H536.254a37.028 37.028 0 0 0-37.029 37.028v350.983a37.028 37.028 0 0 0 37.028 37.028H671.8a37.028 37.028 0 0 0 37.028-37.028V240.258h2.332z" transform="translate(-337.493 -93.714)" style="fill:#3f3d56"/>
        <path data-name="Path 969" d="M706.285 132.609v355.942a28.083 28.083 0 0 1-28.069 28.08H539.883a28.089 28.089 0 0 1-28.092-28.084V132.609a28.087 28.087 0 0 1 28.091-28.079h16.78a13.354 13.354 0 0 0 12.353 18.384h78.863a13.354 13.354 0 0 0 12.353-18.384h17.974a28.083 28.083 0 0 1 28.08 28.07z" transform="translate(-342.544 -98.061)" style="fill:#fff"/>
        <path data-name="Ellipse 18" d="M57.75 0A57.75 57.75 0 1 1 0 57.75 57.75 57.75 0 0 1 57.75 0z" transform="translate(208.718 61.936)" style="fill:#fe7676"/>
        <path data-name="Path 39" d="M695.526 470.757H572.605a2.279 2.279 0 0 1-2.276-2.276V437.99a2.279 2.279 0 0 1 2.276-2.276h122.921a2.279 2.279 0 0 1 2.276 2.276v30.491a2.279 2.279 0 0 1-2.276 2.276zm-122.921-34.133a1.367 1.367 0 0 0-1.366 1.366v30.491a1.367 1.367 0 0 0 1.366 1.366h122.921a1.367 1.367 0 0 0 1.366-1.366V437.99a1.367 1.367 0 0 0-1.366-1.366z" transform="translate(-366.074 -231.182)" style="fill:#e6e6e6"/>
        <path data-name="Path 40" d="M636.628 454.074a1.594 1.594 0 0 0 0 3.187h75.118a1.594 1.594 0 0 0 .122-3.185h-75.24z" transform="translate(-392.082 -238.562)" style="fill:#e6e6e6"/>
        <path data-name="Path 41" d="M636.628 470.058a1.594 1.594 0 0 0 0 3.187h75.118a1.594 1.594 0 0 0 .122-3.185h-75.24z" transform="translate(-392.082 -244.987)" style="fill:#e6e6e6"/>
        <path data-name="Path 42" d="M695.526 555.737H572.605a2.279 2.279 0 0 1-2.276-2.276V522.97a2.279 2.279 0 0 1 2.276-2.276h122.921a2.279 2.279 0 0 1 2.276 2.276v30.491a2.279 2.279 0 0 1-2.276 2.275zM572.605 521.6a1.367 1.367 0 0 0-1.366 1.366v30.491a1.367 1.367 0 0 0 1.366 1.366h122.921a1.367 1.367 0 0 0 1.366-1.366V522.97a1.367 1.367 0 0 0-1.366-1.366z" transform="translate(-366.074 -265.34)" style="fill:#e6e6e6"/>
        <path data-name="Path 43" d="M636.628 539.33a1.594 1.594 0 0 0 0 3.187h75.118a1.594 1.594 0 0 0 .052-3.186h-75.17z" transform="translate(-392.082 -272.831)" style="fill:#e6e6e6"/>
        <path data-name="Path 44" d="M636.628 555.318a1.594 1.594 0 0 0 0 3.187h75.118a1.594 1.594 0 1 0 .052-3.187h-75.17z" transform="translate(-392.082 -279.257)" style="fill:#e6e6e6"/>
        <path data-name="Path 39-2" d="M695.526 640.995H572.605a2.279 2.279 0 0 1-2.276-2.276v-30.49a2.279 2.279 0 0 1 2.276-2.276h122.921a2.279 2.279 0 0 1 2.276 2.276v30.491a2.279 2.279 0 0 1-2.276 2.28zm-122.921-34.133a1.367 1.367 0 0 0-1.366 1.366v30.491a1.367 1.367 0 0 0 1.366 1.366h122.921a1.367 1.367 0 0 0 1.366-1.366v-30.491a1.367 1.367 0 0 0-1.366-1.366z" transform="translate(-366.074 -299.61)" style="fill:#e6e6e6"/>
        <path data-name="Path 40-2" d="M636.628 624.591a1.593 1.593 0 1 0 0 3.187h75.118a1.594 1.594 0 0 0 .122-3.185h-75.24z" transform="translate(-392.082 -307.102)" style="fill:#e6e6e6"/>
        <path data-name="Path 41-2" d="M636.628 640.578a1.594 1.594 0 0 0 0 3.187h75.118a1.594 1.594 0 0 0 .122-3.185h-75.24z" transform="translate(-392.082 -313.528)" style="fill:#e6e6e6"/>
        <path data-name="Path 970" d="M671.632 805.446H229.95c-.641 0-1.159-.28-1.159-.625s.519-.625 1.159-.625h441.682c.64 0 1.159.28 1.159.625s-.519.625-1.159.625z" transform="translate(-228.791 -379.295)" style="fill:#e6e6e6"/>
        <g data-name="Group 58">
            <path data-name="Path 438" d="M924.282 744.89a11.646 11.646 0 0 1-11.247-1.981c-3.939-3.306-5.174-8.753-6.179-13.8l-2.972-14.918 6.223 4.285c4.475 3.081 9.051 6.262 12.15 10.725s4.451 10.556 1.962 15.385" transform="translate(-500.147 -343.118)" style="fill:#e6e6e6"/>
            <path data-name="Path 439" d="M928.934 772.542c.784-5.707 1.589-11.486 1.039-17.253a27.132 27.132 0 0 0-5.232-14.227 23.666 23.666 0 0 0-6.072-5.5c-.607-.383-1.166.579-.562.961a22.5 22.5 0 0 1 8.9 10.738c1.938 4.929 2.249 10.3 1.914 15.535-.2 3.166-.63 6.311-1.061 9.452a.577.577 0 0 0 .389.684.56.56 0 0 0 .684-.389z" transform="translate(-505.76 -351.671)" style="fill:#f2f2f2"/>
            <path data-name="Path 442" d="M909.728 775.91a8.574 8.574 0 0 1-7.47 3.856c-3.781-.179-6.934-2.819-9.772-5.323l-8.394-7.413 5.555-.266c3.995-.191 8.093-.37 11.9.862s7.315 4.2 8.01 8.133" transform="translate(-492.192 -364.194)" style="fill:#e6e6e6"/>
            <path data-name="Path 443" d="M924.543 791.37c-3.768-6.672-8.144-14.087-15.959-16.457a17.808 17.808 0 0 0-6.713-.693c-.713.06-.535 1.16.18 1.1a16.545 16.545 0 0 1 10.712 2.834 27.835 27.835 0 0 1 7.362 7.946c1.219 1.854 2.311 3.792 3.4 5.725.352.616 1.375.175 1.018-.455z" transform="translate(-499.156 -367.219)" style="fill:#f2f2f2"/>
        </g>
        <g data-name="Group 59" transform="translate(212.306 212.306)">
            <circle data-name="Ellipse 5" cx="9.56" cy="9.56" r="9.56" style="fill:#232323"/>
            <path data-name="Path 40-3" d="M591.99 461.712a6.474 6.474 0 0 0 0 3.187h9.4c.11.014.2-.687.2-1.567a3.554 3.554 0 0 0-.2-1.619h-9.4z" transform="translate(-587.007 -453.938)" style="fill:#e6e6e6"/>
        </g>
        <g data-name="Group 60" transform="translate(212.306 263.315)">
            <circle data-name="Ellipse 5-2" cx="9.56" cy="9.56" r="9.56" style="fill:#232323"/>
            <path data-name="Path 40-4" d="M591.99 547.005a6.474 6.474 0 0 0 0 3.187h9.4c.11.014.2-.687.2-1.567a3.555 3.555 0 0 0-.2-1.62h-9.4z" transform="translate(-587.007 -539.231)" style="fill:#e6e6e6"/>
        </g>
        <g data-name="Group 61" transform="translate(212.306 314.303)">
            <circle data-name="Ellipse 5-3" cx="9.56" cy="9.56" r="9.56" style="fill:#232323"/>
            <path data-name="Path 40-5" d="M591.99 632.263a6.474 6.474 0 0 0 0 3.187h9.4c.11.014.2-.687.2-1.567a3.556 3.556 0 0 0-.2-1.62h-9.4z" transform="translate(-587.007 -624.489)" style="fill:#e6e6e6"/>
        </g>
        <path data-name="Retângulo 368" transform="rotate(-45 254.72 -248.91)" style="fill:#fff" d="M0 0h4.784v40.069H0z"/>
        <path data-name="Retângulo 369" transform="rotate(45 14.138 388.63)" style="fill:#fff" d="M0 0h4.784v40.069H0z"/>
        <path data-name="Caminho 2536" d="M313.606 532.223a6.014 6.014 0 0 0 3.222-8.64l14.093-16.066-11-1.518-11.7 15.489a6.046 6.046 0 0 0 5.383 10.735z" transform="translate(-259.627 -259.433)" style="fill:#9f616a"/>
        <path data-name="Caminho 2537" d="M108.93 668.733H99.1l-4.675-37.913h14.507z" transform="translate(-37.955 -253.56)" style="fill:#9f616a"/>
        <path data-name="Caminho 2538" d="M330.361 795.3h-31.694v-.4A12.336 12.336 0 0 1 311 782.561h19.359z" transform="translate(-256.878 -370.598)" style="fill:#2f2e41"/>
        <path data-name="Caminho 2539" d="m187.846 656.126-9.387 2.914-15.708-34.821 13.854-4.3z" transform="translate(-65.419 -249.178)" style="fill:#9f616a"/>
        <path data-name="Caminho 2540" d="m421.434 779.971-30.268 9.4-.119-.383a12.337 12.337 0 0 1 8.123-15.439l18.487-5.739z" transform="translate(-293.787 -364.668)" style="fill:#2f2e41"/>
        <path data-name="Path 973" d="m325.1 495.656-14.557 16.672 11.4 1.025z" transform="translate(-261.652 -255.276)" style="fill:#e6e6e6"/>
        <path data-name="Path 975" d="M321.481 530.457s-5.056 2.528-5.689 13.905 1.9 41.086 1.9 41.086-2.528 13.273 0 25.282-2.528 55.618.632 55.618 19.593 1.9 20.225 0 1.264-30.338 1.264-30.338 5.056-14.537 0-23.384c0 0 17.655 30.828 29.074 54.356 2.5 5.149 21.49-.632 18.33-6.321s-10.745-31.6-10.745-31.6-5.689-18.962-15.8-27.178l5.057-40.451s10.745-27.178 4.426-30.97-48.674-.005-48.674-.005z" transform="translate(-263.721 -268.587)" style="fill:#2f2e41"/>
        <circle data-name="Ellipse 182" cx="16.433" cy="16.433" r="16.433" transform="translate(60.288 125.979)" style="fill:#a0616a"/>
        <path data-name="Path 976" d="m359.974 361.434-20.429 12.009s-7.822 4.405-10.744 12.009c-3.115 8.1-1.3 19.513 0 22.122 2.528 5.056-1.06 17.7-1.06 17.7l-3.16 29.074s-11.377 10.745-2.528 12.009 24.65-.632 34.131 0 20.225 1.9 17.065-4.426-6.952-10.745-3.16-23.384c2.968-9.892 2.839-46.877 2.643-62.5a12.574 12.574 0 0 0-6.107-10.625z" transform="translate(-264.924 -201.325)" style="fill:#e5e5e5"/>
        <path data-name="Path 980" d="m359.236 394.727 1.9 38.555-18.376 37.212-3.116-1.186 18.956-34.762z" transform="translate(-273.348 -214.707)" style="opacity:.1"/>
        <path data-name="Path 982" d="M392.837 469.958v-4.426l-21.487 35.4z" transform="translate(-286.094 -243.167)" style="opacity:.1"/>
        <path data-name="Path 983" d="m334.038 299.9-2.715-1.086s5.681-6.254 13.583-5.71l-2.223-2.447s5.433-2.175 10.373 3.534c2.6 3 5.6 6.53 7.476 10.5h2.909l-1.214 2.674 4.25 2.674-4.362-.478a14.8 14.8 0 0 1-.413 6.925l.12 2.113s-5.059-7.828-5.059-8.914v2.719s-2.717-2.447-2.717-4.079l-1.482 1.9-.741-2.99-9.138 2.99 1.481-2.448-5.681.816 2.223-2.99s-6.421 3.534-6.668 6.526-3.457 6.8-3.457 6.8l-1.482-2.719s-2.222-12.23 4.937-16.31z" transform="translate(-268.98 -172.713)" style="fill:#2f2e41"/>
        <path data-name="Caminho 2541" d="M349.253 534.432a6.014 6.014 0 0 0 1.637-9.075l11.018-18.312-11.1.459-8.761 17.319a6.046 6.046 0 0 0 7.2 9.609z" transform="translate(-273.563 -259.854)" style="fill:#9f616a"/>
        <path data-name="Path 981" d="m375.52 374.538 4.74-.948s14.221 10.429 9.8 31.286-24.018 52.46-24.018 52.46-4.426 5.689-5.689 6.952-3.792 0-2.528 1.9-1.9 3.16-1.9 3.16-13.905 0-12.641-5.056 22.755-41.092 22.755-41.092l-3.16-33.5s-2.529-16.426 12.641-15.162z" transform="translate(-274.78 -206.211)" style="fill:#e5e5e5"/>
    </g>
</svg>
