<svg xmlns="http://www.w3.org/2000/svg" width="525.136" height="386.716" viewBox="0 0 525.136 386.716">
    <g data-name="Grupo 9609">
        <path data-name="Caminho 2497" d="M720.7 177.241H201.383a2.912 2.912 0 0 1-2.909-2.909v-17.111a2.912 2.912 0 0 1 2.909-2.909H720.7a2.912 2.912 0 0 1 2.909 2.909v17.111a2.912 2.912 0 0 1-2.909 2.909z" transform="translate(-198.474 -154.312)" style="fill:#e4e4e4"/>
        <circle cx="4.13" cy="4.13" r="4.13" transform="translate(12.751 6.5)" style="fill:#fff"/>
        <circle cx="4.13" cy="4.13" r="4.13" transform="translate(28.427 6.5)" style="fill:#fff"/>
        <circle cx="4.13" cy="4.13" r="4.13" transform="translate(44.103 6.5)" style="fill:#fff"/>
        <path data-name="Caminho 2498" d="M963.33 164.806h-18.051a1.337 1.337 0 0 1 0-2.674h18.051a1.337 1.337 0 0 1 .005 2.674z" transform="translate(-456.462 -157.019)" style="fill:#fff"/>
        <path data-name="Caminho 2499" d="M963.33 172.474h-18.051a1.337 1.337 0 0 1 0-2.674h18.051a1.337 1.337 0 0 1 .005 2.674z" transform="translate(-456.462 -159.672)" style="fill:#fff"/>
        <path data-name="Caminho 2500" d="M963.33 180.141h-18.051a1.337 1.337 0 0 1 0-2.674h18.051a1.337 1.337 0 0 1 .005 2.674z" transform="translate(-456.462 -162.326)" style="fill:#fff"/>
        <path data-name="Caminho 2501" d="M424.683 655.485c1.911-15.366 11.434-30.506 26.089-35.506a71.342 71.342 0 0 0 0 48.981c2.252 6.091 5.391 12.631 3.273 18.77-1.318 3.82-4.542 6.742-8.146 8.57s-7.6 2.7-11.554 3.552l-.777.643c-6.268-14.158-10.796-29.643-8.885-45.01z" transform="translate(-276.606 -315.468)" style="fill:#f0f0f0"/>
        <path data-name="Caminho 2502" d="M455.669 620.1a60.978 60.978 0 0 0-15.159 34.319 26.26 26.26 0 0 0 .3 8.222 15.061 15.061 0 0 0 3.746 6.986c1.688 1.855 3.63 3.557 4.838 5.79a9.222 9.222 0 0 1 .451 7.528c-1.067 3.059-3.169 5.552-5.309 7.919-2.377 2.628-4.887 5.32-5.9 8.8-.122.422-.77.208-.648-.214 1.758-6.062 7.642-9.5 10.448-14.964a9.339 9.339 0 0 0 .631-8.194c-1.073-2.352-3.074-4.108-4.8-5.972a16.072 16.072 0 0 1-3.917-6.694 24.276 24.276 0 0 1-.614-8.18 59.16 59.16 0 0 1 4.321-17.978 62.062 62.062 0 0 1 11.159-17.883c.292-.327.741.187.452.512z" transform="translate(-281.359 -315.296)" style="fill:#fff"/>
        <path data-name="Caminho 2503" d="M438.434 661.351a9.149 9.149 0 0 1-6.964-9.584.342.342 0 0 1 .682.034 8.472 8.472 0 0 0 6.5 8.9c.423.099.207.751-.218.65z" transform="translate(-279.099 -326.361)" style="fill:#fff"/>
        <path data-name="Caminho 2504" d="M446.448 689.4a17.634 17.634 0 0 0 7.874-10.156c.124-.422.772-.207.648.214a18.341 18.341 0 0 1-8.215 10.551c-.378.224-.683-.387-.307-.609z" transform="translate(-284.232 -335.899)" style="fill:#fff"/>
        <path data-name="Caminho 2505" d="M452.1 637.8a5.178 5.178 0 0 0 4.908-.249c.375-.229.68.382.307.61a5.8 5.8 0 0 1-5.428.288.353.353 0 0 1-.217-.431.343.343 0 0 1 .431-.217z" transform="translate(-286.093 -321.53)" style="fill:#fff"/>
        <path data-name="Caminho 2506" d="M500.2 661.084c-.23.15-.461.3-.691.455a68.2 68.2 0 0 0-8.72 6.808c-.213.19-.426.386-.634.582A71.9 71.9 0 0 0 474.54 690.3a69.832 69.832 0 0 0-3.825 9.9c-1.411 4.683-2.569 9.872-5.362 13.7a11.975 11.975 0 0 1-.933 1.152h-25.245c-.057-.029-.115-.052-.173-.081l-1.008.046c.04-.179.086-.363.127-.541.023-.1.052-.207.075-.311.017-.069.035-.138.046-.2l.017-.063c.012-.063.029-.121.04-.179q.38-1.547.783-3.093c0-.006 0-.006.006-.011a102.665 102.665 0 0 1 8.64-22.682c.115-.213.23-.432.357-.645a66.622 66.622 0 0 1 5.984-9.077 58.9 58.9 0 0 1 3.922-4.487 48.979 48.979 0 0 1 12.257-9.181c9.055-4.781 19.537-6.612 29.214-3.692.249.074.491.145.738.229z" transform="translate(-281.366 -329.128)" style="fill:#f0f0f0"/>
        <path data-name="Caminho 2507" d="M500.206 662.075a60.979 60.979 0 0 0-32.766 18.275 26.259 26.259 0 0 0-4.712 6.745 15.061 15.061 0 0 0-1.215 7.833c.231 2.5.757 5.026.377 7.536a9.222 9.222 0 0 1-4.173 6.282c-2.693 1.8-5.873 2.526-9.007 3.127-3.48.667-7.1 1.306-10.009 3.479-.352.263-.74-.3-.389-.561 5.053-3.782 11.824-2.988 17.352-5.658a9.339 9.339 0 0 0 5.438-6.163c.559-2.524.019-5.131-.237-7.658a16.071 16.071 0 0 1 .9-7.7 24.277 24.277 0 0 1 4.435-6.9 59.164 59.164 0 0 1 14.274-11.753 62.06 62.06 0 0 1 19.677-7.56c.43-.085.479.6.052.681z" transform="translate(-281.428 -329.798)" style="fill:#fff"/>
        <path data-name="Caminho 2508" d="M485.858 679.182a9.149 9.149 0 0 1 .21-11.845c.291-.329.816.109.524.438a8.471 8.471 0 0 0-.173 11.018c.281.338-.283.725-.561.389z" transform="translate(-297.213 -331.817)" style="fill:#fff"/>
        <path data-name="Caminho 2509" d="M473.221 708.947a17.633 17.633 0 0 0 12.4-3.368c.353-.262.741.3.389.561a18.342 18.342 0 0 1-12.912 3.478c-.436-.048-.312-.718.123-.671z" transform="translate(-293.421 -345.068)" style="fill:#fff"/>
        <path data-name="Caminho 2510" d="M512.012 668.714a5.179 5.179 0 0 0 4.068 2.756c.438.043.313.714-.122.672a5.8 5.8 0 0 1-4.508-3.039.353.353 0 0 1 .086-.475.343.343 0 0 1 .476.086z" transform="translate(-306.768 -332.283)" style="fill:#fff"/>
        <path data-name="Caminho 2511" d="M409.412 302.378h-83.523a9.746 9.746 0 0 1-9.735-9.735v-45.491a9.746 9.746 0 0 1 9.735-9.735h83.523a9.746 9.746 0 0 1 9.735 9.735v45.491a9.746 9.746 0 0 1-9.735 9.736z" transform="translate(-239.2 -183.073)" style="fill:#e6e6e6"/>
        <path data-name="Caminho 2512" d="M604.412 302.378h-83.523a9.746 9.746 0 0 1-9.735-9.735v-45.491a9.746 9.746 0 0 1 9.735-9.735h83.523a9.746 9.746 0 0 1 9.735 9.735v45.491a9.746 9.746 0 0 1-9.735 9.736z" transform="translate(-306.684 -183.073)" style="fill:#232323"/>
        <path data-name="Caminho 2513" d="M799.412 302.378h-83.523a9.746 9.746 0 0 1-9.735-9.735v-45.491a9.746 9.746 0 0 1 9.735-9.735h83.523a9.746 9.746 0 0 1 9.735 9.735v45.491a9.746 9.746 0 0 1-9.735 9.736z" transform="translate(-374.169 -183.073)" style="fill:#e6e6e6"/>
        <path data-name="Caminho 2514" d="M409.412 457.378h-83.523a9.746 9.746 0 0 1-9.735-9.735v-45.49a9.746 9.746 0 0 1 9.735-9.735h83.523a9.746 9.746 0 0 1 9.735 9.735v45.491a9.746 9.746 0 0 1-9.735 9.736z" transform="translate(-239.2 -236.714)" style="fill:#f2f2f2"/>
        <path data-name="Caminho 2515" d="M604.412 457.378h-83.523a9.746 9.746 0 0 1-9.735-9.735v-45.49a9.746 9.746 0 0 1 9.735-9.735h83.523a9.746 9.746 0 0 1 9.735 9.735v45.491a9.746 9.746 0 0 1-9.735 9.734z" transform="translate(-306.684 -236.714)" style="fill:#e6e6e6"/>
        <g transform="translate(288.708 199.199)">
            <circle cx="14.917" cy="14.917" r="14.917" style="fill:#232323"/>
            <path d="M664.995 476.514h-5.072v-5.072a1.193 1.193 0 0 0-1.193-1.193 1.194 1.194 0 0 0-1.193 1.194v5.072h-5.072a1.193 1.193 0 0 0-1.193 1.193 1.193 1.193 0 0 0 1.193 1.193h5.072v5.072a1.193 1.193 0 0 0 1.193 1.193 1.193 1.193 0 0 0 1.193-1.193V478.9h5.072a1.194 1.194 0 0 0 1.193-1.193 1.194 1.194 0 0 0-1.194-1.194z" transform="translate(-643.883 -462.849)" style="fill:#fff"/>
        </g>
        <g transform="translate(418.185 100.456)">
            <circle cx="14.917" cy="14.917" r="14.917" style="fill:#232323"/>
            <path d="M862.995 325.514h-5.072v-5.072a1.193 1.193 0 0 0-1.193-1.193 1.194 1.194 0 0 0-1.193 1.194v5.072h-5.072a1.193 1.193 0 0 0-1.193 1.193 1.194 1.194 0 0 0 1.193 1.193h5.072v5.072a1.193 1.193 0 0 0 1.193 1.193 1.193 1.193 0 0 0 1.193-1.193V327.9h5.072a1.194 1.194 0 0 0 1.193-1.193 1.194 1.194 0 0 0-1.193-1.193z" transform="translate(-841.883 -311.849)" style="fill:#fff"/>
        </g>
        <g transform="translate(161.192 99.149)">
            <circle cx="14.917" cy="14.917" r="14.917" style="fill:#232323"/>
            <path d="M469.995 323.514h-5.072v-5.072a1.193 1.193 0 0 0-1.193-1.193 1.193 1.193 0 0 0-1.193 1.193v5.072h-5.072a1.193 1.193 0 0 0-1.193 1.193 1.194 1.194 0 0 0 1.193 1.194h5.072v5.072a1.193 1.193 0 0 0 1.193 1.193 1.193 1.193 0 0 0 1.193-1.193V325.9h5.072a1.193 1.193 0 0 0 1.193-1.193 1.193 1.193 0 0 0-1.193-1.193z" transform="translate(-448.883 -309.849)" style="fill:#fff"/>
        </g>
        <path data-name="Caminho 2516" d="M626.4 295.047a5.931 5.931 0 0 1-4.787 7.732l-6.9 47.083-11.313-5.526 11.381-47a5.963 5.963 0 0 1 11.619-2.291z" transform="translate(-338.61 -201.588)" style="fill:#9e616a"/>
        <path data-name="Caminho 2517" d="M506.852 496.669a5.931 5.931 0 0 0-2.284-8.8l4.654-50.082-9.747 5-3.043 48.26a5.963 5.963 0 0 0 10.42 5.629z" transform="translate(-301.444 -252.415)" style="fill:#9e616a"/>
        <path data-name="Caminho 2518" d="m322.17 310.946 41.83-1.609 2.413-43.434h-48.26z" transform="translate(-110.103 -92.022)" style="fill:#9e616a"/>
        <path data-name="Caminho 2519" d="M312.426 554.765h7.147l3.4-27.568h-10.548z" transform="translate(-108.122 -182.45)" style="fill:#9e616a"/>
        <path data-name="Caminho 2520" d="m507.436 717.919 11.3-.674v4.841l10.742 7.419a3.024 3.024 0 0 1-1.718 5.512h-13.453l-2.318-4.788-.905 4.788h-5.072z" transform="translate(-304.905 -349.129)" style="fill:#2f2e41"/>
        <path data-name="Caminho 2521" d="M361.04 554.765h7.147l3.4-27.568h-10.548z" transform="translate(-124.946 -182.45)" style="fill:#9e616a"/>
        <path data-name="Caminho 2522" d="M517.368 472.125s-12.515 10.1-5.73 46.186c-1.033.123.137 2.159.137 2.159l.979 29.4.757 3.37-2.515 5.437 1.037 5.908-3.2 53.616 11.808 1.527 11.3-55.677 2.152-6.26 2.159-5.487-1.164-5.851.955-9.082 6.514-30.623 1.595 53.111-2.225 5.07 1.238 5.566-2.759 2.955-1.09 49.692 12.591.589 10.418-50.093-.808-6.392 1.386-4.727v-11.04l2.374-5.211 5.175-28.411s1.561-22.206-9.83-48.338z" transform="translate(-305.882 -263.398)" style="fill:#2f2e41"/>
        <path data-name="Caminho 2523" d="M517.509 365.013s-15.806 3.126-18.53 16.606S494.5 425.6 494.5 425.6l.6 4.248 15.29 3.545 9.759-42.742z" transform="translate(-300.922 -227.231)" style="fill:#3f3d56"/>
        <path data-name="Caminho 2524" d="M584.847 359.042s1.6-2.245 10.575-2.592c.369-.014-.088-.747-.088-.747l4.315-21.091 14.38 7.962-2.429 22.112-23.63 26.877z" transform="translate(-332.188 -216.71)" style="fill:#3f3d56"/>
        <path data-name="Caminho 2525" d="M548.748 428.475c-6.77 0-16.96-.747-32.3-3.024a4.685 4.685 0 0 1-3.933-3.923 3.547 3.547 0 0 1-.6-4.028l.014-.028-.348-.41a3.793 3.793 0 0 1-.253-4.585l-4.751-33.988a14.318 14.318 0 0 1 9.958-15.708l1.754-.546 6.632-8.675h.131l21.292.284 6.91 8.774 11.17 2.634.029.17 2.594 14.984c1.349 7.793-1.745 10.859-5.693 17.712l1.159 19.248.526.955a2.589 2.589 0 0 1-.62 3.249 5.043 5.043 0 0 1 .069 3.121l-.273.9c0 .026-.072.393-.662.841-1.062.812-4.115 2.043-12.805 2.043z" transform="translate(-305.052 -223.267)" style="fill:#3f3d56"/>
        <path data-name="Caminho 2526" d="m556.05 717.919 11.3-.674v4.841l10.74 7.414a3.024 3.024 0 0 1-1.718 5.512h-13.451l-2.319-4.788-.905 4.788h-5.072z" transform="translate(-321.729 -349.129)" style="fill:#2f2e41"/>
        <circle data-name="Elipse 214" cx="16.692" cy="16.692" r="16.692" transform="rotate(-80.783 177.28 -62.482)" style="fill:#9e616a"/>
        <path data-name="Caminho 2527" d="M531.061 286.226c-6.118-4.208-11.506-4.849-15.931-3.655a5.818 5.818 0 0 0-2.33-2.071c-3.452-8.7-13.956-13.92-22.97-11.381-9.073 2.555-15.333 12.606-13.626 21.876 1.058 5.746 4.674 10.722 6.129 16.38 2.816 10.954-4.053 23.5-14.8 27.033 10.174 2.043 21.372-4.171 25.022-13.885 1.773-4.718 1.88-9.869 2.1-14.9a49.413 49.413 0 0 1 1.27-10.321 22.05 22.05 0 0 1 1.642-4.395 15.039 15.039 0 0 1 7.2-6.982 5.74 5.74 0 0 0 .838 5.168c-2.386 2.989-3.685 6.221-3.685 8.157-4.956 9.059 2.131 16.84 11.19 21.8a18.559 18.559 0 0 0 11.857 2.067l.379-1.618.513 1.457 1.714 4.886q2.966 1.435 5.881 3.146a118.237 118.237 0 0 1-1.746-10.31c-.569-4.6 1.414-11.46 2.845-15.629a24.607 24.607 0 0 0 1.347-7.986v-.119l1.393 4.475 5.072-2.164c-.935-5.417.009-11.562-11.304-11.029z" transform="translate(-291.59 -193.823)" style="fill:#2f2e41"/>
        <path data-name="Caminho 2528" d="M686.909 744.864H315.941a.779.779 0 0 1 0-1.557h370.968a.779.779 0 1 1 0 1.557z" transform="translate(-238.857 -358.148)" style="fill:#ccc"/>
        <circle data-name="e4c91425-bc08-43ed-9b2d-9a6452dd6ab0" cx="14.917" cy="14.917" r="14.917" transform="translate(159.487 201.16)" style="fill:#e6e6e6"/>
        <path data-name="Caminho 2529" d="M777.5 450.1h-52.328a6.106 6.106 0 0 1-6.1-6.1v-28.5a6.105 6.105 0 0 1 6.1-6.1h52.322a6.105 6.105 0 0 1 6.1 6.1V444a6.106 6.106 0 0 1-6.1 6.1z" transform="translate(-378.64 -242.593)" style="fill:#f2f2f2"/>
        <g transform="translate(391.704 180.084)">
            <circle cx="7.922" cy="7.922" r="7.922" style="fill:#232323"/>
            <path d="M810.765 439.038h-2.693v-2.693a.634.634 0 0 0-.634-.634.634.634 0 0 0-.634.634v2.693h-2.693a.634.634 0 0 0-.634.634.634.634 0 0 0 .634.634h2.689V443a.634.634 0 0 0 .634.634.634.634 0 0 0 .634-.634v-2.693h2.694a.634.634 0 0 0 .634-.634.634.634 0 0 0-.634-.634z" transform="translate(-799.554 -431.781)" style="fill:#fff"/>
        </g>
        <path data-name="Caminho 2530" d="M814.538 441.318H771.42a6.911 6.911 0 0 1-6.9-6.9v-25.741a1.272 1.272 0 1 1 2.543 0v6.893l50.085 4.553a3.82 3.82 0 0 1 3.752 3.815 1.279 1.279 0 0 1-.022.234l-2.524 13.461a3.819 3.819 0 0 1-3.816 3.685zm-47.478-23.194v16.291a4.364 4.364 0 0 0 4.359 4.359h43.119a1.273 1.273 0 0 0 1.272-1.272 1.273 1.273 0 0 1 .022-.234l2.518-13.429a1.273 1.273 0 0 0-1.268-1.174 1.151 1.151 0 0 1-.115-.005z" transform="translate(-394.367 -241.902)" style="fill:#232323"/>
        <circle data-name="Elipse 215" cx="2.12" cy="2.12" r="2.12" transform="translate(363.476 207.047)" style="fill:#232323"/>
        <circle data-name="Elipse 216" cx="2.12" cy="2.12" r="2.12" transform="translate(416.356 207.047)" style="fill:#232323"/>
        <path data-name="Caminho 2531" d="M810.981 469.588h-56.7a1.272 1.272 0 0 1 0-2.543h56.7a1.272 1.272 0 0 1 0 2.543z" transform="translate(-390.386 -262.541)" style="fill:#232323"/>
        <path data-name="Caminho 2532" d="M765.142 409.3H754.12a1.272 1.272 0 0 1 0-2.543h11.022a1.272 1.272 0 0 1 0 2.543z" transform="translate(-390.329 -241.677)" style="fill:#232323"/>
        <path data-name="Caminho 2533" d="M780.072 464.8a1.267 1.267 0 0 1-.828-.307l-8.359-7.183a1.272 1.272 0 1 1 1.657-1.929l8.359 7.183a1.272 1.272 0 0 1-.829 2.236z" transform="translate(-396.418 -258.397)" style="fill:#232323"/>
        <path data-name="Caminho 2534" d="M787.189 445.921a1.272 1.272 0 0 1-1.272-1.272v-20.414a1.272 1.272 0 1 1 2.543 0v20.414a1.272 1.272 0 0 1-1.272 1.272z" transform="translate(-401.773 -247.286)" style="fill:#232323"/>
        <path data-name="Caminho 2535" d="M828.271 446.818a1.272 1.272 0 0 1-1.271-1.271v-18.719a1.272 1.272 0 0 1 2.543 0v18.719a1.272 1.272 0 0 1-1.272 1.272z" transform="translate(-415.991 -248.183)" style="fill:#232323"/>
    </g>
</svg>
