<svg xmlns="http://www.w3.org/2000/svg" xmlns:xlink="http://www.w3.org/1999/xlink" width="703.021" height="586.924" viewBox="0 0 703.021 586.924">
  <defs>
    <style>
      .cls-1, .cls-3 {
        fill: #232323;
      }

      .cls-1, .cls-15, .cls-7 {
        opacity: 0.1;
      }

      .cls-2 {
        fill: none;
        stroke: #535461;
        stroke-miterlimit: 10;
        stroke-width: 2px;
      }

      .cls-4 {
        opacity: 0.25;
      }

      .cls-5 {
        fill: #b77b7f;
      }

      .cls-6 {
        fill: #dda2a6;
      }

      .cls-8 {
        fill: #fff;
      }

      .cls-9 {
        fill: url(#linear-gradient);
      }

      .cls-10 {
        fill: #67647e;
      }

      .cls-11 {
        fill: #444053;
      }

      .cls-12 {
        fill: #efb7b9;
      }

      .cls-13 {
        fill: #a36468;
      }

      .cls-14 {
        fill: #e3787d;
      }

      .cls-16 {
        fill: #ffd037;
      }

      .cls-17 {
        fill: #65617d;
      }

      .cls-18 {
        fill: #9d9cb5;
      }
    </style>
    <linearGradient id="linear-gradient" x1="0.5" y1="1" x2="0.5" gradientUnits="objectBoundingBox">
      <stop offset="0" stop-color="gray" stop-opacity="0.251"/>
      <stop offset="0.54" stop-color="gray" stop-opacity="0.122"/>
      <stop offset="1" stop-color="gray" stop-opacity="0.102"/>
    </linearGradient>
  </defs>
  <g id="Grupo_9546" data-name="Grupo 9546" transform="translate(0 0.003)">
    <path id="Caminho_2413" data-name="Caminho 2413" class="cls-1" d="M345.6,53.882c20.557-18.3,52.824-22.049,82.2-20.592,92.256,4.589,175.532,49.122,247.568,99.5,26.081,18.234,51.755,37.89,68.68,63.008,34.484,51.128,24.237,121.954-23.675,164.074-16.306,14.329-36.068,25.335-56.357,35.054-36.075,17.312-75,31.212-115.944,35.188-29.192,2.815-58.75.528-87.78-3.406-81.094-11.021-160.682-35.343-227.42-76.949-29.262-18.248-56.843-40.938-68.905-70.446s-4.342-66.949,25.539-84.451c12.358-7.228,27.137-10.493,41.6-13.561,21.3-4.511,42.929-8.959,62.142-18.129,19.853-9.473,43.352-27.791,39.411-48.764C328.462,91.942,325.07,72.18,345.6,53.882Z" transform="translate(-117.701 -33.01)"/>
    <path id="Caminho_2414" data-name="Caminho 2414" class="cls-2" d="M785.47,670.143s17.636-31.24,44.189-40.241A54.358,54.358,0,0,0,857.19,609.31a91.144,91.144,0,0,0,8.121-14.61" transform="translate(-303.43 -199.406)"/>
    <path id="Caminho_2415" data-name="Caminho 2415" class="cls-3" d="M915.453,580.969c-3.026,2.942-17.123,5.975-17.123,5.975s3.455-14,6.481-16.932a7.637,7.637,0,0,1,10.641,10.958Z" transform="translate(-336.864 -191.453)"/>
    <path id="Caminho_2416" data-name="Caminho 2416" class="cls-3" d="M903.924,616.111c-4.138.823-17.594-4.286-17.594-4.286s10.514-9.853,14.646-10.7a7.638,7.638,0,1,1,2.977,14.983Z" transform="translate(-333.309 -201.267)"/>
    <path id="Caminho_2417" data-name="Caminho 2417" class="cls-3" d="M864.588,655.2c-3.99-1.408-13.048-12.6-13.048-12.6s14.075-3.209,18.045-1.829a7.636,7.636,0,1,1-5,14.427Z" transform="translate(-323.003 -212.954)"/>
    <path id="Caminho_2418" data-name="Caminho 2418" class="cls-3" d="M825.923,677.492c-4.159-.7-14.983-10.211-14.983-10.211s13.308-5.546,17.467-4.856a7.635,7.635,0,1,1-2.485,15.067Z" transform="translate(-310.975 -219.452)"/>
    <path id="Caminho_2419" data-name="Caminho 2419" class="cls-3" d="M869.59,597.639c0,4.223,7.629,16.447,7.629,16.447s7.642-12.224,7.642-16.44a7.636,7.636,0,1,0-15.271,0Z" transform="translate(-328.35 -198.017)"/>
    <path id="Caminho_2420" data-name="Caminho 2420" class="cls-3" d="M825.512,623.473c1.267,4.025,12.2,13.414,12.2,13.414s3.631-13.956,2.372-17.981a7.637,7.637,0,1,0-14.574,4.567Z" transform="translate(-315.188 -204.991)"/>
    <path id="Caminho_2421" data-name="Caminho 2421" class="cls-3" d="M786.511,655.907c.563,4.18,9.761,15.285,9.761,15.285s5.94-13.139,5.376-17.319a7.637,7.637,0,1,0-15.138,2.034Z" transform="translate(-303.718 -214.974)"/>
    <path id="Caminho_2422" data-name="Caminho 2422" class="cls-4" d="M915.453,580.969c-3.026,2.942-17.123,5.975-17.123,5.975s3.455-14,6.481-16.932a7.637,7.637,0,0,1,10.641,10.958Z" transform="translate(-336.864 -191.453)"/>
    <path id="Caminho_2423" data-name="Caminho 2423" class="cls-4" d="M903.924,616.111c-4.138.823-17.594-4.286-17.594-4.286s10.514-9.853,14.646-10.7a7.638,7.638,0,1,1,2.977,14.983Z" transform="translate(-333.309 -201.267)"/>
    <path id="Caminho_2424" data-name="Caminho 2424" class="cls-4" d="M864.588,655.2c-3.99-1.408-13.048-12.6-13.048-12.6s14.075-3.209,18.045-1.829a7.636,7.636,0,1,1-5,14.427Z" transform="translate(-323.003 -212.954)"/>
    <path id="Caminho_2425" data-name="Caminho 2425" class="cls-4" d="M825.923,677.492c-4.159-.7-14.983-10.211-14.983-10.211s13.308-5.546,17.467-4.856a7.635,7.635,0,1,1-2.485,15.067Z" transform="translate(-310.975 -219.452)"/>
    <path id="Caminho_2426" data-name="Caminho 2426" class="cls-4" d="M869.59,597.639c0,4.223,7.629,16.447,7.629,16.447s7.642-12.224,7.642-16.44a7.636,7.636,0,1,0-15.271,0Z" transform="translate(-328.35 -198.017)"/>
    <path id="Caminho_2427" data-name="Caminho 2427" class="cls-4" d="M825.512,623.473c1.267,4.025,12.2,13.414,12.2,13.414s3.631-13.956,2.372-17.981a7.637,7.637,0,1,0-14.574,4.567Z" transform="translate(-315.188 -204.991)"/>
    <path id="Caminho_2428" data-name="Caminho 2428" class="cls-4" d="M786.511,655.907c.563,4.18,9.761,15.285,9.761,15.285s5.94-13.139,5.376-17.319a7.637,7.637,0,1,0-15.138,2.034Z" transform="translate(-303.718 -214.974)"/>
    <path id="Caminho_2429" data-name="Caminho 2429" class="cls-2" d="M786.91,658.342s3.462-35.709,24.1-54.7a54.359,54.359,0,0,0,16.82-29.987A90.876,90.876,0,0,0,829.333,557" transform="translate(-303.857 -188.238)"/>
    <path id="Caminho_2430" data-name="Caminho 2430" class="cls-3" d="M859.38,535.429c-1.576,3.913-13.231,12.4-13.231,12.4s-2.5-14.2-.928-18.108a7.636,7.636,0,1,1,14.159,5.708Z" transform="translate(-320.976 -178.687)"/>
    <path id="Caminho_2431" data-name="Caminho 2431" class="cls-3" d="M862.277,571.566c-3.448,2.428-17.847,3.216-17.847,3.216s5.63-13.28,9.058-15.708a7.637,7.637,0,0,1,8.79,12.492Z" transform="translate(-320.896 -188.44)"/>
    <path id="Caminho_2432" data-name="Caminho 2432" class="cls-3" d="M840.691,623.311c-4.223.352-17.031-6.235-17.031-6.235s11.549-8.628,15.722-8.987a7.638,7.638,0,1,1,1.281,15.222Z" transform="translate(-314.743 -203.364)"/>
    <path id="Caminho_2433" data-name="Caminho 2433" class="cls-3" d="M814.843,659.252c-4.082,1.056-17.833-3.265-17.833-3.265s9.916-10.465,14-11.521a7.635,7.635,0,1,1,3.836,14.781Z" transform="translate(-306.849 -214.076)"/>
    <path id="Caminho_2434" data-name="Caminho 2434" class="cls-3" d="M822.594,570.03c1.7,3.857,13.639,11.964,13.639,11.964s2.034-14.272.324-18.129a7.635,7.635,0,1,0-13.964,6.179Z" transform="translate(-314.233 -188.924)"/>
    <path id="Caminho_2435" data-name="Caminho 2435" class="cls-3" d="M792.77,611.515c2.78,3.167,16.588,7.319,16.588,7.319s-2.329-14.23-5.116-17.4a7.635,7.635,0,1,0-11.472,10.079Z" transform="translate(-305.029 -200.633)"/>
    <path id="Caminho_2436" data-name="Caminho 2436" class="cls-3" d="M770.251,656.972c2.21,3.6,15.117,10.015,15.117,10.015s.105-14.413-2.111-18.009a7.636,7.636,0,0,0-13.012,7.994Z" transform="translate(-298.584 -214.407)"/>
    <ellipse id="Elipse_201" data-name="Elipse 201" class="cls-1" cx="83.663" cy="14.026" rx="83.663" ry="14.026" transform="translate(179.663 558.868)"/>
    <ellipse id="Elipse_202" data-name="Elipse 202" class="cls-1" cx="83.663" cy="14.026" rx="83.663" ry="14.026" transform="translate(344.335 451.2)"/>
    <path id="Caminho_2437" data-name="Caminho 2437" class="cls-5" d="M610.65,397.852l-.077,2.737-4.758,167.861H597.82l3.92-167.861.078-3.16Z" transform="translate(-177.099 -117.736)"/>
    <path id="Caminho_2438" data-name="Caminho 2438" class="cls-6" d="M639.846,596.724l-5.989-.014-88.983-.19-4.743-.007,2.527-7.783h96.556Z" transform="translate(-160.008 -174.407)"/>
    <path id="Caminho_2439" data-name="Caminho 2439" class="cls-7" d="M612.3,397.852l-.077,2.737H603.39l.077-3.16Z" transform="translate(-178.749 -117.736)"/>
    <rect id="Retângulo_219" data-name="Retângulo 219" class="cls-5" width="14.828" height="5.581" transform="translate(422.094 276.013)"/>
    <path id="Caminho_2440" data-name="Caminho 2440" class="cls-7" d="M545.662,588.73l-.788,7.791-4.743-.007,2.527-7.783Z" transform="translate(-160.008 -174.407)"/>
    <path id="Caminho_2441" data-name="Caminho 2441" class="cls-6" d="M553.92,392.05l-.246,2.421L533.933,589.159l-9.043-.429,20.8-194.259.233-2.21Z" transform="translate(-155.494 -116.142)"/>
    <path id="Caminho_2442" data-name="Caminho 2442" class="cls-7" d="M678.958,596.724l-5.989-.014-.81-7.981h6.165Z" transform="translate(-199.121 -174.407)"/>
    <path id="Caminho_2443" data-name="Caminho 2443" class="cls-6" d="M683.05,588.73l-9.05.429L654.266,394.471l-.247-2.421,7.988.211.232,2.21Z" transform="translate(-193.747 -116.142)"/>
    <rect id="Retângulo_220" data-name="Retângulo 220" class="cls-8" width="199.417" height="191.211" transform="translate(328.374 83.957)"/>
    <path id="Caminho_2444" data-name="Caminho 2444" class="cls-6" d="M711.055,59.732v46.174h-7.777V59.732a3.892,3.892,0,1,1,7.777,0Z" transform="translate(-279.08 -39.725)"/>
    <rect id="Retângulo_221" data-name="Retângulo 221" class="cls-7" width="7.784" height="4.201" transform="translate(424.191 61.979)"/>
    <path id="Caminho_2445" data-name="Caminho 2445" class="cls-6" d="M712.842,124.763v15.243H699V124.763a1.885,1.885,0,0,1,1.893-1.893h10.071A1.893,1.893,0,0,1,712.842,124.763Z" transform="translate(-277.814 -59.631)"/>
    <circle id="Elipse_203" data-name="Elipse 203" class="cls-7" cx="2.942" cy="2.942" r="2.942" transform="translate(425.141 69.974)"/>
    <circle id="Elipse_204" data-name="Elipse 204" class="cls-5" cx="2.942" cy="2.942" r="2.942" transform="translate(425.141 69.34)"/>
    <rect id="Retângulo_222" data-name="Retângulo 222" class="cls-7" width="13.885" height="1.893" transform="translate(421.144 78.489)"/>
    <rect id="Retângulo_223" data-name="Retângulo 223" class="cls-7" width="25.244" height="4.208" transform="translate(415.464 81.016)"/>
    <rect id="Retângulo_224" data-name="Retângulo 224" class="cls-6" width="25.244" height="4.208" transform="translate(415.464 79.749)"/>
    <path id="Caminho_2446" data-name="Caminho 2446" class="cls-7" d="M533.794,384H639.815a4.575,4.575,0,0,1,4.575,4.574v1H529.22v-1A4.575,4.575,0,0,1,533.794,384Z" transform="translate(-156.776 -113.757)"/>
    <path id="Caminho_2447" data-name="Caminho 2447" class="cls-7" d="M554.682,392.261l7.995-.211-.246,2.421H554.45Z" transform="translate(-164.251 -116.142)"/>
    <rect id="Retângulo_225" data-name="Retângulo 225" class="cls-7" width="14.828" height="2.315" transform="translate(422.094 276.013)"/>
    <path id="Caminho_2448" data-name="Caminho 2448" class="cls-7" d="M662.24,394.471h-7.974l-.247-2.421,7.988.211Z" transform="translate(-193.747 -116.142)"/>
    <path id="Caminho_2449" data-name="Caminho 2449" class="cls-6" d="M533.794,385.77H639.815a4.575,4.575,0,0,1,4.575,4.575v1H529.22v-1A4.575,4.575,0,0,1,533.794,385.77Z" transform="translate(-156.776 -114.282)"/>
    <path id="Caminho_2450" data-name="Caminho 2450" class="cls-9" d="M538.672,256.73c-1.6-.845-19-13.991-19-13.991l-28.087-17.812s-.148-.422-.415-1.147c7.706-8.748,6.024-21.443-1.816-30.367-9.5-10.824-52.43-34.125-65.365-14.195-1.809,2.815-1.872,6.01-2.344,9.107a37.823,37.823,0,0,1-10.254,20.128c-4.307,4.553-9.958,8.748-12.435,13.9a.829.829,0,0,0-.071-.2,12.926,12.926,0,0,0-1.288,3.519c-1.232,6.285,2.991,12.309,5.236,18.424a33.421,33.421,0,0,1,1.633,6.39c.056-.436.106-.866.155-1.3a40.867,40.867,0,0,1,.556,9.4c-15.588,3.174-15.6,29.839-15.6,29.839s-1.921,10.6-1.6,14.42.317,12.084.317,14.075-1.921,14.413-2.111,15.9a.365.365,0,0,1,0,.063c-.281,1.633-3.2,9.5,3.857,11.26.493.127,1.013.232,1.555.331.3,6.369.851,19.705.366,22.675,0,0,2.569,17.918,4.7,22.471a51.69,51.69,0,0,0,4.715,7.615,8.388,8.388,0,0,1-1.084,3.089c-1.091,1.569-.528,2.857,1.295,3.413-.063.542-.134,1.154-.211,1.844-.781,6.911-1.949,20.648.035,27.609,2.724,9.543,2.885,12.724,2.885,12.724a9.279,9.279,0,0,0,1.126,4.448c1.126,1.591,3.2,16.384,3.2,18.769s5.447,23.85,3.843,28.938-.317,12.245-.317,12.245-.964,12.562-2.111,15.265-1.6,46.272.155,57.56,2.885,20.67,2.885,20.67-1.119,10.338-.162,11.767,2.723,10.022,1.443,10.493-1.921,3.976-1.921,3.976a35.523,35.523,0,0,0,2.189,2.977,12.017,12.017,0,0,1-1.443-.612c.507.7,1.267,1.7,2.2,2.815l-.88,11.436a1.914,1.914,0,0,0,1.408,2.006,16.094,16.094,0,0,0,15.919-4.476c8.009-8.107,10.732-7,12.175-11.922.155-.528.289-1.049.4-1.541a5.194,5.194,0,0,0-7.368-5.785c.514-3.477.915-7.425.528-9.656-.8-4.61-.641-16.693-.641-16.693l-1.119-57.884s2.076-11.45,4.483-15.9,2.111-20.036,2.111-20.036l2.724-51.205,2.562-24.962s2.562-8.586,5.764.957c0,0-1.759,19.234-.957,23.85s1.921,27.031,1.119,31.958-4.321,31.965-2.111,38.8,4.673,15.117,4.18,17.826-2.111,61.375-2.111,61.375,4.328,11.26,1.126,14.948-.162,18.3-.162,18.3.387.274,1.049.654L455.5,638.5l-1.006,13.153a1.928,1.928,0,0,0,1.408,2.013,16.087,16.087,0,0,0,15.919-4.476c8.009-8.114,10.732-7,12.175-11.929.155-.528.288-1.042.408-1.541a5.205,5.205,0,0,0-8.389-5.137l-.19.162a6.624,6.624,0,0,1-.626.471,3.017,3.017,0,0,1-.317.2c.8-3.631,1.971-9.853,1.408-12.766-.8-4.293.8-17.327.8-17.327s4.645-15.588,4.807-21.816l1.281-49.608s-.155-20.2.486-25.124,5.764-47.546,10.887-60.27c3.934-9.74,5.693-34.6,4.652-47.2-.056-.619-.113-1.218-.183-1.773,6.285-4.638,6.911-12.351,6.911-12.351s-5.771-11.021-11.323-15.687-6.749-12.689-6.552-16.1a8.362,8.362,0,0,0-1.921-5.721s-2.562-8.269-4.272-9.114a1.334,1.334,0,0,1-.373-.281c-1.161-1.246-.268-4.807-.268-4.807v-.113c.2-.823,1.408-6.158,1.049-7.523-.429-1.478.211-8.48.211-8.48s4.061-12.084,3.42-21.627,8.333-8.691,8.333-8.691l27.707-.289h3.153a22.174,22.174,0,0,0,3.033-3.139c5.278-.626,15.954-2.618,17.151-8.445C546.9,265.429,540.276,257.582,538.672,256.73ZM410.306,344.953l.19-4.849c.654.563,1.091.922,1.091.922a7.587,7.587,0,0,1,.049,3.885,4.145,4.145,0,0,1-2.4,2.688,2.934,2.934,0,0,0-.387.2l-.267-2.738ZM510.8,259.8c-1.175-.528-5.13-.422-7.164-.422s-5.334-1.7-5.334-1.7c-.7-1.372-4.6-2.189-8.058-2.653-2.632-6.489-6.334-12.815-6.834-19.579a5.2,5.2,0,0,0-.035-.739l.4.7s16.13,10.289,17.946,13.371c1.407,2.351,8.185,7.6,11.324,9.951a3.23,3.23,0,0,1-1.724,1.154A.949.949,0,0,1,510.8,259.8Z" transform="translate(-184.899 -74.014)"/>
    <path id="Caminho_2451" data-name="Caminho 2451" class="cls-10" d="M513.362,828.585c-.12.492-.246,1.007-.4,1.527-1.407,4.926-4.1,3.786-11.964,11.83a15.751,15.751,0,0,1-15.673,4.448,1.9,1.9,0,0,1-1.408-2l.992-13.048.472-6.278s12.555,3.519,18.945-.95a7.524,7.524,0,0,0,.619-.471,1.965,1.965,0,0,0,.141-.141,5.131,5.131,0,0,1,8.276,5.081Z" transform="translate(-214.096 -266.838)"/>
    <path id="Caminho_2452" data-name="Caminho 2452" class="cls-10" d="M457.362,821.585c-.12.493-.246,1.007-.4,1.527-1.407,4.927-4.1,3.786-11.964,11.83a15.75,15.75,0,0,1-15.673,4.448,1.9,1.9,0,0,1-1.407-2l.992-13.048.472-6.277s12.555,3.519,18.945-.95a7.635,7.635,0,0,0,.619-.472,1.914,1.914,0,0,0,.141-.141,5.13,5.13,0,0,1,8.276,5.081Z" transform="translate(-197.506 -264.765)"/>
    <path id="Caminho_2453" data-name="Caminho 2453" class="cls-7" d="M443.841,826.893l.507,6.784c-7.206,7.2-15.785-3.519-18.3-7.038C432.658,830.046,443.841,826.893,443.841,826.893Z" transform="translate(-196.955 -268.117)"/>
    <path id="Caminho_2454" data-name="Caminho 2454" class="cls-7" d="M503.75,829.128l.943-.626c-6.58,10.007-16.355,5.391-19.4,3.6l.472-6.277s12.555,3.519,18.945-.95C504.207,827.319,503.75,829.128,503.75,829.128Z" transform="translate(-214.505 -267.592)"/>
    <path id="Caminho_2455" data-name="Caminho 2455" class="cls-11" d="M500.922,538.7c-5.053,12.619-10.1,54.893-10.732,59.82s-.472,24.927-.472,24.927l-1.267,49.186c-.162,6.158-4.736,21.619-4.736,21.619s-1.577,12.935-.788,17.193-2.048,15.483-2.048,15.483l.943-.633c-7.889,11.964-20.353,3-20.353,3s-3-14.512.162-18.143-1.1-14.828-1.1-14.828,1.576-58.215,2.048-60.9-1.893-10.887-4.1-17.671,1.267-33.6,2.055-38.5-.317-27.137-1.1-31.711.943-23.667.943-23.667c-3.153-9.465-5.679-.943-5.679-.943L452.159,547.7l-2.681,50.8s.317,15.483-2.048,19.881-4.419,15.771-4.419,15.771l1.1,57.434s-.155,11.964.633,16.559-1.738,16.412-1.738,16.412c-8.832,20.811-23.02-1.752-23.02-1.752s.634-3.469,1.893-3.941-.472-8.994-1.408-10.416.155-11.675.155-11.675-1.1-9.3-2.815-20.508-1.26-54.429-.155-57.11,2.048-15.145,2.048-15.145-1.26-7.1.317-12.154-3.786-26.342-3.786-28.713-2.048-17.038-3.153-18.615a9.306,9.306,0,0,1-1.105-4.42s-.155-3.153-2.815-12.618c-1.956-6.911-.8-20.536-.035-27.4.274-2.541.514-4.159.514-4.159s90.482-14.673,94.093-11.359c.844.781,1.407,3.462,1.738,7.284C506.552,504.367,504.779,529.069,500.922,538.7Z" transform="translate(-191.634 -166.641)"/>
    <path id="Caminho_2456" data-name="Caminho 2456" class="cls-7" d="M491.34,662.384c.422,0,10.416.844,14.075.105S491.34,662.384,491.34,662.384Z" transform="translate(-216.297 -219.382)"/>
    <path id="Caminho_2457" data-name="Caminho 2457" class="cls-7" d="M492.39,670.859s13.8,2.421,14.5,1.161S492.39,670.859,492.39,670.859Z" transform="translate(-216.608 -221.967)"/>
    <path id="Caminho_2458" data-name="Caminho 2458" class="cls-7" d="M432.46,667.27s7.15.317,11.042,2.111S432.46,667.27,432.46,667.27Z" transform="translate(-198.854 -220.905)"/>
    <path id="Caminho_2459" data-name="Caminho 2459" class="cls-12" d="M395.54,415.811s1.154,21.978.528,25.87c0,0,2.519,17.777,4.624,22.3a64.441,64.441,0,0,0,6.629,10.2l6.207-43.633L412.05,415.6Z" transform="translate(-187.917 -146.35)"/>
    <circle id="Elipse_205" data-name="Elipse 205" class="cls-12" cx="24.294" cy="24.294" r="24.294" transform="translate(248.54 120.743)"/>
    <path id="Caminho_2460" data-name="Caminho 2460" class="cls-12" d="M463.583,254.875s-7.573,14.835-15.145,21.774,45.435,14.828,46.694,14.828-9.466-31.55-7.573-35.357S463.583,254.875,463.583,254.875Z" transform="translate(-203.368 -98.487)"/>
    <path id="Caminho_2461" data-name="Caminho 2461" class="cls-7" d="M505.884,491.869a15.8,15.8,0,0,1-3.9,2.182c-9.67,3.786-20.191,9.043-27.341,6.946s-22.3,0-22.3,0-30.508-2.526-36.6-1.056a11.928,11.928,0,0,1-6.334.162c.274-2.541.514-4.159.514-4.159s90.588-14.673,94.2-11.359C504.99,485.366,505.539,488.047,505.884,491.869Z" transform="translate(-192.029 -166.641)"/>
    <path id="Caminho_2462" data-name="Caminho 2462" class="cls-13" d="M507.642,417.311s-.837,10.521-10.521,14.308-20.191,9.043-27.341,6.946-22.3,0-22.3,0-30.508-2.526-36.6-1.056-9.261-.415-7.368-3.153,1.689-11.781,1.689-15.567-2.111-19.142-.218-21.88,3.575-13.252,7.361-14.941a4.124,4.124,0,0,0,2.365-2.667,7.629,7.629,0,0,0-.049-3.85s-.64-.528-1.52-1.309c-2.231-1.992-6-5.686-4.793-6.9,1.682-1.689,0-12.626,0-12.626s-4-8.41-2.52-11.563S393,323.281,393,323.281s0-28.6,17.249-29.868c0,0,12.2.422,13.674-5.046s11.148-8.628,11.148-8.628l22.091,4.842s19.557,4.222,23.14,1.682,6.334,3.364,6.334,3.364,12.2.633,13.456,3.16-3.99,27.13-3.99,27.13-8.839-.838-8.206,8.628S484.489,350,484.489,350s-.633,6.939-.211,8.41c.394,1.358-.83,6.651-1.027,7.467v.105s-.88,3.519.26,4.771a1.407,1.407,0,0,0,.366.281c1.689.838,4.223,9.043,4.223,9.043a8.326,8.326,0,0,1,1.893,5.68c-.2,3.371,1.056,11.358,6.524,15.989S507.642,417.311,507.642,417.311Z" transform="translate(-187.164 -106.102)"/>
    <path id="Caminho_2463" data-name="Caminho 2463" class="cls-13" d="M412.057,386.22v.894l-.38,9.853s-12.942,1.049-19.987-.7-4.082-9.571-3.8-11.19a.261.261,0,0,0,0-.063c.2-1.478,2.111-13.78,2.111-15.778s0-10.2-.317-13.991,1.548-14.336,1.548-14.336l1.365-1.675,14.821,5.679Z" transform="translate(-185.397 -123.726)"/>
    <path id="Caminho_2464" data-name="Caminho 2464" class="cls-7" d="M412.007,406.441l-.38,9.853s-12.942,1.049-19.987-.7-4.082-9.571-3.8-11.19Z" transform="translate(-185.382 -143.032)"/>
    <path id="Caminho_2465" data-name="Caminho 2465" class="cls-7" d="M423.2,415.568a7.627,7.627,0,0,0-.049-3.849s-.64-.528-1.52-1.309c11.141-1.555,55.259-7.608,70.116-8.269v.105s-.88,3.519.26,4.772Z" transform="translate(-195.646 -142.362)"/>
    <path id="Caminho_2466" data-name="Caminho 2466" class="cls-7" d="M520.477,432s2.738,15.483-7.467,20.93C513,452.958,518.795,445.28,520.477,432Z" transform="translate(-222.716 -151.208)"/>
    <path id="Caminho_2467" data-name="Caminho 2467" class="cls-7" d="M428.72,461.448s24.632-4.223,29.452-.943S428.72,461.448,428.72,461.448Z" transform="translate(-197.746 -159.283)"/>
    <path id="Caminho_2468" data-name="Caminho 2468" class="cls-7" d="M510.676,326.22s-3.786,15.567-.95,19.142S510.676,326.22,510.676,326.22Z" transform="translate(-221.431 -119.872)"/>
    <path id="Caminho_2469" data-name="Caminho 2469" class="cls-7" d="M410.137,308.14s3.47,5.785,1.365,11.781S410.137,308.14,410.137,308.14Z" transform="translate(-192.204 -114.516)"/>
    <path id="Caminho_2470" data-name="Caminho 2470" class="cls-7" d="M400,380.18s4.42,2.625,2.949,6.728S400,380.18,400,380.18Z" transform="translate(-189.238 -135.857)"/>
    <path id="Caminho_2471" data-name="Caminho 2471" class="cls-7" d="M399.43,363.14s4.1,2.21,4.624,5.468S399.43,363.14,399.43,363.14Z" transform="translate(-189.069 -130.809)"/>
    <path id="Caminho_2472" data-name="Caminho 2472" class="cls-7" d="M485.81,540.419s25.772,2.632,30.923-3.469C516.733,536.985,493.488,541.581,485.81,540.419Z" transform="translate(-214.658 -182.298)"/>
    <path id="Caminho_2473" data-name="Caminho 2473" class="cls-7" d="M422.59,539.79s27.665,6.524,33.133,1.365C455.723,541.155,431.95,542.943,422.59,539.79Z" transform="translate(-195.93 -183.14)"/>
    <path id="Caminho_2474" data-name="Caminho 2474" class="cls-7" d="M488.65,554s11.57,0,16.932.317S488.65,554,488.65,554Z" transform="translate(-215.5 -187.349)"/>
    <path id="Caminho_2475" data-name="Caminho 2475" class="cls-7" d="M425.28,561s5.679,6.418,12.1,5.264S425.28,561,425.28,561Z" transform="translate(-196.727 -189.423)"/>
    <path id="Caminho_2476" data-name="Caminho 2476" class="cls-14" d="M430.229,184.4c-1.781,2.766-1.844,5.968-2.308,9.036A37.657,37.657,0,0,1,417.829,213.4c-5.046,5.363-11.964,10.226-13.273,16.778-1.239,6.221,2.963,12.21,5.166,18.3,5.806,15.968-2.3,32.718-4.666,49.2-.654,4.553.134,10.373,5.743,11.886,1.753.479,3.758.415,5.335,1.175,2.111,1.013,2.759,3.118,3.146,5.011a76.585,76.585,0,0,1,1.45,20.606c-.253,3.871-.535,8.325,3.125,10.986a18.474,18.474,0,0,0,6.059,2.421c5.764,1.555,13.217,2.815,17.1-.837,1.633-1.527,2.245-3.681,4.279-4.891,3.047-1.809,7.368-.584,11.2-.394a20.346,20.346,0,0,0,18.213-9.789c3.1-5.567,2.815-11.964,1.689-17.967s-3.139-11.964-3.28-18.059a10.487,10.487,0,0,1,1.351-6.13c2.344-3.624,7.8-5.271,11.528-8.121,6.988-5.349,6.967-14.11,4.427-21.444s-7.1-14.364-7.664-21.943a8.354,8.354,0,0,1,1.035-5.3c1-1.541,2.745-2.7,4.223-3.969,10.2-8.614,8.994-22.76.563-32.443C485.249,187.745,442.967,164.627,430.229,184.4Z" transform="translate(-190.521 -75.567)"/>
    <g id="Grupo_9455" data-name="Grupo 9455" class="cls-15" transform="translate(213.494 133.699)">
      <path id="Caminho_2477" data-name="Caminho 2477" d="M410.883,276.3c.8-6.4.648-12.738-1.611-18.966-1.112-3.054-2.724-6.088-3.9-9.149a13.2,13.2,0,0,0-1.267,3.519c-1.239,6.221,2.963,12.21,5.166,18.3A33.28,33.28,0,0,1,410.883,276.3Z" transform="translate(-403.882 -230.452)"/>
      <path id="Caminho_2478" data-name="Caminho 2478" d="M420.492,373.063a76.855,76.855,0,0,0-1.443-20.606c-.394-1.893-1.041-3.99-3.153-5-1.576-.76-3.582-.7-5.334-1.175a7.27,7.27,0,0,1-4.926-4.068c-.324,1.6-.605,3.2-.838,4.806-.655,4.553.134,10.374,5.743,11.887,1.752.472,3.758.408,5.334,1.168,2.111,1.014,2.759,3.118,3.153,5.011a78,78,0,0,1,1.351,9.515C420.429,374.076,420.457,373.569,420.492,373.063Z" transform="translate(-404.096 -258.308)"/>
      <path id="Caminho_2479" data-name="Caminho 2479" d="M487.112,380.53a20.322,20.322,0,0,1-18.22,9.789c-3.836-.2-8.156-1.407-11.2.394-2.034,1.2-2.653,3.364-4.286,4.891-3.885,3.624-11.338,2.393-17.1.838a18.7,18.7,0,0,1-6.059-2.421,7.6,7.6,0,0,1-2.991-4.856c.042,2.161,0,4.328-.134,6.489-.253,3.871-.535,8.325,3.125,10.993a18.681,18.681,0,0,0,6.059,2.414c5.764,1.555,13.217,2.815,17.1-.837,1.633-1.527,2.252-3.681,4.286-4.926,3.04-1.809,7.361-.584,11.2-.394a20.366,20.366,0,0,0,18.22-9.789c2.984-5.377,2.85-11.457,1.809-17.263A18.91,18.91,0,0,1,487.112,380.53Z" transform="translate(-410.727 -268.273)"/>
      <path id="Caminho_2480" data-name="Caminho 2480" d="M529.115,232.343c-1.506,1.267-3.251,2.428-4.223,3.969a8.355,8.355,0,0,0-1.035,5.3,28.182,28.182,0,0,0,1.45,6.756,28.092,28.092,0,0,1,3.835-3.406c6.9-5.82,8.572-14.174,6.334-21.971a20.087,20.087,0,0,1-6.362,9.353Z" transform="translate(-439.4 -222.99)"/>
      <path id="Caminho_2481" data-name="Caminho 2481" d="M523.026,308.156c-3.723,2.85-9.184,4.5-11.521,8.128a10.45,10.45,0,0,0-1.358,6.123,42.262,42.262,0,0,0,.9,7.319,6.756,6.756,0,0,1,.457-.823c2.336-3.625,7.8-5.271,11.521-8.121,6.383-4.884,6.918-12.612,5.032-19.5a14.607,14.607,0,0,1-5.032,6.876Z" transform="translate(-435.36 -246.182)"/>
    </g>
    <path id="Caminho_2482" data-name="Caminho 2482" class="cls-12" d="M561.831,297.307s18.2-.943,19.776-8.621-4.927-15.483-6.517-16.306-18.748-13.885-18.748-13.885L528.684,240.83s-13.252-38-16.187-23.456,8.523,33.865,8.523,33.865,15.877,10.2,17.664,13.252,12.731,11.042,12.731,11.042Z" transform="translate(-222.422 -86.644)"/>
    <path id="Caminho_2483" data-name="Caminho 2483" class="cls-13" d="M578.422,309.8c-4.307,10.943-9.887,15.257-9.887,15.257h-3.1l-27.285.281L535,316.741l4.42-18.621,2.731.112s3.265,1.682,5.257,1.682,5.9-.106,7.038.415a.867.867,0,0,0,.514.077c1.035-.106,2.111-1.654,2.111-1.654S582.736,298.859,578.422,309.8Z" transform="translate(-229.231 -111.547)"/>
    <path id="Caminho_2484" data-name="Caminho 2484" class="cls-7" d="M586.808,310.05c-4.307,10.943-9.888,15.257-9.888,15.257h-3.1c1.619-4.335,5.032-13.231,6.334-15.286,1.274-1.942-10.155-6.777-16.841-9.388,1.034-.106,2.111-1.654,2.111-1.654S591.122,299.114,586.808,310.05Z" transform="translate(-237.617 -111.802)"/>
    <ellipse id="Elipse_206" data-name="Elipse 206" class="cls-1" cx="31.092" cy="6.08" rx="31.092" ry="6.08" transform="translate(32.823 530.985)"/>
    <ellipse id="Elipse_207" data-name="Elipse 207" class="cls-1" cx="22.647" cy="4.427" rx="22.647" ry="4.427" transform="translate(559.559 492.532)"/>
    <ellipse id="Elipse_208" data-name="Elipse 208" class="cls-1" cx="22.647" cy="4.427" rx="22.647" ry="4.427" transform="translate(657.727 510.471)"/>
    <ellipse id="Elipse_209" data-name="Elipse 209" class="cls-1" cx="22.647" cy="4.427" rx="22.647" ry="4.427" transform="translate(505.722 547.418)"/>
    <path id="Caminho_2485" data-name="Caminho 2485" class="cls-3" d="M227.2,556.31s5.1,6.665-2.351,16.714-13.576,18.537-11.084,24.808c0,0,11.225-18.671,20.367-18.931S237.254,567.542,227.2,556.31Z" transform="translate(-133.9 -188.034)"/>
    <path id="Caminho_2486" data-name="Caminho 2486" class="cls-7" d="M227.316,556.31a8.3,8.3,0,0,1,1.042,2.111c8.917,10.479,13.667,20.254,5.1,20.5-7.981.225-17.559,14.5-19.853,18.108a6.636,6.636,0,0,0,.274.823s11.225-18.671,20.367-18.931S237.373,567.542,227.316,556.31Z" transform="translate(-134.019 -188.034)"/>
    <path id="Caminho_2487" data-name="Caminho 2487" class="cls-16" d="M246.045,567.735c0,2.344-.26,4.223-.584,4.223s-.591-1.9-.591-4.223.331-1.239.654-1.239S246.045,565.363,246.045,567.735Z" transform="translate(-143.282 -190.971)"/>
    <path id="Caminho_2488" data-name="Caminho 2488" class="cls-16" d="M249.47,571.67c-2.055,1.119-3.85,1.8-4,1.513s1.408-1.408,3.441-2.548,1.246-.3,1.408,0S251.525,570.544,249.47,571.67Z" transform="translate(-143.456 -192.105)"/>
    <path id="Caminho_2489" data-name="Caminho 2489" class="cls-3" d="M190.058,556.31s-5.1,6.665,2.351,16.714,13.576,18.537,11.105,24.808c0,0-11.26-18.671-20.409-18.931S180,567.542,190.058,556.31Z" transform="translate(-123.651 -188.034)"/>
    <path id="Caminho_2490" data-name="Caminho 2490" class="cls-7" d="M190.056,556.31a8.3,8.3,0,0,0-1.042,2.111c-8.917,10.479-13.667,20.254-5.1,20.5,7.981.225,17.594,14.5,19.853,18.108a8.013,8.013,0,0,1-.267.823s-11.26-18.671-20.409-18.931S180,567.542,190.056,556.31Z" transform="translate(-123.649 -188.034)"/>
    <path id="Caminho_2491" data-name="Caminho 2491" class="cls-16" d="M181.43,567.735c0,2.344.26,4.223.584,4.223s.591-1.9.591-4.223-.331-1.239-.655-1.239S181.43,565.363,181.43,567.735Z" transform="translate(-124.489 -190.971)"/>
    <path id="Caminho_2492" data-name="Caminho 2492" class="cls-16" d="M176.282,571.67c2.062,1.119,3.85,1.8,4.011,1.513s-1.408-1.408-3.448-2.548-1.246-.3-1.408,0S174.227,570.544,176.282,571.67Z" transform="translate(-122.592 -192.105)"/>
    <ellipse id="Elipse_210" data-name="Elipse 210" class="cls-1" cx="53.239" cy="8.171" rx="53.239" ry="8.171" transform="translate(26.609 444.395)"/>
    <path id="Caminho_2493" data-name="Caminho 2493" class="cls-17" d="M229.862,601.247l-.253,2.111-.359,2.935-.148,1.225-.359,2.942-.155,1.225-.359,2.935-4.068,33.386c-.366,2.983-5.236,5.306-11.119,5.306H191.915c-5.883,0-10.746-2.323-11.112-5.306l-4.075-33.394-.359-2.935-.148-1.225-.366-2.941-.148-1.225-.359-2.935-.253-2.111c-.2-1.689,2.428-3.11,5.757-3.11h43.3C227.434,598.137,230.073,599.558,229.862,601.247Z" transform="translate(-122.609 -200.423)"/>
    <path id="Caminho_2494" data-name="Caminho 2494" class="cls-18" d="M129.178,572.5l-.352,2.942H75.242L74.89,572.5Z" transform="translate(-22.185 -169.599)"/>
    <path id="Caminho_2495" data-name="Caminho 2495" class="cls-18" d="M128.885,578.42l-.352,2.935H75.969l-.359-2.935Z" transform="translate(-22.399 -171.352)"/>
    <path id="Caminho_2496" data-name="Caminho 2496" class="cls-18" d="M128.591,584.33l-.359,2.935H76.689l-.359-2.935Z" transform="translate(-22.612 -173.103)"/>
    <circle id="Elipse_211" data-name="Elipse 211" class="cls-1" cx="22.168" cy="22.168" r="22.168" transform="translate(104.501 65.463)"/>
    <circle id="Elipse_212" data-name="Elipse 212" class="cls-1" cx="13.723" cy="13.723" r="13.723" transform="translate(66.498 21.126)"/>
    <circle id="Elipse_213" data-name="Elipse 213" class="cls-1" cx="8.445" cy="8.445" r="8.445" transform="translate(0 57.018)"/>
  </g>
</svg>
