<svg xmlns="http://www.w3.org/2000/svg" width="264.128" height="250.067" viewBox="0 0 264.128 250.067">
    <g data-name="Work chat-amico">
        <ellipse data-name="freepik--floor--inject-65" cx="132.064" cy="76.248" rx="132.064" ry="76.248" transform="translate(0 97.57)" style="fill:#f5f5f5"/>
        <g transform="translate(16.606 110.85)">
            <ellipse cx="28.701" cy="16.572" rx="28.701" ry="16.572" transform="translate(85.719)" style="fill:#e0e0e0"/>
            <ellipse data-name="freepik--shadow--inject-65" cx="34.239" cy="20.812" rx="34.239" ry="20.812" transform="translate(149.583 74.656)" style="fill:#e0e0e0"/>
            <ellipse data-name="freepik--shadow--inject-65" cx="31.246" cy="18.04" rx="31.246" ry="18.04" transform="translate(0 62.47)" style="fill:#e0e0e0"/>
        </g>
        <path data-name="Caminho 470" d="m353.415 147.3-9.115-9.44-5.1.391z" transform="translate(-160.258 -81.693)" style="fill:#263238"/>
        <path data-name="Caminho 471" d="m358.583 145.451-7.453-9.958 2.635-1.893z" transform="translate(-165.426 -79.847)" style="fill:#263238"/>
        <path data-name="Caminho 472" d="m350.805 136.94-.425 1.8 7.878 8.156z" transform="translate(-165.101 -81.294)" style="fill:#263238"/>
        <path data-name="Caminho 473" d="m350.805 136.94-.425 1.8 7.878 8.156z" transform="translate(-165.101 -81.294)" style="opacity:.3"/>
        <path data-name="Caminho 474" d="m135.03 173.6 10.927-10.1 5.741.771z" transform="translate(-71.806 -92.801)" style="fill:#263238"/>
        <path data-name="Caminho 475" d="m135.03 171.3 9.074-10.791-2.857-2.312z" transform="translate(-71.806 -90.505)" style="fill:#263238"/>
        <path data-name="Caminho 476" d="m144.1 162.28.368 2.063-9.442 8.728z" transform="translate(-71.806 -92.272)" style="fill:#263238"/>
        <path data-name="Caminho 477" d="m144.1 162.28.368 2.063-9.442 8.728z" transform="translate(-71.806 -92.272)" style="opacity:.3"/>
        <path data-name="Caminho 478" d="m317.47 237.429 11.653-7.459 5.129 1.649z" transform="translate(-150.844 -121.597)" style="fill:#263238"/>
        <path data-name="Caminho 479" d="m317.47 234.738 10.072-8.394-2.242-2.584z" transform="translate(-150.844 -118.907)" style="fill:#263238"/>
        <path data-name="Caminho 480" d="M327.542 228.32v1.95l-10.072 6.444z" transform="translate(-150.844 -120.882)" style="fill:#263238"/>
        <path data-name="Caminho 481" d="M327.542 228.32v1.95l-10.072 6.444z" transform="translate(-150.844 -120.882)" style="opacity:.3"/>
        <path data-name="Caminho 482" d="m170.947 290.106-13.535-8.666-5.962 1.91z" transform="translate(-78.92 -143.895)" style="fill:#263238"/>
        <path data-name="Caminho 483" d="m176.908 286.978-11.7-9.754 2.6-3z" transform="translate(-84.881 -140.767)" style="fill:#263238"/>
        <path data-name="Caminho 484" d="M165.21 279.52v2.261l11.7 7.493z" transform="translate(-84.881 -143.064)" style="fill:#263238"/>
        <path data-name="Caminho 485" d="M165.21 279.52v2.261l11.7 7.493z" transform="translate(-84.881 -143.064)" style="opacity:.3"/>
        <path data-name="Caminho 486" d="M131.175 238.089a.266.266 0 0 1-.255-.21l-.153-.776a.262.262 0 1 1 .516-.1c.051.255.1.51.153.765a.266.266 0 0 1-.2.312z" transform="translate(-69.957 -124.553)" style="fill:#e0e0e0"/>
        <path data-name="Caminho 487" d="M145.4 260.969a.284.284 0 0 1-.147-.045q-.674-.459-1.326-.952a.261.261 0 0 1-.045-.368.266.266 0 0 1 .368-.051c.419.323.856.641 1.3.935a.266.266 0 0 1-.147.482zm-2.567-1.955a.272.272 0 0 1-.17-.062 31.402 31.402 0 0 1-1.213-1.088.266.266 0 1 1 .363-.385c.391.374.793.731 1.19 1.071a.266.266 0 0 1-.17.465zm-2.346-2.216a.249.249 0 0 1-.187-.085c-.368-.38-.737-.788-1.1-1.2a.266.266 0 0 1 .028-.374.255.255 0 0 1 .368.028c.357.4.72.8 1.083 1.179a.266.266 0 0 1 0 .374.272.272 0 0 1-.193.079zm-2.114-2.437a.261.261 0 0 1-.21-.1 36.987 36.987 0 0 1-.975-1.3.255.255 0 0 1 .057-.363.261.261 0 0 1 .368.057c.312.436.635.867.964 1.281a.261.261 0 0 1-.045.368.238.238 0 0 1-.159.057zm-1.887-2.624a.249.249 0 0 1-.215-.119c-.295-.448-.567-.912-.856-1.383a.262.262 0 1 1 .453-.261c.272.459.567.912.839 1.36a.266.266 0 0 1-.074.363.272.272 0 0 1-.148.039zm-1.632-2.777a.261.261 0 0 1-.232-.142c-.249-.482-.5-.969-.725-1.457a.255.255 0 0 1 .125-.346.266.266 0 0 1 .351.125c.227.476.465.958.714 1.434a.266.266 0 0 1-.232.385zm-1.372-2.925a.261.261 0 0 1-.244-.159c-.2-.493-.4-1-.567-1.519a.261.261 0 0 1 .159-.334.266.266 0 0 1 .334.159c.181.5.38 1.009.567 1.491a.266.266 0 0 1-.136.346.323.323 0 0 1-.114.016zm-1.1-3.032a.261.261 0 0 1-.249-.187 39.68 39.68 0 0 1-.448-1.559.272.272 0 0 1 .193-.323.261.261 0 0 1 .317.187c.13.516.278 1.032.436 1.542a.261.261 0 0 1-.17.329z" transform="translate(-70.354 -126.343)" style="fill:#e0e0e0"/>
        <path data-name="Caminho 488" d="M158.784 277.792a.244.244 0 0 1-.125-.034 16.774 16.774 0 0 1-.691-.391.255.255 0 0 1-.1-.357.261.261 0 0 1 .357-.1c.227.136.453.261.68.38a.266.266 0 0 1-.125.5z" transform="translate(-81.685 -141.919)" style="fill:#e0e0e0"/>
        <path data-name="Caminho 489" d="M199.4 144.322a.261.261 0 1 1 0-.521c.266 0 .527-.04.793-.051a.266.266 0 0 1 .272.249.255.255 0 0 1-.244.272l-.782.051z" transform="translate(-99.58 -84.244)" style="fill:#e0e0e0"/>
        <path data-name="Caminho 490" d="M159.129 152.43a.261.261 0 0 1-.153-.476c.419-.295.844-.567 1.275-.861a.266.266 0 0 1 .363.074.261.261 0 0 1-.079.363 48.71 48.71 0 0 0-1.258.856.283.283 0 0 1-.147.045zm2.562-1.666a.261.261 0 0 1-.136-.487c.442-.266.884-.521 1.332-.771a.266.266 0 0 1 .357.1.255.255 0 0 1-.1.357c-.442.249-.884.5-1.315.76a.25.25 0 0 1-.138.041zm2.675-1.479a.255.255 0 0 1-.232-.147.266.266 0 0 1 .113-.351 40.38 40.38 0 0 1 1.389-.669.261.261 0 0 1 .346.125.266.266 0 0 1-.125.351c-.459.21-.918.431-1.372.663a.283.283 0 0 1-.119.027zm2.777-1.285a.272.272 0 0 1-.244-.164.261.261 0 0 1 .142-.34q.708-.306 1.428-.567a.261.261 0 0 1 .334.153.249.249 0 0 1-.147.334 76.76 76.76 0 0 0-1.411.567.328.328 0 0 1-.102.017zm2.834-1.1a.266.266 0 0 1-.249-.176.261.261 0 0 1 .164-.334q.72-.255 1.462-.476a.261.261 0 0 1 .329.17.266.266 0 0 1-.176.329c-.487.153-.969.306-1.445.476zm2.919-.9a.263.263 0 0 1-.068-.516c.493-.136.992-.261 1.491-.38a.266.266 0 0 1 .317.193.261.261 0 0 1-.193.317c-.493.119-.986.244-1.474.374zm2.976-.708a.266.266 0 0 1-.255-.21.261.261 0 0 1 .2-.306c.5-.1 1.009-.2 1.513-.283a.266.266 0 0 1 .3.215.255.255 0 0 1-.21.3c-.5.085-1 .181-1.5.278zm3.021-.51a.262.262 0 0 1-.04-.521q.765-.1 1.53-.187a.266.266 0 0 1 .051.527c-.5.051-1.009.108-1.508.181z" transform="translate(-82.132 -84.383)" style="fill:#e0e0e0"/>
        <path data-name="Caminho 491" d="M155.8 160.5a.272.272 0 0 1-.2-.1.255.255 0 0 1 .045-.368l.623-.487a.263.263 0 0 1 .317.419l-.618.476a.261.261 0 0 1-.167.06z" transform="translate(-80.69 -91.066)" style="fill:#e0e0e0"/>
        <path data-name="Caminho 492" d="M340.62 197.964a.266.266 0 0 1-.21-.108.261.261 0 0 1 .057-.368l.374-.278a.263.263 0 0 1 .317.419l-.38.283a.266.266 0 0 1-.158.052zm1.627-1.241a.255.255 0 0 1-.2-.1.266.266 0 0 1 .04-.368c.408-.323.816-.652 1.213-.992a.263.263 0 1 1 .34.4q-.6.51-1.224 1a.289.289 0 0 1-.17.06zm2.409-2.035a.272.272 0 0 1-.2-.091.261.261 0 0 1 0-.368c.385-.351.765-.7 1.133-1.066a.261.261 0 1 1 .363.374c-.38.368-.765.731-1.134 1.083a.266.266 0 0 1-.163.068zm2.267-2.188a.255.255 0 0 1-.181-.074.261.261 0 0 1 0-.368c.363-.374.725-.759 1.077-1.134a.261.261 0 0 1 .385.351c-.357.391-.72.776-1.082 1.134a.278.278 0 0 1-.2.113zm2.12-2.335a.232.232 0 0 1-.17-.062.261.261 0 0 1-.034-.368c.34-.4.669-.8.986-1.213a.262.262 0 1 1 .414.323c-.323.414-.657.827-1 1.23a.249.249 0 0 1-.2.091zm1.933-2.482a.272.272 0 0 1-.153-.051.261.261 0 0 1-.057-.363q.459-.635.884-1.292a.272.272 0 0 1 .368-.074.266.266 0 0 1 .074.363q-.442.663-.9 1.309a.267.267 0 0 1-.215.108zm1.734-2.63a.25.25 0 0 1-.136-.04.261.261 0 0 1-.091-.357c.266-.448.527-.9.777-1.36a.261.261 0 0 1 .459.249q-.374.7-.782 1.377a.261.261 0 0 1-.227.13zm1.5-2.772a.266.266 0 0 1-.238-.374c.227-.47.448-.952.646-1.428a.266.266 0 0 1 .346-.136.261.261 0 0 1 .142.346c-.21.482-.431.969-.657 1.445a.272.272 0 0 1-.238.147zm1.23-2.9h-.091a.266.266 0 0 1-.153-.34c.181-.493.351-.986.5-1.479a.262.262 0 0 1 .5.159c-.153.5-.329 1-.51 1.5a.267.267 0 0 1-.227.159zm.941-3.01h-.068a.272.272 0 0 1-.187-.323c.13-.5.244-1.015.346-1.519a.263.263 0 0 1 .516.1 28.46 28.46 0 0 1-.351 1.547.272.272 0 0 1-.261.2zm.618-3.083h-.034a.255.255 0 0 1-.221-.295c.074-.516.136-1.037.181-1.547a.278.278 0 0 1 .289-.238.266.266 0 0 1 .238.283 29.323 29.323 0 0 1-.193 1.576.261.261 0 0 1-.261.221zm.295-3.134a.261.261 0 0 1-.249-.272v-1.559a.255.255 0 0 1 .255-.266.266.266 0 0 1 .261.261v.346c0 .419 0 .833-.028 1.241a.255.255 0 0 1-.244.253zm-.034-3.146a.266.266 0 0 1-.266-.244 24.107 24.107 0 0 0-.136-1.559.272.272 0 0 1 .232-.289.261.261 0 0 1 .289.232c.062.521.108 1.054.142 1.581a.266.266 0 0 1-.244.278zm-.351-3.129a.261.261 0 0 1-.261-.221c-.079-.5-.181-1.02-.289-1.536a.266.266 0 0 1 .2-.312.261.261 0 0 1 .312.2c.108.521.21 1.049.289 1.559a.261.261 0 0 1-.215.3z" transform="translate(-160.759 -92.068)" style="fill:#e0e0e0"/>
        <path data-name="Caminho 493" d="M327.268 127.039a.255.255 0 0 1-.142-.04c-.442-.278-.89-.567-1.338-.8a.261.261 0 0 1-.1-.357.266.266 0 0 1 .363-.1c.453.261.907.533 1.355.816a.266.266 0 0 1 .085.363.261.261 0 0 1-.221.119zm-2.732-1.564a.334.334 0 0 1-.125 0 35.122 35.122 0 0 0-1.4-.7.261.261 0 0 1-.125-.346.272.272 0 0 1 .351-.13c.476.227.947.465 1.417.708a.261.261 0 0 1-.119.493zm-2.834-1.343a.323.323 0 0 1-.1 0c-.482-.2-.964-.4-1.451-.567a.266.266 0 1 1 .187-.493c.493.187.986.385 1.468.567a.261.261 0 0 1-.1.5zM318.76 123h-.085a34.32 34.32 0 0 0-1.491-.47.261.261 0 0 1-.176-.329.255.255 0 0 1 .323-.176c.51.147 1.009.306 1.513.476a.266.266 0 0 1-.1.516zm-3.021-.89h-.062c-.5-.13-1.015-.249-1.525-.357a.266.266 0 0 1-.2-.317.261.261 0 0 1 .312-.2c.516.113 1.026.232 1.542.363a.272.272 0 0 1 .187.323.261.261 0 0 1-.272.2zm-3.072-.674h-.051c-.51-.1-1.026-.176-1.542-.249a.263.263 0 1 1 .074-.521q.782.108 1.564.255a.255.255 0 0 1 .21.3.261.261 0 0 1-.272.232zm-3.117-.442h-.028c-.521-.057-1.043-.1-1.559-.142a.261.261 0 0 1-.244-.278.249.249 0 0 1 .278-.244q.794.051 1.581.136a.266.266 0 0 1-.028.527z" transform="translate(-146.619 -74.097)" style="fill:#e0e0e0"/>
        <g>
            <path data-name="Caminho 494" d="m384 137.713 4.455-2.573a.419.419 0 0 0 .21-.187l.816-1.428-2.647-1.525.079.232z" transform="translate(-179.666 -79.155)" style="fill:#263238"/>
            <g data-name="Grupo 17" style="opacity:.1">
                <path data-name="Caminho 495" d="m204.334 58.558 4.455-2.573a.419.419 0 0 0 .21-.187l.816-1.428-2.647-1.525.079.232z"/>
            </g>
            <path data-name="Caminho 496" d="m384.181 129.213-3.083 5.339a.459.459 0 0 1-.833-.079L377 125.07z" transform="translate(-176.634 -76.152)" style="fill:#263238"/>
            <path data-name="Caminho 497" d="M333.82 61.756a4.767 4.767 0 0 1 2.148-3.729 4.767 4.767 0 0 1 4.308 0l34.868 20.109a4.767 4.767 0 0 1 2.154 3.729v17.661a4.761 4.761 0 0 1-2.154 3.729 4.767 4.767 0 0 1-4.308 0L335.77 83a3.341 3.341 0 0 1-1.95-3.582z" transform="translate(-157.927 -46.885)" style="fill:#263238"/>
            <path data-name="Caminho 498" d="m370.048 99.546-24.9-14.453c-.72-.414-1.3-.221-1.3.425a2.607 2.607 0 0 0 1.3 1.933l24.9 14.447c.72.419 1.3.227 1.3-.419a2.607 2.607 0 0 0-1.3-1.933z" transform="translate(-162.268 -58.739)" style="fill:#455a64"/>
            <path data-name="Caminho 499" d="M362.5 104.069 345.144 94c-.72-.414-1.3-.221-1.3.425a2.607 2.607 0 0 0 1.3 1.933l17.36 10.06c.72.419 1.3.227 1.3-.419a2.607 2.607 0 0 0-1.3-1.933z" transform="translate(-162.268 -62.599)" style="fill:#455a64"/>
            <path data-name="Caminho 500" d="m370.048 90.557-24.9-14.447c-.72-.419-1.3-.227-1.3.425a2.618 2.618 0 0 0 1.3 1.933l24.9 14.447c.72.414 1.3.227 1.3-.425a2.619 2.619 0 0 0-1.3-1.933z" transform="translate(-162.268 -54.846)" style="fill:#455a64"/>
            <path data-name="Caminho 501" d="M405.851 116.51a4.761 4.761 0 0 1-2.154 3.729 4.789 4.789 0 0 1-3.967.181c1.015.385 1.785-.193 1.785-1.423v-17.665a4.376 4.376 0 0 0-.629-2.12l4.307-2.482a4.438 4.438 0 0 1 .629 2.12z" transform="translate(-186.481 -63.875)" style="opacity:.1"/>
            <path data-name="Caminho 502" d="M333.94 61.132c.249-.913 1.083-1.2 2.08-.629l34.874 20.115a4.268 4.268 0 0 1 1.513 1.6l4.3-2.477a4.33 4.33 0 0 0-1.513-1.61L340.333 58.02a4.812 4.812 0 0 0-4.313 0 4.744 4.744 0 0 0-2.08 3.112z" transform="translate(-157.979 -46.884)" style="fill:#fff;opacity:.3"/>
            <g data-name="freepik--speach-bubble--inject-65">
                <path data-name="Caminho 503" d="m96.248 114.064-4.262-2.46a.4.4 0 0 1-.2-.176L91 110.057l2.528-1.457-.079.221z" transform="translate(-52.731 -69.017)" style="fill:#263238"/>
                <g data-name="Grupo 18" style="opacity:.55">
                    <path data-name="Caminho 504" d="m96.248 114.064-4.262-2.46a.4.4 0 0 1-.2-.176L91 110.057l2.528-1.457-.079.221z" transform="translate(-52.731 -69.017)" style="fill:#fff"/>
                </g>
                <path data-name="Caminho 505" d="m94.79 105.967 2.947 5.1a.436.436 0 0 0 .793-.074l3.118-8.993z" transform="translate(-54.373 -66.158)" style="fill:#263238"/>
                <path data-name="Caminho 506" d="m94.79 105.967 2.947 5.1a.436.436 0 0 0 .793-.074l3.118-8.993z" transform="translate(-54.373 -66.158)" style="opacity:.7;fill:#fff"/>
                <path data-name="Caminho 507" d="M82.774 60.553a4.534 4.534 0 0 0-2.057-3.571 4.534 4.534 0 0 0-4.115 0L43.253 76.225a4.534 4.534 0 0 0-2.063 3.565v16.89a4.534 4.534 0 0 0 2.063 3.565 4.534 4.534 0 0 0 4.115 0L80.91 80.867a3.179 3.179 0 0 0 1.865-3.4z" transform="translate(-31.152 -46.441)" style="fill:#263238"/>
                <path data-name="Caminho 508" d="M85.929 62.43v16.884a3.122 3.122 0 0 1-1.87 3.4l-33.542 19.407a3.353 3.353 0 0 1-.351.17h-.1l-.079.028h.034c-.9.255-1.559-.3-1.559-1.411v-16.89a4.251 4.251 0 0 1 .6-2.029 4.064 4.064 0 0 1 1.451-1.542l33.353-19.236c.952-.567 1.746-.266 1.989.6a4.454 4.454 0 0 0-.312-.992 3.8 3.8 0 0 1 .386 1.611z" transform="translate(-34.302 -48.318)" style="opacity:.7;fill:#fff"/>
                <path data-name="Caminho 509" d="M41.2 112.93a4.534 4.534 0 0 0 2.057 3.565 4.6 4.6 0 0 0 3.763.176c-.969.368-1.7-.187-1.7-1.36v-16.89a4.251 4.251 0 0 1 .6-2.029L41.8 94a4.188 4.188 0 0 0-.6 2.04z" transform="translate(-31.156 -62.692)" style="opacity:.55;fill:#fff"/>
                <path data-name="Caminho 510" d="M83.174 59.959c-.238-.873-1.037-1.134-1.984-.6L47.836 78.594a4.132 4.132 0 0 0-1.451 1.536l-4.115-2.386a4.149 4.149 0 0 1 1.451-1.544l33.343-19.234a4.585 4.585 0 0 1 4.12 0 4.534 4.534 0 0 1 1.989 2.993z" transform="translate(-31.62 -46.436)" style="opacity:.85;fill:#fff"/>
                <path data-name="Caminho 511" d="m57.267 98.173 23.8-13.824c.691-.4 1.247-.215 1.247.408a2.488 2.488 0 0 1-1.247 1.848l-23.8 13.818c-.686.4-1.247.215-1.247-.4a2.505 2.505 0 0 1 1.247-1.848z" transform="translate(-37.577 -58.42)" style="fill:#455a64"/>
                <path data-name="Caminho 512" d="m57.267 109.995 16.606-9.635c.686-.4 1.247-.215 1.247.408a2.522 2.522 0 0 1-1.247 1.848l-16.606 9.634c-.686.4-1.247.221-1.247-.4a2.505 2.505 0 0 1 1.247-1.853z" transform="translate(-37.577 -65.356)" style="fill:#455a64"/>
                <path data-name="Caminho 513" d="m57.267 89.577 23.8-13.818c.691-.4 1.247-.215 1.247.408a2.5 2.5 0 0 1-1.247 1.848l-23.8 13.818c-.686.4-1.247.215-1.247-.408a2.505 2.505 0 0 1 1.247-1.848z" transform="translate(-37.577 -54.699)" style="fill:#455a64"/>
            </g>
            <g data-name="freepik--speach-bubble--inject-65">
                <path data-name="Caminho 514" d="M217.488 49.944a.6.6 0 0 0-.283-.074h-5.163l-2.131 1.207v7.368l2.131-1.23 1.842-2.131v5.668l2.131-1.23 5.588-6.456a.567.567 0 0 0-.142-.856z" transform="translate(-104.246 -43.574)" style="fill:#455a64"/>
                <path data-name="Caminho 515" d="m216.92 62.515 2.131-1.23 5.588-6.456a.567.567 0 0 0-.425-.93h-5.163l-2.131 1.23z" transform="translate(-107.283 -45.319)" style="fill:#37474f"/>
                <path data-name="Caminho 516" d="M191.381 43.375a4.205 4.205 0 0 0-1.9-3.293 4.188 4.188 0 0 0-3.8 0l-30.732 17.735a4.2 4.2 0 0 0-1.9 3.287v15.575a4.194 4.194 0 0 0 1.9 3.287 4.228 4.228 0 0 0 3.8 0l30.918-17.859a2.938 2.938 0 0 0 1.7-3.163z" transform="translate(-79.613 -39.136)" style="fill:#37474f"/>
                <path data-name="Caminho 517" d="M153.028 91.665a4.194 4.194 0 0 0 1.9 3.287 4.256 4.256 0 0 0 3.474.159c-.9.334-1.576-.176-1.576-1.258V78.284a3.848 3.848 0 0 1 .567-1.87l-3.826-2.193A3.928 3.928 0 0 0 153 76.09z" transform="translate(-79.591 -54.123)" style="fill:#263238"/>
                <path data-name="Caminho 518" d="M191.73 42.839c-.221-.8-.952-1.06-1.831-.567l-30.741 17.746a3.718 3.718 0 0 0-1.338 1.417L154 59.247a3.848 3.848 0 0 1 1.338-1.417l30.736-17.73a4.24 4.24 0 0 1 3.8 0 4.172 4.172 0 0 1 1.856 2.739z" transform="translate(-80.024 -39.144)" style="fill:#455a64"/>
                <path data-name="Caminho 519" d="m169.814 77.115 21.962-12.735c.635-.368 1.134-.2 1.134.374a2.307 2.307 0 0 1-1.134 1.7l-21.962 12.753c-.635.363-1.134.2-1.134-.374a2.307 2.307 0 0 1 1.134-1.717z" transform="translate(-86.384 -49.775)" style="fill:#263238"/>
                <path data-name="Caminho 520" d="m181.554 81.231 15.3-8.87c.635-.368 1.134-.2 1.134.374a2.3 2.3 0 0 1-1.134 1.7l-15.3 8.87c-.635.368-1.134.2-1.134-.374a2.307 2.307 0 0 1 1.134-1.7z" transform="translate(-91.47 -53.233)" style="fill:#263238"/>
                <path data-name="Caminho 521" d="m169.814 69.214 21.963-12.741c.635-.363 1.134-.2 1.134.374a2.307 2.307 0 0 1-1.134 1.7l-21.963 12.741c-.635.368-1.134.2-1.134-.374a2.307 2.307 0 0 1 1.134-1.7z" transform="translate(-86.384 -46.351)" style="fill:#263238"/>
            </g>
        </g>
        <g>
            <g data-name="freepik--character--inject-65">
                <path data-name="Caminho 522" d="M398.09 197.616c2.919-.652 6.235.567 8.439 5.248 2.131 4.466 8.3 17.61 8.439 20.761.147 3.27-13.166 13.455-12.792 13.28.113-.057-2.976-6.3-2.976-6.3l6.773-8.417-3.831-7.544z" transform="translate(-185.771 -107.51)" style="fill:#263238"/>
            </g>
            <g data-name="freepik--character--inject-65" style="opacity:.35">
                <path data-name="Caminho 523" d="M212.319 90.106c2.919-.652 6.235.567 8.439 5.248 2.131 4.466 8.3 17.61 8.439 20.761.147 3.27-13.166 13.455-12.792 13.28.113-.057-2.976-6.3-2.976-6.3l6.773-8.417-3.831-7.544z"/>
            </g>
            <path data-name="Caminho 524" d="M396.648 380.441c.385.147.606.879.782 2.664.1 1.134.482 2.573-1.207 3.469a4.245 4.245 0 0 1-3.967-.04c-1.462-.907-2.2-2.585-3.916-3.928-1.508-1.179-3.4-2.052-4.614-4.2s-1.02-3.576 1.474-3.576c4.013 0 5.214 2.21 7.277 2.267 1.123.011 3.78 3.203 4.171 3.344z" transform="translate(-179.234 -184.354)" style="fill:#263238"/>
            <path data-name="Caminho 525" d="M403.032 382.673v1.8c0 .878-3.746 2.193-4.795.181-.079-.176-.487-2.647-.487-2.647z" transform="translate(-185.623 -187.465)" style="fill:#ffa8a7"/>
            <path data-name="Caminho 526" d="M360.784 403.25s.714 0 .992 2.908c.108 1.134.374 3.4 0 4.205s-2.426 1.185-4.727 1.389a12.44 12.44 0 0 0-4.852 1.882 10.6 10.6 0 0 1-4.92 1.36c-2.176 0-4.018-.221-5.566-1.445-.822-.652-1.87-2.023-1.105-3.061a2.267 2.267 0 0 1 1.162-.612 56.462 56.462 0 0 1 2.93-1 29.663 29.663 0 0 0 4.3-1.649 18.947 18.947 0 0 0 5.826-3.831z" transform="translate(-160.752 -196.667)" style="fill:#263238"/>
            <path data-name="Caminho 527" d="M371.835 400.6v2.1c0 .765-.884 1.9-3.225 1.836-1.638-.051-2.789-.487-2.732-1.842v-1.944z" transform="translate(-171.815 -195.519)" style="fill:#ffa8a7"/>
            <path data-name="Caminho 528" d="M387.026 303.507a49.037 49.037 0 0 0-2.176-9.374s.6-8.1.873-15.79a204.354 204.354 0 0 0-.658-23.6s-26.106-2.471-26.536 7.119.193 34.006.533 38.212.674 8.156 1.57 15.994c.765 6.75 2.006 21.4 2.006 21.4a6.308 6.308 0 0 0 5.951-.153s1.967-19.673 2.193-24.53c.295-6.3-1.173-9.777-1.173-9.777s.567-3.967 1.525-12.118c.686-5.753 1.6-12.31 1.6-12.31s.9 8.116 1.434 12.639c.5 4.194 1.355 7.51 2.613 15.331 1.094 6.8 4.075 21.141 4.075 21.141a4.413 4.413 0 0 0 5.1-.249s1.925-18.075 1.07-23.935z" transform="translate(-168.568 -132.205)" style="fill:#37474f"/>
            <path data-name="Caminho 529" d="m204.163 146.364 1.236-8.014s5.1-1.621 7.663-4.642a10.868 10.868 0 0 1-6.11 5.413l-1.9 6.75-.323 5.566z"/>
            <path data-name="Caminho 530" d="m376.14 192.312 1.219 8.564 7.708-.266-.742-10.009z" transform="translate(-176.261 -104.541)" style="fill:#ffa8a7"/>
            <path data-name="Caminho 531" d="M364.959 175s-2.069 3.032-1.842 3.338 1.7.6 1.7.6z" transform="translate(-170.612 -97.783)" style="fill:#f28f8f"/>
            <path data-name="Caminho 532" d="M365.681 174.6a2.516 2.516 0 1 1 2.562-2.477 2.516 2.516 0 0 1-2.562 2.477zm.074-4.472a1.955 1.955 0 1 0 1.927 1.984 1.955 1.955 0 0 0-1.927-1.981z" transform="translate(-170.66 -95.431)" style="fill:#263238"/>
            <path data-name="Caminho 533" d="M371.942 159.9c-4.1.8-5.311 2.573-5.8 9.068-.51 6.773.147 8.915 1.026 9.845.6.623 3.933.788 5.628.351 2.12-.567 6.915-2.165 9.2-5.537 2.692-3.967 3.469-9.4.686-11.681-3.899-3.21-9.074-2.371-10.74-2.046z" transform="translate(-171.853 -91.092)" style="fill:#ffa8a7"/>
            <path data-name="Caminho 534" d="M372.715 193.383c-1.763.2-4.132 0-4.625-.521a12.14 12.14 0 0 0 4.387-.862z" transform="translate(-172.774 -105.148)" style="fill:#f28f8f"/>
            <path data-name="Caminho 535" d="M363.663 156.648a2.477 2.477 0 0 0 .567 1.627 2.868 2.868 0 0 0 2.783.822 1.893 1.893 0 0 0 2.159 2.511c-.2.045.323 1.559.374 1.7a2.091 2.091 0 0 0 1.077 1.309s.72-2.613 2.925-2.267 2.477 3.208 1.049 4.908-2.726 1.02-2.726 1.02 0 3.752 1.632 5.9a11.275 11.275 0 0 0 5.373-.045c2.142-.419 5.209-3.044 6.524-5.849 2.783-5.945 3.055-11.335-.742-13-.147-.068-.2-.8-.249-.964a4.4 4.4 0 0 0-.493-1.2 5 5 0 0 0-2.12-1.848 10.894 10.894 0 0 0-4.041-.862 25.712 25.712 0 0 1-4.126-.419c-1.219-.283-2.363-.8-3.554-1.19a7.011 7.011 0 0 0-3.684-.368 3.333 3.333 0 0 0-2.6 2.409c-.266 1.377.533 2.522 1.366 3.531a2.42 2.42 0 0 0-1.519 2.267z" transform="translate(-170.846 -86.232)" style="fill:#263238"/>
            <path data-name="Caminho 536" d="m399.657 161.378 2.465-1.406a1.419 1.419 0 0 0-2.465 1.406z" transform="translate(-186.369 -90.962)" style="fill:#263238"/>
            <path data-name="Caminho 537" d="m374.8 177.466.119-2.834a1.423 1.423 0 1 0-.119 2.834z" transform="translate(-175.043 -97.619)" style="fill:#263238"/>
            <path data-name="Caminho 538" d="m363.626 173.02 7.589 1.105-.317.527-7.277-1.06z" transform="translate(-170.837 -96.925)" style="fill:#263238"/>
            <path data-name="Caminho 539" d="M385.761 202.484c-.9-3.514-2.171-4.665-5.231-4.744a38.506 38.506 0 0 0-4.7.6c-.323 1.485-4.16 2.494-8.048 1.7-1.134.334-4.211 1.168-5.175 1.513-2.749 1-4.081 3.854-4.262 12.922 0 0-.527 21.492 0 25.2a33.47 33.47 0 0 0 18.1 1.7c8.269-1.853 9.25-5.294 9.25-5.294s-.431-8.626-.714-15.19c.414-4.177 1.037-7.317 1.264-10.65a28.022 28.022 0 0 0-.484-7.757z" transform="translate(-168.449 -107.635)" style="fill:#263238"/>
            <g data-name="Grupo 19" style="opacity:.2">
                <path data-name="Caminho 540" d="M217.312 94.85c-.9-3.514-2.171-4.665-5.231-4.744a38.506 38.506 0 0 0-4.7.6c-.323 1.485-4.16 2.494-8.048 1.7-1.134.334-4.211 1.168-5.175 1.513-2.749 1-4.081 3.854-4.262 12.922 0 0-.527 21.492 0 25.2a33.47 33.47 0 0 0 18.1 1.7c8.269-1.853 9.25-5.294 9.25-5.294s-.431-8.626-.714-15.19c.414-4.177 1.037-7.317 1.264-10.65a28.022 28.022 0 0 0-.484-7.757z"/>
            </g>
            <path data-name="Caminho 541" d="m381.863 194.851.057.827s-.4 1.134-2.743 1.6c-3.928.731-5.3-.493-5.3-.493l-.1-.708s-.38-.153-1.02.34a34.319 34.319 0 0 0-2.715 3.185s.748-.221 3.2.822a11.676 11.676 0 0 0 7.668.289 4.223 4.223 0 0 0 2.806-3.14c.097-.721-1.179-3.011-1.853-2.722z" transform="translate(-173.619 -106.372)" style="fill:#263238"/>
            <path data-name="Caminho 542" d="m381.863 194.851.057.827s-.4 1.134-2.743 1.6c-3.928.731-5.3-.493-5.3-.493l-.1-.708s-.38-.153-1.02.34a34.319 34.319 0 0 0-2.715 3.185s.748-.221 3.2.822a11.676 11.676 0 0 0 7.668.289 4.223 4.223 0 0 0 2.806-3.14c.097-.721-1.179-3.011-1.853-2.722z" transform="translate(-173.619 -106.372)" style="opacity:.35"/>
            <path data-name="Caminho 543" d="M341.129 205.08c-3.282.635-6.161 2.131-6.1 6.019a43.764 43.764 0 0 1-2.443 14.589c-1.02 3.225-9.425 12.871-11.5 13.472s-5.05-.7-5.77.346 2.137 2.318 2.267 2.834-3.508 1.944-5.713 1.564-1.666 2.318 1.655 3.8 7.43-.221 11.37-3.168 11.823-9.238 13.858-13.6a42.633 42.633 0 0 0 4.143-14c.517-7.781-1.767-11.856-1.767-11.856z" transform="translate(-147.842 -110.814)" style="fill:#ffa8a7"/>
            <path data-name="Caminho 544" d="M353.269 204.73s-3.4 0-5.43 2.023c-1.734 1.7-1.961 4.489-2.443 9.953a43.975 43.975 0 0 1-1.564 8.5c-.408 1.389-6.172 9.391-6.172 9.391a28.512 28.512 0 0 0 4.7 5.356 57.993 57.993 0 0 0 7.98-8.014c2.692-3.656 4.517-14.022 4.517-14.022s1.376-7.933-1.588-13.187z" transform="translate(-159.591 -110.663)" style="fill:#263238"/>
            <path data-name="Caminho 545" d="M353.269 204.73s-3.4 0-5.43 2.023c-1.734 1.7-1.961 4.489-2.443 9.953a43.975 43.975 0 0 1-1.564 8.5c-.408 1.389-6.172 9.391-6.172 9.391a28.512 28.512 0 0 0 4.7 5.356 57.993 57.993 0 0 0 7.98-8.014c2.692-3.656 4.517-14.022 4.517-14.022s1.376-7.933-1.588-13.187z" transform="translate(-159.591 -110.663)" style="opacity:.35"/>
            <path data-name="Caminho 546" d="M336.229 256.79a15.524 15.524 0 0 0 4.852 5.379s-1.87 1.587-2.879 2.222a8.788 8.788 0 0 1-4.472-4.812z" transform="translate(-157.888 -133.216)" style="fill:#263238"/>
            <path data-name="Caminho 547" d="M336.229 256.79a15.524 15.524 0 0 0 4.852 5.379s-1.87 1.587-2.879 2.222a8.788 8.788 0 0 1-4.472-4.812z" transform="translate(-157.888 -133.216)" style="opacity:.5"/>
            <path data-name="Caminho 548" d="M336.3 260.862a.419.419 0 1 0 0-.445.419.419 0 0 0 0 .445z" transform="translate(-158.976 -134.704)" style="fill:#263238"/>
        </g>
        <g>
            <g data-name="freepik--character--inject-65">
                <path data-name="Caminho 549" d="M238.94 61.493h8.677a12.656 12.656 0 0 0 12.656-12.656A10.077 10.077 0 0 0 250.2 38.76h-1.179a10.077 10.077 0 0 0-10.081 10.077z" transform="translate(-116.822 -38.76)" style="fill:#263238"/>
                <path data-name="Caminho 550" d="M214.91 86.911c-2.137 4.069-4.16 9.034-5.741 10.678-3 1.4-9.862 4.007-12.616 4.37a2.063 2.063 0 0 1-1.389-.329 11.469 11.469 0 0 0-3.066-1.219c-.9-.312-1.275-.742-1.44-.567a1.009 1.009 0 0 0 .091 1.417 7.368 7.368 0 0 0 1.417 1.066 8.456 8.456 0 0 1-3.735.062c-2.386-.629-3.514.521-1.9 3.112.567.93 2.834 2.414 7.47 2.018a41.056 41.056 0 0 0 4.9-.567c4.427-.941 9.153-2.324 12.18-3.225a7.878 7.878 0 0 0 2.936-2.04c5.1-5.8 7.589-10.939 9.817-14.7l-1.621-5.605c-3.602-.133-5.467 2.049-7.303 5.529z" transform="translate(-93.79 -57.224)" style="fill:#b16668"/>
                <path data-name="Caminho 551" d="M237.636 81.307c-2.777-.2-3.831.317-5.1 1.559-3.032 2.981-7.657 14.328-7.731 14.419s-3.435 1.621-3.435 1.621a10.35 10.35 0 0 1 1.377 5.838s3.282-.725 4.455-1.173a5.487 5.487 0 0 0 2.7-2.04c1.105-1.281 7.283-8.6 7.283-8.6z" transform="translate(-109.211 -57.174)" style="fill:#263238"/>
                <g data-name="freepik--character--inject-65">
                    <path data-name="Caminho 552" d="M238.328 103.73a23.844 23.844 0 0 1 .476 6.042c-.181 2.664-2.074 7.544-2.074 7.544s1.491 1.355 5.549.72c3.3-.516 2.137-10.48.238-12.412a6.235 6.235 0 0 0-4.189-1.894z" transform="translate(-115.865 -66.906)" style="fill:#37474f"/>
                    <path data-name="Caminho 553" d="M275.727 253.71a24.319 24.319 0 0 1 .374 3.967c.051 2.42.493 3.276.567 5.26a5.86 5.86 0 0 1-1.241 4.392c-.918 1.275-3.338 2.431-4.358.272s-.89-3.565-.567-5.787.38-3.571.567-5.322c.17-1.547.374-2.721.374-2.721z" transform="translate(-130.394 -131.881)" style="fill:#263238"/>
                    <path data-name="Caminho 554" d="m267.79 220.062 7.935-.142c-.119 5.316-.964 14.169-1.1 19.151 0 .941 0 7.3-.334 9.233-.533 2.9-3.967 2.511-4.16.771s.221-9.159.21-9.924c.034-3.2-1.468-11.545-2.267-17.292.005-.278-.25-1.52-.284-1.797z" transform="translate(-129.321 -117.243)" style="fill:#b16668"/>
                    <path data-name="Caminho 555" d="M235.731 246.41s.414.028.482.363.091 1.026.261 1.7a9.7 9.7 0 0 1 .283 3.151c-.142.742-1.836 1.853-2.993 2.046a9.026 9.026 0 0 0-3.707 2.193 8.864 8.864 0 0 1-5.146 2.023c-1.933 0-3.282-.64-3.922-1.7s.567-1.162 2.794-2.6l1.7-1.134c3.5-2.267 4.784-3.514 5.775-5.8z" transform="translate(-108.971 -128.719)" style="fill:#263238"/>
                    <path data-name="Caminho 556" d="M233.514 233.693c.057-1.649-.782-13.773-.782-13.773l6.847.771c-1.615 9.664-1.751 12.962-1.564 14.368a1.429 1.429 0 0 1 .045.4c0 1.882-2.131 2.891-3.78 4.143a15.478 15.478 0 0 1-4.3 2.692c-1.27.431-3.627.6-3.928-.176a53.526 53.526 0 0 0 6.354-5.3 4.068 4.068 0 0 0 1.108-3.125z" transform="translate(-111.238 -117.243)" style="fill:#b16668"/>
                    <path data-name="Caminho 557" d="M256.012 118.92a29.07 29.07 0 0 1 5.01 10.327c2.267 9.131-1.292 28.667-1.292 28.667.113 1.321 1.627 3.928 2.193 9.76.663 6.886-1.23 25.329-1.23 25.329a4.408 4.408 0 0 1-4.46.091s-4.823-27.094-5.668-33.939c-.754-5.979-2.267-18.4-2.267-18.4l-3.5 18.364s.482 3.35.725 5.9c.391 4.024-3.531 24.247-3.531 24.247a5.532 5.532 0 0 1-4.444-.091s-1.734-26.117-2.1-30.969c-.374-4.993.924-16.635 1.882-25.9.289-2.794 1.615-10.2 2.108-12.616z" transform="translate(-115.281 -73.487)" style="fill:#455a64"/>
                    <path data-name="Caminho 558" d="m252.381 151.476-.822-5.668a14.045 14.045 0 0 1-6.66-2.148 8.5 8.5 0 0 0 5.577 3.117l.516 5.056-1.644 15.773z" transform="translate(-119.404 -84.205)" style="opacity:.6;fill:#263238"/>
                    <path data-name="Caminho 559" d="M240.428 96.527c.085 1.661.323 6.8.323 6.8 6.8 4.591 16.567-.771 16.567-.771l1.411-9.635s-3.542-4.954-.221-10.2l-5.3-1.049-6.32-.521-1.876.085c-2.074 1.525-5.254 4.857-5.923 6.563a8.072 8.072 0 0 0 1.339 8.728z" transform="translate(-116.575 -57.124)" style="fill:#263238"/>
                    <g data-name="Grupo 20" style="opacity:.6">
                        <path data-name="Caminho 560" d="M240.428 96.527c.085 1.661.323 6.8.323 6.8 6.8 4.591 16.567-.771 16.567-.771l1.411-9.635s-3.542-4.954-.221-10.2l-5.3-1.049-6.32-.521-1.876.085c-2.074 1.525-5.254 4.857-5.923 6.563a8.072 8.072 0 0 0 1.339 8.728z" transform="translate(-116.575 -57.124)" style="fill:#fff"/>
                    </g>
                    <path data-name="Caminho 561" d="M263.128 82.23s6 .266 7.141.81 3.038 3.82 1.338 8.592-3.237 10.368-3.061 11.495 4.222 6.949 4.222 6.949a11.035 11.035 0 0 1-3.729 1.791l-2.074-4.534.487 4.823a24.7 24.7 0 0 1-6.41.674c0-.005-2.154-18.261 2.086-30.6z" transform="translate(-126.16 -57.592)" style="fill:#37474f"/>
                </g>
                <path data-name="Caminho 562" d="m270.791 38.76-.691 2.64a1.326 1.326 0 0 0 1.7-.924 1.44 1.44 0 0 0-1.009-1.716z" transform="translate(-130.322 -38.76)" style="fill:#263238"/>
                <path data-name="Caminho 563" d="m273.236 43-2.726.1a1.321 1.321 0 0 0 1.366 1.343 1.434 1.434 0 0 0 1.36-1.44z" transform="translate(-130.499 -40.597)" style="fill:#263238"/>
                <path data-name="Caminho 564" d="M244.093 47.21c-1.134.663-2.516 3.5-2.38 9.437.119 5.033 1.746 6.28 2.567 6.637s2.4.142 3.933-.119v3.021s-2.12 2.465-1.989 3.854 3.066 1.7 5.056.357a12.831 12.831 0 0 0 3.259-3.4v-7.839s.839.89 2.329-.13a2.749 2.749 0 0 0 .7-3.967 2.029 2.029 0 0 0-3.083.368 15.2 15.2 0 0 1-5.328-1.972 10.525 10.525 0 0 1-5.064-6.247z" transform="translate(-118.02 -42.421)" style="fill:#b16668"/>
                <path data-name="Caminho 565" d="M252.63 61.149a.635.635 0 1 0 .663-.629.646.646 0 0 0-.663.629z" transform="translate(-122.753 -48.187)" style="fill:#263238"/>
                <path data-name="Caminho 566" d="m250.214 69.16-1.474.465a.765.765 0 0 0 .958.533.81.81 0 0 0 .516-.998z" transform="translate(-121.068 -51.93)" style="fill:#9a4a4d"/>
                <path data-name="Caminho 567" d="m242.635 57.253 1.287-.89a.754.754 0 0 0-1.066-.215.822.822 0 0 0-.221 1.105z" transform="translate(-118.369 -46.235)" style="fill:#263238"/>
                <path data-name="Caminho 568" d="M243.25 60.343a.635.635 0 1 0 .663-.623.646.646 0 0 0-.663.623z" transform="translate(-118.69 -47.84)" style="fill:#263238"/>
                <path data-name="Caminho 569" d="m247.838 60.18-.1 3.814-2.006-.623z" transform="translate(-119.764 -48.04)" style="fill:#9a4a4d"/>
                <path data-name="Caminho 570" d="M253.19 73.462c1.621-.21 4.954-1.168 5.469-2.482a3.4 3.4 0 0 1-1.167 1.7c-.992.856-4.3 1.814-4.3 1.814z" transform="translate(-122.996 -52.719)" style="fill:#9a4a4d"/>
                <path data-name="Caminho 571" d="M284.49 104.243c-1.049-4.086-5.492-13.036-6.756-16.312-1.44-3.752-3.922-5.1-6.6-5.1-.986 1.27-1.4 7.657 1.638 11.335 1.292 2.726 5.169 10.344 5.169 10.344a119.976 119.976 0 0 1-3.967 12.718 1.967 1.967 0 0 1-1.02.975 19.989 19.989 0 0 0-3.554 2.573c-.748.567-1.321.663-1.27.9a1.083 1.083 0 0 0 1.292.686 17.571 17.571 0 0 0 2.369-.958 28.793 28.793 0 0 1-2.369 3.242c-1.61 1.859-1.553 3.446 1.581 3.5 2.369.034 3.622-1.3 5.724-5.362.6-1.168 1.27-2.93 2-4.432 1.831-3.8 2.987-5.384 3.967-7.816 1.606-3.879 2.206-4.718 1.796-6.293z" transform="translate(-129.466 -57.852)" style="fill:#b16668"/>
                <path data-name="Caminho 572" d="M271.205 82.64c2.97 0 5.163.238 6.875 2.749s7.005 15.722 7.595 17.434.975 3.112-1.491 7.119a12.906 12.906 0 0 1-5.9-2.08l.6-3.435-5.186-10.049a18.1 18.1 0 0 1-2.488-11.738z" transform="translate(-130.735 -57.77)" style="fill:#263238"/>
            </g>
        </g>
        <g>
            <g data-name="freepik--character--inject-65">
                <path data-name="Caminho 573" d="M110.1 172.77c3.4 1.134 4.2 1.366 6.535 5 2.267 3.486 4.534 9.936 6.558 15.1 3.712-1.054 11.585-2.885 14.169-4.393s2.341-2.556 3.4-3.52c1.224-1.134 2.505-3.82 3.5-2.341.669 1-.72 1.666-.635 2.93s3.905-1.7 5.509-2.834c1.06-.742 3.52 1.587 2.533 4.109a7.838 7.838 0 0 1-4.784 4.716c-2.647 1.134-4.03 1.7-7.368 3.174-3.474 1.564-17.8 7.9-19.214 7.017-3.225-1.593-6.178-11.574-8.133-15.87s-.653-8.781-2.07-13.088z" transform="translate(-61.006 -96.817)" style="fill:#ffa8a7"/>
                <path data-name="Caminho 574" d="M108.67 171.935c1.445 1.9.85 1.134 1.292 4.069.363 2.363 5.333 25.142 9.839 26.072 1.972.414 16.227-6.11 19.684-8.014a16.584 16.584 0 0 1-2.732-6.019c-4.143 1.615-11.284 3.214-13.846 4.013-1.19-3.31-2.641-6.711-4-10.049-2.591-6.32-4.059-10.843-10.237-10.072z" transform="translate(-60.386 -96.418)" style="fill:#37474f"/>
                <path data-name="Retângulo 27" transform="rotate(180 17.253 94.127)" style="fill:#ffa8a7" d="M0 0h5.554v9.505H0z"/>
                <path data-name="Caminho 575" d="m110.584 352.081 6.059.21.3-10.984-6.864-.227z" transform="translate(-60.997 -169.733)" style="fill:#ffa8a7"/>
                <path data-name="Caminho 576" d="M74.233 239.173c0 5.056-.351 34.443-.351 34.443-.119 1.457-1.519 4.041-1.632 9.278-.153 7.6 1.015 25.5 1.015 25.5a6.954 6.954 0 0 0 5.894.113s4.154-25.312 5.1-32.828c.827-6.563 3.2-23.736 3.2-23.736l3.571 22.308a37.453 37.453 0 0 0-.295 8.071c.249 3.474 2.879 20.767 2.879 20.767a11.624 11.624 0 0 0 7.068.062s.567-26.939.612-30.13c.068-3.639-1.519-34.936-1.519-34.936z" transform="translate(-44.602 -125.115)" style="fill:#263238"/>
                <path data-name="Caminho 577" d="M79.114 365.473v-.793c.3 0 .482.289.6 1 .085.516.159.9.329 1.576a18.355 18.355 0 0 0 .969 2.834c.782 1.933 1.445 2.658 3.242 4.914a21.869 21.869 0 0 1 1.7 1.989c.334.6.453 2.267-.119 2.641-2.091 1.394-5.277 1.434-7.532.776a4.534 4.534 0 0 1-3.248-3.65c-.079-.516-.051-1.037-.108-1.553a7.407 7.407 0 0 0-1.389-3.225 9.636 9.636 0 0 1-1.071-1.757 5.691 5.691 0 0 1 .21-3.559c.255-.986.533-2.063.867-1.972v.606a4.381 4.381 0 0 0 2.777.935c.812.021 2.779-.135 2.773-.762z" transform="translate(-44.614 -179.957)" style="fill:#263238"/>
                <path data-name="Caminho 578" d="M115.692 357.254c.317 0 .567.453 1.264 1.207a13.3 13.3 0 0 0 3.571 2.562c2.267 1.134 6.682 2.885 8.683 3.786 1.247.567 1.185 2.069-.1 2.93s-4.4 1.474-8.145.64c-2.04-.459-4.687-2.341-6.371-2.239s-4.818.079-6.059-.777-.742-2.681-.391-4.245c.38-1.7.765-4.375 1.332-4.262v.64c.731 1.1 4.534 1.5 6.161.691z" transform="translate(-59.983 -176.566)" style="fill:#263238"/>
                <path data-name="Caminho 579" d="M42.854 126.833a23.481 23.481 0 0 0 7.861-4.574s-1.423 2.664-5.668 5.141l1.032 19.531z"/>
                <path data-name="Caminho 580" d="M84.673 171.585c-1.134.272-3.837.6-5.826 1.173-1.462.419-2.08 2.2-2.386 3.554-.981 4.308-1.134 13.348-1.134 13.348l-.057 21.05c3.65 2.652 18.63 4 26.3-1.6 0 0-.935-25.074-.935-28.974s-2.171-8.592-8.156-8.938z" transform="translate(-45.916 -96.136)" style="fill:#455a64"/>
                <path data-name="Caminho 581" d="M58.771 224.1s4.648 7.056 5.447 7.975 1.343.618 2.2.21a23.748 23.748 0 0 1 3.225-1.134c1.423-.38 1.7 1.026.323 2.023-1.02.72-2.182 1.037-1.7 1.632a10.826 10.826 0 0 0 3.4 2.222c3.4 1.445 3.548 2.324 2.913 3.514-.567 1.032-2.59 3.854-8.723 1.224-2.528-1.088-6.036-4.925-7.714-6.915a82.316 82.316 0 0 1-5.742-8.461z" transform="translate(-36.009 -119.054)" style="fill:#ffa8a7"/>
                <path data-name="Caminho 582" d="M66.919 173.961c-5.588-.482-7.028 2.392-11 9.431-3.5 6.144-8.037 13.807-8.184 17-.04 1.032 4.444 8.2 7.651 11.834a7.962 7.962 0 0 0 6.1-2.834c-.765-1.275-4.891-8.745-4.891-8.745l7.368-11.369a14.991 14.991 0 0 0 3-6.008c.965-4.208.591-8.37-.044-9.309z" transform="translate(-33.99 -97.31)" style="fill:#37474f"/>
                <path data-name="Caminho 583" d="M94.12 136.882a7.028 7.028 0 1 0 7.028-7.022 7.028 7.028 0 0 0-7.028 7.022z" transform="translate(-54.083 -78.227)" style="fill:#263238"/>
                <path data-name="Caminho 584" d="M85.09 151.06a60.342 60.342 0 0 0 1.593 6.235 2.426 2.426 0 0 0 1.4 1.134L88 154.665z" transform="translate(-50.171 -87.411)" style="fill:#263238"/>
                <path data-name="Caminho 585" d="M85.521 136.18a2.885 2.885 0 0 0-2.086.907c-.935.958-.442 4.591.725 7.527l2.142.249z" transform="translate(-49.242 -80.965)" style="fill:#263238"/>
                <path data-name="Caminho 586" d="M86.226 142.925c-.431.261-1.043-.567-1.576-1.134a1.859 1.859 0 0 0-3.123.5c-.856 1.819.759 4.307 2.125 4.733 2.346.737 2.7-.771 2.7-.771l.176 8.734c1.621 2.08 5.271 4.534 7.238 4.177 1.564-.278 1.91-2.925.408-4.659v-2.579a14.628 14.628 0 0 0 3.168.159c1.7-.266 2.834-1.627 3.338-3.5.839-3 1.134-5.43.442-11.335-.782-6.473-8.309-6.541-12.373-3.967s-2.523 9.642-2.523 9.642z" transform="translate(-48.524 -79.027)" style="fill:#ffa8a7"/>
                <path data-name="Caminho 587" d="M104.124 132.213a3.616 3.616 0 0 1-1.451 1.411 8.445 8.445 0 0 1-4.965.986 15.209 15.209 0 0 1-5-1.859 3.588 3.588 0 0 1-.81 1.8 5.379 5.379 0 0 1-1.927 1.264c-.147 1.162-.142 2.658-.215 3.831 0 .4 0 2.454-.958 1.865a4.648 4.648 0 0 1-.816-.918 14.4 14.4 0 0 0-1.083-1.2c-.278-.255-.261-.839-.272-1.173a16.262 16.262 0 0 1 .068-2.1c.062-.725.181-1.445.244-2.165a3.27 3.27 0 0 0-.289-1.2 4.308 4.308 0 0 1-.181-1.372 4.2 4.2 0 0 1 2.494-3.321 11.67 11.67 0 0 1 6.013-.878 13.476 13.476 0 0 0 5.311-.2c.652-.215 1.27-.567 1.933-.725a2.613 2.613 0 0 1 2.006.125 2.373 2.373 0 0 1 .1 3.8c-.085.051-.187.108-.215.2a.448.448 0 0 0 .068.323 1.7 1.7 0 0 1-.055 1.506z" transform="translate(-50.767 -76.601)" style="fill:#263238"/>
                <path data-name="Caminho 588" d="m84.751 135.818-2.6-1.394a1.44 1.44 0 0 1 1.972-.652 1.553 1.553 0 0 1 .628 2.046z" transform="translate(-48.897 -79.849)" style="fill:#263238"/>
                <path data-name="Caminho 589" d="M98.6 164.858a29.382 29.382 0 0 1-5.2-1.5 4.449 4.449 0 0 1-1.865-1.842 6.121 6.121 0 0 0 1.06 2.176c.986 1.258 6.008 2.188 6.008 2.188z" transform="translate(-52.961 -91.943)" style="fill:#f28f8f"/>
                <path data-name="Caminho 590" d="M102.066 148.431a.827.827 0 1 1-.827-.862.839.839 0 0 1 .827.862z" transform="translate(-56.808 -85.899)" style="fill:#263238"/>
                <path data-name="Caminho 591" d="m100.482 143.738-1.7.947a1.026 1.026 0 0 1 .4-1.36.958.958 0 0 1 1.3.414z" transform="translate(-56.052 -84.012)" style="fill:#263238"/>
                <path data-name="Caminho 592" d="m103.4 159 1.91.714a1 1 0 0 1-1.3.635 1.066 1.066 0 0 1-.61-1.349z" transform="translate(-58.077 -90.851)" style="fill:#f28f8f"/>
                <path data-name="Caminho 593" d="m114.179 144.131-1.559-1.2a.947.947 0 0 1 1.355-.21 1.032 1.032 0 0 1 .2 1.411z" transform="translate(-62.097 -83.713)" style="fill:#263238"/>
                <path data-name="Caminho 594" d="M113.529 148.173a.8.8 0 1 1-.8-.833.816.816 0 0 1 .8.833z" transform="translate(-61.799 -85.8)" style="fill:#263238"/>
                <path data-name="Caminho 595" d="m107.19 147.65.278 5.039 2.63-.9z" transform="translate(-59.745 -85.934)" style="fill:#f28f8f"/>
                <path data-name="Caminho 596" d="M103.082 177.672c-.493 1.134-1.4 1.638-3.038 1.825a6.093 6.093 0 0 1-4.534-1.581l2.04-2.035 2.59 1.955.221-2.176z" transform="translate(-54.685 -98.069)" style="fill:#263238"/>
                <path data-name="Caminho 597" d="M103.082 177.672c-.493 1.134-1.4 1.638-3.038 1.825a6.093 6.093 0 0 1-4.534-1.581l2.04-2.035 2.59 1.955.221-2.176z" transform="translate(-54.685 -98.069)" style="opacity:.2"/>
                <path data-name="Caminho 598" d="M103.6 178.08a5.452 5.452 0 0 1 .266 2.188 3.718 3.718 0 0 1-.725 1.819 2.018 2.018 0 0 1-1.768.193 4.829 4.829 0 0 1-1.7-3.656l2.267.261z" transform="translate(-56.487 -99.117)" style="fill:#263238"/>
                <path data-name="Caminho 599" d="M103.645 185.15s2.658 14.662 2.766 15.87-1.53 5.384-2.539 5.424-3-3.769-3.032-4.846 1.037-16.232 1.037-16.232z" transform="translate(-56.994 -102.18)" style="fill:#263238"/>
                <path data-name="Caminho 600" d="M102.648 185.343a1.78 1.78 0 0 0 1.768-.193l.04.232a2.018 2.018 0 0 1-1.836.363z" transform="translate(-57.765 -102.18)" style="fill:#37474f"/>
                <path data-name="Caminho 601" d="m96.314 174-7.481-5.707V166.8s-1.751.465-2.142 3.531a13.211 13.211 0 0 0 5.838 6.235l1.57-2.834z" transform="translate(-50.864 -94.23)" style="fill:#37474f"/>
                <path data-name="Caminho 602" d="M103.848 168.06a6.665 6.665 0 0 1 2.511 2.057c.748 1.236.742 5.248.742 5.248l-1.791-1.627-1.661.8c.159-1.576.2-4.273.2-4.273z" transform="translate(-58.211 -94.776)" style="fill:#37474f"/>
            </g>
        </g>
    </g>
</svg>
