<svg xmlns="http://www.w3.org/2000/svg" width="264" height="267.569" viewBox="0 0 264 267.569">
    <defs>
        <clipPath id="6holvgjoxa">
            <path data-name="Caminho 671" d="m173.66 148.483 58.265-33.643v67.286l-58.265 33.643z" transform="translate(-173.66 -114.84)" style="fill:none"/>
        </clipPath>
    </defs>
    <g data-name="Photo Sharing-amico">
        <path data-name="freepik--floor--inject-23" d="M75.581 363.752c51.552 25.3 135.13 25.3 186.676 0s51.552-66.315 0-91.616-135.13-25.294-186.676 0-51.553 66.316 0 91.616z" transform="translate(-36.919 -115.159)" style="fill:#f5f5f5"/>
        <g transform="translate(66.726 161.497)">
            <path d="m142.721 338.286 7.118 4.079a3.039 3.039 0 0 0 2.747 0l80.031-46.192a.837.837 0 0 0 0-1.586l-7.105-4.067a3.039 3.039 0 0 0-2.747 0l-80.05 46.147a.837.837 0 0 0 .006 1.618z" transform="translate(-142.097 -290.193)" style="fill:#e0e0e0"/>
            <ellipse data-name="freepik--shadow--inject-23" cx="18.449" cy="9.738" rx="18.449" ry="9.738" transform="translate(118.574 50.878)" style="fill:#e0e0e0"/>
            <ellipse data-name="freepik--shadow--inject-23" cx="20.961" cy="11.064" rx="20.961" ry="11.064" transform="translate(96.699 59.785)" style="fill:#e0e0e0"/>
        </g>
        <g data-name="freepik--clouds--inject-23">
            <path d="m367.119 75.332 4.7 2.709a5.186 5.186 0 0 1-.038-.634v-1.314c0-2.423 1.7-3.407 3.806-2.2a7.359 7.359 0 0 1 2.265 2.176c.343-3.045 2.734-4.181 5.64-2.538a12.58 12.58 0 0 1 5.678 9.846v2.036a5.405 5.405 0 0 1-.476 2.36l3.9 2.252a4.663 4.663 0 0 1 2.106 3.648c0 1.345-.945 1.9-2.106 1.218L367.119 80.2A4.669 4.669 0 0 1 365 76.543c0-1.343.958-1.884 2.119-1.211z" transform="translate(-156.861 -49.214)" style="fill:#ebebeb"/>
            <path data-name="freepik--cloud--inject-23" d="m336.663 94.795 3.445 1.979a3.682 3.682 0 0 1-.032-.457v-.99c0-1.776 1.269-2.493 2.785-1.605a5.411 5.411 0 0 1 1.688 1.592c.247-2.233 2-3.064 4.13-1.833a9.193 9.193 0 0 1 4.117 7.213v1.5a3.883 3.883 0 0 1-.355 1.726l2.861 1.656a3.394 3.394 0 0 1 1.548 2.671c0 .99-.691 1.389-1.548.895l-18.664-10.788a3.407 3.407 0 0 1-1.548-2.677c.025-.977.717-1.377 1.573-.882z" transform="translate(-145.926 -56.573)" style="fill:#ebebeb"/>
        </g>
        <g data-name="freepik--device--inject-23">
            <path data-name="Caminho 603" d="m151.642 244.981-1.789-1.028a5.818 5.818 0 0 1-2.633-4.555V82.577a5.83 5.83 0 0 1 2.633-4.561l72.323-41.751a5.779 5.779 0 0 1 5.259 0l1.789 1.034a5.792 5.792 0 0 1 2.633 4.555v156.815a5.8 5.8 0 0 1-2.633 4.555L156.9 244.981a5.818 5.818 0 0 1-5.258 0z" transform="translate(-77.244 -35.632)" style="fill:#37474f"/>
            <path data-name="Caminho 604" d="m157.8 111.205-9.808-5.665a5.386 5.386 0 0 0-.768 2.595v156.814a5.817 5.817 0 0 0 2.633 4.555l1.789 1.034a5.818 5.818 0 0 0 5.259 0l.895-.52z" transform="translate(-77.244 -61.19)" style="fill:#263238"/>
            <path data-name="Caminho 605" d="M158.33 89.152V245.96c0 1.681 1.18 2.36 2.633 1.523l72.323-41.757a5.8 5.8 0 0 0 2.633-4.555V44.356c0-1.681-1.174-2.36-2.633-1.523L160.963 84.59a5.83 5.83 0 0 0-2.633 4.562z" transform="translate(-81.306 -38.134)" style="fill:#455a64"/>
            <path data-name="Caminho 606" d="m166.152 109.526 66.023-38.116c1.269-.723 2.252-.14 2.252 1.269v125.132a4.987 4.987 0 0 1-2.252 3.908l-66.023 38.122c-1.269.717-2.252.133-2.252-1.307v-125.1a5 5 0 0 1 2.252-3.908z" transform="translate(-83.342 -48.599)" style="fill:#fafafa"/>
            <path data-name="Caminho 607" d="M218.464 82.232c.977-.558 1.764-.108 1.764 1.021a3.883 3.883 0 0 1-1.764 3.052c-.971.565-1.764.108-1.764-1.015a3.908 3.908 0 0 1 1.764-3.058z" transform="translate(-102.645 -52.581)" style="fill:#263238"/>
            <path data-name="Caminho 608" d="M210.813 91.635c3.578-1.986 9.973-5.786 13.507-7.867.6-.349 1.085-.108 1.085.546a2.322 2.322 0 0 1-1.091 1.808l-13.532 7.816c-.6.349-1.091.1-1.091-.552a2.233 2.233 0 0 1 1.122-1.751z" transform="translate(-100.082 -53.172)" style="fill:#263238"/>
            <path data-name="Caminho 609" d="M205.5 99.292c.546-.317.99-.057.99.571a2.176 2.176 0 0 1-.99 1.713c-.546.317-.99.063-.99-.571a2.2 2.2 0 0 1 .99-1.713z" transform="translate(-98.188 -58.856)" style="fill:#263238"/>
            <path data-name="Caminho 610" d="M217.447 313.173c1.948-1.123 3.527-.209 3.527 2.036a7.79 7.79 0 0 1-3.527 6.109c-1.948 1.123-3.527.216-3.527-2.036a7.81 7.81 0 0 1 3.527-6.109z" transform="translate(-101.629 -136.922)" style="fill:#263238"/>
            <path data-name="Caminho 611" d="M173.66 215.762v-67.28l58.265-33.643v67.286z" transform="translate(-86.91 -64.59)" style="fill:#ebebeb"/>
            <g data-name="Grupo 22" transform="translate(86.75 50.25)" style="clip-path:url(#6holvgjoxa)">
                <path data-name="Caminho 612" d="m247.2 175.584-13.411 1.174a8.837 8.837 0 0 1-9.789-8.94v-2.385a12.949 12.949 0 0 1 11.318-12.91 10.48 10.48 0 0 1 11.921 10.246z" transform="translate(-192.061 -128.58)" style="fill:#263238"/>
                <path data-name="Caminho 613" d="m225.712 161.408-2.652-1.193a1.561 1.561 0 0 1 2-.837 1.485 1.485 0 0 1 .647 2.03z" transform="translate(-191.72 -131.083)" style="fill:#263238"/>
                <path data-name="Caminho 614" d="m226.831 159.713-.831-2.8a1.351 1.351 0 0 1 1.9.8 1.732 1.732 0 0 1-1.072 2z" transform="translate(-192.794 -130.168)" style="fill:#263238"/>
                <path data-name="Caminho 615" d="m192.372 177.165-2.652-1.193a1.561 1.561 0 0 1 2-.844 1.491 1.491 0 0 1 .647 2.036z" transform="translate(-179.531 -136.841)" style="fill:#263238"/>
                <path data-name="Caminho 616" d="M250.88 190.334c1.656-.33 4.016-1.637 6.439 2.684s7.137 13.627 7.137 13.627l10.43-8.622 2.937 2.937s-10.493 11.178-12.054 12.847c-1.224 1.326-2.677 1.605-4.27-.266-1.859-2.208-7.746-11.248-7.746-11.248z" transform="translate(-201.89 -142.278)" style="fill:#b16668"/>
                <path data-name="Caminho 617" d="m286.85 197.319 29.043-18.779.6 1.63-28.64 18.53c-1.58.979-2.233-.658-1.003-1.381z" transform="translate(-214.806 -138.128)" style="fill:#263238"/>
                <g data-name="Grupo 21" style="opacity:.1">
                    <path data-name="Caminho 618" d="m72.044 59.191 29.043-18.779.6 1.63-28.64 18.53c-1.58.979-2.233-.658-1.003-1.381z"/>
                </g>
                <path data-name="Caminho 619" d="m338.055 161.9-5.209 3.445a.634.634 0 0 0-.266.482v12.3c0 .171.121.228.266.133l5.189-3.451a.634.634 0 0 0 .26-.482v-12.3c.02-.17-.095-.227-.24-.127z" transform="translate(-231.759 -132.027)" style="fill:#37474f"/>
                <path data-name="Caminho 620" d="m332.463 165.112 5.19-3.445c.127-.089.235-.051.26.076a.558.558 0 0 0-.26-.387l-.216-.1a.59.59 0 0 0-.533.044l-5.183 3.451a.634.634 0 0 0-.19.209l.749.368a.634.634 0 0 1 .183-.216z" transform="translate(-231.375 -131.793)" style="fill:#455a64"/>
                <path data-name="Caminho 621" d="M331.44 179.694a.52.52 0 0 0 .266.438l.216.1a.584.584 0 0 0 .482 0c-.127.057-.222 0-.222-.159v-12.32a.564.564 0 0 1 .082-.266l-.749-.368a.558.558 0 0 0-.076.273z" transform="translate(-231.342 -133.953)" style="fill:#263238"/>
                <path data-name="Caminho 622" d="m338.906 172.864 1.63-1.085c.336-.222.634-.133.634.19a1.383 1.383 0 0 1-.634 1l-1.624 1.085c-.335.219-.342-.968-.006-1.19z" transform="translate(-233.981 -135.612)" style="fill:#263238"/>
                <path data-name="Caminho 623" d="m338.906 176.4 1.63-1.085c.336-.222.634-.133.634.19a1.383 1.383 0 0 1-.634 1l-1.624 1.1c-.335.208-.342-.979-.006-1.205z" transform="translate(-233.981 -136.906)" style="fill:#263238"/>
                <path data-name="Caminho 624" d="M334.2 167.448a1.091 1.091 0 0 0-.438.818v.933c0 .3.2.406.438.247a1.11 1.11 0 0 0 .431-.818v-.939c-.002-.289-.199-.4-.431-.241z" transform="translate(-232.19 -134.046)" style="fill:#263238"/>
                <path data-name="Caminho 625" d="M334.34 167.992a.476.476 0 0 0-.19.343c0 .121.089.159.19.089a.463.463 0 0 0 .184-.336c0-.096-.082-.134-.184-.096z" transform="translate(-232.333 -134.266)" style="fill:#f5f5f5"/>
                <path data-name="Caminho 626" d="M334.34 169.181a.469.469 0 0 0-.19.336c0 .121.089.165.19.1a.463.463 0 0 0 .184-.343c0-.119-.082-.163-.184-.093z" transform="translate(-232.333 -134.694)" style="fill:#f5f5f5"/>
                <path data-name="Caminho 627" d="M341.925 171.333a.565.565 0 0 1 .3.482v2.43a.768.768 0 0 1-.3.558l-.311.216V171.2z" transform="translate(-235.064 -135.445)" style="fill:#263238"/>
                <path data-name="Caminho 628" d="M284.63 203c1.174-1.2 3.172-3.489 4.244-4.009s4.7-.888 5.507-1.269.99.634.178 1.237l-7.511 4.853z" transform="translate(-214.229 -145.11)" style="fill:#b16668"/>
                <path data-name="Caminho 629" d="m288.976 206.247 1.846-1.193a3.172 3.172 0 0 1-.882-.78 1.523 1.523 0 0 1-.044-1.205 2.087 2.087 0 0 1 .895-.952 8.127 8.127 0 0 1 3.033-1.389 8.432 8.432 0 0 1 2.576-.159 1.383 1.383 0 0 1 .793.495 5.824 5.824 0 0 1 .482 2.138c0 .495-.787 1.015-1.307 1.161 0 0 .152 1.345-1.688 1.529 0 0 0 .888-1.269 1.085s-1.764-.254-3.077-.057-3.134 2.113-3.134 2.113z" transform="translate(-215.168 -146.169)" style="fill:#b16668"/>
                <path data-name="Caminho 630" d="M207.88 205.556a92.405 92.405 0 0 1 17.009-3.946l1.2 9.2-14.179 4.244z" transform="translate(-186.17 -146.562)" style="fill:#263238"/>
                <path data-name="Caminho 631" d="M207.88 205.556a92.405 92.405 0 0 1 17.009-3.946l1.2 9.2-14.179 4.244z" transform="translate(-186.17 -146.562)" style="opacity:.1"/>
                <path data-name="Caminho 632" d="m229.93 354.237 5.278-.33v-6.737l-5.278.336z" transform="translate(-194.231 -199.777)" style="fill:#ffa8a7"/>
                <path data-name="Caminho 633" d="M247.426 349.291c.285.8 1.669 1.332 2.671 1.992a1.852 1.852 0 0 1 .634 2.4c-.374.679-2.144 1.174-4.029 1.034-2.138-.159-4.377-1.1-4.764-2.956a19.843 19.843 0 0 0-1.269-4.517c-.368-.945-1.015-1.8-.863-2.791a4.048 4.048 0 0 1 1.592-2.411s3.9 7.835 4.879 7.936a.945.945 0 0 0 1.149-.687z" transform="translate(-197.834 -197.901)" style="fill:#263238"/>
                <path data-name="Caminho 634" d="M248.328 335.738s-.736 2.69-.983 3.578a20.417 20.417 0 0 0 .552 6.4 2.855 2.855 0 0 0 1.174 1.662s1.415 1.1-.228 1.5a4.3 4.3 0 0 1-4.124-1.142c-1.085-1.148-1.218-4.7-1.948-6.1-.469-.888-.812-1.44-.933-1.738s.317-.5.774-1.865a29.127 29.127 0 0 0 .806-4.035z" transform="translate(-198.577 -194.962)" style="fill:#ffa8a7"/>
                <path data-name="Caminho 635" d="M225.127 242.459c-2.239 6.3-.482 16.812.273 24.958.634 7.093 1.5 13.1 1.5 13.1a25.022 25.022 0 0 0-1.231 8.672c.1 5.557 2.036 20.936 2.036 20.936a5.577 5.577 0 0 0 5.405-.343s.761-9.319 1.516-15.771c.793-6.744 1.053-11.635 1.745-15.594.856-4.936 1.377-20.453 1.377-20.453l3.876 16.159a47.944 47.944 0 0 0-2.753 7.7c-1.015 4.035-2.493 20.434-2.493 20.434a5.412 5.412 0 0 0 5.075 1.548s8.419-25.5 9.345-28.13c1.269-3.61-1.269-26.918-1.992-34.556z" transform="translate(-192.074 -161.006)" style="fill:#263238"/>
                <path data-name="Caminho 636" d="m245.66 264.062.311-3.978a11.369 11.369 0 0 0 6.109-2.284 9.941 9.941 0 0 1-4.676 3.261l-.381 3.642 1.688 12.092z" transform="translate(-199.982 -167.104)" style="opacity:.1"/>
                <path data-name="Caminho 637" d="M231.6 193.109s-1.9.558-3.331 1.136c2.011 4.561-.254 12.764-.254 12.764l2.975 7.911c-2.538 3.083-5.71 5.938-6.56 10.309 1.713 1.833 13.113 4.333 24.5-2.582 0 0-.425-7.023-1.992-11.375 1.713-7.3 1.8-9.186 1.307-11.032-1.37-5.2-2.9-6.382-7.036-9.649z" transform="translate(-192.221 -142.533)" style="fill:#f5f5f5"/>
                <path data-name="Caminho 638" d="M234.615 353.824v-.634a11.369 11.369 0 0 0 3.305 5.5c1.459 1.205 3.451 2.569 3.952 4.01s-2.347 2.36-4.238 2.335a6.883 6.883 0 0 1-4.745-2.068 32.981 32.981 0 0 1-2.392-2.994c-.558-.711-1.852-1.446-2.157-2.3a5.71 5.71 0 0 1 .266-2.449c.216-.837.45-1.757.73-1.707v.508a3.388 3.388 0 0 0 2.309.577c.68-.054 2.97-.264 2.97-.778z" transform="translate(-193.638 -201.978)" style="fill:#263238"/>
                <path data-name="Caminho 639" d="M229.93 354a3.388 3.388 0 0 0 2.309.577c.679-.032 2.969-.235 2.969-.755v-.634a11.369 11.369 0 0 0 3.305 5.5c.349.292.73.59 1.11.895.774.793.558 1.567-1.269 1.9a6.4 6.4 0 0 1-5.462-2.29A26.472 26.472 0 0 1 229.93 354z" transform="translate(-194.231 -201.978)" style="fill:#ffa8a7"/>
                <path data-name="Caminho 640" d="m232 221.57 4.619 5.856-2.861-1.18z" transform="translate(-194.988 -153.859)" style="fill:#e0e0e0"/>
                <path data-name="Caminho 641" d="M244.4 159.47c1.269.577 2.849 3.483 2.874 9.948 0 5.475-1.719 7.029-2.595 7.524s-2.607.45-4.289.362l.032 2.265s3.013 3.039 2.906 4.555-3.851 2.633-6.052 1.415a15.575 15.575 0 0 1-4.029-3.591l-.247-7.829s-.958 1.066-2.665-.2c-1.415-1.047-1.9-3.02-.888-4.225a2.347 2.347 0 0 1 3.838.317 14.415 14.415 0 0 0 6.167-2.538 11.1 11.1 0 0 0 4.948-8.003z" transform="translate(-193.859 -131.156)" style="fill:#b16668"/>
                <path data-name="Caminho 642" d="M246.255 173.741a.78.78 0 0 1-.634.818.634.634 0 0 1-.742-.6.774.774 0 0 1 .634-.818.634.634 0 0 1 .742.6z" transform="translate(-199.696 -136.152)" style="fill:#263238"/>
                <path data-name="Caminho 643" d="m247.52 181.36 1.611.324a.907.907 0 0 1-1.021.692.8.8 0 0 1-.59-1.015z" transform="translate(-200.649 -139.159)" style="fill:#9a4a4d"/>
                <path data-name="Caminho 644" d="m255.041 169.442-1.421-.8a.818.818 0 1 1 1.421.8z" transform="translate(-202.892 -134.334)" style="fill:#263238"/>
                <path data-name="Caminho 645" d="M254.625 172.431a.78.78 0 0 1-.634.825.634.634 0 0 1-.742-.6.78.78 0 0 1 .634-.825.634.634 0 0 1 .742.6z" transform="translate(-202.755 -135.673)" style="fill:#263238"/>
                <path data-name="Caminho 646" d="m250.51 171.74.076 4.485 2.163-.926z" transform="translate(-201.755 -135.642)" style="fill:#9a4a4d"/>
                <path data-name="Caminho 647" d="M243.531 186.417c-1.77 0-5.418-.634-6.021-2.017a3.267 3.267 0 0 0 1.32 1.681c1.1.8 4.714 1.44 4.714 1.44z" transform="translate(-197.002 -140.27)" style="fill:#9a4a4d"/>
                <path data-name="Caminho 648" d="M247.05 190.441v-.818s3.172-.672 4.65-.3a8.317 8.317 0 0 1 3.477 1.408 5.488 5.488 0 0 1 1.358 3.42c-.032 1.6-1.561 2.284-3.622 1.174-1.11-.6-1.542-1.9-2.278-2.538a9.1 9.1 0 0 1-3.584-2.347z" transform="translate(-200.49 -142.029)" style="fill:#ffa8a7"/>
                <path data-name="Caminho 649" d="M223.559 196.35c-3.616 1.5-4.124 3.039-5.469 8.387-1.186 4.714-1.783 8.1-1.783 8.1l-4.758 9.719s8.393-1.751 9.028-3.445a138.142 138.142 0 0 0 4.225-13.754c.68-3.208 1.251-6.557-1.243-9.007z" transform="translate(-187.512 -144.639)" style="fill:#b16668"/>
                <path data-name="Caminho 650" d="m181.46 382.295 5.088-.444v-8.711l-5.088.45z" transform="translate(-176.512 -209.271)" style="fill:#ffa8a7"/>
                <path data-name="Caminho 651" d="m209.26 365.2 5.082-.266.254-9.237-5.335.292z" transform="translate(-186.675 -202.895)" style="fill:#ffa8a7"/>
                <path data-name="Caminho 652" d="M180.076 253.83c0 4.86.742 43.882.742 43.882-.114 1.408-1.427 4.1-1.142 9.44.387 7.258.9 26.379.9 26.379a6.63 6.63 0 0 0 5.659-.387s4.815-26.956 5.71-34.258c.8-6.376 2.144-27.73 2.144-27.73l2.772 24.476a29.545 29.545 0 0 0-.634 8.14c.235 3.318 1.872 20.587 1.872 20.587a6.792 6.792 0 0 0 5.875-.063s2.893-26.474 2.95-29.545c.07-3.5-1.694-43.14-1.694-43.14z" transform="translate(-175.845 -164.841)" style="fill:#37474f"/>
                <path data-name="Caminho 653" d="M185.88 382.493v-.723c.482.165 1.618 4.384 3.635 6.046 1.605 1.326 3.806 2.823 4.346 4.4s-3.045 2.9-4.542 2.766c-1.745-.152-4.764-1.117-5.519-2.189s-1.117-2.715-1.732-3.5-2.03-1.586-2.366-2.538a6.343 6.343 0 0 1 .292-2.7c.254-1 .489-1.9.8-1.872v.552a3.807 3.807 0 0 0 2.538.634c.746 0 2.554-.305 2.548-.876z" transform="translate(-175.844 -212.426)" style="fill:#263238"/>
                <path data-name="Caminho 654" d="M213.511 367.78c.266 0 .482.336 1.066.92a9.891 9.891 0 0 0 2.988 1.9c1.9.787 5.608 1.9 7.289 2.538 1.047.381 1 1.649-.089 2.462s-3.692 1.561-6.833 1.136c-1.707-.235-3.933-1.618-5.342-1.408s-4.041.419-5.075-.209-.634-2.189-.33-3.534c.324-1.459.723-3.737 1.2-3.68v.495c.634.875 3.762.977 5.107.178z" transform="translate(-185.793 -207.311)" style="fill:#263238"/>
                <path data-name="Caminho 655" d="M202.44 279.7a21.024 21.024 0 0 0 7.086-4.7 16.673 16.673 0 0 1-5.431 5.418l.869 21.97z" transform="translate(-184.182 -173.392)" style="fill:#263238"/>
                <path data-name="Caminho 656" d="M183.332 211.494s-3.692 1.364-3.692 7.613l.266 11.419-.051 17.89c3.737 3.743 20.3-1.123 26.011-5.71 0 0-.634-17.909-1-25.8-.273-5.615-2.163-9.434-7.556-9.085l-6.921 1.554z" transform="translate(-175.846 -148.827)" style="fill:#263238"/>
                <path data-name="Caminho 657" d="M164.884 239.588c2.062-16.108 6.807-24.444 12.6-25.878l-.412 10.227s-3.09 9.04-5.507 17.345c-1.383 4.739-2.918 10.271-2.69 13.6.044.59 1.592 1.732 2.011 2.106a12.139 12.139 0 0 1 2.258 3.172c.6.939 1.218 1.231 1.059 1.484a1.377 1.377 0 0 1-1.776.374 8.192 8.192 0 0 1-1.649-1.269 9.313 9.313 0 0 0 .831 4.358c1.351 2.538 1.129 4-2.62 3.534-2.354-.292-4.048-2.538-4.676-8.019a46.8 46.8 0 0 1-.114-6.217c.228-5.365.273-11.594.685-14.817z" transform="translate(-170.181 -150.986)" style="fill:#ffa8a7"/>
                <path data-name="Caminho 658" d="M179.491 213.12a10.166 10.166 0 0 0-7.924 5.221 58.371 58.371 0 0 0-5.367 14.75s4.492 2.081 8.527 1.668l3.508-9.954s2.005-3.958 1.256-11.685z" transform="translate(-170.933 -150.77)" style="fill:#263238"/>
                <path data-name="Caminho 659" d="M179.491 213.12a10.166 10.166 0 0 0-7.924 5.221 58.371 58.371 0 0 0-5.367 14.75s4.492 2.081 8.527 1.668l3.508-9.954s2.005-3.958 1.256-11.685z" transform="translate(-170.933 -150.77)" style="opacity:.1"/>
                <ellipse data-name="Elipse 7" cx="7.889" cy="7.231" rx="7.889" ry="7.231" transform="rotate(-46.21 57.276 10.866)" style="fill:#263238"/>
                <path data-name="Caminho 660" d="M187.15 192.81a57.421 57.421 0 0 0 1.63 6.211 2.2 2.2 0 0 0 1.427 1.028l-.082-3.806z" transform="translate(-178.592 -143.345)" style="fill:#263238"/>
                <path data-name="Caminho 661" d="M187.883 180.29a2.912 2.912 0 0 0-2.227.977c-.958 1.059-.419 4.073.768 6.979l2.189.063z" transform="translate(-177.866 -138.767)" style="fill:#263238"/>
                <path data-name="Caminho 662" d="M188.737 185.79c-.444.3-1.066-.488-1.611-1.009a1.96 1.96 0 0 0-3.172.8 3.657 3.657 0 0 0 2.17 4.638c2.392.539 2.753-1.028 2.753-1.028l.184 8.628c2.062 2.125 9.129.958 7.8-.907v-2.633a15.155 15.155 0 0 0 3.229-.114c1.764-.431 2.868-1.9 3.407-3.87.856-3.14 1.18-5.64.457-11.6-.8-6.534-8.482-5.932-12.631-2.956s-2.586 10.051-2.586 10.051z" transform="translate(-177.33 -136.318)" style="fill:#ffa8a7"/>
                <path data-name="Caminho 663" d="M190.546 184.688c-.222 0-1.059-1.269-1.611-1.745-.755-.634.222-6.94.222-6.94a3.047 3.047 0 0 1 .73-3.216c1.04-1.231 2.772-1.51 5.71-2.233 1.548-.381 3.9-1.021 5.45-1.446 1.852-.5 3.388-1 4.695 0a3.115 3.115 0 0 1 .907 3.6 3.681 3.681 0 0 1-.527.831 3.464 3.464 0 0 1-1.332 1.034s-.806.787-3.616 1.37a41.237 41.237 0 0 1-7.778.533c-.812-.038-.983.768-1.421 2.963-.369 1.924-.693 5.161-1.429 5.249z" transform="translate(-179.14 -134.468)" style="fill:#263238"/>
                <path data-name="Caminho 664" d="M200.253 204.6a28.639 28.639 0 0 1-5.31-1.059 4 4 0 0 1-1.9-1.713 5.71 5.71 0 0 0 1.079 2.125c1.009 1.193 6.135 1.694 6.135 1.694z" transform="translate(-180.745 -146.642)" style="fill:#f28f8f"/>
                <path data-name="Caminho 665" d="M202.009 189.847a.9.9 0 0 1-.793.888.73.73 0 0 1-.787-.755.9.9 0 0 1 .787-.882.73.73 0 0 1 .793.749z" transform="translate(-183.446 -141.987)" style="fill:#263238"/>
                <path data-name="Caminho 666" d="m199.885 185.043-1.688 1.078a1.072 1.072 0 0 1 .393-1.377.888.888 0 0 1 1.294.3z" transform="translate(-182.591 -140.336)" style="fill:#263238"/>
                <path data-name="Caminho 667" d="m203.812 198.79 1.8.514a1.021 1.021 0 0 1-1.218.7.92.92 0 0 1-.577-1.218z" transform="translate(-184.659 -145.531)" style="fill:#f28f8f"/>
                <path data-name="Caminho 668" d="m213.432 184.365-1.542-1.053a.977.977 0 0 1 1.339-.324 1 1 0 0 1 .203 1.377z" transform="translate(-187.636 -139.702)" style="fill:#263238"/>
                <path data-name="Caminho 669" d="M212.343 188.564a.894.894 0 0 1-.787.882.723.723 0 0 1-.787-.749.888.888 0 0 1 .787-.888.73.73 0 0 1 .787.755z" transform="translate(-187.227 -141.516)" style="fill:#263238"/>
                <path data-name="Caminho 670" d="m207.11 188.56.089 4.777 2.829-.869z" transform="translate(-185.889 -141.791)" style="fill:#f28f8f"/>
            </g>
            <path data-name="Caminho 672" d="M196 124.25v.723c0 1.161.812 1.63 1.814 1.053l19.121-11.02a4.01 4.01 0 0 0 1.814-3.172v-.723c0-1.161-.812-1.63-1.814-1.053l-19.077 11.02A4.009 4.009 0 0 0 196 124.25z" transform="translate(-95.077 -62.751)" style="fill:#ebebeb"/>
            <path data-name="Caminho 673" d="M196 130.5c0 .552.406.768.907.476l32.247-18.62a1.954 1.954 0 0 0 .907-1.523c0-.546-.406-.761-.907-.469l-32.247 18.614A1.96 1.96 0 0 0 196 130.5z" transform="translate(-95.077 -62.906)" style="fill:#ebebeb"/>
            <path data-name="Caminho 674" d="m177.168 283.289-1.136-.3c-1.085-.285-2.373-.92-2.373-2.309a3.642 3.642 0 0 1 1.757-2.772 1.1 1.1 0 0 1 1.745.831 4.39 4.39 0 0 1 1.745-2.849c.977-.565 1.764-.228 1.764.742 0 1.389-1.269 3.515-2.366 5.044z" transform="translate(-86.91 -123.368)" style="fill:#263238"/>
            <path data-name="Caminho 675" d="M192.927 274.684a1.757 1.757 0 0 1-.882-.228 2.271 2.271 0 0 1-.971-2.081 6.585 6.585 0 0 1 2.982-5.158 2 2 0 0 1 3.255 1.9 5.189 5.189 0 0 1-.184 1.313l.964 1.32a.279.279 0 0 1-.228.444h-1.5a5.906 5.906 0 0 1-2.024 2.081 2.855 2.855 0 0 1-1.412.409zm2.538-7.334a2.272 2.272 0 0 0-1.123.349 5.976 5.976 0 0 0-2.7 4.676 1.459 1.459 0 0 0 2.423 1.4 5.481 5.481 0 0 0 1.9-2.017.292.292 0 0 1 .241-.14h1.161l-.692-.945a.254.254 0 0 1-.076-.273 4.713 4.713 0 0 0 .2-1.3 1.732 1.732 0 0 0-.691-1.592 1.2 1.2 0 0 0-.647-.152z" transform="translate(-93.273 -120.123)" style="fill:#455a64"/>
            <path data-name="Caminho 676" d="M207.653 265.852h-.038a.279.279 0 0 1-.241-.26l-.247-4.022-2.385-.634a.279.279 0 0 1-.063-.514l5.672-3.274a.279.279 0 0 1 .406.33l-2.836 8.2a.279.279 0 0 1-.266.178zm-2.113-5.291 1.9.527a.279.279 0 0 1 .2.247l.178 2.829 2.137-6.164z" transform="translate(-98.197 -116.601)" style="fill:#455a64"/>
            <path data-name="Caminho 677" d="M208.84 261.627a.292.292 0 0 1-.171-.057.286.286 0 0 1-.051-.393l3.1-3.971a.273.273 0 0 1 .393-.051.279.279 0 0 1 .044.393l-3.1 3.971a.292.292 0 0 1-.215.108z" transform="translate(-99.669 -116.595)" style="fill:#455a64"/>
            <path data-name="Caminho 678" d="M255.255 242.362h-.063a.292.292 0 0 1-.222-.273v-6.566a.292.292 0 0 1 .14-.241l4.149-2.4a.279.279 0 0 1 .419.241v6.553a.273.273 0 0 1-.171.26.285.285 0 0 1-.3-.057l-1.8-1.8-1.9 4.117a.292.292 0 0 1-.252.166zm.279-6.674v5.12l1.529-3.324a.273.273 0 0 1 .2-.159.279.279 0 0 1 .247.076l1.605 1.6v-5.393z" transform="translate(-116.636 -107.729)" style="fill:#455a64"/>
            <path data-name="Caminho 679" d="M175.9 300.385a1.352 1.352 0 0 0 .209-.438 1.3 1.3 0 0 0 .051-.317.419.419 0 0 0-.14-.362c-.089-.063-.241-.038-.457.082a1.174 1.174 0 0 0-.438.425 1.834 1.834 0 0 0-.2.558.438.438 0 0 1-.063.159.38.38 0 0 1-.1.1l-.431.247c-.044 0-.076.032-.108 0a.107.107 0 0 1-.044-.1 2.474 2.474 0 0 1 .127-.634 3.223 3.223 0 0 1 .3-.634 2.938 2.938 0 0 1 .425-.546 2.348 2.348 0 0 1 .533-.419 1.389 1.389 0 0 1 .6-.216.606.606 0 0 1 .66.412 1.142 1.142 0 0 1 .082.45 2.536 2.536 0 0 1 0 .311 1.867 1.867 0 0 1-.076.33 3.281 3.281 0 0 1-.178.4 5.625 5.625 0 0 1-.3.508l-1.015 1.713 1.523-.882a.089.089 0 0 1 .152.082v.45a.324.324 0 0 1-.044.146.311.311 0 0 1-.108.114l-2.538 1.478a.1.1 0 0 1-.146-.1v-.387a.47.47 0 0 1 .051-.222l.1-.165z" transform="translate(-87.096 -131.657)" style="fill:#455a64"/>
            <path data-name="Caminho 680" d="M182.055 294.613a.089.089 0 0 1 .152.082v.45a.349.349 0 0 1-.044.152 1.7 1.7 0 0 1-.076.152l-.806 1.44a1.344 1.344 0 0 1 .45-.114.546.546 0 0 1 .343.063.507.507 0 0 1 .216.254 1.04 1.04 0 0 1 .082.45 1.941 1.941 0 0 1-.114.634 2.7 2.7 0 0 1-.317.634 3.451 3.451 0 0 1-.469.546 3.552 3.552 0 0 1-.59.438 2.461 2.461 0 0 1-.666.279 1 1 0 0 1-.476 0 .457.457 0 0 1-.285-.2.634.634 0 0 1-.114-.349.222.222 0 0 1 .038-.146.291.291 0 0 1 .108-.108l.431-.254a.108.108 0 0 1 .1 0l.07.076a.318.318 0 0 0 .089.1.444.444 0 0 0 .146.038.717.717 0 0 0 .228-.051 2.144 2.144 0 0 0 .336-.159 1.859 1.859 0 0 0 .539-.469.914.914 0 0 0 .209-.558c0-.19-.07-.292-.209-.292a1.04 1.04 0 0 0-.539.19l-.457.26a.1.1 0 0 1-.146-.1v-.45a.387.387 0 0 1 .038-.159l.082-.146.768-1.377-1.516.875a.108.108 0 0 1-.108 0 .168.168 0 0 1-.038-.1v-.45a.336.336 0 0 1 .038-.146.292.292 0 0 1 .108-.108z" transform="translate(-88.986 -130.301)" style="fill:#455a64"/>
            <path data-name="Caminho 681" d="M186.763 296.426a.108.108 0 0 1-.108 0 .1.1 0 0 1-.044-.1v-.761l-1.7.983a.094.094 0 0 1-.146-.1v-.45a.419.419 0 0 1 0-.178l.082-.19 1.688-3.394a.634.634 0 0 1 .222-.292l.419-.241a.1.1 0 0 1 .1 0c.032 0 .044.044.044.1v2.538l.476-.273a.1.1 0 0 1 .146.1v.45a.26.26 0 0 1-.044.146.3.3 0 0 1-.1.114l-.476.273v.768a.273.273 0 0 1-.044.146.241.241 0 0 1-.1.108zm-.152-1.649v-1.358l-.939 1.9z" transform="translate(-90.966 -129.247)" style="fill:#455a64"/>
            <path data-name="Caminho 682" d="M193.4 293.022a.349.349 0 0 1-.044.146.254.254 0 0 1-.108.108l-.419.241a.089.089 0 0 1-.146-.082v-4.162a.26.26 0 0 1 .044-.146.362.362 0 0 1 .1-.114l.419-.241a.108.108 0 0 1 .108 0 .1.1 0 0 1 .044.1z" transform="translate(-93.863 -128.171)" style="fill:#455a64"/>
            <path data-name="Caminho 683" d="M195.581 287.407a.089.089 0 0 1 .146.082v.495a.26.26 0 0 1-.044.146.362.362 0 0 1-.1.114l-.476.273a.1.1 0 0 1-.1 0c-.032 0-.044-.044-.044-.1v-.495a.273.273 0 0 1 .025-.152.241.241 0 0 1 .1-.108zm.121 4.263a.349.349 0 0 1-.044.146.254.254 0 0 1-.108.108l-.419.241a.089.089 0 0 1-.146-.082v-2.956a.26.26 0 0 1 .044-.146.361.361 0 0 1 .1-.114l.419-.241a.108.108 0 0 1 .108 0 .1.1 0 0 1 .044.1z" transform="translate(-94.696 -127.67)" style="fill:#455a64"/>
            <path data-name="Caminho 684" d="M198.037 289.244v1.091a.349.349 0 0 1-.044.146.253.253 0 0 1-.108.108l-.412.241c-.044 0-.076.032-.108 0a.114.114 0 0 1-.044-.1v-4.162a.324.324 0 0 1 .044-.146.312.312 0 0 1 .108-.114l.412-.241a.108.108 0 0 1 .108 0 .1.1 0 0 1 .044.1v2l.914-1.389.07-.121a.311.311 0 0 1 .127-.114l.565-.324a.076.076 0 0 1 .089 0 .1.1 0 0 1 .038.089.217.217 0 0 1 0 .063.356.356 0 0 1-.051.1l-1.269 1.935 1.4.742a.14.14 0 0 1 .044.038.12.12 0 0 1 0 .051.267.267 0 0 1-.038.133.26.26 0 0 1-.089.1l-.533.311a.292.292 0 0 1-.14.044.247.247 0 0 1-.089 0z" transform="translate(-95.56 -127.184)" style="fill:#455a64"/>
            <path data-name="Caminho 685" d="M201.67 287.048a2.829 2.829 0 0 1 .1-.723 3.039 3.039 0 0 1 .266-.7 3.173 3.173 0 0 1 .425-.634 2.386 2.386 0 0 1 .558-.457 1.269 1.269 0 0 1 .558-.19.711.711 0 0 1 .425.1.749.749 0 0 1 .273.355 1.548 1.548 0 0 1 .1.565v.285a.26.26 0 0 1-.044.146.3.3 0 0 1-.1.114l-1.833 1.06a.406.406 0 0 0 .051.228.228.228 0 0 0 .14.1.368.368 0 0 0 .2 0 .825.825 0 0 0 .235-.1 1.18 1.18 0 0 0 .286-.2 1.36 1.36 0 0 0 .184-.209.919.919 0 0 1 .1-.127.375.375 0 0 1 .108-.082l.438-.254a.108.108 0 0 1 .108 0 .132.132 0 0 1 .038.1.939.939 0 0 1-.082.279 2.05 2.05 0 0 1-.241.406 2.8 2.8 0 0 1-.393.457 2.537 2.537 0 0 1-.539.406 1.319 1.319 0 0 1-.558.2.635.635 0 0 1-.425-.1.8.8 0 0 1-.266-.387 1.9 1.9 0 0 1-.1-.622zm1.345-1.732a1.345 1.345 0 0 0-.273.209 1.4 1.4 0 0 0-.19.254 1.117 1.117 0 0 0-.114.254.927.927 0 0 0-.051.235l1.237-.717a.806.806 0 0 0-.038-.178.266.266 0 0 0-.1-.133.235.235 0 0 0-.178-.032.838.838 0 0 0-.293.108z" transform="translate(-97.15 -126.555)" style="fill:#455a64"/>
            <path data-name="Caminho 686" d="M208.329 283.959c0-.044 0-.076-.038-.089a.5.5 0 0 0-.14 0l-.254.07-.406.133a1.359 1.359 0 0 1-.4.076.482.482 0 0 1-.254-.076.374.374 0 0 1-.14-.209 1.27 1.27 0 0 1-.038-.33 1.333 1.333 0 0 1 .076-.419 2.539 2.539 0 0 1 .222-.457 2.828 2.828 0 0 1 .355-.438 2.13 2.13 0 0 1 .482-.362 1.853 1.853 0 0 1 .476-.209.928.928 0 0 1 .362 0 .381.381 0 0 1 .235.133.431.431 0 0 1 .089.247.2.2 0 0 1-.038.14.273.273 0 0 1-.108.114l-.425.247c-.051.032-.1.044-.121.032h-.1a.279.279 0 0 0-.127 0 .736.736 0 0 0-.247.108 1.314 1.314 0 0 0-.292.222.381.381 0 0 0-.127.279.133.133 0 0 0 .032.1h.114a1.343 1.343 0 0 0 .235-.057 1.527 1.527 0 0 0 .393-.127.812.812 0 0 1 .691 0 .6.6 0 0 1 .2.52 1.193 1.193 0 0 1-.082.419 2.125 2.125 0 0 1-.235.463 2.812 2.812 0 0 1-.387.45 2.569 2.569 0 0 1-.514.381 1.826 1.826 0 0 1-.514.216.761.761 0 0 1-.374 0 .425.425 0 0 1-.241-.146.469.469 0 0 1-.082-.26.222.222 0 0 1 .038-.146.374.374 0 0 1 .108-.114l.425-.241c.051 0 .1-.044.121 0l.1.051a.248.248 0 0 0 .146 0 .761.761 0 0 0 .279-.121l.171-.108a1.753 1.753 0 0 0 .159-.133.9.9 0 0 0 .127-.152.273.273 0 0 0 .048-.207z" transform="translate(-98.956 -125.567)" style="fill:#455a64"/>
            <path data-name="Caminho 687" d="M173.66 304.85c0 .552.406.761.907.476l32.247-18.62a1.96 1.96 0 0 0 .907-1.523c0-.552-.406-.761-.907-.469l-32.247 18.614a1.96 1.96 0 0 0-.907 1.523z" transform="translate(-86.91 -126.645)" style="fill:#ebebeb"/>
            <path data-name="Caminho 688" d="M178.767 135.068c2.817-1.63 5.075-.3 5.075 2.95a11.354 11.354 0 0 1-5.075 8.844c-2.785 1.63-5.107.311-5.107-2.95a11.286 11.286 0 0 1 5.107-8.844z" transform="translate(-86.91 -71.73)" style="fill:#455a64"/>
            <path data-name="Caminho 689" d="M180.7 139.38c.914-.527 1.656-.1 1.656.958a3.667 3.667 0 0 1-1.656 2.868c-.914.527-1.656.1-1.656-.958a3.667 3.667 0 0 1 1.656-2.868z" transform="translate(-88.877 -73.479)" style="fill:#263238"/>
            <path data-name="Caminho 690" d="M183.119 147.27c0-1.738-1.218-2.436-2.722-1.573l-.945.546a6.027 6.027 0 0 0-2.722 4.714v.469a3.94 3.94 0 0 0 3.172-.558 10.049 10.049 0 0 0 3.229-3.172z" transform="translate(-88.032 -75.735)" style="fill:#263238"/>
        </g>
        <g data-name="freepik--characters--inject-23" transform="translate(165.984 122.399)">
            <g data-name="freepik--character--inject-23">
                <path data-name="Caminho 691" d="M360.7 246.6h-10.038a7.327 7.327 0 0 1-7.334-7.327v-1.783a8.711 8.711 0 0 1 8.469-8.926 8.7 8.7 0 0 1 8.926 8.45z" transform="translate(-314.921 -228.565)" style="fill:#263238"/>
                <path data-name="Caminho 692" d="m344.616 234.118-1.986-1.066a1.1 1.1 0 0 1 1.5-.495 1.174 1.174 0 0 1 .486 1.561z" transform="translate(-314.666 -229.979)" style="fill:#263238"/>
                <path data-name="Caminho 693" d="m345.444 232.9-.634-2.163a1.091 1.091 0 0 1 1.389.717 1.186 1.186 0 0 1-.755 1.446z" transform="translate(-315.463 -229.339)" style="fill:#263238"/>
                <path data-name="Caminho 694" d="m319.666 243.72-1.986-1.079a1.091 1.091 0 0 1 1.5-.495 1.18 1.18 0 0 1 .489 1.573z" transform="translate(-305.545 -233.484)" style="fill:#263238"/>
                <path data-name="Caminho 695" d="M363.46 257.461c1.269-.14 3-.964 4.822 2.43s5.342 10.664 5.342 10.664l7.8-5.773 2.2 2.4s-7.86 7.676-9.009 8.825c-.914.907-2 1.028-3.172-.482-1.4-1.77-5.8-8.926-5.8-8.926z" transform="translate(-322.282 -239.06)" style="fill:#b16668"/>
                <path data-name="Caminho 696" d="m390.385 266.075 21.722-12.155.444 1.269-21.437 11.99c-1.148.628-1.649-.641-.729-1.104z" transform="translate(-331.951 -237.834)" style="fill:#263238"/>
                <g data-name="Grupo 23" style="opacity:.1">
                    <path data-name="Caminho 697" d="m58.434 28.241 21.722-12.155.444 1.269-21.437 11.99c-1.148.628-1.649-.641-.729-1.104z"/>
                </g>
                <path data-name="Caminho 698" d="m428.738 241.989-3.851 2.259a.438.438 0 0 0-.2.343v9.209c0 .127.089.184.2.121l3.883-2.246a.438.438 0 0 0 .2-.343v-9.212c-.036-.131-.125-.182-.232-.131z" transform="translate(-344.666 -233.465)" style="fill:#37474f"/>
                <path data-name="Caminho 699" d="m424.6 244.056 3.883-2.246a.12.12 0 0 1 .2.082.476.476 0 0 0-.2-.311l-.165-.089a.432.432 0 0 0-.393 0l-3.883 2.239a.343.343 0 0 0-.14.146l.558.324a.343.343 0 0 1 .14-.145z" transform="translate(-344.378 -233.274)" style="fill:#455a64"/>
                <path data-name="Caminho 700" d="M423.76 254.688a.438.438 0 0 0 .2.343l.159.1a.463.463 0 0 0 .368 0c-.1.038-.165 0-.165-.133V245.8a.387.387 0 0 1 .057-.2l-.558-.324a.387.387 0 0 0-.057.2z" transform="translate(-344.326 -234.676)" style="fill:#263238"/>
                <path data-name="Caminho 701" d="m429.352 250.143 1.218-.7c.254-.146.457-.063.457.184a.913.913 0 0 1-.457.7l-1.218.711c-.252.139-.252-.749 0-.895z" transform="translate(-346.302 -236.17)" style="fill:#263238"/>
                <path data-name="Caminho 702" d="m429.352 252.793 1.218-.7c.254-.146.457-.063.457.184a.914.914 0 0 1-.457.7l-1.218.7c-.252.15-.252-.738 0-.884z" transform="translate(-346.302 -237.139)" style="fill:#263238"/>
                <path data-name="Caminho 703" d="M425.814 245.717a.755.755 0 0 0-.324.59v.7c0 .222.146.317.324.209a.736.736 0 0 0 .324-.584v-.7c.005-.222-.138-.317-.324-.215z" transform="translate(-344.959 -234.821)" style="fill:#263238"/>
                <path data-name="Caminho 704" d="M425.92 246.149a.311.311 0 0 0-.14.241c0 .089.063.127.14.082a.311.311 0 0 0 .14-.241c.006-.088-.06-.131-.14-.082z" transform="translate(-345.065 -234.987)" style="fill:#f5f5f5"/>
                <path data-name="Caminho 705" d="M425.92 247a.311.311 0 0 0-.14.241c0 .089.063.121.14.076a.311.311 0 0 0 .14-.241c.006-.076-.06-.076-.14-.076z" transform="translate(-345.065 -235.305)" style="fill:#f5f5f5"/>
                <path data-name="Caminho 706" d="M431.608 249.114a.463.463 0 0 1 .228.381v1.84a.539.539 0 0 1-.222.4l-.235.14V249z" transform="translate(-347.112 -236.036)" style="fill:#263238"/>
                <path data-name="Caminho 707" d="M388.72 269.433a17.426 17.426 0 0 1 3.172-2.728c.812-.324 3.515-.355 4.117-.6s.742.539.133.939l-5.621 3.14z" transform="translate(-331.516 -242.271)" style="fill:#b16668"/>
                <path data-name="Caminho 708" d="m391.942 272.1 1.383-.774a2.783 2.783 0 0 1-.666-.634 1.136 1.136 0 0 1 0-.9 1.351 1.351 0 0 1 .666-.634 5.57 5.57 0 0 1 2.271-.837 6.14 6.14 0 0 1 1.9.051 1.148 1.148 0 0 1 .6.419 4.777 4.777 0 0 1 .362 1.63c0 .374-.6.711-.983.787 0 0 .114 1.015-1.269 1.034 0 0 0 .634-.945.73s-1.32-.3-2.3-.247a5.28 5.28 0 0 0-2.347 1.377z" transform="translate(-332.207 -243.08)" style="fill:#b16668"/>
                <path data-name="Caminho 709" d="M331.27 266.589a65.388 65.388 0 0 1 12.73-1.84l.895 6.979-10.626 2.239z" transform="translate(-310.513 -241.793)" style="fill:#263238"/>
                <path data-name="Caminho 710" d="M331.27 266.589a65.388 65.388 0 0 1 12.73-1.84l.895 6.979-10.626 2.239z" transform="translate(-310.513 -241.793)" style="opacity:.1"/>
                <path data-name="Caminho 711" d="m347.77 378.834 3.952.1v-5.044l-3.952-.1z" transform="translate(-316.545 -281.657)" style="fill:#ffa8a7"/>
                <path data-name="Caminho 712" d="M360.882 376.187c.209.634 1.269 1.1 2 1.669a1.459 1.459 0 0 1 .476 1.833c-.279.482-1.605.736-3.02.508-1.592-.26-3.274-1.11-3.559-2.538a15.984 15.984 0 0 0-.945-3.464c-.273-.73-.761-1.415-.634-2.144a2.677 2.677 0 0 1 1.2-1.7s2.912 6.116 3.648 6.255.834-.419.834-.419z" transform="translate(-319.254 -280.4)" style="fill:#263238"/>
                <path data-name="Caminho 713" d="M361.55 366.064s-.552 1.967-.742 2.614a15.664 15.664 0 0 0 .419 4.828 2.442 2.442 0 0 0 .875 1.32s1.06.92-.171 1.1a3.426 3.426 0 0 1-3.083-1.123c-.818-.926-.914-3.6-1.459-4.688-.355-.7-.634-1.136-.7-1.364s.247-.355.584-1.345a20.778 20.778 0 0 0 .6-2.969z" transform="translate(-319.801 -278.239)" style="fill:#ffa8a7"/>
                <path data-name="Caminho 714" d="M344.184 295.33c-1.681 4.561-.368 12.549.2 18.7.495 5.348 1.129 9.9 1.129 9.9a17.992 17.992 0 0 0-.92 6.408c.076 4.168 1.523 15.8 1.523 15.8a4.206 4.206 0 0 0 4.048.1s.571-6.928 1.136-11.711c.59-4.993.787-8.634 1.307-11.553.634-3.635 1.028-15.226 1.028-15.226l2.9 12.352a32.675 32.675 0 0 0-2.055 5.576c-.768 2.963-1.872 15.137-1.872 15.137a4.441 4.441 0 0 0 3.806 1.491s6.306-18.538 6.979-20.441c.952-2.62-.964-20.238-1.491-26.011z" transform="translate(-314.932 -252.973)" style="fill:#263238"/>
                <path data-name="Caminho 715" d="m359.55 312.463.235-2.956a7.943 7.943 0 0 0 4.568-1.307 6.592 6.592 0 0 1-3.5 2.132l-.285 2.7 1.269 9.155z" transform="translate(-320.852 -257.679)" style="opacity:.1"/>
                <path data-name="Caminho 716" d="M349.4 258.809s-1.421.3-2.5.634c1.51 3.546-.184 9.516-.184 9.516l2.227 6.122c-1.9 2.138-3.052 3.305-4.27 6.395 1.269 1.485 9.174 4.993 17.7.558a40.425 40.425 0 0 0-1.491-8.641c1.269-5.348 1.339-6.757.977-8.171-1.028-3.984-2.17-4.967-5.266-7.683z" transform="translate(-315.412 -239.158)" style="fill:#f5f5f5"/>
                <path data-name="Caminho 717" d="M351.281 378.855v-.495a9.643 9.643 0 0 0 2.474 4.333c1.091 1 2.582 2.144 2.963 3.261s-1.764 1.611-3.172 1.466a5.659 5.659 0 0 1-3.553-1.859 25.974 25.974 0 0 1-1.8-2.4c-.419-.565-1.383-1.2-1.611-1.859a4.212 4.212 0 0 1 .2-1.814c.159-.634.33-1.269.539-1.231v.381a2.747 2.747 0 0 0 1.732.584c.515.02 2.228.02 2.228-.367z" transform="translate(-316.104 -283.291)" style="fill:#263238"/>
                <path data-name="Caminho 718" d="M347.77 378.7a2.747 2.747 0 0 0 1.732.584c.508 0 2.227 0 2.22-.368v-.495a9.643 9.643 0 0 0 2.474 4.333c.26.241.546.488.831.742.584.634.419 1.212-.945 1.326a5.32 5.32 0 0 1-4.092-2.075 22.4 22.4 0 0 1-2.22-4.048z" transform="translate(-316.545 -283.35)" style="fill:#ffa8a7"/>
                <path data-name="Caminho 719" d="m349.32 279.52 3.458 4.682-2.138-1.066z" transform="translate(-317.112 -247.193)" style="fill:#e0e0e0"/>
                <path data-name="Caminho 720" d="M358.593 234.43c.933.514 2.125 2.791 2.144 7.613 0 4.1-1.269 5.151-1.941 5.462a7.177 7.177 0 0 1-3.21 0v1.7s2.252 2.468 2.176 3.6-2.887 1.719-4.536.634a13.324 13.324 0 0 1-3.007-2.95l-.184-5.881s-.717.736-2-.317c-1.053-.875-1.44-2.385-.634-3.223a1.8 1.8 0 0 1 2.874.495 9.967 9.967 0 0 0 4.612-1.516 7.486 7.486 0 0 0 3.706-5.617z" transform="translate(-316.253 -230.709)" style="fill:#b16668"/>
                <path data-name="Caminho 721" d="M360.014 244.964a.527.527 0 0 1-.476.571.535.535 0 1 1 .476-.571z" transform="translate(-320.637 -234.379)" style="fill:#263238"/>
                <path data-name="Caminho 722" d="m360.984 250.72 1.212.349a.631.631 0 1 1-1.212-.349z" transform="translate(-321.366 -236.665)" style="fill:#9a4a4d"/>
                <path data-name="Caminho 723" d="m366.6 242-1.059-.691a.633.633 0 1 1 1.06.692z" transform="translate(-323.042 -233.117)" style="fill:#263238"/>
                <path data-name="Caminho 724" d="M366.293 244.2a.52.52 0 1 1-1.034.076.527.527 0 0 1 .476-.571.533.533 0 0 1 .558.495z" transform="translate(-322.938 -234.101)" style="fill:#263238"/>
                <path data-name="Caminho 725" d="m363.21 243.72.057 3.362 1.624-.552z" transform="translate(-322.19 -234.105)" style="fill:#9a4a4d"/>
                <path data-name="Caminho 726" d="M357.954 253.963c-1.32-.14-4.054-.844-4.5-1.9a2.778 2.778 0 0 0 .983 1.339 14.4 14.4 0 0 0 3.534 1.389z" transform="translate(-318.622 -237.154)" style="fill:#9a4a4d"/>
                <path data-name="Caminho 727" d="M360.59 257.31v-.634a10.916 10.916 0 0 1 3.477.076 6.934 6.934 0 0 1 2.607 1.269 4.517 4.517 0 0 1 1.009 2.658c0 1.2-1.167 1.605-2.715.634-.831-.52-1.148-1.529-1.7-2.049a7.721 7.721 0 0 1-2.678-1.954z" transform="translate(-321.232 -238.801)" style="fill:#ffa8a7"/>
                <path data-name="Caminho 728" d="M343 260.54c-2.7.888-3.083 2-4.086 5.919-.888 3.451-1.339 5.944-1.339 5.944l-3.559 6.979s6.281-.768 6.757-1.992a95.564 95.564 0 0 0 3.172-10.017c.498-2.367.93-4.835-.945-6.833z" transform="translate(-311.519 -240.255)" style="fill:#b16668"/>
            </g>
            <path data-name="Retângulo 29" transform="rotate(180 6.01 54.526)" style="fill:#ffa8a7" d="M0 0h3.806v6.515H0z"/>
            <path data-name="Caminho 729" d="m332.3 385.666 3.806.133.19-6.9-4-.133z" transform="translate(-310.89 -283.478)" style="fill:#ffa8a7"/>
            <path data-name="Caminho 730" d="M310.46 301.211c0 3.635.558 32.894.558 32.894-.089 1.047-1.072 2.975-.856 6.979.285 5.462.672 19.806.672 19.806a5.006 5.006 0 0 0 4.238.083s3.6-19.87 4.282-25.275c.6-4.72 1.605-20.618 1.605-20.618l2.062 18.48a21.785 21.785 0 0 0-.469 6.052c.178 2.506 1.4 15.53 1.4 15.53a5.2 5.2 0 0 0 4.4.336s2.163-19.622 2.208-21.919c.051-2.614-1.269-32.4-1.269-32.4z" transform="translate(-302.786 -255.105)" style="fill:#37474f"/>
            <path data-name="Caminho 731" d="M314.833 397.183v-.546c.362.159 1.205 3.388 2.715 4.764 1.205 1.1 2.842 2.366 3.261 3.584s-2.284 1.973-3.407 1.77c-1.3-.228-3.559-1.148-4.13-2s-.831-2.106-1.269-2.728-1.523-1.32-1.77-2.043a4.593 4.593 0 0 1 .216-2c.178-.672.368-1.415.6-1.351v.419a3.02 3.02 0 0 0 1.9.634c.532.03 1.884-.078 1.884-.503z" transform="translate(-302.812 -290.009)" style="fill:#263238"/>
            <path data-name="Caminho 732" d="M335.485 387.856c.2 0 .362.285.8.755a8.2 8.2 0 0 0 2.24 1.611c1.421.717 4.193 1.814 5.45 2.379.78.349.749 1.269-.063 1.84a7.15 7.15 0 0 1-5.113.4c-1.269-.285-2.944-1.465-4-1.4s-3.033.044-3.806-.488-.469-1.681-.247-2.671.539-2.747.895-2.671v.368c.457.691 2.823.977 3.806.463z" transform="translate(-310.231 -286.708)" style="fill:#263238"/>
            <path data-name="Caminho 733" d="M327.2 321.369a14.1 14.1 0 0 0 5.3-3.039 11.071 11.071 0 0 1-4.067 3.7l.634 16.495z" transform="translate(-309.026 -261.382)" style="fill:#263238"/>
            <path data-name="Caminho 734" d="M312.9 269.478s-2.766.78-2.766 5.475l.2 8.577-.044 11.052c2.8 3.045 15.226 2.823 19.464-.241 0 0-.463-13.443-.749-19.375-.2-4.219-1.618-7.207-5.659-7.3l-5.183.711z" transform="translate(-302.785 -242.861)" style="fill:#263238"/>
            <path data-name="Caminho 735" d="M299.1 289.11c1.542-11.921 5.075-17.852 9.427-18.55l-.311 7.613A65.344 65.344 0 0 0 304.1 290.8a53.845 53.845 0 0 0-1.06 10.544 1.821 1.821 0 0 0 .552 1.167 10.48 10.48 0 0 1 1.688 2.506c.45.736.914 1 .793 1.18a.983.983 0 0 1-1.326.165 7.18 7.18 0 0 1-1.237-1.072 7.283 7.283 0 0 0 .634 3.318c1.015 2 .844 3.064-1.96 2.474-1.757-.368-3.026-2.151-3.5-6.306a34.68 34.68 0 0 1-.082-4.663c.152-3.961.184-8.613.498-11.003z" transform="translate(-298.553 -243.918)" style="fill:#ffa8a7"/>
            <path data-name="Caminho 736" d="M310.024 270.25a6.915 6.915 0 0 0-5.938 3.394 39.863 39.863 0 0 0-4.016 10.69 15.327 15.327 0 0 0 6.382 1.808l2.626-7.22s1.504-2.835.946-8.672z" transform="translate(-299.107 -243.805)" style="fill:#263238"/>
            <path data-name="Caminho 737" d="M310.024 270.25a6.915 6.915 0 0 0-5.938 3.394 39.863 39.863 0 0 0-4.016 10.69 15.327 15.327 0 0 0 6.382 1.808l2.626-7.22s1.504-2.835.946-8.672z" transform="translate(-299.107 -243.805)" style="opacity:.1"/>
            <circle data-name="Elipse 8" cx="5.665" cy="5.665" r="5.665" transform="rotate(-9.22 60.937 -80.553)" style="fill:#263238"/>
            <path data-name="Caminho 738" d="M315.76 255.06a46.322 46.322 0 0 0 1.218 4.752 1.846 1.846 0 0 0 1.066.863l-.063-2.874z" transform="translate(-304.844 -238.251)" style="fill:#263238"/>
            <path data-name="Caminho 739" d="M316.306 245.822a2.017 2.017 0 0 0-1.669.59c-.717.73-.317 3.02.577 5.266l1.637.184z" transform="translate(-304.298 -234.869)" style="fill:#263238"/>
            <path data-name="Caminho 740" d="M316.935 250.417c-.33.2-.793-.431-1.2-.856a1.421 1.421 0 0 0-2.385.387c-.672 1.415.577 3.286 1.618 3.616 1.8.558 2.062-.59 2.062-.59l.14 6.471c1.548 1.726 6.833 1.313 5.837-.171v-1.967a11.521 11.521 0 0 0 2.417.121 3.289 3.289 0 0 0 2.538-2.671c.634-2.3.888-4.143.343-8.653-.6-4.948-6.344-5-9.453-3.045s-1.917 7.358-1.917 7.358z" transform="translate(-303.893 -233.425)" style="fill:#ffa8a7"/>
            <path data-name="Caminho 741" d="M318.294 249.771c-.165 0-.793-1.04-1.2-1.415-.571-.514.165-5.183.165-5.183a2.208 2.208 0 0 1 .546-2.36c.774-.85 2.068-.945 4.282-1.269 1.161-.184 2.925-.508 4.086-.723 1.383-.26 2.538-.533 3.508.317a2.455 2.455 0 0 1 .679 2.753 2.144 2.144 0 0 1-.393.584 2.271 2.271 0 0 1-1 .691 5.436 5.436 0 0 1-2.7.787 30.567 30.567 0 0 1-5.824-.108c-.634-.082-.736.508-1.066 2.119-.29 1.397-.518 3.795-1.083 3.807z" transform="translate(-305.252 -232.22)" style="fill:#263238"/>
            <path data-name="Caminho 742" d="M325.559 264.74a22.721 22.721 0 0 1-3.971-1.142 3.432 3.432 0 0 1-1.427-1.408 4.688 4.688 0 0 0 .812 1.662c.755.958 4.587 1.669 4.587 1.669z" transform="translate(-306.452 -240.858)" style="fill:#f28f8f"/>
            <path data-name="Caminho 743" d="M326.879 253.824a.59.59 0 1 1-1.18 0 .6.6 0 0 1 .59-.634.634.634 0 0 1 .59.634z" transform="translate(-308.477 -237.568)" style="fill:#263238"/>
            <path data-name="Caminho 744" d="m325.28 250.113-1.269.7a.755.755 0 0 1 .3-1 .7.7 0 0 1 .971.3z" transform="translate(-307.829 -236.299)" style="fill:#263238"/>
            <path data-name="Caminho 745" d="m328.225 260.62 1.345.508a.711.711 0 0 1-.914.444.755.755 0 0 1-.431-.952z" transform="translate(-309.385 -240.284)" style="fill:#f28f8f"/>
            <path data-name="Caminho 746" d="m335.425 250.477-1.155-.888a.7.7 0 0 1 1-.152.768.768 0 0 1 .155 1.04z" transform="translate(-311.61 -236.142)" style="fill:#263238"/>
            <path data-name="Caminho 747" d="M334.611 253.564a.59.59 0 1 1-.59-.634.6.6 0 0 1 .59.634z" transform="translate(-311.304 -237.473)" style="fill:#263238"/>
            <path data-name="Caminho 748" d="m330.69 253.18.07 3.578 2.119-.463z" transform="translate(-310.302 -237.564)" style="fill:#f28f8f"/>
        </g>
        <path data-name="Caminho 749" d="m353.794 204.315-2.094-3.94 1.688-4.86v-2.975l-5.158 2.975v2.975l2.22 3.838a.323.323 0 0 0 .146.133z" transform="translate(-150.73 -92.995)" style="fill:#263238"/>
        <g data-name="Grupo 24" style="opacity:.3">
            <path data-name="Caminho 750" d="m203.064 111.32-2.094-3.94 1.688-4.86v-2.975l-5.158 2.975v2.975l2.22 3.838a.323.323 0 0 0 .146.133z"/>
        </g>
        <path data-name="Caminho 751" d="m315.522 181.139 39.568-22.871a3.439 3.439 0 0 1 3.09 0l1.269.73a3.419 3.419 0 0 1 1.542 2.677v11.515a3.426 3.426 0 0 1-1.542 2.677l-39.569 22.839a3.4 3.4 0 0 1-3.09 0l-1.269-.723a3.426 3.426 0 0 1-1.542-2.677v-11.489a3.426 3.426 0 0 1 1.543-2.678z" transform="translate(-138.209 -80.332)" style="fill:#263238"/>
        <g data-name="Grupo 25" style="opacity:.4">
            <path data-name="Caminho 752" d="M361.243 161.677c0-.983-.691-1.383-1.548-.895l-39.562 22.871a3.21 3.21 0 0 0-1.1 1.155l-4.346-2.538a3.172 3.172 0 0 1 1.091-1.155l39.568-22.839a3.4 3.4 0 0 1 3.09 0l1.269.723a3.419 3.419 0 0 1 1.535 2.677z" transform="translate(-138.469 -80.333)" style="fill:#fff"/>
        </g>
        <path data-name="Caminho 753" d="M319.475 212.946a1.542 1.542 0 0 1-.3.089 2.874 2.874 0 0 1-.419.082.572.572 0 0 1-.146 0h-.273a2.389 2.389 0 0 1-.368 0h-.07a2.863 2.863 0 0 1-.336-.057.121.121 0 0 1-.063 0 1.955 1.955 0 0 1-.343-.1 2.1 2.1 0 0 1-.343-.159l-1.269-.73a3.407 3.407 0 0 1-1.545-2.677v-11.521a3.172 3.172 0 0 1 .45-1.523l4.346 2.538a3.172 3.172 0 0 0-.45 1.523v11.5a1.553 1.553 0 0 0 .063.469.964.964 0 0 0 .171.343.812.812 0 0 0 .825.266z" transform="translate(-138.216 -94.388)" style="opacity:.1"/>
        <path data-name="Caminho 754" d="m353.33 201.413 2.214 3.806a.33.33 0 0 0 .6-.057l2.341-6.756v-2.976l-5.151 2.975z" transform="translate(-152.595 -94.052)" style="fill:#263238"/>
        <path data-name="Caminho 755" d="m330.178 205.74-1.586-.419c-1.51-.4-3.312-1.269-3.312-3.223a5.075 5.075 0 0 1 2.455-3.87 1.542 1.542 0 0 1 2.443 1.161 6.193 6.193 0 0 1 2.436-3.978c1.358-.78 2.455-.317 2.455 1.04 0 1.941-1.8 4.9-3.305 7.042z" transform="translate(-142.34 -93.907)" style="fill:#fafafa"/>
        <path data-name="Caminho 756" d="M346.417 195.689a1.681 1.681 0 0 0 .254-.52 1.543 1.543 0 0 0 .057-.381.52.52 0 0 0-.165-.438c-.108-.076-.292-.044-.546.1a1.389 1.389 0 0 0-.533.514 2.214 2.214 0 0 0-.241.634.489.489 0 0 1-.076.2.534.534 0 0 1-.121.121l-.52.3a.171.171 0 0 1-.133 0 .114.114 0 0 1-.044-.121 2.672 2.672 0 0 1 .152-.736 3.387 3.387 0 0 1 .349-.736 3.964 3.964 0 0 1 .52-.634 2.976 2.976 0 0 1 .634-.5 1.624 1.624 0 0 1 .717-.26.787.787 0 0 1 .5.114.774.774 0 0 1 .292.381 1.459 1.459 0 0 1 .1.539 3.6 3.6 0 0 1 0 .374 2.022 2.022 0 0 1-.089.393 3.364 3.364 0 0 1-.216.482 5.977 5.977 0 0 1-.368.634l-1.231 2.011 1.833-1.059a.114.114 0 0 1 .127 0 .121.121 0 0 1 .051.114v.539a.356.356 0 0 1-.051.171.368.368 0 0 1-.127.133l-3.083 1.783a.108.108 0 0 1-.121 0 .114.114 0 0 1-.057-.114v-.463a.59.59 0 0 1 .07-.26 2.112 2.112 0 0 1 .108-.2z" transform="translate(-149.286 -93.245)" style="fill:#fafafa"/>
        <path data-name="Caminho 757" d="M353.831 188.75a.12.12 0 0 1 .127 0 .114.114 0 0 1 .057.114v.539a.425.425 0 0 1-.051.184 1.38 1.38 0 0 1-.1.184l-.964 1.729a1.739 1.739 0 0 1 .539-.14.723.723 0 0 1 .412.076.634.634 0 0 1 .26.311 1.306 1.306 0 0 1 .1.539 2.252 2.252 0 0 1-.139.78 3.172 3.172 0 0 1-.374.742 3.9 3.9 0 0 1-.565.634 4.341 4.341 0 0 1-.711.52 2.741 2.741 0 0 1-.8.336 1.161 1.161 0 0 1-.571 0 .577.577 0 0 1-.343-.247.888.888 0 0 1-.14-.419.285.285 0 0 1 .051-.178.349.349 0 0 1 .127-.127l.52-.3c.044 0 .082-.032.108 0a.235.235 0 0 1 .089.089.463.463 0 0 0 .108.114.425.425 0 0 0 .178.044.907.907 0 0 0 .273-.057 2.264 2.264 0 0 0 .4-.2 2.15 2.15 0 0 0 .634-.558 1.117 1.117 0 0 0 .247-.672c0-.228-.082-.343-.247-.349a1.269 1.269 0 0 0-.634.228l-.546.311a.116.116 0 0 1-.178-.114v-.539a.349.349 0 0 1 .051-.184 1.38 1.38 0 0 1 .1-.184l.92-1.649-1.821 1.053a.108.108 0 0 1-.121 0 .114.114 0 0 1-.057-.114v-.546a.3.3 0 0 1 .057-.171.311.311 0 0 1 .121-.133z" transform="translate(-151.586 -91.603)" style="fill:#fafafa"/>
        <path data-name="Caminho 758" d="M379.024 179.636a.121.121 0 0 1-.127 0c-.038 0-.051-.057-.051-.114v-.92l-2.049 1.18a.121.121 0 0 1-.121 0 .127.127 0 0 1-.057-.114v-.546a.633.633 0 0 1 .044-.209l.1-.228 2-4.06a.818.818 0 0 1 .273-.349l.5-.285a.116.116 0 0 1 .178.114v3.058l.565-.33a.133.133 0 0 1 .127 0 .14.14 0 0 1 .051.114v.546a.374.374 0 0 1-.051.171.324.324 0 0 1-.127.133l-.565.33v.92a.4.4 0 0 1-.051.178.513.513 0 0 1-.127.133zm-.178-1.973v-1.63l-1.129 2.278z" transform="translate(-161.109 -86.207)" style="fill:#fafafa"/>
        <path data-name="Caminho 759" d="m369.235 184.279-1.427-1.967a6.578 6.578 0 0 0 .3-1.9c0-2.468-1.732-3.464-3.87-2.233a8.571 8.571 0 0 0-3.876 6.706c0 2.468 1.738 3.47 3.876 2.233a7.9 7.9 0 0 0 2.734-2.887z" transform="translate(-155.165 -87.551)" style="fill:#fafafa"/>
        <g>
            <g data-name="freepik--icons--inject-23">
                <path data-name="Caminho 760" d="m105.692 322-5.158-7.061v.044a26.188 26.188 0 0 0 1.148-7.7c-.051-4.536-1.713-7.791-4.314-9.434l-4.676-2.887c-2.8-1.65-6.674-1.434-10.956 1.04-8.514 4.917-15.416 16.869-15.416 26.7 0 4.79 1.643 8.19 4.314 9.846l.133.076.152.089 4.517 2.481c2.817 1.63 6.687 1.44 10.867-.983s8.082-6.693 10.9-11.515h8.159a.444.444 0 0 0 .33-.7z" transform="translate(-47.668 -130.053)" style="fill:#263238"/>
                <path data-name="Caminho 761" d="m75.287 344.243-4.377-2.379-.159-.089-.127-.076c-2.671-1.656-4.314-5.075-4.314-9.846a30.1 30.1 0 0 1 3.312-12.923l4.536 2.62a30.008 30.008 0 0 0-3.312 12.923c.006 4.72 1.713 8.114 4.441 9.77z" transform="translate(-47.664 -139.201)" style="opacity:.1"/>
                <path data-name="Caminho 762" d="M99.28 297.821c-2.874-1.827-6.909-1.688-11.229.85-4.853 2.855-9.174 7.987-11.965 13.7l-4.536-2.62c.038-.089.082-.178.127-.26q.228-.476.476-.933c.108-.2.222-.4.33-.6a36.928 36.928 0 0 1 1.586-2.588l.482-.7c.171-.247.343-.488.527-.73s.273-.368.419-.552.311-.412.476-.634l.14-.171c.2-.247.406-.488.634-.73.539-.634 1.1-1.237 1.681-1.814.216-.216.438-.431.666-.634s.482-.45.73-.634a9.272 9.272 0 0 0 .711-.634l.038-.032a23.314 23.314 0 0 1 2.189-1.586c.3-.2.634-.381.914-.558a13.957 13.957 0 0 1 6.883-2.106 7.968 7.968 0 0 1 4.073 1.059z" transform="translate(-49.58 -130.032)" style="fill:#fff;opacity:.3"/>
                <g>
                    <path data-name="Caminho 763" d="m103.627 209.127-4.4-2.538c-1.63-.964-4.048-.78-6.75.78-3.743 2.163-6.934 7.4-8.247 11.794l-3.121-1.789c-1.6-1.079-3.806-1.269-6.236.159-.3.178-.6.362-.895.565-.159.108-.311.222-.463.336s-.273.19-.406.3-.406.33-.634.5l-.222.19c-.241.209-.469.425-.7.634 0 .038-.07.07-.1.1q-.381.381-.742.78a20.86 20.86 0 0 0-2.024 2.645A15.494 15.494 0 0 0 66 231.522c0 4.644 2.874 7.613 6.4 9.516l3.47 2a24.514 24.514 0 0 0 6.623 2.728l5.71 1.51 5.71-8.12c5.45-7.74 11.94-18.4 11.94-25.44.007-2.261-.843-3.822-2.226-4.589z" transform="translate(-47.551 -97.915)" style="fill:#263238"/>
                    <g data-name="Grupo 26" style="opacity:.1">
                        <path data-name="Caminho 764" d="m28.263 145.083-3.419-1.967c-3.521-1.9-6.395-4.86-6.395-9.516a15.3 15.3 0 0 1 2.7-7.917l4.511 2.6a15.3 15.3 0 0 0-2.7 7.917c0 4.163 2.296 6.98 5.303 8.883z"/>
                    </g>
                    <path data-name="Caminho 765" d="M105.155 209.106c-1.624-.876-3.99-.634-6.617.863-4.511 2.6-8.247 9.688-8.8 14.369-.565-4.029-4.289-6.814-8.8-4.206a18.893 18.893 0 0 0-6.179 6.078l-4.511-2.6c.07-.108.14-.216.216-.324s.114-.178.184-.266c.152-.222.311-.444.469-.634a21.149 21.149 0 0 1 1.465-1.732c.127-.14.26-.273.393-.406l.285-.285a16.691 16.691 0 0 1 3.172-2.417 6.89 6.89 0 0 1 3.426-1.009 5 5 0 0 1 2.81.85l3.121 1.789c1.307-4.4 4.5-9.63 8.247-11.787 2.7-1.561 5.12-1.751 6.744-.787z" transform="translate(-49.105 -97.92)" style="fill:#fff;opacity:.3"/>
                </g>
                <g>
                    <path data-name="Caminho 766" d="M107.272 140.257a6.084 6.084 0 0 0 2.094-4.232c0-2.316-1.719-1.8-1.719-1.8a6.344 6.344 0 0 0 1.389-3.724 2.056 2.056 0 0 0-.895-1.852l-4.377-2.462a1.614 1.614 0 0 0-1.8.146l-3.806 2.22a10.563 10.563 0 0 0-.856-2.975 1.808 1.808 0 0 0-.844-.92l-4.339-2.442c-1.465-.952-4 .856-4 1.58 0 .488.121 2.132.159 3.711v1.021a8.832 8.832 0 0 1-.159 1.954c-.038.121-.1.311-.2.552l-.127.343c-.07.159-.14.336-.216.527-.178.45-.393.964-.634 1.523-.063.14-.121.279-.178.425-.634 1.58-1.44 3.388-2.03 4.752l-.3.691c-.311.717-.527 1.218-.6 1.37v18.7h.057l4.441 2.538 14.274-8.247a6.623 6.623 0 0 0 3.172-4.955 5.076 5.076 0 0 0-.368-2.056 6.776 6.776 0 0 0 2.423-4.308c.003-1.649-.561-2.08-.561-2.08z" transform="translate(-54.07 -67.186)" style="fill:#263238"/>
                    <g data-name="Grupo 27" style="opacity:.4">
                        <path data-name="Caminho 767" d="M98.894 124.645c-1.478-.723-3.806.971-3.806 1.675l-4.517-2.538c0-.723 2.538-2.538 4-1.58z" transform="translate(-56.534 -67.181)" style="fill:#fff"/>
                        <path data-name="Caminho 768" d="M116.213 130.959a1.7 1.7 0 0 0-1.675.222l-8.628 4.986a15.638 15.638 0 0 0 .292-5.31l3.806-2.22a1.624 1.624 0 0 1 1.8-.146z" transform="translate(-62.142 -69.504)" style="fill:#fff"/>
                    </g>
                    <g data-name="Grupo 28" style="opacity:.1">
                        <path data-name="Caminho 769" d="m34.271 94.685-4.517-2.6-.013-18.64 4.511 2.607z"/>
                    </g>
                    <g data-name="Grupo 29" style="opacity:.05">
                        <path data-name="Caminho 770" d="M38.534 65.82c-.362 1.3-4.282 10.239-4.282 10.239l-4.511-2.538s3.908-8.939 4.289-10.233 0-5.818 0-6.68l4.517 2.538c-.013.862.368 5.386-.013 6.674z"/>
                    </g>
                    <path data-name="Caminho 771" d="M81.494 156.1a1.713 1.713 0 0 0-.241-.812 1.757 1.757 0 0 0-.584-.634L77.8 153a1.827 1.827 0 0 0-1.643 0l-4.574 2.646a1.706 1.706 0 0 0-.584.634 1.732 1.732 0 0 0-.241.812v19.787a1.814 1.814 0 0 0 .825 1.427l2.868 1.656a1.668 1.668 0 0 0 .825.2 1.713 1.713 0 0 0 .818-.19l4.587-2.652a1.8 1.8 0 0 0 .825-1.421z" transform="translate(-49.292 -78.467)" style="fill:#263238"/>
                    <g data-name="Grupo 30" style="opacity:.1">
                        <path data-name="Caminho 772" d="M25.979 80.297v21.443a1.669 1.669 0 0 1-.825-.2l-2.868-1.707a1.814 1.814 0 0 1-.825-1.427V78.641a1.732 1.732 0 0 1 .241-.812z"/>
                    </g>
                    <g data-name="Grupo 31" style="opacity:.3">
                        <path data-name="Caminho 773" d="m81.388 155.318-5.983 3.458-4.276-2.468a1.707 1.707 0 0 1 .584-.634l4.574-2.646a1.827 1.827 0 0 1 1.643 0l2.868 1.656a1.757 1.757 0 0 1 .59.634z" transform="translate(-49.427 -78.478)" style="fill:#fff"/>
                    </g>
                </g>
            </g>
        </g>
    </g>
</svg>
