<svg xmlns="http://www.w3.org/2000/svg" width="257.118" height="238.191" viewBox="0 0 257.118 238.191">
    <ellipse data-name="freepik--floor--inject-15" cx="128.559" cy="75.032" rx="128.559" ry="75.032" transform="translate(0 88.127)" style="fill:#f0f0f0"/>
    <path d="M173.952 317.779c-20 11.563-20 30.315 0 41.867s52.489 11.558 72.513 0 20.024-30.3 0-41.867-52.465-11.558-72.513 0z" transform="translate(-78.751 -163.937)" style="fill:#e0e0e0"/>
    <path data-name="freepik--shadow--inject-15" d="M384.091 345.456c-10.285 5.937-10.285 15.564 0 21.5s26.961 5.937 37.246 0 10.285-15.564 0-21.5-26.977-5.942-37.246 0z" transform="translate(-179.889 -178.772)" style="fill:#e0e0e0"/>
    <path data-name="freepik--shadow--inject-15" d="M31.881 350.018c-9.381 5.413-9.381 14.195 0 19.613s24.6 5.418 33.978 0 9.381-14.2 0-19.613-24.613-5.418-33.978 0z" transform="translate(-16.37 -181.077)" style="fill:#e0e0e0"/>
    <g data-name="freepik--clouds--inject-15">
        <path data-name="Caminho 366" d="m399.05 82.607-3.391-1.958a3.411 3.411 0 0 0 .027-.417v-.979a6.044 6.044 0 0 0-2.738-4.744 2.139 2.139 0 0 0-1.631-.316 9.143 9.143 0 0 0-4.065-6.493c-2.262-1.31-4.1-.251-4.1 2.364v1.465a7.2 7.2 0 0 0 .348 2.1l-2.813-1.6c-.84-.481-1.519-.091-1.519.877a3.353 3.353 0 0 0 1.514 2.61l18.356 10.6c.84.487 1.519.1 1.519-.872a3.343 3.343 0 0 0-1.507-2.637z" transform="translate(-181.189 -51.382)" style="fill:#ebebeb"/>
        <path data-name="Caminho 367" d="m421.183 44.317 1.872.717V40.92c0-3.268 2.6-4.049 5.429-2.417a11.311 11.311 0 0 1 5.113 8.862v.6a2.749 2.749 0 0 1 2.375.364 8.156 8.156 0 0 1 3.685 6.381v.257l2.6 1.508a5.349 5.349 0 0 1 2.423 4.2c0 1.546-1.07 2.171-2.423 1.4l-21.074-12.159a5.348 5.348 0 0 1-2.423-4.2c0-1.549 1.086-2.175 2.423-1.399z" transform="translate(-199.605 -37.678)" style="fill:#ebebeb"/>
    </g>
    <g data-name="freepik--clouds--inject-15">
        <path data-name="Caminho 368" d="M91.219 82.607 94.6 80.65a3.42 3.42 0 0 1-.027-.417v-.979a6.044 6.044 0 0 1 2.738-4.744 2.139 2.139 0 0 1 1.6-.316 9.126 9.126 0 0 1 4.065-6.493c2.262-1.31 4.092-.251 4.092 2.364v1.465a7.194 7.194 0 0 1-.342 2.1l2.813-1.6c.834-.481 1.519-.091 1.519.877a3.37 3.37 0 0 1-1.519 2.631L91.219 86.11c-.84.487-1.519.1-1.519-.872a3.343 3.343 0 0 1 1.519-2.631z" transform="translate(-46.539 -51.382)" style="fill:#ebebeb"/>
        <path data-name="Caminho 369" d="m65.145 44.317-1.867.717V40.92c0-3.268-2.6-4.049-5.429-2.417a11.311 11.311 0 0 0-5.113 8.862v.6a2.749 2.749 0 0 0-2.375.364 8.14 8.14 0 0 0-3.685 6.381v.257l-2.6 1.508a5.348 5.348 0 0 0-2.423 4.2c0 1.546 1.07 2.171 2.423 1.4l21.069-12.169a5.348 5.348 0 0 0 2.428-4.2c.001-1.539-1.085-2.165-2.428-1.389z" transform="translate(-24.188 -37.678)" style="fill:#ebebeb"/>
    </g>
    <g data-name="freepik--plants--inject-15">
        <path data-name="Caminho 370" d="m454.408 332.762-1.6-1.984a35.3 35.3 0 0 1-1.567-14.489c1.032-8.91 5.134-12.125 8.023-11.146 2.139.727 2.781 3.172-.674 8.279-2.054 3.011-4.749 11.521-4.182 19.34z" transform="translate(-214.629 -162.014)" style="fill:#263238"/>
        <path data-name="Caminho 371" d="m454.408 332.762-1.6-1.984a35.3 35.3 0 0 1-1.567-14.489c1.032-8.91 5.134-12.125 8.023-11.146 2.139.727 2.781 3.172-.674 8.279-2.054 3.011-4.749 11.521-4.182 19.34z" transform="translate(-214.629 -162.014)" style="opacity:.15"/>
        <path data-name="Caminho 372" d="M454.96 328.383h.027a.182.182 0 0 0 .144-.219c-1.6-7.825 1.038-16.671 4.386-20.377a.189.189 0 1 0-.284-.251c-3.407 3.776-6.081 12.767-4.471 20.7a.192.192 0 0 0 .198.147z" transform="translate(-216.128 -163.175)" style="fill:#fff"/>
        <path data-name="Caminho 373" d="M454.2 342.755a4.119 4.119 0 0 0 .647.679c.246.144.444-.214.631.107.1.171.118.406.289.535a.465.465 0 0 0 .535-.1 2.733 2.733 0 0 0 .342-.508 3.048 3.048 0 0 1 2.139-1.171 18.722 18.722 0 0 0 2.722-.535 2.219 2.219 0 0 0 1.546-1.8c.043-.62-.326-1.038-.642-1.679a1.536 1.536 0 0 1 .594-1.867 15.433 15.433 0 0 1 2.305-1.236c.674-.38 1.749-1.161 1.893-1.92.358-1.867-1.6-1.968-1.679-3.289-.037-.882.62-1.637.813-2.5a2.331 2.331 0 0 0-.369-2.305 2.672 2.672 0 0 0-2.466-.267 7.974 7.974 0 0 0-2.674 1.535c-.936.754-1.562 1.273-2.7.813-1.6-.647-3.15.631-3.075 2.893.027.888.337 1.786-.1 2.557-.4.69-1.551.679-2.139 1.219a3.669 3.669 0 0 0-1.07 3.038 10.038 10.038 0 0 0 2.458 5.801z" transform="translate(-214.934 -171.205)" style="fill:#263238"/>
        <path data-name="Caminho 374" d="M457.767 345.106a.193.193 0 0 1-.214-.177c-.658-6.659 4.856-14.783 9.092-17.65a.2.2 0 0 1 .273.048.193.193 0 0 1-.054.273c-4.156 2.84-9.563 10.8-8.926 17.313a.193.193 0 0 1-.171.193z" transform="translate(-217.625 -172.374)" style="fill:#fafafa"/>
        <path data-name="Caminho 375" d="M462.385 340.719a.2.2 0 0 1-.182-.086.192.192 0 0 1 .059-.267c2.412-1.556 5.2-2.107 7.1-1.407a.193.193 0 1 1-.134.358c-1.786-.658-4.439-.123-6.755 1.369a.276.276 0 0 1-.088.033z" transform="translate(-219.799 -177.683)" style="fill:#fafafa"/>
    </g>
    <g data-name="freepik--plants--inject-15">
        <path data-name="Caminho 376" d="m34.972 337.561 1.246-2.22a35.3 35.3 0 0 0-.9-14.548c-2.514-8.611-7.1-11.093-9.766-9.627-1.979 1.07-2.209 3.594 2.054 8.023 2.525 2.637 6.611 10.574 7.366 18.372z" transform="translate(-16.065 -164.71)" style="fill:#263238"/>
        <path data-name="Caminho 377" d="m34.972 337.561 1.246-2.22a35.3 35.3 0 0 0-.9-14.548c-2.514-8.611-7.1-11.093-9.766-9.627-1.979 1.07-2.209 3.594 2.054 8.023 2.525 2.637 6.611 10.574 7.366 18.372z" transform="translate(-16.065 -164.71)" style="opacity:.15"/>
        <path data-name="Caminho 378" d="M37.409 333.068a.187.187 0 0 1-.193-.193c.251-7.98-3.824-16.259-7.744-19.356a.182.182 0 0 1 0-.262.187.187 0 0 1 .262-.032c3.99 3.15 8.14 11.563 7.884 19.661a.187.187 0 0 1-.209.182z" transform="translate(-18.497 -165.834)" style="fill:#fff"/>
        <path data-name="Caminho 379" d="M31.492 349.155c-.139.374-.321.332-.7.214-.278-.086-.535-.225-.818-.3a13.668 13.668 0 0 0-1.663-.4c-1.022-.177-2.059-.1-3.07-.273a2.214 2.214 0 0 1-1.829-1.508c-.144-.6.15-1.07.353-1.76a1.532 1.532 0 0 0-.9-1.744 16.078 16.078 0 0 0-2.482-.829c-.727-.262-1.915-.85-2.187-1.578-.669-1.781 1.262-2.209 1.1-3.525-.107-.877-.888-1.508-1.219-2.321a2.269 2.269 0 0 1 0-2.343 2.692 2.692 0 0 1 2.385-.674 7.846 7.846 0 0 1 2.91 1.07c1.07.583 1.76.989 2.8.342 1.46-.9 3.209.1 3.519 2.337.118.882-.037 1.818.535 2.5s1.642.412 2.316.845a3.674 3.674 0 0 1 1.535 2.819 10.116 10.116 0 0 1-1.439 6.145 3.948 3.948 0 0 1-.535.776c-.183.152-.483-.124-.611.207z" transform="translate(-13.072 -174.625)" style="fill:#263238"/>
        <path data-name="Caminho 380" d="M33.885 350.608a.2.2 0 0 0 .182-.209c-.476-6.675-7.274-13.756-11.938-15.9a.2.2 0 1 0-.16.358c4.573 2.1 11.232 9.033 11.7 15.564a.2.2 0 0 0 .214.182z" transform="translate(-14.979 -175.742)" style="fill:#fafafa"/>
        <path data-name="Caminho 381" d="M30.425 346.425a.189.189 0 0 0 .059-.364c-2.642-1.134-5.477-1.209-7.231-.2a.193.193 0 1 0 .193.332c1.647-.952 4.354-.866 6.889.214a.139.139 0 0 0 .091.016z" transform="translate(-15.578 -180.704)" style="fill:#fafafa"/>
    </g>
    <g data-name="freepik--plants--inject-15">
        <path data-name="Caminho 382" d="M285.122 346.394c-2.583-4.814-1.07-10.237 1.155-14.045 2.348-4.043-.658-6.7-3.7-3.648s-2.926 10.825.647 16.906z" transform="translate(-135.25 -172.436)" style="fill:#37474f"/>
        <path data-name="Caminho 383" d="M284.439 345.993a.134.134 0 0 1-.123-.086c-3.038-7.552-.845-13.424.931-15.7a.128.128 0 0 1 .187 0 .134.134 0 0 1 0 .187c-.193.246-4.648 6.119-.9 15.435a.134.134 0 0 1-.07.176z" transform="translate(-136.364 -173.731)" style="fill:#fafafa"/>
        <path data-name="Caminho 384" d="M286.626 349.985c-.754-2.979 1.342-7.916 4.53-9.991 2.867-1.861 4.557-1.733 5.386-.69s-.465 2.615-2.674 3.952-5.8 4.279-5.926 7.659z" transform="translate(-138.069 -177.632)" style="fill:#455a64"/>
        <path data-name="Caminho 385" d="M287.6 350.972a.134.134 0 0 1-.112-.15c.642-4.7 4.589-9.092 7.68-9.927a.133.133 0 1 1 .07.257c-3.017.792-6.857 5.108-7.488 9.707a.128.128 0 0 1-.15.112z" transform="translate(-138.542 -178.721)" style="fill:#fafafa"/>
    </g>
    <g data-name="freepik--plants--inject-15">
        <path data-name="Caminho 386" d="M218.147 346.654c2.583-4.814 1.07-10.242-1.15-14.05-2.353-4.038.658-6.691 3.7-3.642s2.931 10.825-.647 16.906z" transform="translate(-105.36 -172.557)" style="fill:#37474f"/>
        <path data-name="Caminho 387" d="M222.318 346.224h-.048a.134.134 0 0 1-.075-.177c3.744-9.317-.706-15.189-.9-15.435a.134.134 0 0 1 0-.187.128.128 0 0 1 .187 0c1.776 2.278 3.974 8.151.931 15.7a.134.134 0 0 1-.095.099z" transform="translate(-107.734 -173.834)" style="fill:#fafafa"/>
        <path data-name="Caminho 388" d="M213.494 350.243c.759-2.979-1.337-7.921-4.525-9.991-2.872-1.867-4.557-1.733-5.391-.69s.465 2.615 2.674 3.952 5.8 4.279 5.921 7.659z" transform="translate(-99.392 -177.751)" style="fill:#455a64"/>
        <path data-name="Caminho 389" d="M214.677 351.228a.134.134 0 0 1-.134-.118c-.631-4.594-4.471-8.91-7.488-9.7a.134.134 0 1 1 .064-.257c3.1.808 7.038 5.225 7.686 9.927a.139.139 0 0 1-.118.15z" transform="translate(-101.072 -178.837)" style="fill:#fafafa"/>
    </g>
    <g>
        <g data-name="freepik--globe--inject-15">
            <path data-name="Caminho 390" d="M255.734 356.208a7.632 7.632 0 0 0 .508-.84c.043-.075.08-.15.118-.23a6.338 6.338 0 0 0 .31-.738l.086-.23a7.265 7.265 0 0 0 .235-.936 6.371 6.371 0 0 0 .08-.957v-.283a5.547 5.547 0 0 0-.053-.663 1.954 1.954 0 0 0-.053-.348 9.245 9.245 0 0 0-.16-.636c-.032-.1-.059-.209-.1-.316a6.676 6.676 0 0 0-.374-.888c-.048-.1-.107-.182-.16-.278a6.819 6.819 0 0 0-.374-.62l-.267-.369c-.07-.091-.123-.182-.2-.273l-.332-.358-.176-.2a22.035 22.035 0 0 0-33.246 0l-.144.16c-.112.134-.225.267-.332.385a2.365 2.365 0 0 0-.209.289c-.07.1-.171.225-.246.342a9.79 9.79 0 0 0-.412.669c-.037.08-.091.155-.128.23a7.013 7.013 0 0 0-.385.909c-.032.091-.053.187-.08.278a6.651 6.651 0 0 0-.171.679 2.165 2.165 0 0 1-.053.316 7.999 7.999 0 0 0-.059.706v.246a6.418 6.418 0 0 0 .342 1.942.834.834 0 0 0 .07.2 7.427 7.427 0 0 0 .332.77l.1.2a8.493 8.493 0 0 0 .535.883.086.086 0 0 0 0 .037 10.161 10.161 0 0 0 .759.947l.059.059q.38.406.818.8l.209.176a9.523 9.523 0 0 0 .856.674c.075.053.144.112.225.166a14.054 14.054 0 0 0 1.219.781c7.354 4.252 19.308 4.252 26.662 0 .433-.251.829-.508 1.209-.775.091-.059.166-.123.251-.182.294-.214.567-.428.829-.653l.23-.2a10.741 10.741 0 0 0 .786-.77l.086-.086a9.822 9.822 0 0 0 .749-.931z" transform="translate(-106.852 -178.063)" style="fill:#263238"/>
            <path data-name="Caminho 391" d="M255.734 356.208a7.632 7.632 0 0 0 .508-.84c.043-.075.08-.15.118-.23a6.338 6.338 0 0 0 .31-.738l.086-.23a7.265 7.265 0 0 0 .235-.936 6.371 6.371 0 0 0 .08-.957v-.283a5.547 5.547 0 0 0-.053-.663 1.954 1.954 0 0 0-.053-.348 9.245 9.245 0 0 0-.16-.636c-.032-.1-.059-.209-.1-.316a6.676 6.676 0 0 0-.374-.888c-.048-.1-.107-.182-.16-.278a6.819 6.819 0 0 0-.374-.62l-.267-.369c-.07-.091-.123-.182-.2-.273l-.332-.358-.176-.2a22.035 22.035 0 0 0-33.246 0l-.144.16c-.112.134-.225.267-.332.385a2.365 2.365 0 0 0-.209.289c-.07.1-.171.225-.246.342a9.79 9.79 0 0 0-.412.669c-.037.08-.091.155-.128.23a7.013 7.013 0 0 0-.385.909c-.032.091-.053.187-.08.278a6.651 6.651 0 0 0-.171.679 2.165 2.165 0 0 1-.053.316 7.999 7.999 0 0 0-.059.706v.246a6.418 6.418 0 0 0 .342 1.942.834.834 0 0 0 .07.2 7.427 7.427 0 0 0 .332.77l.1.2a8.493 8.493 0 0 0 .535.883.086.086 0 0 0 0 .037 10.161 10.161 0 0 0 .759.947l.059.059q.38.406.818.8l.209.176a9.523 9.523 0 0 0 .856.674c.075.053.144.112.225.166a14.054 14.054 0 0 0 1.219.781c7.354 4.252 19.308 4.252 26.662 0 .433-.251.829-.508 1.209-.775.091-.059.166-.123.251-.182.294-.214.567-.428.829-.653l.23-.2a10.741 10.741 0 0 0 .786-.77l.086-.086a9.822 9.822 0 0 0 .749-.931z" transform="translate(-106.852 -178.063)" style="opacity:.2"/>
            <g data-name="Grupo 15" style="opacity:.5">
                <path data-name="Caminho 392" d="M259.813 350.731c-.8.2.781 3.156 2.487 8.4.9 2.77 1.38 6.744 5.883 4.535 4.156-2.038.674-6.835-2.546-9.9-2.855-2.73-4.963-3.254-5.824-3.035z" transform="translate(-125.569 -183.278)" style="fill:#263238"/>
                <path data-name="Caminho 393" d="M261.3 346.667c.423.219 3.027.562 7.22 4.477 2.252 2.107 4.011 4.771 4.851 5.113s1.423-3.343 0-5.183a14.67 14.67 0 0 0-6.878-4.888c-2.904-.872-5.893.114-5.193.481z" transform="translate(-126.313 -181.022)" style="fill:#263238"/>
                <path data-name="Caminho 394" d="M250.943 366.7c-4.327 0-5.06-.781-3.391-7.76.877-3.685 2.674-7.386 3.391-7.386s2.514 3.7 3.4 7.386c1.665 6.976.932 7.76-3.4 7.76z" transform="translate(-119.582 -183.679)" style="fill:#263238"/>
                <path data-name="Caminho 395" d="M240.3 350.731c.8.2-.781 3.156-2.487 8.4-.9 2.77-1.38 6.744-5.883 4.535-4.156-2.038-.674-6.835 2.546-9.9 2.851-2.73 4.958-3.254 5.824-3.035z" transform="translate(-111.811 -183.278)" style="fill:#263238"/>
                <path data-name="Caminho 396" d="M236.586 346.667c-.417.219-3.022.562-7.215 4.477-2.252 2.107-4.011 4.771-4.851 5.113s-1.423-3.343 0-5.183a14.644 14.644 0 0 1 6.878-4.888c2.902-.872 5.894.114 5.188.481z" transform="translate(-108.851 -181.021)" style="fill:#263238"/>
            </g>
            <path data-name="Caminho 397" d="M249.544 309.549a2.974 2.974 0 0 0-1.444.348 1.07 1.07 0 0 0-.583.738c-.364 8.638-1.038 12.836-3.8 17.409a2.891 2.891 0 0 0 1.711 2.38 8.37 8.37 0 0 0 4.124.989 8.376 8.376 0 0 0 4.129-.989 2.891 2.891 0 0 0 1.711-2.38c-2.76-4.589-3.434-8.771-3.8-17.409a1.07 1.07 0 0 0-.583-.738 2.979 2.979 0 0 0-1.465-.348z" transform="translate(-118.183 -164.142)" style="fill:#263238"/>
            <path data-name="Caminho 398" d="M249.544 309.549a2.974 2.974 0 0 0-1.444.348 1.07 1.07 0 0 0-.583.738c-.364 8.638-1.038 12.836-3.8 17.409a2.891 2.891 0 0 0 1.711 2.38 8.37 8.37 0 0 0 4.124.989 8.376 8.376 0 0 0 4.129-.989 2.891 2.891 0 0 0 1.711-2.38c-2.76-4.589-3.434-8.771-3.8-17.409a1.07 1.07 0 0 0-.583-.738 2.979 2.979 0 0 0-1.465-.348z" transform="translate(-118.183 -164.142)" style="opacity:.3"/>
            <path data-name="Caminho 399" d="M254.421 313.22q-2.078.08-4.156 0c-.123 2.706-.283 5.348-.535 7.841q2.6-.048 5.193-.31c-.235-2.391-.385-4.932-.502-7.531z" transform="translate(-120.979 -165.85)" style="opacity:.15"/>
            <path data-name="Caminho 400" d="M227.676 360.463c-6.129-3.835-5.7-10.7-1.631-14.173a22.061 22.061 0 0 0-4.455 3.915l-.144.16c-.112.134-.225.267-.332.385a2.36 2.36 0 0 0-.209.289c-.07.1-.171.225-.246.342a9.79 9.79 0 0 0-.412.669c-.037.08-.091.155-.128.23a7.011 7.011 0 0 0-.385.909c-.032.091-.053.187-.086.278-.064.23-.123.455-.166.679a2.164 2.164 0 0 1-.053.316 7.999 7.999 0 0 0-.059.706v.246a6.418 6.418 0 0 0 .337 1.952.833.833 0 0 0 .07.2 7.431 7.431 0 0 0 .332.77l.1.2a8.484 8.484 0 0 0 .535.883.085.085 0 0 0 0 .037 10.153 10.153 0 0 0 .759.947l.059.059q.38.406.818.8l.209.176a9.524 9.524 0 0 0 .856.674c.075.053.144.112.225.166a14.071 14.071 0 0 0 1.219.781c7.354 4.252 19.308 4.252 26.662 0 .433-.251.829-.508 1.209-.775.091-.059.166-.123.251-.182.294-.214.567-.428.829-.652l.23-.2a10.76 10.76 0 0 0 .786-.77l.086-.086c-7.659 5.428-21.131 3.925-27.266.069z" transform="translate(-106.856 -181.233)" style="opacity:.15"/>
            <path data-name="Caminho 401" d="M237.882 192.025a59.844 59.844 0 0 1-84.617-84.649l-3.865-3.856c-26.908 26.908-29.475 67.983-2.551 94.891s67.924 24.324 94.859-2.583z" transform="translate(-64.306 -68.305)" style="fill:#37474f"/>
            <path data-name="Caminho 402" d="m160.42 107.975 3.9 3.9a60.517 60.517 0 0 1 4.07-4.5l-3.862-3.856q-2.161 2.167-4.108 4.456z" transform="translate(-79.435 -68.305)" style="fill:#263238"/>
            <path data-name="Caminho 403" d="M329.656 269a59.671 59.671 0 0 1-4.466 4.038l3.878 3.878q2.262-1.941 4.418-4.086z" transform="translate(-156.08 -145.28)" style="fill:#263238"/>
            <path data-name="Caminho 404" d="M130.423 157.671c1.728 14.146 6.819 30.571 20.527 42.616 11.681 10.258 29.544 21.147 57.05 17.113a63.141 63.141 0 0 1-61.143-16.885c-26.111-26.111-24.48-65.544.219-92.447-1.014 1.227-19.776 24.096-16.653 49.603z" transform="translate(-64.312 -70.422)" style="fill:#455a64"/>
            <path data-name="Caminho 405" d="M257.754 196.565a3.391 3.391 0 0 0 2.4-5.792l-96.547-96.48a3.4 3.4 0 0 0-4.814 4.814l96.56 96.469a3.407 3.407 0 0 0 2.401.989z" transform="translate(-78.214 -63.55)" style="fill:#37474f"/>
            <path data-name="Caminho 406" d="m165.487 94.3 96.549 96.479a3.4 3.4 0 0 1 .776 3.583 3.311 3.311 0 0 1-3.434-.818l-96.55-96.476a3.391 3.391 0 0 1-.776-3.583 3.38 3.38 0 0 1 3.434.818z" transform="translate(-80.094 -63.56)" style="fill:#455a64"/>
            <path data-name="Caminho 407" d="M150.74 141.607a55.463 55.463 0 1 0 23.806-45.547 55.461 55.461 0 0 0-23.806 45.547z" transform="translate(-74.932 -60.22)" style="fill:#263238"/>
            <path data-name="Caminho 408" d="M150.74 141.607a55.463 55.463 0 1 0 23.806-45.547 55.461 55.461 0 0 0-23.806 45.547z" transform="translate(-74.932 -60.22)" style="opacity:.5;fill:#fff"/>
            <path data-name="Caminho 409" d="M271.882 102.462c-2.375-.9-5.728-1.278-4.076.936s3 2.9 2.321 4.642-2.54 3.113-2.476 4.568.412 3.257 1.471 3.209 4.61-1.813 5.958-1.129 6.028 2.808 7.343 1.524 1.979-.888 3.813-2.166 2.674-3.61 1.31-4.177-1.808-.048-4.07-1.15-2.722-3.07-5.156-3.573-4.7-2.021-6.438-2.684z" transform="translate(-129.182 -67.482)" style="fill:#455a64"/>
            <path data-name="Caminho 410" d="M217.256 93.777c-3.241.358-9.729.257-12.045-1.508-1.145-.882-2.476-2.016-4-2.979a55.623 55.623 0 0 0-31.951 22.1 18.333 18.333 0 0 0 .882 4.535c1.07 3.209 3.065 4.359 5.45 5.883s.995 2.674 1.653 4.691.845 3.134 1.974 4.53-1.455 2.139-2.674 3.589-1.776 2.305-1.936 6.167 2.182 7.99 2.674 9.713-1.84 2.551-2.5 5.471-3.712 10.162-2.717 15.307 2.76 5.306 3.653 2.455 1.07-5.819 3.476-7.252 5.455.412 8.076-2.942 3.252-2.888 5.525-3.471 1.931-2.006 4.733-4.279 4.4-4.846 2.466-7.017-3.583-2.674-4.514-6.37a28.652 28.652 0 0 0-5.4-10.558c-2.343-2.824-7.889-2.744-9.568-4.054s-1.428-5.4-.749-6.75-.583-2.273-2.086-2.482-1.909-1.38-1.556-3.359 4.118-3.145 6.493-2.4 3.209 2.311 2.455 5.466a6.236 6.236 0 0 0 2.557 6.8c1.915 1.38 1.471-1.364.567-3.476s-.455-3.53 2.016-6.418 5.167-1.508 8.477-3.744 2.792.235 4.776 1.38 2.139-.112 3.669-1.717 3.562 1.118 6.386.439-.8-4.942.348-6.953 3.209-1.07 3.305-4.691 1.754-3.1 3.059-3.947.235-2.522-2.974-2.159zm-6.2 6.455c-1.316 1.278-1.8.738-3.621 1.99a6.9 6.9 0 0 1-5.193 1.166c-1.209-.321-2.278-3.123-1.872-4.428s2.391-.947 4.562-.39a12.387 12.387 0 0 0 6.76-.353c1.931-.572.663.738-.652 2.016z" transform="translate(-83.547 -61.686)" style="fill:#455a64"/>
            <path data-name="Caminho 411" d="m311.222 185.33-.043.15a3.91 3.91 0 0 0-2.856 1.209c-2.316 2.4-2.027 1.07-5.557 1.9s-3.1 2.808-3.744 4.814-4.707 2.958-6.557 3.022-4.332 4.247-4.685 6.616-3.3 2.22-5.68 3.562-4.61 4.279-6.284 5.455a5.247 5.247 0 0 1-5.691.3c-1.754-1.07-2.252-4.883-2.187-7.99a16.9 16.9 0 0 1 2.674-8.937c1.76-2.7 1.407-2.423 2.546-7.285a7.86 7.86 0 0 0-3.145-8.675c-1.594-1.15-4.937-1.294-6.145-2.845s-1.353-3.161-.647-7.894 3.209-4.856 5.83-6.514a17.5 17.5 0 0 1 10.162-2.423 9.268 9.268 0 0 1 6.418 3.589c1.433 1.631 1.487 3.985 2.717 4.637s2.6.428 3.8 1.193 1.8 1.738 3.139 2.027 1.123-1.471 1.262-2.343-1.07-1.118-2.583-1.733a2.366 2.366 0 0 1-1.856-2.4c-.139-1.214-1.348-.685-1.909-1.385s-1.161 1.2-1.508 1.888-.4-.792-.4-.792-1.011.727-1.1.171.957-1.385 1.316-2.524-1.342-1.519-2-2.77a4.091 4.091 0 0 0-3.535-2.022c-1.54-.091-1.658-.535-2.738.439s-4.364.583-5.236.053.535-2.177 2.027-3.535 2.9-.134 4.616-1.417.4-2.091-.444-2.749-.77-1.679 1.07-3.444 2.942-.642 3.081.578a3.582 3.582 0 0 0 2.412 2.712c1.278.524 1.326-.492 2.038-2.353s1.963-2.514 3.926-2.546 5.236-.053 6.723-.626 3.123.845 3.7 2.332 2.642 2.786 4.814 4.124a2.081 2.081 0 0 0 1.883.118 55.2 55.2 0 0 1 .376 34.313z" transform="translate(-127.056 -87.283)" style="fill:#455a64"/>
            <path data-name="Caminho 412" d="M311.6 260.8c-1.171-.717-1.225-.257-2.353.433s-2.674 1.385-2.872 2.487-.626 2.412.535 2 1.23-1.439 2.674-1.5 3.769-2.354 2.016-3.42z" transform="translate(-147.216 -141.296)" style="fill:#455a64"/>
            <path data-name="Caminho 413" d="M282.06 105.872c-29-22.592-44.071-2.674-32.331 18.356s39.669 37.6 47.4 29.951 6.506-31.492-15.069-48.307z" transform="translate(-119.116 -64.753)" style="opacity:.1;fill:#fff"/>
            <path data-name="Caminho 414" d="M181.9 161.809c-17.115-31.112-.07-71.385 27.523-75.562a53.735 53.735 0 0 0-3.209-.107 55.457 55.457 0 1 0 39.525 94.351c-11.204 7.109-46.723 12.409-63.839-18.682z" transform="translate(-74.934 -60.221)" style="opacity:.15"/>
        </g>
    </g>
    <g>
        <path data-name="Caminho 415" d="M405.561 317.561a2.191 2.191 0 0 0 .209-.594 3.177 3.177 0 0 0-.283-1.968 4.958 4.958 0 0 1-.471-2.359 24.932 24.932 0 0 1 .267-2.5c.535-3.792 1.6-10.044 1.647-11.536a19.565 19.565 0 0 0-.412-5.8s1.77-5.776 2.519-9.092c1.193-5.257 1.995-9.333 1.572-13.906-.38-4.124.07-5.883-2.337-8.638l-.449-.572s-8.354 8.985-8.83 10.542c-.289 5.108-.471 11.232-.631 16.045a51.611 51.611 0 0 0 .492 9.226c.385 3.867.776 8.14 1.235 12.681a11.561 11.561 0 0 1-.193 4.557c-.941 2.877-3.578 4.584-5.8 6.418a1.786 1.786 0 0 0-.824 1.214 1.2 1.2 0 0 0 .69 1.027 4.564 4.564 0 0 0 1.508.348 6.812 6.812 0 0 0 1.679.139 8.931 8.931 0 0 0 2.877-.562 8.581 8.581 0 0 0 1.974-1.9 10.209 10.209 0 0 1 1.765-1.669c.555-.342 1.448-.481 1.796-1.101z" transform="translate(-187.748 -141.368)" style="fill:#ffa8a7"/>
        <path data-name="Caminho 416" d="M392.911 371.476a1.685 1.685 0 0 0 .182 1.07c.278.348 1.3 1.268 3.952 1.161a6.088 6.088 0 0 0 4.555-2.007c.524-.679 1-1.353 1.519-1.9a4.354 4.354 0 0 1 1.744-.957c.5-.16.642-.342.594-1.07-.157-.673-12.546 3.703-12.546 3.703z" transform="translate(-187.571 -191.192)" style="fill:#37474f"/>
        <path data-name="Caminho 417" d="M404.81 358.27a4.345 4.345 0 0 0 0 .455s.043 1.032-.636 1.268c-.8.289-.743-.3-1.348-.781-1.321-1.043-2.926-.957-3.311-.07a17.861 17.861 0 0 1-2.952 3.963 13.989 13.989 0 0 1-1.674 1.38c-.636.455-2.193 1.273-2.038 2.278s1.1 1.556 2.375 1.765a7.568 7.568 0 0 0 5.006-.989 15.949 15.949 0 0 0 2.637-2.674c.8-.786 2.081-.952 2.487-1.348a3.268 3.268 0 0 0 .283-2.284c-.16-.9-.4-1.7-.428-2.139s-.086-.787-.401-.824z" transform="translate(-187.548 -186.805)" style="fill:#455a64"/>
        <path data-name="Caminho 418" d="M396.82 369.6a3.475 3.475 0 0 0-1.711-.112.9.9 0 0 0-.46.182c-.636.455-2.054 1.252-1.9 2.257s1.07 1.6 2.343 1.824a6.99 6.99 0 0 0 4.7-.792 4.059 4.059 0 0 0-2.972-3.359z" transform="translate(-187.5 -191.997)" style="fill:#f0f0f0"/>
        <path data-name="Caminho 419" d="M440.982 314.412a3.006 3.006 0 0 0-.872-1.262c-.422-.4-.893-.733-1.273-1.166a5.45 5.45 0 0 1-.727-1.455c-.128-.31-.444-1.353-.845-2.738-1.07-3.68-2.776-9.788-3.37-11.162a12.453 12.453 0 0 0-3.273-4.894s-.3-6.37-.417-9.745c-.171-4.99-.754-10.371-3.156-13.858-2.353-3.407-4.354-4.509-7.7-6l-.647-.332s-1.123 15.746-.428 15.061c.888 4.07 2.064 8.846 3.043 13.023.883 3.771 1.118 4.466 3.744 8.445 2.139 3.246 4.669 7.113 7 11.039a16.828 16.828 0 0 1 2.375 6.012 11.039 11.039 0 0 1-2.032 7.691 1.6 1.6 0 0 0-.439.931c0 .487.535.8.989.963a5.156 5.156 0 0 0 3.514-.1 5.006 5.006 0 0 0 3.123-4.771 6 6 0 0 1 .658-3.348 4.261 4.261 0 0 0 .813-1.786 1.6 1.6 0 0 0-.08-.548z" transform="translate(-199.272 -141.931)" style="fill:#ffa8a7"/>
        <path data-name="Caminho 420" d="M444.09 371a1.6 1.6 0 0 0 1.246 1.177 5.883 5.883 0 0 0 4.658-1.006c2.006-1.439 2.268-2.631 2.359-3.712s-.219-2.626.155-3.439a12.692 12.692 0 0 0 .989-1.963 3.443 3.443 0 0 0-.155-1.482z" transform="translate(-211.387 -187.88)" style="fill:#37474f"/>
        <path data-name="Caminho 421" d="M450.651 355.566s.214.364.257.476a1.519 1.519 0 0 1-.433 1.941c-.31.267-.984 0-1.556-.064a3.273 3.273 0 0 0-2.8 1.139 10.942 10.942 0 0 1-.406 4.391 16.1 16.1 0 0 1-1.23 2.209c-.492.631-1.364 1.658-.909 2.567a1.936 1.936 0 0 0 1.134.872 5.611 5.611 0 0 0 4.584-.759 4.739 4.739 0 0 0 2.31-3.787c.155-1.214-.112-2.5.342-3.4s1.07-1.2 1.23-2.428a1.861 1.861 0 0 0-.7-1.5c-.984-.923-1.545-2.023-1.823-1.657z" transform="translate(-211.086 -185.514)" style="fill:#455a64"/>
        <path data-name="Caminho 422" d="M449.363 373.657a4.006 4.006 0 0 0-4.755-.289 2.54 2.54 0 0 0-.31.337c-.492.631-1.364 1.6-.909 2.508a1.706 1.706 0 0 0 1.166.925 5.829 5.829 0 0 0 4.648-.786 5.943 5.943 0 0 0 1.07-.893l.037-.043v-.032a3.343 3.343 0 0 0-.947-1.727z" transform="translate(-211.002 -193.527)" style="fill:#f0f0f0"/>
        <path data-name="Caminho 423" d="M403.117 277.234c-.412 6.226-.717 14.237-.717 14.237s1.428 1.6 5.407 1.888 4.7 0 4.7 0l.46-1.631.455 2s1.733.685 5.509 0c4.236-.77 4.813-2.38 4.813-2.38s-.08-6.231-.385-9.627-2.615-9-2.615-9z" transform="translate(-191.995 -147.011)" style="fill:#455a64"/>
        <path data-name="Caminho 424" d="m417.457 302.445-1.364-5.664a8.712 8.712 0 0 1-4.033-1.022 4.494 4.494 0 0 0 3.525 2.043l1.3 4.642.107 1.631z" transform="translate(-196.488 -157.728)" style="fill:#37474f"/>
        <path data-name="Caminho 425" d="m380.182 204.9 3.075 8.37s8.424 4.22 12.3 5.723c-1.2.824-2.038 1.979-2.99 4.252l-.754 2.273s-7.552-4.279-11.857-7.343a5.971 5.971 0 0 1-2.589-4.247c-.4-1.8-.6-2.856-1.193-6.177-.144-.834-.294-1.6-.439-2.316a34.136 34.136 0 0 0-.984-3.525 8.594 8.594 0 0 1-.348-3.519 4.065 4.065 0 0 1 3.161-4 1.1 1.1 0 0 1 1.332.364 1.556 1.556 0 0 1 .086.845 11.321 11.321 0 0 0 0 3.6.535.535 0 0 0 .225.385c.257.134.636-.8.818-.989a1.07 1.07 0 0 1 1.444-.257c.187.144-.214.572-.449 1.492-.294 1.177-.107 2.139-.727 3.295a2.268 2.268 0 0 0-.111 1.774z" transform="translate(-178.949 -110.531)" style="fill:#ffa8a7"/>
        <path data-name="Caminho 426" d="m405.024 237.5-6.418-2.6s-1.139 0-2.482 2.284a5.883 5.883 0 0 0-.594 4.5l5.589 3.209z" transform="translate(-188.704 -129.418)" style="fill:#455a64"/>
        <path data-name="Caminho 427" d="M420.008 240.947c1.685.3 2.482 1.631 2.851 3.3a10.872 10.872 0 0 1-.16 3.578c-.241 1.754-1.369 9.461-1.369 9.461l2 5.969c-2.712 2.947-14.1 5.348-20.019.995 0 0 .492-14.943.936-17.922.6-4.038 2.1-6.119 3.915-6.53a8.241 8.241 0 0 1 1.556-.043l6.6.364z" transform="translate(-192.418 -131.667)" style="fill:#263238"/>
        <path data-name="Caminho 428" d="m437.068 266.425 1.005-8.862s-2.31-3.209-4.723-6.541c-2.8-4.487.61-8.782.61-8.782 3.428.594 3.316 2.674 9.247 12.414 1.252 2.054 1.07 2.139.412 4.953-.406 1.8-.733 2.819-1.69 6.06a87.231 87.231 0 0 0-.642 2.262 34.361 34.361 0 0 0-.69 3.594 8.68 8.68 0 0 1-1.262 3.305 4.883 4.883 0 0 1-1.786 1.829 4.953 4.953 0 0 1-2.829.342 1.1 1.1 0 0 1-1-.925 1.507 1.507 0 0 1 .3-.8 11.353 11.353 0 0 0 1.6-3.209.535.535 0 0 0-.032-.444c-.166-.23-.925.433-1.171.535a1.07 1.07 0 0 1-1.412-.412c-.1-.214.455-.417 1.07-1.139.792-.92 1.07-1.861 2.139-2.615a2.305 2.305 0 0 0 .854-1.565z" transform="translate(-205.879 -132.832)" style="fill:#ffa8a7"/>
        <path data-name="Caminho 429" d="M432.862 242a4.444 4.444 0 0 1 2.926 1.193 11.049 11.049 0 0 1 2.139 2.915l2.4 4.241s-.535 2.867-5.118 4.166c0 0-3.209-4.188-3.546-4.872s-1.963-5.119 1.199-7.643z" transform="translate(-205.272 -132.721)" style="fill:#455a64"/>
        <path data-name="Caminho 430" d="M417.469 219.992c1.476-2.236 3.706-2.316 5.659-5.8 2.1-3.744-.679-7.809-1.642-8.5 0 0-.075-2-2.84-3.648-3.455-2.064-10.526-1.6-13.6 3.321z" transform="translate(-193.227 -113.596)" style="fill:#37474f"/>
        <path data-name="Caminho 431" d="M435.189 208.179a4.54 4.54 0 0 1 6.418-.439c2.535 2.011 2.171 7.841 5.659 8.825 1.4.4.8 1.856-1.07 2.3-2.5.583-4.915-.626-6.242-3.637s-1.519-6.418-3.931-6.006c-1.636.273-.834-1.043-.834-1.043z" transform="translate(-207.155 -116.261)" style="fill:#37474f"/>
        <path data-name="Caminho 432" d="M418.827 216.318c.321.235.39.342.674-.187a1.52 1.52 0 0 1 2.712-.2 2.481 2.481 0 0 1-1.54 3.353c-1.738.7-2.209-.358-2.209-.358l-.824 6.616a5.937 5.937 0 0 1-4.814 2.931c-3.305.107-2.883-2.53-1.674-3.744l.08-1.958a8.022 8.022 0 0 1-2.385-.481 3.731 3.731 0 0 1-2.257-2.744c-.7-2.214-.583-4.551.535-8.836 1.3-4.963 7.52-4.477 10.5-2.139s1.202 7.747 1.202 7.747z" transform="translate(-193.741 -116.377)" style="fill:#ffa8a7"/>
        <path data-name="Caminho 433" d="m417.83 211.22.422-4.557-6.456-4.322a8.21 8.21 0 0 0-9.183 7.108l-.134 1.07 3.985.508a3.744 3.744 0 0 0 4.086-2.744l-.262 3.209a2.979 2.979 0 0 0 3.284-2.321l.107-.535a3.53 3.53 0 0 0 2.781 3.61l-.128 1.706a1.428 1.428 0 0 0 1.278 1.53l.182-1.487.781-2.589z" transform="translate(-192.032 -114.242)" style="fill:#37474f"/>
        <path data-name="Caminho 434" d="M419 222.024a.685.685 0 1 0 .754-.636.7.7 0 0 0-.754.636z" transform="translate(-199.715 -123.131)" style="fill:#263238"/>
        <path data-name="Caminho 435" d="m421 218.577 1.364.947a.872.872 0 0 0-.219-1.187.808.808 0 0 0-1.145.241z" transform="translate(-200.647 -121.647)" style="fill:#263238"/>
        <path data-name="Caminho 436" d="m417.264 229.12-2.674.7a1.353 1.353 0 0 0 1.658 1.027 1.444 1.444 0 0 0 1.016-1.727z" transform="translate(-197.665 -126.73)" style="fill:#b16668"/>
        <path data-name="Caminho 437" d="M417.993 230.516a1.129 1.129 0 0 0-1.733.872 1.343 1.343 0 0 0 .77 0 1.4 1.4 0 0 0 .963-.872z" transform="translate(-198.442 -127.296)" style="fill:#f28f8f"/>
        <path data-name="Caminho 438" d="m407.981 216.5 1.6-.406a.8.8 0 0 0-.99-.62.866.866 0 0 0-.61 1.026z" transform="translate(-194.581 -120.37)" style="fill:#263238"/>
        <path data-name="Caminho 439" d="M408.349 220.824a.685.685 0 1 0 .754-.636.7.7 0 0 0-.754.636z" transform="translate(-194.761 -122.574)" style="fill:#263238"/>
        <path data-name="Caminho 440" d="m413.2 220.8-.572 3.616-1.834-.84z" transform="translate(-195.897 -122.859)" style="fill:#f28f8f"/>
        <path data-name="Caminho 441" d="M415.632 234.806s3.279 0 4.846-.8a4.145 4.145 0 0 0 1.6-1.289 4.123 4.123 0 0 1-1 1.6c-1.631 1.567-5.482 1.246-5.482 1.246z" transform="translate(-198.135 -128.404)" style="fill:#f28f8f"/>
        <path d="M382.784 185.184a5.108 5.108 0 0 0-6.814-2.4c-4.375 2.091-6.3 8.675-6.3 8.675s6.338 2.631 10.7.535a5.108 5.108 0 0 0 2.417-6.808zm-6.557 3.139a2.471 2.471 0 1 1 1.409 1.265 2.476 2.476 0 0 1-1.409-1.264z" transform="translate(-176.77 -104.942)" style="fill:#263238"/>
    </g>
    <g>
        <g data-name="freepik--kid--inject-15">
            <path data-name="Caminho 442" d="M49.554 322.987c.476-1.572 3.926-12.349 5.241-16a69.911 69.911 0 0 0 2.61-9.338c.433-1.786.909-3.68 1.38-5.578.631 2.931 1.572 8.119 1.776 9.263 0 .176-.032.39-.053.636a20.553 20.553 0 0 0-.369 5.391c0 1.5.989 7.766 1.53 11.558.123.84.251 1.679.337 2.524a4.659 4.659 0 0 1-.583 2.332 3.134 3.134 0 0 0-.3 1.963 2.011 2.011 0 0 0 .2.6c.342.62 1.032.818 1.6 1.171a12.839 12.839 0 0 1 1.893 1.915 7.553 7.553 0 0 0 2.006 1.637 8.763 8.763 0 0 0 2.872.588 6.555 6.555 0 0 0 1.679-.123 4.461 4.461 0 0 0 1.514-.326 1.214 1.214 0 0 0 .7-1.022 1.824 1.824 0 0 0-.813-1.225c-2.209-1.856-5.429-4.177-6.012-7.151 0 0 .326-2.4.449-3.845.433-4.894.615-8.841 1.032-12.7a48.952 48.952 0 0 0 .588-9.221c-.032-1.353-.1-2.8-.182-4.279-.075-4.68-.374-9.215-.364-12.7 0 0-6.472.123-11.6.449-5.53.674-7.418 1.925-7.252 2.631a48.719 48.719 0 0 0-.829 7.531c-.177 3.375-.711 12.162-.711 12.162a18.142 18.142 0 0 0-2.385 7.354c-.155 1.487-.754 11.515-.882 12.242a7.366 7.366 0 0 1-.915 1.893 3.006 3.006 0 0 0-.535 1.439 1.6 1.6 0 0 0 .07.535 4.153 4.153 0 0 0 1.235 1.53 5.937 5.937 0 0 1 1.465 3.081 5.006 5.006 0 0 0 4.22 3.84 5.156 5.156 0 0 0 3.423-.781c.406-.267.818-.7.717-1.182a1.5 1.5 0 0 0-.653-.786 11.055 11.055 0 0 1-4.1-6.825 2.9 2.9 0 0 1 0-1.193" transform="translate(-24.898 -149.955)" style="fill:#b16668"/>
            <path data-name="Caminho 443" d="M76.684 367.85s-.176 0-.155.439a1.032 1.032 0 0 0 .535.957 8.355 8.355 0 0 1 2.508 1.888 6.232 6.232 0 0 0 2.76 2.615 7.42 7.42 0 0 0 5.669.123c.963-.487 1.171-.685 1.225-1.546z" transform="translate(-40.411 -191.261)" style="fill:#263238"/>
            <path data-name="Caminho 444" d="M82.179 358.666c-.241.369-1.546.535-2.139.77s-.492 1.519-.492 1.519c-.535 0-.535-.39-.738-1.07-.294-1.118-1.123-1.112-1.391-1.257v-.342s-.283-.08-.348.455a11.766 11.766 0 0 1-.481 2.113c-.16.476-.423 2.22-.053 2.749a8.02 8.02 0 0 0 1.155.856 7.938 7.938 0 0 1 2.316 2.022 5.883 5.883 0 0 0 5.1 2.391c3.182.032 4.065-1.112 4.065-1.112a1.738 1.738 0 0 0-.535-2.289 98.261 98.261 0 0 1-3.492-2.674c-2.656-2.12-1.961-4.377-2.967-4.131z" transform="translate(-40.328 -186.81)" style="fill:#455a64"/>
            <path data-name="Caminho 445" d="M86.59 373.43a5.157 5.157 0 0 1 3.156-3.289c1.685-.615 2.455-.417 3.15 0a2.147 2.147 0 0 1 1.07 2.963s-.476 1.225-3.535 1.289-3.841-.963-3.841-.963z" transform="translate(-45.092 -192.145)" style="fill:#fafafa"/>
            <path data-name="Caminho 446" d="M42.18 366.26a1.429 1.429 0 0 0 .2 1.556c.5.594 1.129.947 1.562 1.412a7.134 7.134 0 0 1 .872 2.364 5.562 5.562 0 0 0 2.375 3.086 5.373 5.373 0 0 0 3.926.792c1.535-.278 2.364-.754 2.744-2.07z" transform="translate(-24.37 -190.522)" style="fill:#263238"/>
            <path data-name="Caminho 447" d="M49.42 359.124c.235-.636-1.348.326-3.113-.1-.316-.075-.465.064-.535.391s-.15.674-.535.535a.6.6 0 0 1-.326-.358 2.593 2.593 0 0 1-.1-.492c-.07-.455-.182-1.123-.615-1.348l.08-.535s-.412-.38-.674.909-1.6 2.139-1.3 3.9a5.541 5.541 0 0 0 1.241 1.519 4.546 4.546 0 0 1 1.7 2.712 5.415 5.415 0 0 0 3.284 3.819 6.017 6.017 0 0 0 5.568-1.022 1.679 1.679 0 0 0-.5-2.375 13.869 13.869 0 0 1-2.776-2.792 7.316 7.316 0 0 1-1.399-4.763z" transform="translate(-24.469 -186.29)" style="fill:#455a64"/>
            <path data-name="Caminho 448" d="M50.5 376.317a6.051 6.051 0 0 1 3.744-3.081 3.369 3.369 0 0 1 3.38.984 1.535 1.535 0 0 1 .257 2.262 4.931 4.931 0 0 1-4.033 1.449 4.814 4.814 0 0 1-3.348-1.615z" transform="translate(-28.304 -193.717)" style="fill:#fafafa"/>
            <path data-name="Caminho 449" d="M50.507 278.7s-.428 5.022-.583 7.969-1.07 14.794-1.07 14.794a17.355 17.355 0 0 0-2.225 7.055c-.38 3.878-.508 7.9-.6 9.13a9.11 9.11 0 0 0 6.215 1.284c.235-.893 4.461-12.836 5.4-15.906.909-2.968 2.428-10.018 2.428-10.018s1.353 6.637 1.145 7.889c-.834 5.038 1.07 13.521 1.439 17.008 0 0 .38.995 2.883 1.027 2.589.032 3.075-.85 3.075-.85s1.6-16.756 1.781-19.917-.428-15.152-.818-19.254z" transform="translate(-26.225 -149.792)" style="fill:#455a64"/>
            <path data-name="Caminho 450" d="m72.33 300.64.535-3.145s4.2-.3 6.065-2.385c0 0-.642 2.749-5.044 3.139l-.588 3.038.15 6.129c-.3-2.288-.712-4.289-1.118-6.776z" transform="translate(-38.458 -157.425)" style="fill:#37474f"/>
            <path data-name="Caminho 451" d="m92.719 200.6-2.674 8.5S81.8 213.685 78 215.354c1.235.77 2.139 1.883 3.166 4.113l.834 2.241s7.359-4.6 11.526-7.857a5.909 5.909 0 0 0 2.4-4.354c.326-1.818.476-2.877.925-6.225.107-.834.225-1.6.332-2.327a35.236 35.236 0 0 1 .834-3.567 8.632 8.632 0 0 0 .193-3.53 4.075 4.075 0 0 0-3.332-3.862 1.1 1.1 0 0 0-1.31.423 1.524 1.524 0 0 0-.053.85 11.5 11.5 0 0 1 .166 3.6.535.535 0 0 1-.209.39c-.251.144-.674-.77-.861-.952a1.07 1.07 0 0 0-1.455-.193c-.182.155.241.562.535 1.476.342 1.161.2 2.139.872 3.257a2.262 2.262 0 0 1 .156 1.763z" transform="translate(-41.096 -108.492)" style="fill:#b16668"/>
            <path data-name="Caminho 452" d="m77.58 234.457 6.755-3.1s1.145-.032 2.583 2.177a5.883 5.883 0 0 1 .792 4.471l-5.124 3.92z" transform="translate(-40.901 -127.771)" style="fill:#455a64"/>
            <path data-name="Caminho 453" d="M53.089 238.1c-2.043.417-2.674 1.4-2.9 3.209a13.51 13.51 0 0 0 .465 4.969l1.182 7.391-.048 9.542c4.386 2.476 14.3 3.418 20.324-.888 0 0-.77-15.371-1.187-18.388-.727-5.231-2.872-7.092-5.386-6.921l-7.268.524a33.428 33.428 0 0 0-5.182.562z" transform="translate(-28.133 -130.395)" style="fill:#263238"/>
            <path data-name="Caminho 454" d="m69.587 258.434-8.987-4.658s-1.829-3.348-3.91-7.637c-3.557-5.413-5.391-5.728-5.391-5.728-4.1 2.284-2.471 5.771 3.054 16.361 1.07 2.064 2.5 2.578 5.391 3.616 1.84.663 2.813 1.027 6.365 2.139.85.267 1.931.572 2.674.8 1.235.39 2.07.776 3.353 1.145a13.617 13.617 0 0 0 3.674.754 4.268 4.268 0 0 0 4.589-2.872 1.161 1.161 0 0 0-.241-1.444 1.6 1.6 0 0 0-.882-.182 12.18 12.18 0 0 1-3.8-.39.583.583 0 0 1-.385-.278c-.107-.283.915-.588 1.134-.754a1.15 1.15 0 0 0 .433-1.5c-.134-.214-.626.166-1.6.31-1.278.182-2.262-.123-3.551.406a2.412 2.412 0 0 1-1.92-.088z" transform="translate(-27.607 -131.981)" style="fill:#b16668"/>
            <path data-name="Caminho 455" d="M51.287 239.47a4.247 4.247 0 0 0-3.129 5.29 12.665 12.665 0 0 0 1.134 3.252c1.31 3 3.808 7.723 3.808 7.723s2.942-.316 6.685-3.68c0 0-4.38-8.616-4.814-9.461-.379-.701-1.807-3.017-3.684-3.124z" transform="translate(-27.16 -131.544)" style="fill:#455a64"/>
            <path data-name="Caminho 456" d="M78.177 207.106a5.348 5.348 0 1 1-5.514-5.4 5.455 5.455 0 0 1 5.514 5.4z" transform="translate(-36.203 -113.979)" style="fill:#263238"/>
            <path data-name="Caminho 457" d="M57.12 220.38s1.07 4.322 1.444 5.027a1.963 1.963 0 0 0 1.166.888l-.15-3.059z" transform="translate(-31.383 -122.664)" style="fill:#263238"/>
            <path data-name="Caminho 458" d="M57.164 208.663a2.139 2.139 0 0 0-1.754.674c-.743.8-.246 3.209.77 5.589l1.749.15z" transform="translate(-30.422 -117.209)" style="fill:#263238"/>
            <path data-name="Caminho 459" d="M57.886 212.552c-.342.219-.861-.439-1.305-.877a1.519 1.519 0 0 0-2.53.481c-.658 1.5.717 3.482 1.834 3.8 1.931.535 2.182-.69 2.182-.69l.342 6.883a6.14 6.14 0 0 0 4.733 3.386c3.4.364 3.289-2.471 2.139-3.808l-.059-1.936a8.194 8.194 0 0 0 2.5-.321 3.844 3.844 0 0 0 2.535-2.674c.888-2.236.947-4.648.118-9.151-.963-5.22-7.418-5.188-10.665-3.011s-1.824 7.918-1.824 7.918z" transform="translate(-29.876 -114.696)" style="fill:#b16668"/>
            <path data-name="Caminho 460" d="M61.011 205.831c-.262 1.514-.444 4.075-1.038 4.108-.176 0-.877-1.07-1.321-1.465-.2-.171-.214-.535-.235-.8a18.586 18.586 0 0 1-.059-2.728 12.711 12.711 0 0 1 .144-3 3.209 3.209 0 0 1 1.369-1.728c1.428-.909 3.343-.872 4.953-1.241a16.243 16.243 0 0 0 5.348-2.139l.5-.316a.76.76 0 0 1 .487-.16.487.487 0 0 1 .353.251 1.182 1.182 0 0 1 .139.428 4.663 4.663 0 0 1 .037 1.364 2.321 2.321 0 0 1-.278 1.166l1.187-.765a.4.4 0 0 1 .267-.1c.16 0 .225.219.246.38a4.086 4.086 0 0 1-1.663 3.557 7.392 7.392 0 0 1-3.813 1.359c-1.364.139-2.733.059-4.1.07a3.546 3.546 0 0 0-1.728.262 2.139 2.139 0 0 0-.795 1.497z" transform="translate(-31.948 -111.495)" style="fill:#263238"/>
            <path data-name="Caminho 461" d="M57.139 207.845 55 206.776a1.155 1.155 0 0 1 1.6-.572 1.257 1.257 0 0 1 .535 1.642z" transform="translate(-30.397 -116.007)" style="fill:#263238"/>
            <path data-name="Caminho 462" d="M69.466 231.877s-3.38-.251-4.937-1.187A4.278 4.278 0 0 1 63 229.23a4.183 4.183 0 0 0 .909 1.744c1.562 1.744 5.616 1.974 5.616 1.974z" transform="translate(-34.118 -126.78)" style="fill:#9a4a4d"/>
            <path data-name="Caminho 463" d="M71.193 218.257a.711.711 0 1 1-.733-.717.722.722 0 0 1 .733.717z" transform="translate(-37.268 -121.343)" style="fill:#263238"/>
            <path data-name="Caminho 464" d="m69.2 214.543-1.481.877a.9.9 0 0 1 .316-1.209.845.845 0 0 1 1.166.332z" transform="translate(-36.261 -119.742)" style="fill:#263238"/>
            <path data-name="Caminho 465" d="m71.814 226 2.813.968a1.46 1.46 0 0 1-1.867.973 1.556 1.556 0 0 1-.946-1.941z" transform="translate(-38.183 -125.278)" style="fill:#9a4a4d"/>
            <path data-name="Caminho 466" d="M72.636 227.539a1.144 1.144 0 0 0-.636.246 1.508 1.508 0 0 0 .909.888 1.4 1.4 0 0 0 .957 0 1.171 1.171 0 0 0-1.23-1.134z" transform="translate(-38.305 -125.993)" style="opacity:.6;fill:#f28f8f"/>
            <path data-name="Caminho 467" d="M82.417 214.079 81 213.063a.829.829 0 0 1 1.187-.214.9.9 0 0 1 .23 1.23z" transform="translate(-42.491 -119.085)" style="fill:#263238"/>
            <path data-name="Caminho 468" d="M81.822 217.377a.706.706 0 1 1-.727-.717.722.722 0 0 1 .727.717z" transform="translate(-42.217 -120.933)" style="fill:#263238"/>
            <path data-name="Caminho 469" d="m76.01 217.31.316 3.771 1.952-.727z" transform="translate(-40.17 -121.236)" style="fill:#9a4a4d"/>
            <path data-name="freepik--pin--inject-15" d="M102.11 178.55a5.108 5.108 0 0 0-4.477 9.183c4.354 2.139 10.7-.46 10.7-.46s-1.87-6.584-6.223-8.723zm-.3 5.536a5.349 5.349 0 1 1 0-.011z" transform="translate(-48.893 -102.965)" style="fill:#263238"/>
        </g>
    </g>
    <g>
        <path data-name="freepik--pin--inject-15" d="M220.294 56.994a5.113 5.113 0 0 0-4.081 5.963c.893 4.765 6.755 8.327 6.755 8.327s4.182-5.445 3.289-10.2a5.113 5.113 0 0 0-5.963-4.09zm1.337 7.145a2.476 2.476 0 1 1 1.979-2.888 2.476 2.476 0 0 1-1.978 2.888z" transform="translate(-105.347 -46.622)" style="fill:#263238"/>
        <path data-name="freepik--pin--inject-15" d="M328.988 80.4a5.108 5.108 0 0 0-7.108 1.284c-2.765 3.976-1.18 10.656-1.18 10.656s6.814-.85 9.574-4.814a5.1 5.1 0 0 0-1.284-7.129zm-4.145 5.969a2.471 2.471 0 1 1 1.851.4 2.476 2.476 0 0 1-1.851-.4z" transform="translate(-153.78 -57.125)" style="fill:#455a64"/>
    </g>
</svg>
