<svg xmlns="http://www.w3.org/2000/svg" width="256.128" height="247.876" viewBox="0 0 256.128 247.876">
    <ellipse data-name="Elipse 3" cx="127.862" cy="75.871" rx="127.862" ry="75.871" transform="translate(.404 96.133)" style="fill:#f5f5f5"/>
    <g transform="translate(14.394 145.623)">
        <path d="m232.377 303.336-76.735 44.326a3.284 3.284 0 0 1-2.978 0l-9.1-5.016a.9.9 0 0 1 0-1.715l76.761-44.331a3.283 3.283 0 0 1 2.978 0l9.1 5.016c.797.504.797 1.244-.026 1.72z" transform="translate(-90.948 -296.242)" style="fill:#e0e0e0"/>
        <ellipse data-name="Elipse 4" cx="30.265" cy="16.445" rx="30.265" ry="16.445" transform="translate(133.53 44.677)" style="fill:#e0e0e0"/>
        <ellipse data-name="Elipse 5" cx="12.851" cy="6.983" rx="12.851" ry="6.983" transform="translate(191.817 4.545)" style="fill:#e0e0e0"/>
        <ellipse data-name="Elipse 6" cx="20.439" cy="11.106" rx="20.439" ry="11.106" transform="translate(0 4.169)" style="fill:#e0e0e0"/>
    </g>
    <path data-name="Caminho 306" d="m371.909 62.7 3.959 2.3v-3.16c0-1.827 1.492-2.455 3.318-1.4l.135.082a6.872 6.872 0 0 1 2.12 1.985c.1-3.072 2.69-4.111 5.873-2.291l.241.141c3.224 1.862 5.873 6.026 5.873 9.245v5.5l3.653 2.114a5.853 5.853 0 0 1 2.819 4.44c0 1.551-1.269 2.079-2.819 1.175l-4.863-2.807-9.532-5.5-10.777-6.19a5.853 5.853 0 0 1-2.819-4.44c0-1.555 1.269-2.083 2.819-1.194z" transform="translate(-169.874 -52.849)" style="fill:#e0e0e0"/>
    <path data-name="Caminho 307" d="m420.208 53.4 2.731 1.574V52.78c0-1.257 1.034-1.692 2.291-.963l.094.053a4.775 4.775 0 0 1 1.462 1.374c.07-2.12 1.856-2.837 4.035-1.58l.164.094c2.226 1.286 4.047 4.152 4.047 6.378v3.788l2.52 1.457a4.041 4.041 0 0 1 1.938 3.066c0 1.069-.869 1.433-1.938.816l-3.36-1.932-6.578-3.741-7.406-4.276a4.029 4.029 0 0 1-1.938-3.06c0-1.104.869-1.474 1.938-.854z" transform="translate(-190.169 -49.433)" style="fill:#e0e0e0"/>
    <path data-name="Caminho 308" d="M58.592 145.067a5.721 5.721 0 0 1 3.072.552 33.184 33.184 0 0 1 5.01 3.524 10.253 10.253 0 0 0 5.556 2.4c2.032.053 4.258-1.21 4.628-3.224a2.86 2.86 0 0 1 .264-1.028 1.5 1.5 0 0 1 1.762-.452 9.825 9.825 0 0 1 1.686.975c2.073 1.222 4.7.946 7.048.587 1.979-.288 4.481-1.175 4.475-3.166 0-1.3-1.175-2.273-2.044-3.219s-1.633-2.467-.811-3.483a2.42 2.42 0 0 1 1.175-.7c2.479-.8 5.515.27 7.635-1.28a4.4 4.4 0 0 0 1.1-5.245 6.684 6.684 0 0 0-4.464-3.4c-1.662-.423-3.777-.617-4.4-2.22-.54-1.4.552-2.937 1.762-3.782s2.719-1.468 3.577-2.7a4.305 4.305 0 0 0 .117-4.44 5.439 5.439 0 0 0-3.73-2.561 8.323 8.323 0 0 1-2.267-.493 1.511 1.511 0 0 1-.84-1.909c.223-.411.7-.623.969-1a1.8 1.8 0 0 0-.67-2.349 9.139 9.139 0 0 0-2.531-.969c-1.8-.587-3.524-2.349-3.007-4.158s3.136-2.5 3.9-4.323c.681-1.6-.394-3.483-1.838-4.464s-3.242-1.351-4.816-2.1-3.1-2.062-3.23-3.806 1.175-3.283 2.3-4.7 2.015-3.4 1.063-4.91-2.943-1.544-4.59-2.067a7.43 7.43 0 0 1-4.517-4.07c-.435-1.01-.646-2.109-1.175-3.072-1.6-3-5.709-4.311-8.869-3.947a3.607 3.607 0 0 0-3.013 2.044 4.79 4.79 0 0 0-1.1 2.079c-.241 1.451.529 3.289-.84 4.4-2.079 1.68-5.286-.587-5.145 3.177a15.728 15.728 0 0 0 .7 4.7c.587 1.58 1.7 2.261.758 4.035-1.222 2.291-2.02 2.279-4.464 2.273-1.762 0-3.248-.1-4.546 1.245-2.285 2.349-.928 4.493 1.1 6.314 2.308 2.067 1.087 2.978.787 5.656-.147 1.292.147 1.686-1 2.543-2.185 1.621-3.4 1.075-2.79 4.246.587 2.9-.305 1.9-2.813 2.984-2.226.957-3.694 3.354-5.5 4.845-1.175.963-2.937 1.7-3.031 3.389-.211 3.23 3.806 2.526 5.715 3.295 3.119 1.263 2.191 5.351-.247 6.884-2.578 1.615-6.337 2.22-6.543 5.914-.159 2.837 1.451 3.465 3.653 4.411 1.762.758 1.533.981 1.527 3.078 0 4.229 1.421 5.427 5.591 4.734 1.139-.188 2.884-.67 4.023-.329 1.592.482 1.057.875 1.1 2.208.117 3.412 4.111 2.449 5.773.987 1.93-1.699 4.368-3.655 7.005-3.913z" transform="translate(-29.902 -54.701)" style="fill:#263238"/>
    <path data-name="Caminho 309" d="M90.372 156.581c1.9-.617 4.111-.135 6.014-.587a23.4 23.4 0 0 0-3.371-.529 9.544 9.544 0 0 0-7.259 2.884 6.59 6.59 0 0 1 1.462 4.358c-4.7 1.28-9.4-5.051-13.873-3.125.276 2.285 0 5.356-2.214 5.873a3.633 3.633 0 0 1-3.436-1.65c-.811-1.063-1.31-2.349-2.126-3.418a7.236 7.236 0 0 0-9.609-1.4c-1.222.887-2.749 2.226-3.964 1.339-1.31-.946-.511-3.524-1.956-4.235-.963-.482-2.308.276-3.113-.429a2.167 2.167 0 0 1-.552-1.175c-.587-2.414-1.069-5.2.452-7.165 1.351-1.762 4.211-2.819 3.906-5-.264-1.868-2.637-2.437-4.517-2.655s-4.246-1.1-4.152-2.984 2.6-2.743 2.972-4.558c.153-.775-.106-1.639.247-2.349.534-1.063 2.062-1.1 2.937-1.891 1.6-1.421.358-4.076.811-6.167.323-1.48 1.521-2.643 1.915-4.111.8-2.937-1.862-5.7-4.64-6.889a17.115 17.115 0 0 1-3.148-1.48l-.1-.076a5.762 5.762 0 0 0 2.279 3.653c2.308 2.067 1.087 2.978.787 5.656-.147 1.292.147 1.686-1 2.543-2.185 1.621-3.4 1.075-2.79 4.246.587 2.9-.305 1.9-2.813 2.984-2.226.957-3.694 3.354-5.5 4.845-1.175.963-2.937 1.7-3.031 3.389-.211 3.23 3.806 2.526 5.715 3.295 3.119 1.263 2.191 5.351-.247 6.884-2.578 1.615-6.337 2.22-6.543 5.914-.159 2.837 1.451 3.465 3.653 4.411 1.762.758 1.533.981 1.527 3.078 0 4.229 1.421 5.427 5.591 4.734 1.139-.188 2.884-.67 4.023-.329 1.592.482 1.057.875 1.1 2.208.117 3.412 4.111 2.449 5.773.987 1.938-1.68 4.376-3.636 7.007-3.894a5.721 5.721 0 0 1 3.072.552 33.184 33.184 0 0 1 5.01 3.524 10.253 10.253 0 0 0 5.556 2.4c2.032.053 4.258-1.21 4.628-3.224a2.86 2.86 0 0 1 .264-1.028 1.5 1.5 0 0 1 1.762-.452 9.825 9.825 0 0 1 1.686.975c2.073 1.222 4.7.946 7.048.587 1.979-.288 4.481-1.175 4.475-3.166 0-1.3-1.175-2.273-2.044-3.219s-1.633-2.467-.811-3.483a2.443 2.443 0 0 1 1.139-.652z" transform="translate(-29.902 -73.416)" style="opacity:.15"/>
    <path data-name="Caminho 310" d="m64.75 123.358 12.839 25.455V137.1l1.311-30.44 1.9 30.44v7.876l14.1-24.668-14.1 30.284v84.717a.811.811 0 0 1-.47.652 2.526 2.526 0 0 1-2.267 0 .787.787 0 0 1-.47-.652v-80z" transform="translate(-44.282 -72.384)" style="fill:#455a64"/>
    <g>
        <path data-name="Caminho 311" d="M394.935 141.366c-3.524-2.038-6.754-2.114-9.063-.587l-4.493 2.631c-2.772 1.3-4.493 4.622-4.411 9.456v1.968c.135 8.111 11.7 30.541 13.133 33.308l-.258.276.311-.176.094.176s.276-.235.746-.664l3.941-2.273s12.722-10.484 12.722-19.1v-1.968c-.001-8.669-5.698-18.988-12.722-23.047zm-5.286 10.284a14.1 14.1 0 0 1 6.543 10.919 7.794 7.794 0 0 1-.1 1.374 6.952 6.952 0 0 1-1.175-.54 14.037 14.037 0 0 1-6.331-11.018h-.035a7.441 7.441 0 0 1 .1-1.175 8.314 8.314 0 0 1 .993.423z" transform="translate(-173.124 -86.029)" style="fill:#263238"/>
        <path data-name="Caminho 312" d="M376.986 156.934c.147 8.651 13.28 33.584 13.28 33.584s12.563-10.666 12.4-19.311v-1.968c-.147-8.651-6.014-18.859-13.109-22.8s-12.733-.129-12.587 8.528zm6.373.628c-.065-4.029 2.76-5.75 6.3-3.782a14.1 14.1 0 0 1 6.541 10.92c.07 4.029-2.755 5.75-6.3 3.782a14.1 14.1 0 0 1-6.56-10.918z" transform="translate(-173.124 -88.158)" style="opacity:.2"/>
    </g>
    <g>
        <path data-name="Caminho 313" d="m229.808 58.061-61.141 35.592a5.914 5.914 0 0 0-2.937 5.116V242.3a2.173 2.173 0 0 0 3.27 1.881l60.419-35.169a6.061 6.061 0 0 0 3.013-5.245V59.571a1.762 1.762 0 0 0-2.625-1.509z" transform="translate(-85.954 -52.236)" style="fill:#455a64"/>
        <path data-name="Caminho 314" d="M279.29 60.681v-.141a.589.589 0 0 1 0 .141z" transform="translate(-132.816 -53.352)" style="fill:#37474f"/>
        <path data-name="Caminho 315" d="m229.822 92.9-57.447 33.419a4.4 4.4 0 0 0-2.185 3.8v106.974a1.063 1.063 0 0 0 1.6.916l57.946-33.7a3.383 3.383 0 0 0 1.692-2.937V93.842a1.069 1.069 0 0 0-1.609-.946z" transform="translate(-87.794 -66.644)" style="fill:#fff"/>
        <path data-name="Caminho 316" d="M171.078 375.11a1.627 1.627 0 0 1-.288.141 1.456 1.456 0 0 0 .288-.141z" transform="translate(-88.042 -183.165)" style="fill:#37474f"/>
        <path data-name="Caminho 317" d="M226.383 55.261a1.762 1.762 0 0 0-2.584-1.134L162.664 89.72a5.95 5.95 0 0 0-2.937 5.11v143.537a2.185 2.185 0 0 0 2.978 2.026c-3.389 1.668-7.782-1.1-7.782-1.1a7 7 0 0 1-3.753-6.308V89.455a5.944 5.944 0 0 1 2.937-5.116l61.135-35.586s2.5-1.58 6.848 1.175c0 0 3.882 2.072 4.293 5.333z" transform="translate(-79.945 -48.302)" style="fill:#263238"/>
        <path data-name="Caminho 318" d="M226.916 55.261a1.762 1.762 0 0 0-2.584-1.134L163.2 89.72a5.826 5.826 0 0 0-2.026 1.956l-8.71-5.133a5.9 5.9 0 0 1 2.167-2.2l61.147-35.586s2.5-1.58 6.848 1.175c-.003-.004 3.874 2.068 4.29 5.329z" transform="translate(-80.478 -48.302)" style="fill:#37474f"/>
        <path data-name="Caminho 319" d="M205.573 117.677a4.746 4.746 0 0 1-2.3 3.618c-1.269.734-2.3.3-2.3-.969a4.769 4.769 0 0 1 2.3-3.624c1.272-.728 2.3-.294 2.3.975z" transform="translate(-100.5 -76.383)" style="fill:#37474f"/>
        <path data-name="Caminho 320" d="M223.573 323.889c0 2.285-1.85 5.2-4.111 6.519s-4.111.534-4.111-1.762 1.85-5.2 4.111-6.514 4.111-.522 4.111 1.757z" transform="translate(-106.43 -161.041)" style="fill:#37474f"/>
        <path data-name="Caminho 321" d="M154.75 159.483a4.111 4.111 0 0 0 1.985 3.136c1.1.634 1.991.258 1.991-.84a4.111 4.111 0 0 0-1.991-3.136c-1.098-.634-1.985-.258-1.985.84z" transform="translate(-81.423 -93.709)" style="fill:#455a64"/>
        <path data-name="Caminho 322" d="M154.75 182.3a4.111 4.111 0 0 0 1.985 3.136c1.1.634 1.991.258 1.991-.84a4.111 4.111 0 0 0-1.991-3.136c-1.098-.631-1.985-.26-1.985.84z" transform="translate(-81.423 -103.126)" style="fill:#455a64"/>
        <path data-name="Caminho 323" d="M222.626 98.11a2.2 2.2 0 0 1-1.063 1.68c-.587.341-1.063.141-1.063-.446a2.214 2.214 0 0 1 1.063-1.68c.587-.341 1.063-.142 1.063.446z" transform="translate(-108.556 -68.603)" style="fill:#37474f"/>
        <path data-name="Caminho 324" d="m215.228 108.952 14.319-8.334a2.514 2.514 0 0 0 1.245-2.167 1.1 1.1 0 0 0-1.662-.957l-14.325 8.334A2.514 2.514 0 0 0 213.56 108a1.11 1.11 0 0 0 1.668.957z" transform="translate(-105.692 -68.539)" style="fill:#37474f"/>
        <path data-name="Caminho 325" d="M186.874 135.55v26.518a5.4 5.4 0 0 1-1.122 3.3L170.2 185.685v-37.907a4.381 4.381 0 0 1 2.179-3.8z" transform="translate(-87.798 -84.307)" style="fill:#e0e0e0"/>
        <path data-name="Caminho 326" d="m206.739 151.939 17.109-9.926a3.641 3.641 0 0 0 1.8-3.142V111.46l-20.518 11.935V151a1.087 1.087 0 0 0 1.609.94z" transform="translate(-102.213 -74.365)" style="fill:#e0e0e0"/>
        <path data-name="Caminho 327" d="M225.589 171.932v15.817a1.9 1.9 0 0 1-.94 1.633l-10.866 6.349a1.656 1.656 0 0 0-.816 1.427v10.29a2 2 0 0 1-.993 1.721l-6 3.483a.587.587 0 0 1-.9-.523v-28.145a2.49 2.49 0 0 1 1.245-2.161l18.09-10.56a.775.775 0 0 1 1.175.67z" transform="translate(-102.192 -98.998)" style="fill:#e0e0e0"/>
        <path data-name="Caminho 328" d="m223.125 211.716 9.027-5.257a.435.435 0 0 1 .652.376v8.035a1.556 1.556 0 0 1-.775 1.345l-8.81 5.127a.47.47 0 0 1-.7-.405v-8.146a1.245 1.245 0 0 1 .606-1.075z" transform="translate(-109.389 -113.545)" style="fill:#e0e0e0"/>
        <path data-name="Caminho 329" d="m223.125 238.026 9.027-5.257a.435.435 0 0 1 .652.37v8.035a1.545 1.545 0 0 1-.775 1.345l-8.81 5.127a.464.464 0 0 1-.7-.405V239.1a1.239 1.239 0 0 1 .606-1.074z" transform="translate(-109.389 -124.402)" style="fill:#e0e0e0"/>
        <path data-name="Caminho 330" d="m223.125 258.965 9.027-5.286a.435.435 0 0 1 .652.376v12.921a1.556 1.556 0 0 1-.775 1.345l-8.81 5.127a.464.464 0 0 1-.7-.405v-13a1.245 1.245 0 0 1 .606-1.078z" transform="translate(-109.389 -133.031)" style="fill:#e0e0e0"/>
        <path data-name="Caminho 331" d="M228.828 286.3v7.124l-21.338 12.423v-7.271a2.349 2.349 0 0 1 1.175-2.032l19.27-10.754a.587.587 0 0 1 .893.511z" transform="translate(-103.187 -146.27)" style="fill:#e0e0e0"/>
        <path data-name="Caminho 332" d="M186.883 197.578v33.648a2.79 2.79 0 0 1-1.392 2.408l-15.271 8.886v-24.562l15.858-20.668a.47.47 0 0 1 .8.288z" transform="translate(-87.807 -109.726)" style="fill:#e0e0e0"/>
        <path data-name="Caminho 333" d="M263.167 93.843V109.7l-14.818 8.452a.846.846 0 0 1-1.269-.734v-16.092l14.472-8.426a1.075 1.075 0 0 1 1.615.946z" transform="translate(-119.524 -66.645)" style="fill:#e0e0e0"/>
        <path data-name="Caminho 334" d="M263.167 138.41v37.519l-15.153 8.81a.623.623 0 0 1-.934-.534v-28.739a3.694 3.694 0 0 1 1.139-2.666z" transform="translate(-119.524 -85.487)" style="fill:#e0e0e0"/>
        <path data-name="Caminho 335" d="m263.157 125.38-15.271 9.438a1.715 1.715 0 0 0-.816 1.462v6.038a.511.511 0 0 0 .869.37l15.218-14.466z" transform="translate(-119.52 -80.11)" style="fill:#e0e0e0"/>
        <path data-name="Caminho 336" d="M203.968 246.283v24.169a2.437 2.437 0 0 1-1.216 2.109l-18.6 10.813a.587.587 0 0 1-.881-.511v-18.672a1.574 1.574 0 0 1 .775-1.357l11.253-6.56a1.562 1.562 0 0 0 .781-1.357v-4.511a1.621 1.621 0 0 1 .8-1.4l5.873-3.412a.8.8 0 0 1 1.21.693z" transform="translate(-93.192 -129.67)" style="fill:#e0e0e0"/>
        <path data-name="Caminho 337" d="M188.037 299.254v7.124l-16.246 9.444a1.063 1.063 0 0 1-1.592-.928v-32.35l2.05-1.175a.587.587 0 0 1 .869.505V304.5a.881.881 0 0 0 1.31.769l12.216-6.813a.934.934 0 0 1 1.392.793z" transform="translate(-87.798 -144.452)" style="fill:#e0e0e0"/>
        <path data-name="Caminho 338" d="M263.823 212.11v37.149l-13.661 8.011a.987.987 0 0 1-1.492-.852v-34.012a2.573 2.573 0 0 1 1.269-2.208z" transform="translate(-120.18 -115.901)" style="fill:#e0e0e0"/>
        <path data-name="Caminho 342" d="M246.131 137.834a5.328 5.328 0 0 1-2.551 4.034c-1.417.812-2.56.331-2.56-1.086a5.281 5.281 0 0 1 2.56-4.024c1.408-.814 2.551-.332 2.551 1.076z" transform="translate(-124.221 -51.046)" style="fill:#263238"/>
        <path data-name="Caminho 343" d="M251.442 121.637a12.933 12.933 0 0 0 2.04-5.3c.538-4.6-3.013-6.613-7.916-4.478s-9.333 7.557-9.872 12.177a5.026 5.026 0 0 0 .945 3.986l.057.047a3.116 3.116 0 0 0 .491.444l5.139 4.638c.34.3 1.105 0 1.549-.671l6.773-9.758c.274-.359.529-.718.765-1.086zm-6.358-5.668c2.475-1.077 4.26-.066 4 2.258s-2.494 5.073-4.969 6.14-4.26.066-4-2.258 2.475-5.054 4.969-6.121z" transform="translate(-123.921 -49.643)" style="fill:#263238"/>
        <path data-name="Caminho 344" d="m215.976 249.323-5.873 3.383a1.034 1.034 0 0 0-.523.9v6.508a.241.241 0 0 0 .358.211l2-1.175.693 1.175a.1.1 0 0 0 .176 0l.634-2.009 2.349-1.339a1.28 1.28 0 0 0 .634-1.1v-6.314a.282.282 0 0 0-.446-.247z" transform="translate(-104.049 -131.235)" style="fill:#263238"/>
        <path data-name="Caminho 345" d="M211.928 259.8v.687l-.364.206v-.681l-.764-.822.388-.223.587.617.587-1.28.352-.206z" transform="translate(-104.553 -134.879)" style="fill:#fff"/>
        <path data-name="Caminho 346" d="M214.251 259.737a.329.329 0 0 1-.282-.106.476.476 0 0 1-.1-.335 1.069 1.069 0 0 1 .1-.452 1.527 1.527 0 0 1 .282-.435 1.762 1.762 0 0 1 .405-.329.928.928 0 0 1 .411-.141.382.382 0 0 1 .282.106.505.505 0 0 1 .1.335 1.174 1.174 0 0 1-.1.452 1.686 1.686 0 0 1-.693.769.8.8 0 0 1-.405.136zm.722-.746a.746.746 0 0 0 .147-.429q0-.211-.123-.264a.347.347 0 0 0-.317.053.893.893 0 0 0-.317.311.775.775 0 0 0-.123.405c0 .141.041.229.123.27a.352.352 0 0 0 .317-.059.846.846 0 0 0 .294-.305z" transform="translate(-105.818 -134.813)" style="fill:#fff"/>
        <path data-name="Caminho 347" d="M218.561 255.66v1.486l-.329.188v-.188a1.568 1.568 0 0 1-.211.276 1.136 1.136 0 0 1-.27.206.552.552 0 0 1-.47.106c-.112-.041-.17-.176-.17-.388v-.852l.347-.2v.8c0 .135.029.217.094.247s.147 0 .258-.047a.811.811 0 0 0 .294-.288.764.764 0 0 0 .112-.394v-.752z" transform="translate(-107.157 -133.872)" style="fill:#fff"/>
    </g>
    <g>
        <path data-name="Caminho 348" d="M351.515 381.058a2.079 2.079 0 0 1 .276 1.034 22.714 22.714 0 0 1 0 3.289c-.1.505-1.175 1.239-2.543 1.087a4.17 4.17 0 0 1-2.937-2.214c-.652-1.04-3.606-4.546-4.141-5.4s-1.368-3.113-.329-4.041c.875-.781 4.152 1 5.028 1.991s4.646 4.254 4.646 4.254z" transform="translate(-158.425 -182.964)" style="fill:#263238"/>
        <path data-name="Caminho 349" d="M321.539 403a4.815 4.815 0 0 1 .64 1.633 14.174 14.174 0 0 1 .376 3.894 3.359 3.359 0 0 1-2.42 1.233c-.687.035-1.515.065-2.185.088a3.248 3.248 0 0 0-1.421.364 38.638 38.638 0 0 1-3.694 1.668 13.923 13.923 0 0 1-6.461.875 7.15 7.15 0 0 1-3.677-2.032 1.269 1.269 0 0 1 .065-1.427c1.7-1.415 4.517-2.114 6.261-2.837a45.228 45.228 0 0 0 6.8-3.671c.424-.332 5.716.212 5.716.212z" transform="translate(-142.398 -194.542)" style="fill:#263238"/>
        <path data-name="Caminho 350" d="M330.891 397.73v3.224a3.741 3.741 0 0 1-2.9 1.327 2.837 2.837 0 0 1-2.819-1.527 25.832 25.832 0 0 0 .076-3.025z" transform="translate(-151.75 -192.5)" style="fill:#ffa8a7"/>
        <path data-name="Caminho 351" d="M355.123 381.87v1.944s-.288 1.022-2.238 1.087a3.583 3.583 0 0 1-2.39-.74l-.405-2.86z" transform="translate(-162.033 -185.72)" style="fill:#ffa8a7"/>
        <path data-name="Caminho 352" d="M314.56 278.734s.687 30.776 1.58 36.415c.617 3.859 4.7 33.09 4.7 33.09a6.114 6.114 0 0 0 5.768-.047s0-1.028.141-2.7 1.415-15.952 1.286-21.32a25.726 25.726 0 0 0-1.809-9.092l1.809-26.536.84.106s-.041 2.831.311 7.859c0 0 .67 10.131.9 12.122.446 3.712 2.937 17.226 3.665 20.809.658 3.213 1.727 9.145 1.727 9.145 1.568 1.562 4.986.329 4.986.329s.17-4.029.347-6.49.928-13.509.628-16.41c-.417-4.041-2.067-7.929-1.921-8.957.858-5.95.94-31.275.94-31.275z" transform="translate(-147.371 -142.175)" style="fill:#263238"/>
        <path data-name="Caminho 353" d="M314.56 278.734s.687 30.776 1.58 36.415c.617 3.859 4.7 33.09 4.7 33.09a6.114 6.114 0 0 0 5.768-.047s0-1.028.141-2.7 1.415-15.952 1.286-21.32a25.726 25.726 0 0 0-1.809-9.092l1.809-26.536.84.106s-.041 2.831.311 7.859c0 0 .67 10.131.9 12.122.446 3.712 2.937 17.226 3.665 20.809.658 3.213 1.727 9.145 1.727 9.145 1.568 1.562 4.986.329 4.986.329s.17-4.029.347-6.49.928-13.509.628-16.41c-.417-4.041-2.067-7.929-1.921-8.957.858-5.95.94-31.275.94-31.275z" transform="translate(-147.371 -142.175)" style="opacity:.4"/>
        <path data-name="Caminho 354" d="m337.5 293.515.84.112s-.047 3.007.329 8.352c0 0 .164 2.549.364 5.4l1.374-13.608a22.025 22.025 0 0 0 6.549-5.873 37.407 37.407 0 0 1-9.456 5.6z" transform="translate(-156.838 -147.177)" style="opacity:.4"/>
        <path data-name="Caminho 355" d="M358.952 216.969a6.5 6.5 0 0 0-3.242-2.349l1.034 31.322s7.635-3.406 7.87-5.427c.229-1.809-4.246-21.561-5.662-23.546z" transform="translate(-164.353 -116.936)" style="fill:#37474f"/>
        <path data-name="Caminho 356" d="M316.662 183.119c-.035-1.3-.035-2.937 0-3.559a6.453 6.453 0 0 1 .846-3.242c2.837-3.706 13.233-2.872 13.973-.787s2.185 13.468-1.022 15.5c.329 1.762 1.251 6.12 1.251 6.12-2.59 2.349-8.017 1.6-8.017 1.6.159-.793-.587-3.97-.963-5.586-2.22.264-4.152.235-4.781-.235a.652.652 0 0 1-.129-.123c-.482-.687-.822-3.3-1.01-6.461-.587.076-1.5.153-1.615-.076a13.311 13.311 0 0 1 1.467-3.151z" transform="translate(-147.629 -100.071)" style="fill:#ffa8a7"/>
        <path data-name="Caminho 357" d="M321.458 180.478a1.906 1.906 0 0 1 1.762-2.232c2.056-.194 3.313 2.42 2.308 4.329s-2.308 2.032-2.308 2.032a18.156 18.156 0 0 0 0 3.794 1.439 1.439 0 0 0 1.48 1.222 16 16 0 0 0 6.061-1.21c2.849-1.392 4.793-4.276 5.873-8.375s1.251-7.952-1.762-8.093c0 0-.029-1.145 1.662-1.6 0 0-1.885-.863-2.7.711a4.593 4.593 0 0 0-3.219-3.917c-3.007-.9-6.737.44-9.985 1.175s-7.518.347-7.888.811-1.962 9.55 7.048 9.127c-.023-.018.394 2.191 1.668 2.226z" transform="translate(-146.482 -97.219)" style="fill:#263238"/>
        <path data-name="Caminho 358" d="M319.89 205.75c.628.47 2.561.5 4.781.235a3.759 3.759 0 0 0 1.175-1.175c-.165.059-3.707 1.59-5.956.94z" transform="translate(-149.571 -112.888)" style="fill:#f28f8f"/>
        <path data-name="Caminho 359" d="M314.054 230.863v21.561s7.694 3.031 14.989 1.956a20.3 20.3 0 0 0 11.159-5.133s.323-28.439-.2-31.892a6.282 6.282 0 0 0-4.64-5.486 11.593 11.593 0 0 0-4.458.347 14.63 14.63 0 0 1-7.77 1.762c-2.05.681-4.293 1.762-6.167 2.467-5.339 2.084-2.913 14.418-2.913 14.418z" transform="translate(-146.936 -115.753)" style="fill:#263238"/>
        <path data-name="Caminho 360" d="M314.054 230.863v21.561s7.694 3.031 14.989 1.956a20.3 20.3 0 0 0 11.159-5.133s.323-28.439-.2-31.892a6.282 6.282 0 0 0-4.64-5.486 11.593 11.593 0 0 0-4.458.347 14.63 14.63 0 0 1-7.77 1.762c-2.05.681-4.293 1.762-6.167 2.467-5.339 2.084-2.913 14.418-2.913 14.418z" transform="translate(-146.936 -115.753)" style="opacity:.4;fill:#fff"/>
        <path data-name="Caminho 361" d="m286.846 228.384-4.916-14.771 7.823-4.352.623.147 4.288 14.625z" transform="translate(-133.906 -114.724)" style="fill:#37474f"/>
        <path data-name="Caminho 362" d="m287.906 228.634-4.916-14.771 7.823-4.352 4.916 14.771z" transform="translate(-134.343 -114.827)" style="fill:#455a64"/>
        <path data-name="Caminho 363" d="m288.8 228.271-4.053-12.193 6.737-3.788 4.053 12.193z" transform="translate(-135.07 -115.975)" style="fill:#fff"/>
        <path data-name="Caminho 364" d="M283.574 222.854s.376-.294.552.758 1.175 4.763 2.937 5.956c0 0 .394.164.405-.188a8.3 8.3 0 0 1 .394-2.414c.352-.916 1.28-1.539 1.715-1.38s-.041 1.832 0 2.473.9 2.12.946 2.807-.07 1.175 0 1.5a26.308 26.308 0 0 0 2.05 2.426l-3.824 4.84s-2.484-3.3-3.125-3.953a8.463 8.463 0 0 1-2.079-3.1 34.308 34.308 0 0 1-.975-4.986c0-1.004-.012-4.422 1.004-4.739z" transform="translate(-134.17 -120.318)" style="fill:#ffa8a7"/>
        <path data-name="Caminho 365" d="m310.119 218.427 2.5-.347s1.979.112 1.509 6.044-6.373 21.978-7.847 23.928c-1.979 2.619-4.246 1.028-4.7.423a123.556 123.556 0 0 1-8.375-10.8s.7-4.387 4.07-4.887l3.912 4.041s1.21-4.528 2.479-9.4c1.166-4.368 2.341-8.074 6.452-9.002z" transform="translate(-138.561 -118.364)" style="fill:#37474f"/>
    </g>
</svg>
